<svg xmlns="http://www.w3.org/2000/svg" width="1574" height="1202" fill="none">
  <path fill="#000" fill-rule="evenodd" d="M489.535 11.275c-3.546 5.963-15.391 10.997-26.323 11.186-14.751.255-21.517 11.178-26.236 42.358-3.497 23.1-33.219 97.261-66.049 164.789-32.83 67.529-62.906 136.653-66.831 153.6l-7.141 30.825-146.158-1.35C49.319 411.742 3.469 415.023.823 423.418-10.145 458.172 150.238 572.34 233.64 589.153c30.195 6.089 32.836 10.529 40.141 67.557 15.282 119.366 49.049 183.781 138.708 264.648 60.707 54.743 131.592 85.582 232.021 100.942 54.486 8.33 150.226-14.12 173.44-40.681 10.229-11.691 25.087-21.38 33.025-21.517 7.939-.137 14.453-6.28 14.476-13.664.023-7.372 18.788-22.452 41.701-33.493 30.693-14.791 44.736-29.972 53.358-57.699 19.225-61.811 13.406-65.058-127.217-70.85-70.21-2.887-146.842-11.716-170.297-19.627-23.466-7.901-59.561-14.489-80.221-14.636-48.574-.353-95.694-25.766-140.794-75.939-44.312-49.316-34.986-62.387 35.844-50.261 29.135 4.992 99.16 5.338 155.613.769 56.441-4.559 168.631-9.737 249.298-11.495l146.674-3.198 30.94 35.093c17.02 19.291 51.88 61.753 77.45 94.363 42.68 54.378 46.63 64.611 47.75 123.721.67 35.433-2.84 79.63-7.82 98.206-4.99 18.565-11.74 80.228-15.01 137.008-5.68 98.44-4.96 103.22 15.35 102.87 21.14-.37 46.82-59.18 101.49-232.472 19.86-62.948 12.3-189.788-16.82-281.98-9.72-30.759-14.84-60.697-11.37-66.53 3.47-5.833 27.65-10.972 53.74-11.423 112.61-1.944 281.98-45.132 267.21-68.131-3.38-5.254-41.22-14.484-84.09-20.493-42.88-6.02-92.51-14.993-110.31-19.955-17.79-4.962-63.77-11.433-102.19-14.375-122.12-9.363-117.35-7.127-178.26-83.908-52-65.538-162.273-172.458-185.035-179.384-31.414-9.566-104.007-62.795-96.395-70.685 3.669-3.797-4.225-6.719-17.56-6.489-13.324.23-36.511-8.899-51.516-20.294-15.006-11.384-43.737-23.497-63.852-26.916-20.126-3.42-36.652-10.238-36.737-15.173C646.15 70.06 533.131-.208 513.016.14c-9.376.16-19.936 5.172-23.481 11.135Zm71.9 218.295c15.514 72.511 69.999 157.837 117.473 183.985 17.747 9.781 7.112 12.229-58.786 13.538-44.251.871-98.606-1.087-120.801-4.363-47.412-6.994-50.663-21.253-20.724-90.846 11.153-25.915 25.574-82.009 32.059-124.648 9.752-64.19 13.953-74.414 24.46-59.443 6.975 9.945 18.814 46.741 26.319 81.777Z" clip-rule="evenodd"/>
</svg>
