<svg xmlns="http://www.w3.org/2000/svg" width="895" height="2136" fill="none">
  <path fill="#F2F2F2" fill-rule="evenodd" d="M222.643.567c-.799.54-1.781.778-2.182.53-.907-.56-7.866 2.69-7.866 3.674 0 .841-8.656 11.861-13.75 17.508-1.238 1.37-2.25 2.82-2.25 3.22 0 .399-1.281 2.29-2.846 4.204-1.566 1.913-4.107 5.503-5.646 7.978-1.539 2.475-3.373 4.84-4.075 5.256-.702.416-1.566 2.072-1.919 3.68-.353 1.61-1.289 3.462-2.078 4.117-.79.655-1.436 1.776-1.436 2.491 0 .715-1.463 1.752-3.25 2.303-4.456 1.375-15.75 1.99-15.75.86 0-.508-.663-.667-1.474-.356-.81.31-1.823.022-2.25-.643-1.741-2.71-8.898-5.286-13.526-4.867-2.512.227-2.329 7.998.325 13.824 2.756 6.05 10.037 13.019 14.997 14.353 4.446 1.198 4.671 1.746 2.091 5.097-1.011 1.311-3.497 5.24-5.526 8.731-2.028 3.49-4.351 7.01-5.162 7.821-4.183 4.182 2.104 13.332 9.159 13.332 5.615 0 10.12-3.456 13.033-10 .857-1.925 1.845-3.725 2.195-4 .897-.703 5.138-9.84 5.138-11.069 0-.558.867-1.945 1.927-3.083 1.537-1.65 3.71-2.214 10.75-2.79 9.954-.814 11.323-.58 11.323 1.927 0 .974.675 3.386 1.5 5.361.825 1.975 1.5 4.796 1.5 6.269 0 7.169 18.262 25.385 25.45 25.385.853 0 1.55.371 1.55.823 0 1.238 10.933 3.021 15.5 2.528 5.203-.561 9.5-2.476 9.5-4.235 0-.767.739-1.936 1.641-2.596 2.43-1.776 1.029-7.396-3.156-12.661-1.906-2.397-3.47-4.74-3.475-5.205-.021-1.841-4.246-6.654-5.842-6.654-.933 0-2.815 1.819-4.182 4.04l-2.486 4.04-6.25-.198c-4.709-.149-7.112-.783-9.75-2.575-1.925-1.308-3.5-2.968-3.5-3.688 0-.722-.637-2.618-1.416-4.215-.779-1.597-1.566-4.84-1.75-7.209-.303-3.912-.06-4.45 2.666-5.9 5.554-2.956 6.465-3.294 8.864-3.294 1.315 0 2.951-.675 3.636-1.5s2.053-1.5 3.041-1.5c2.792 0 4.959-1.088 4.959-2.49 0-.703.895-1.511 1.988-1.797 1.093-.287 2.432-1.689 2.975-3.117.743-1.953 1.69-2.596 3.825-2.596 1.848 0 3.841-1.047 5.712-3 1.581-1.65 3.275-3 3.764-3 .489 0 2.24-1.35 3.89-3s3.679-3 4.508-3c.83 0 2.903-1.575 4.607-3.5 1.705-1.925 3.636-3.5 4.293-3.5s1.811-.903 2.566-2.006c1.343-1.963 1.479-1.93 6.469 1.575 3.044 2.138 6.791 3.807 9.301 4.144 4.013.538 4.419.339 9.006-4.42 8.594-8.915 11.096-7.674 11.096 5.505 0 4.36.507 10.352 1.126 13.316.62 2.962 1.213 6.317 1.319 7.457.106 1.14.949 3.153 1.874 4.474.924 1.32 1.688 3.087 1.696 3.927.008.84 1.81 5.104 4.004 9.477 2.403 4.79 3.756 8.686 3.402 9.8-.772 2.432 1.694 6.119 8.234 12.309 2.94 2.782 5.345 5.389 5.345 5.792 0 .752 1.17 2.327 4.25 5.721.962 1.06 1.75 2.192 1.75 2.514 0 .554 2.565 3.428 9.569 10.719 3.447 3.59 10.328 5.996 16.733 5.852 11.146-.249 24.986-5.153 26.611-9.429.498-1.308 2.003-3.098 3.346-3.978 2.154-1.411 3.686-3.981 6.708-11.25 2.004-4.821 2.954-8.419 3.83-14.5.818-5.684.877-8.288.328-14.388-.154-1.712-6.453-11.11-10.004-14.928-3.597-3.868-12.129-9.41-15.14-9.834-2.304-.325-2.552-.92-3.481-8.35-.958-7.664-2.217-11.24-5.107-14.5-9.365-10.564-17.866-16.17-29.393-19.38-8.491-2.365-22.787-3.825-30.22-3.089-3.695.367-10.097.746-14.226.844-4.353.105-8.022.694-8.731 1.402-.673.674-2.145 1.226-3.273 1.227-1.127.002-3.472.87-5.209 1.93-1.738 1.06-4.005 1.706-5.038 1.435-1.15-.3-2.979.53-4.714 2.137-2.464 2.282-2.772 3.178-2.358 6.855.437 3.872.279 4.244-1.885 4.423-1.3.108-5.171 1.07-8.604 2.14-3.433 1.07-7.817 2.25-9.742 2.623-1.925.373-8 2.149-13.5 3.946-11.186 3.654-17.192 4.816-18.015 3.483-.808-1.306 2.544-10.928 5.137-14.75 1.229-1.81 2.526-4.621 2.883-6.247.357-1.625 1.064-3.212 1.572-3.526.508-.313.923-1.803.923-3.311s.446-3.188.99-3.732c.545-.544 1.265-2.998 1.6-5.45.861-6.297-2.311-9.699-9.777-10.49-2.922-.31-5.967-.123-6.765.417Zm-9.528 29.35c-3.036 6.386-5.52 12.563-5.52 13.724 0 2.132-2.591 6.92-4.477 8.275-1.185.85-6.934 1.02-7.726.229-.711-.712 1.134-5.694 4.615-12.465 4.525-8.8 17.546-24.627 18.329-22.277.165.495-2.184 6.126-5.221 12.514Zm423.908 3.435c-1.362 1.47-2.71 3.833-2.995 5.25-1.342 6.663-2.411 7.476-12.032 9.15-4.965.864-9.899 1.912-10.965 2.33-2.237.876-16.281 2.645-21.436 2.7-1.925.02-4.674-.26-6.109-.622-1.952-.492-2.775-.223-3.272 1.072-1.361 3.547 4.777 10.066 13.881 14.743 6.543 3.36 13.43 4.01 24.591 2.316l5.59-.849.616 11.495c.608 11.34 1.225 13.742 5.976 23.243 2.143 4.287 10.468 13.5 12.199 13.5.576 0 1.572.841 2.214 1.869.643 1.029 2.213 2.117 3.491 2.419 1.278.301 4.123 1.204 6.323 2.006 2.944 1.073 5.659 1.254 10.281.687 7.689-.943 10.349-3.252 12.667-10.998.903-3.016 2.071-6.865 2.597-8.554 1.869-6.008.414-10.22-2.948-8.534-.878.44-6.107 1.379-11.62 2.084-9.973 1.278-10.049 1.271-15.095-1.285-2.789-1.413-5.794-3.673-6.678-5.022-2.392-3.651-4.029-14.813-3.246-22.129.752-7.017 1.497-7.695 10.042-9.136 2.2-.37 5.125-1.219 6.5-1.885 1.375-.666 4.75-1.76 7.5-2.433 2.75-.672 6.8-2.042 9-3.044 2.2-1 5.8-2.383 8-3.074 2.2-.69 7.667-2.99 12.15-5.113 4.482-2.121 8.757-3.871 9.5-3.89 1.832-.043 4.85-2.425 4.85-3.828 0-.627-1.237-1.117-2.75-1.09-3.442.06-21.552 2.295-34.75 4.286-5.5.828-13.788 1.656-18.417 1.837l-8.417.328-1.402-6.25c-.771-3.438-1.843-6.25-2.381-6.25-.538 0-2.093 1.201-3.455 2.671Zm-304.428 4.079c0 .413 1.012.796 2.25.852 1.238.056 6.416.867 11.509 1.804 5.092.936 11.751 1.828 14.797 1.981 3.574.18 6.14.88 7.235 1.974 1.594 1.596 1.546 1.978-.806 6.417-2.664 5.025-4.694 5.642-8.214 2.494-1.576-1.409-1.904-1.334-3.692.841-1.079 1.313-2.551 3.498-3.271 4.857-.719 1.357-2.096 3.27-3.058 4.25-.962.978-1.75 2.58-1.75 3.556 0 .979-.608 2.667-1.352 3.75-1.829 2.672-2.71 11.264-1.641 16.005.987 4.376 4.289 7.434 7.993 7.403 3.361-.03 11.386-2.197 13.11-3.541.765-.596 2.152-1.353 3.083-1.684.931-.332 3.406-2.892 5.5-5.69l3.807-5.087 8 .468c8.063.47 17.583 3.349 18.312 5.535 1.198 3.596-7.655 14.517-12.75 15.73-1.409.335-3.194 1.11-3.966 1.722-.892.706-6.738 1.097-16 1.072l-14.596-.041-6.23-3.428c-5.732-3.157-6.512-4.008-9.75-10.649-1.936-3.97-3.52-7.898-3.52-8.732 0-.832-.711-4.122-1.579-7.31a570.775 570.775 0 0 1-2.931-11.3c-.743-3.024-2.957-9.252-4.92-13.838-1.964-4.587-3.57-8.748-3.57-9.25 0-.502 1.8-.911 4-.911s4 .337 4 .75Zm124.108 5.62c-.625.752-3.155 2.14-5.622 3.081-3.987 1.524-6.031 3.549-3.58 3.549.499 0 .671.9.384 2-.288 1.1-.87 2-1.295 2-1.035 0-9.995 8.876-9.995 9.902 0 .444-1.238 1.886-2.75 3.203-2.976 2.591-3.945 3.977-7.674 10.98-4.554 8.548-6.576 15.9-6.57 23.879.009 13.082 2.933 19.411 12.361 26.761 5.191 4.047 8.724 5.603 18.633 8.21 6.479 1.704 24.107.716 31-1.739 25.833-9.197 31.588-17.578 27.388-39.882-1.972-10.466-5.91-18.477-10.449-21.25-1.408-.86-4.759-3.026-7.445-4.815-2.687-1.788-5.36-3.306-5.94-3.378-.58-.07-1.954-.249-3.054-.398-6.491-.876-10.653-.522-15.889 1.359-3.239 1.162-6.276 1.874-6.75 1.581-1.549-.956-.905-4.063 1.245-6.008 5.554-5.023 7.601-14.698 3.894-18.405-2.307-2.307-6.239-2.622-7.892-.63Zm81.192 10.88c-.646 1.238-2.087 4.163-3.202 6.5-1.115 2.337-2.493 4.25-3.062 4.25-.57 0-1.036.906-1.036 2.014 0 1.107-.435 2.795-.968 3.75-2.027 3.637-4.031 14.7-3.997 22.067.071 15.442 4.201 26.269 13.577 35.587 5.672 5.638 5.841 5.775 12.829 10.363 5.762 3.783 10.328 5.177 18.301 5.588 11.972.616 21.918-4.682 27.208-14.494 2.96-5.489 3.009-5.801 2.026-13-1.145-8.386-2.931-15.3-4.831-18.703-.714-1.281-1.045-2.991-.733-3.802.311-.811.187-1.24-.275-.956-.462.287-1.351-1.186-1.976-3.27-1.624-5.424-9.687-12.145-14.567-12.145-1.362 0-2.754-.45-3.094-1-.34-.55-2.555-1-4.922-1-3.257 0-5.203-.715-8.007-2.943-2.125-1.688-4.353-2.694-5.229-2.358-2.69 1.032-.73 8.972 4.254 17.233 3.666 6.077 4.499 8.356 4.571 12.499.142 8.207-1.282 12.871-4.177 13.677-8.373 2.33-16.604-1.187-19.455-8.313-3.35-8.371-1.409-37.794 2.493-37.794.535 0 .972-1.087.972-2.418 0-1.329.492-2.58 1.093-2.78 1.958-.652 1.51-7.889-.583-9.418-2.804-2.051-5.881-1.681-7.21.866Zm-82.828 21.451c.539 2.871 2.582 5.58 9.111 12.08 9.639 9.596 10.434 12.07 4.826 15.019-7.615 4.005-19.808 6.036-26.909 4.483-3.709-.811-4.004-1.126-4.057-4.329-.104-6.235 7.063-22.468 12.263-27.776.712-.727 1.294-1.74 1.294-2.25s.625-.928 1.389-.928c.809 0 1.678 1.543 2.083 3.701ZM253.248 201.741c-2.995 1.624-3.73 2.538-3.316 4.12.604 2.31-5.887 12.512-9.274 14.577-1.135.693-2.084 1.818-2.109 2.5-.026.683-1.805 2.592-3.954 4.242s-3.928 3.403-3.954 3.896c-.025.493-2.071 3.061-4.546 5.707s-4.5 5.184-4.5 5.639c0 3.027-16.015 7.13-28.191 7.223-2.58.019-4.969.485-5.309 1.035-.888 1.436-9.327 1.152-13.869-.467-2.128-.758-4.49-1.141-5.25-.849-.759.291-1.382.144-1.383-.327-.001-.471-1.351-.951-3-1.067-4.016-.281-3.863 1.417.666 7.383 3.878 5.108 5.725 6.939 11.284 11.19 5.869 4.489 7.943 6.701 7.234 7.716-.375.538-4.1 3.525-8.278 6.639-4.177 3.115-8.324 6.776-9.216 8.136-.891 1.359-2.985 2.772-4.654 3.139-1.669.366-3.034 1.08-3.034 1.586 0 .507-.81.921-1.8.921-4.537 0-5.454 4.842-1.913 10.102 5.141 7.637 18.654 9.603 26.15 3.805 4.786-3.702 24.16-20.284 28.563-24.448 4.476-4.233 6.466-5.382 10.692-6.175 2.856-.535 5.562-.705 6.013-.378.451.327 1.886 5.994 3.189 12.594 2.578 13.064 5.916 20.813 11.426 26.526 5.421 5.62 10.775 9.985 14.603 11.906 10.689 5.362 27.401 8.711 34.842 6.983 2.054-.477 4.969-.878 6.477-.891 1.509-.013 3.844-.981 5.19-2.151 1.345-1.171 3.486-2.645 4.757-3.278 1.271-.632 3.161-2.936 4.199-5.121 3.083-6.486 3.778-24.852 1.072-28.283-.877-1.111-7.722 3.3-11.131 7.172-2.348 2.668-4.948 4.637-6.122 4.637-1.122 0-2.198.474-2.391 1.053-.891 2.673-21.648 5.31-29.287 3.721-6.842-1.424-12.543-4.021-15.613-7.112-3.64-3.667-5.515-14.029-4.313-23.841l.897-7.321 6-.718c19.942-2.387 44.05-6.943 50.541-9.552 1.398-.562 3.14-1.744 3.873-2.626.732-.882 2.337-1.604 3.567-1.604 2.329 0 14.519-10.648 14.519-12.682 0-2.106 2.98-2.229 7.229-.3 2.349 1.066 5.959 1.948 8.021 1.96 3.29.019 3.75.318 3.75 2.432 0 7.353 11.302 34.2 17.25 40.974.962 1.096 1.756 2.471 1.763 3.056.007.583 2.257 4.412 5 8.508 5.405 8.073 5.918 9.451 3.237 8.691-.963-.272-6.458-1.685-12.211-3.139-5.754-1.454-10.816-2.861-11.25-3.131-1.499-.925-.781 2.585 1.401 6.85 1.204 2.355 3.504 5.631 5.111 7.281 1.607 1.65 3.746 4.8 4.753 7 2.24 4.889 7.779 10.851 12.177 13.104 1.798.921 3.511 2.048 3.808 2.502.823 1.266 13.674 6.894 15.739 6.894 1.002 0 2.284.462 2.849 1.027 1.428 1.428 17.946 1.44 23.22.017 4.719-1.273 14.543-6.261 17.49-8.879 1.826-1.623 7.663-9.817 7.663-10.758 0-.271 1.764-2.836 3.92-5.7 2.157-2.864 5.588-8.357 7.625-12.207 2.037-3.85 4.485-7.992 5.439-9.206 1.704-2.168 1.746-2.091 2.349 4.373.358 3.826 1.463 8.016 2.641 10.013 1.114 1.889 2.026 4.076 2.026 4.86 0 2.05 10.698 12.46 12.804 12.46.489 0 2.284.696 3.99 1.547 10.581 5.279 38.742 4.022 50.706-2.263 6.64-3.489 15.281-8.616 20.203-11.987 5.26-3.604 8.281-8.252 9.738-14.982 1.052-4.861-3.789-18.16-8.564-23.523-2.101-2.361-3.833-4.635-3.849-5.054-.015-.419-2.968-3.85-6.561-7.626-6.507-6.836-10.504-9.124-18.394-10.525-1.885-.334-6.424-1.5-10.087-2.591-5.096-1.518-6.927-2.572-7.801-4.49-1.296-2.845-4.515-3.319-6.828-1.006-.825.825-2.484 1.5-3.688 1.5-1.203 0-2.691.788-3.306 1.75-.615.962-2.861 2.647-4.991 3.743-4.788 2.464-18.169 15.173-18.91 17.96-.804 3.022-5.867 13.456-6.553 13.505-.325.023-1.164-2.521-1.865-5.653-1.082-4.833-2.129-6.541-6.909-11.268-5.619-5.557-9.344-7.244-23.394-10.6-3.8-.907-4.234-1.913-4.292-9.967-.045-6.243-.413-7.557-3.277-11.721-5.047-7.335-13.857-12.903-25.672-16.223-3.3-.927-7.194-2.137-8.654-2.687-1.459-.551-5.284-1.19-8.5-1.42-3.215-.23-8.096-.842-10.846-1.359-2.75-.518-10.097-.968-16.327-1-10.896-.058-11.652.08-19.902 3.624-7.729 3.321-8.724 4.06-10.068 7.482-1.25 3.183-2.076 3.896-5.098 4.404-1.983.333-4.955 1.189-6.605 1.901-5.973 2.578-21.768 5.113-38.5 6.179-15.014.956-15.23.897-12.233-3.342 1.664-2.354 2.346-4.237 3.734-10.308.063-.275 2.172-4.775 4.686-10 6.262-13.014 6.322-13.297 3.5-16.577-3.276-3.809-12.269-4.488-18.034-1.362Zm119.347 39.313c10.883 3.112 20.529 4.737 23.641 3.983 1.177-.286 2.441-.033 2.809.562.367.595 2.16 1.081 3.984 1.081 4.814 0 9.566 1.101 9.566 2.215 0 2.362-5.725 8.858-8.5 9.644-2.553.723-3.312.474-5.09-1.673-2.269-2.738-5.41-2.503-5.41.406 0 .91-1.992 4.445-4.426 7.857-5.236 7.337-6.558 11.552-5.342 17.036 1.393 6.282 3.097 7.515 10.393 7.515 6.57 0 10.058-1.368 17.016-6.675 2.769-2.112 4.483-2.545 10.582-2.673 9.696-.203 23.641.966 27.066 2.268 4.211 1.601 4.279 3.551.313 9.07-1.981 2.758-3.602 5.246-3.602 5.529 0 .983-9.52 9.719-13.062 11.989-5.943 3.804-16.461 5.907-38.938 7.783-2.006.168-2.484-.234-2.421-2.036.043-1.235-.12-2.048-.362-1.805-.554.554-8.217-10.837-8.217-12.212 0-.556-1.498-1.721-3.329-2.59-3.464-1.644-8.021-8.972-10.664-17.148-3.184-9.853-15.532-32.834-19.073-35.5-.366-.275-.991-1.546-1.39-2.823-1.82-5.828 7.879-6.543 24.456-1.803Zm288.365 4.376c-1.026 1.513-2.363 4.1-2.972 5.75-1.093 2.962-1.196 2.998-8.118 2.871-4.462-.082-9.116-.916-12.799-2.294-8.046-3.011-9.565-.853-4.17 5.923 1.581 1.986 10.566 9.477 17.501 14.591 1.276.941 1.303 2.025.202 7.862-1.523 8.071-.848 21.111 1.427 27.563 2.732 7.749 9.453 15.239 16.893 18.827 3.6 1.736 7.193 3.157 7.986 3.157.792 0 3.159.718 5.259 1.595 3.233 1.351 4.44 1.405 7.872.342 2.23-.689 5.012-1.831 6.182-2.538 2.847-1.72 9.354-15.258 9.642-20.063l.23-3.836-7.49.367c-4.12.2-8.395.699-9.5 1.107-3.413 1.26-13.922-1.536-18.651-4.961-2.398-1.736-4.699-3.763-5.114-4.505-1.22-2.179-2.176-19.508-1.076-19.508.532 0 3.187.634 5.899 1.409 12.801 3.653 34.832 4.544 46.432 1.877 6.443-1.48 15.192-5.093 15.833-6.536.184-.413.893-.75 1.576-.75s2.263-1.086 3.512-2.414c1.248-1.33 3.419-2.705 4.825-3.058 1.405-.353 3.43-1.754 4.499-3.113 1.069-1.359 3.589-3.349 5.6-4.423 2.01-1.074 5.005-3.093 6.655-4.486 2.521-2.129 2.761-2.694 1.5-3.539-2.244-1.503-24.921-.935-28.229.708-1.501.745-5.101 1.544-8 1.775-12.583 1.004-42.934 1.486-50.271.799l-8-.749-.298-6.25c-.335-7.028-1.75-8.052-4.837-3.5Zm-67.012 12c-.957 2.063-3.816 7.125-6.352 11.25-8.215 13.36-10.005 17.596-11.116 26.297-1.433 11.229.197 17.97 7.704 31.87 1.478 2.735 8.601 8.328 14.479 11.368 2.252 1.165 5.716 1.715 10.869 1.726 10.149.022 14.86-1.014 16.226-3.566.613-1.145 2.221-3.232 3.574-4.638 2.663-2.767 5.301-8.138 5.663-11.525.124-1.164.601-2.724 1.059-3.466.459-.743 1.052-5.499 1.317-10.569.603-11.53-.361-12.495-6.167-6.171-2.306 2.511-6.198 5.441-8.651 6.511-2.452 1.069-5.425 2.869-6.608 3.999-4.707 4.5-13.847 4.4-21.185-.232-4.645-2.932-5.849-6.38-3.686-10.563.836-1.618 1.521-3.653 1.521-4.523 0-.869.663-1.835 1.473-2.146.81-.311 1.76-2.096 2.111-3.969.351-1.871.987-3.403 1.414-3.403.426 0 1.016-1.237 1.309-2.75 1.004-5.165 1.302-6.192 1.997-6.888.855-.854.93-18.588.089-20.78-.334-.87-1.663-1.582-2.953-1.582-1.735 0-2.8.977-4.087 3.75Zm-77.6 9.363c3.439 1.588 6.476 2.887 6.75 2.887.687 0 4.497 3.869 4.497 4.567 0 .589 5.033 7.556 6.092 8.433.333.275.886 4.248 1.231 8.829l.627 8.33-3.204 2.925c-1.761 1.61-4.113 3.202-5.224 3.539-1.112.338-2.697 1.182-3.522 1.877-.825.695-5.1 2.553-9.5 4.127-7.181 2.571-9.28 2.864-20.5 2.868-11.936.005-12.737-.126-17.75-2.904-6.018-3.334-6.25-4.235-3.413-13.252 3.438-10.923 11.064-20.624 20.163-25.649 6.67-3.684 12-8.014 12-9.75 0-1.395 4.476-.187 11.753 3.173ZM226.802 386.074c-2.314 2.469-4.207 4.793-4.207 5.166 0 .372-1.375 2.31-3.055 4.308-9.186 10.919-12.944 15.786-12.953 16.776-.005.471-2.009 2.881-4.455 5.356-2.445 2.475-4.467 5.024-4.492 5.664-.025.641-1.732 2.961-3.795 5.156-3.635 3.869-4.078 4.04-14.437 5.586-13.116 1.957-22.567 2.033-27.543.222-9.657-3.515-19.927-4.963-20.711-2.921-.568 1.479 1.248 6.092 3.203 8.138.706.739 2.015 2.764 2.909 4.5.893 1.735 2.413 4.055 3.378 5.155 10.137 11.557 13.71 14.5 17.605 14.5 2.493 0 1.375 1.683-4.389 6.604-8.781 7.496-18.674 16.646-19.565 18.095-.44.716-1.269 1.301-1.842 1.301-1.578 0-5.881 3.644-5.157 4.367.348.348-.118.633-1.034.633-.917 0-1.667.343-1.667.763 0 .419-1.012 1.207-2.25 1.75-1.238.543-2.388 1.958-2.557 3.143-.265 1.862.413 2.308 4.993 3.29 5.508 1.182 15.814.49 15.814-1.061 0-.487.787-.918 1.75-.958.963-.04 2.91-.828 4.328-1.75 8.555-5.566 22.274-16.161 25.422-19.635 1.1-1.214 3.709-3.477 5.797-5.029 2.088-1.552 6.176-5.163 9.084-8.025 3.843-3.782 6.356-5.397 9.203-5.914 2.154-.391 4.993-.97 6.31-1.287 2.207-.531 2.342-.349 1.723 2.318-.369 1.592-.826 4.47-1.016 6.395-.19 1.925-.947 5.975-1.682 9-1.461 6.014-1.888 30.256-.68 38.615.407 2.813 1.417 6.413 2.244 8 .828 1.587 1.507 3.2 1.511 3.585.013 1.443 6.191 9.796 8.516 11.514 1.329.982 4.429 3.278 6.887 5.102 3.439 2.551 6.043 3.535 11.287 4.262 3.749.52 8.041 1.362 9.538 1.872 1.679.571 3.976.567 5.993-.012 1.8-.516 4.766-.938 6.591-.938 8.352 0 22.756-10.266 26.711-19.039.983-2.177 2.393-3.961 3.135-3.961.741 0 1.348-.675 1.348-1.5s.466-1.5 1.036-1.5c1.355 0 5.189-8.971 4.548-10.643-.516-1.343-1.983-.899-12.084 3.653-2.2.992-6.475 2.897-9.5 4.235-3.025 1.337-6.118 3.179-6.872 4.093-.755.914-1.98 1.662-2.722 1.662s-3.949 1.161-7.127 2.58c-5.288 2.36-6.714 2.551-16.779 2.244-17.643-.537-18.949-2.486-18.98-28.324-.02-15.71 2.088-31.433 4.55-33.95.512-.523.93-1.841.93-2.929 0-2.546 2.218-8.926 3.398-9.775.5-.359 3.428-.961 6.506-1.338 3.078-.378 6.946-1.252 8.596-1.943 6.117-2.564 10.262-3.565 14.762-3.565 2.541 0 4.898-.45 5.238-1 .34-.55 1.723-1 3.073-1 1.35 0 3.236-.397 4.191-.883 2.935-1.492 12.714-5.117 13.803-5.117.566 0 2.583-1.561 4.481-3.468 1.899-1.908 4.058-3.483 4.798-3.5.74-.018 2.54-.858 4-1.868 3.966-2.746 6.154-3.343 6.154-1.68 0 2.82 2.36 6.516 4.161 6.516 1.011 0 1.839-.391 1.839-.87 0-.478 2.076-1.104 4.614-1.39 2.542-.287 5.798-1.473 7.25-2.644 4.104-3.307 7.06-4.572 8.148-3.484.526.526 1.396 3.641 1.933 6.922.536 3.282 1.396 7.991 1.91 10.466.515 2.475 1.458 7.2 2.098 10.5 2.301 11.879 8.759 31.195 15.125 45.239 1.057 2.332 1.922 4.643 1.922 5.136 0 .493.672 2.185 1.494 3.761 1.359 2.607 2.035 6.364 1.143 6.364-.199 0-4.087-.927-8.64-2.06-4.552-1.133-8.657-1.68-9.121-1.216-1.035 1.035 2.774 6.503 9.807 14.08 2.908 3.133 5.294 6.005 5.302 6.382.022.983 8.177 9.814 9.063 9.814.407 0 2.251 1.423 4.096 3.162 8.109 7.642 18.674 12.852 28.856 14.231 5.394.732 20.01-.799 20.882-2.185.34-.541 2.193-1.644 4.118-2.453 6.444-2.706 14.105-10.789 17.066-18.004.621-1.512 1.535-2.498 2.031-2.191.497.307.903-.594.903-2 0-1.407.406-2.56.902-2.56s1.39-1.237 1.986-2.75c.596-1.513 1.487-3.425 1.982-4.25 3.634-6.067 7.299-20.233 7.049-27.252-.289-8.142-3.118-13.691-10.589-20.776-7.289-6.912-11.003-9.474-14.83-10.232-6.791-1.345-8.365-2.475-8.982-6.445-1.509-9.718-2.592-14.728-3.294-15.238-.421-.306-1.327-1.836-2.015-3.4-1.694-3.851-11.783-15.015-16.709-18.488-2.2-1.552-6.7-3.842-10-5.091-3.3-1.25-6.9-2.663-8-3.14-5.687-2.463-45.878-3.361-50.13-1.119-1.028.542-3.895 1.561-6.37 2.264-2.475.702-4.95 1.589-5.5 1.969-.55.381-4.6.992-9 1.359-15.34 1.279-22.529 2.368-24.074 3.65-.855.71-4.114 1.668-7.241 2.127-9.952 1.464-33.657 3.637-34.435 3.156-1.302-.803-.752-4.7 1.25-8.844 1.063-2.2 1.947-4.922 1.966-6.05.019-1.127.597-2.612 1.284-3.299.869-.87 1.205-4.628 1.103-12.326-.178-13.329-1.527-16.135-7.996-16.622-3.545-.268-4.367.155-8.15 4.191Zm-4.871 27.356c.25.413-.174 1.33-.941 2.039-1.159 1.072-1.395.945-1.395-.75 0-1.992 1.432-2.782 2.336-1.289Zm129.664 16.433c3.025.569 9.775 2.16 15 3.538 5.225 1.378 11.3 2.919 13.5 3.427 2.2.507 5.418 1.581 7.151 2.387 1.733.806 3.758 1.479 4.5 1.497 2.828.066 4.849 2.693 4.849 6.302 0 2.952-.828 4.441-4.526 8.14-4.844 4.844-7.649 5.582-10.704 2.818-2.316-2.096-4.604-.964-6.682 3.307-.776 1.595-1.782 3.576-2.235 4.401-5.526 10.058-6.865 16.642-4.524 22.246 1.881 4.501 6.608 6.255 14.609 5.418 8.963-.937 15.388-4.223 22.502-11.507l2.288-2.342 11.886 3.001c6.537 1.652 13.621 3.744 15.741 4.651 3.827 1.636 3.85 1.679 3.192 6.068-.365 2.431-1.846 6.569-3.292 9.194-2.874 5.217-12.942 17.271-14.425 17.271-.51 0-2.781.897-5.048 1.992-3.107 1.5-7.998 2.28-19.869 3.168-18.121 1.355-19.068 1.092-22.893-6.358-1.215-2.366-3.982-7.437-6.15-11.268-2.167-3.831-4.205-8.106-4.529-9.5-.323-1.394-1.451-5.161-2.505-8.372-1.054-3.211-2.598-9.286-3.43-13.5-.832-4.214-1.904-8.562-2.383-9.662-.479-1.1-1.873-6.05-3.098-11-1.224-4.95-3.058-10.073-4.075-11.385-1.018-1.312-1.85-2.846-1.85-3.409 0-.563-1.776-3.377-3.947-6.252-2.17-2.875-3.676-5.497-3.346-5.828.639-.638 5.317-.128 14.293 1.557Zm150.458 16.921c-3.277 1.652-6.386 3.428-6.908 3.949-.522.521-2.21.947-3.75.947-2.997 0-3.515.885-1.624 2.776.9.9-.21 2.438-4.75 6.576-5.611 5.114-10.426 12.154-10.426 15.243 0 .773-.417 1.405-.927 1.405-1.107 0-5.657 9.68-7.521 16-2.753 9.338-3.638 14.856-3.616 22.56.06 21.351 11.923 36.924 33.064 43.408 2.475.759 4.927 1.753 5.45 2.206 1.282 1.115 18.289 1.058 18.982-.064.302-.489 2.016-1.142 3.809-1.451 8.259-1.428 10.02-2.073 12.554-4.607 1.491-1.492 3.864-3 5.275-3.354 3.372-.847 10.071-7.688 12.716-12.985 3.65-7.312 4.578-24.174 1.642-29.851-.83-1.607-1.237-3.361-.905-3.9.544-.88-.873-8.424-3.656-19.462-1.529-6.064-5.845-14.601-9.288-18.372-1.694-1.855-5.104-4.33-7.579-5.5-2.475-1.171-5.973-3.179-7.774-4.463-2.261-1.613-5.353-2.543-10-3.009l-6.726-.675.254-4.114c.383-6.206-1.213-6.835-8.296-3.263Zm200.537 15.93c-.712 4.968-1.677 9.27-2.145 9.559-.467.289-.85 1.571-.85 2.849 0 3.093-1.978 3.529-16.128 3.545-8.1.01-12.717-.442-15.218-1.487-8.933-3.733-9.95-.576-2.967 9.211 4.97 6.964 9.227 9.705 18.313 11.792 5.192 1.193 5.247 1.456 3.03 14.497-2.753 16.193.435 28.815 9.769 38.68 7.551 7.981 12.443 10.748 19.068 10.787 5.92.035 6.862-.45 13.837-7.117 2.492-2.382 3.296-3.998 3.296-6.628 0-1.912.617-3.989 1.37-4.614 1.247-1.035 1.69-2.746 3.323-12.848.677-4.19-.968-4.836-7.321-2.878-19.27 5.941-19.209 5.928-22.293 4.652-1.634-.678-3.127-1.974-3.319-2.883-.291-1.38 1.364-11.335 3.891-23.401l.576-2.75h14.806c14.85 0 23.486-1.313 29.64-4.505 1.476-.766 3.006-1.193 3.401-.95.394.244.974-.229 1.29-1.051.315-.821 1.112-1.494 1.771-1.494.658 0 1.91-.673 2.781-1.498 6.118-5.785 9.186-8.502 9.6-8.502 1.534 0 10.484-7.443 10.484-8.719 0-1.336-2.21-1.47-17.25-1.046-10.753.304-18.38.971-20.25 1.771-3.571 1.527-30.201 1.487-32.051-.048-.65-.54-1.405-4.014-1.677-7.72-.521-7.087-4.036-16.238-6.237-16.238-.806 0-1.702 3.187-2.54 9.034Zm-101.913-1.666c-1.145 1.852-2.082 3.89-2.082 4.525 0 2.61-4.103 12.585-5.498 13.366-.826.462-1.502 1.916-1.502 3.233 0 1.315-.398 2.637-.885 2.937-.486.3-1.119 1.79-1.405 3.309-.286 1.519-1.283 4.787-2.215 7.262-2.181 5.791-2.522 8.145-3.15 21.787-.456 9.923-.236 12.2 1.818 18.822 2.877 9.276 9.218 17.539 18.077 23.555 5.69 3.864 6.792 4.226 14.09 4.649 6.758.391 9.143.051 16.294-2.325 4.607-1.531 8.376-3.134 8.376-3.566 0-.43 2.136-1.826 4.748-3.102 2.611-1.276 5.648-3.118 6.75-4.093 1.101-.976 3.105-2.605 4.454-3.623 1.861-1.404 2.427-2.722 2.349-5.477-.057-1.995.209-3.627.591-3.627.381 0 1.241-2.049 1.911-4.554 1.286-4.807.093-16.932-1.859-18.896-.519-.522-.944-3.301-.944-6.174 0-6.119-1.953-15.573-3.424-16.574-1.253-.853-4.576 2.528-4.576 4.656 0 .848-.441 1.542-.98 1.542-.538 0-1.949 1.913-3.134 4.25-1.185 2.337-2.432 4.475-2.77 4.75-.994.807-7.116 10-7.116 10.685 0 1.476-5.229 7.315-6.551 7.315-.797 0-1.453.337-1.458.75-.016 1.47-12.595 4.651-18.585 4.7-8.541.071-9.81-1.179-9.063-8.921.32-3.316.792-7.154 1.048-8.529 3.309-17.737 4.377-51.169 1.737-54.348-1.949-2.345-2.693-2.093-5.046 1.716Zm-92.832 5.148c5.093 2.847 13.519 10.576 16.143 14.808 1.931 3.116 2.353 4.552 3.75 12.781 1.873 11.034-4.467 31.895-9.694 31.895-.797 0-1.449.396-1.449.88 0 .982-5.17 3.349-6.588 3.013-.501-.119-2.262.357-3.912 1.056-4.268 1.81-12.686 1.341-18.78-1.047-2.871-1.125-5.625-2.44-6.12-2.923-1.413-1.38-.906-15.143.72-19.524.807-2.174 2.233-6.655 3.168-9.955.936-3.3 4.359-11.326 7.607-17.835 3.248-6.51 5.905-12.435 5.905-13.167 0-1.313 1.426-2.265 3.624-2.419.618-.043 3.15 1.053 5.626 2.437Zm-306.25 152.731-7.5.979-8.036 8.137c-8.311 8.415-13.464 14.743-13.464 16.535 0 .568-.787 1.46-1.75 1.982-.963.521-2.587 2.674-3.61 4.784-1.023 2.11-2.259 4.511-2.746 5.336-.488.825-1.873 3.638-3.078 6.25l-2.191 4.75h-6.878c-3.783 0-7.861.56-9.063 1.244-1.497.854-6.586 1.195-16.184 1.084-11.868-.138-15.218-.544-22-2.673-10.618-3.333-14.516-3.712-14.481-1.405.01.688 1.473 3.457 3.25 6.153 1.777 2.697 3.684 5.657 4.237 6.578.554.921 1.679 2.372 2.5 3.224.822.853 2.169 2.541 2.994 3.752 1.548 2.271 9.672 8.624 13.743 10.747 1.27.662 4.864 1.677 7.987 2.254 7.148 1.321 8.296 2.42 4.351 4.167-1.695.75-3.081 1.882-3.081 2.515 0 .633-1.013 2.091-2.25 3.241-4.108 3.818-8.241 7.118-8.918 7.119-.368 0-2.491 1.688-4.719 3.75-8.926 8.265-12.41 10.239-18.113 10.26-5.274.021-9 .877-9 2.069 0 .465.97 3.442 2.159 6.616 2.314 6.184 10.637 15.305 13.966 15.305.966 0 2.035.45 2.375 1 .852 1.38 11.14 1.261 13.816-.159 1.201-.637 2.743-1.944 3.425-2.905.683-.962 3.27-2.731 5.75-3.931 2.48-1.201 4.509-2.583 4.509-3.073 0-.49 1.912-1.861 4.25-3.048 8.667-4.401 33.75-27.136 33.75-30.59 0-.466 1.76-3.19 3.91-6.052 2.151-2.862 4.078-5.706 4.283-6.32.205-.615 2.443-1.352 4.974-1.636l4.601-.52.741 10.359c.586 8.183 1.463 12.252 4.174 19.367 7.438 19.521 16.035 28.563 33.317 35.04 5.758 2.158 22.379 2.821 25.961 1.036 1.396-.697 5.393-1.854 8.88-2.573 3.488-.719 6.563-1.883 6.834-2.589.271-.706 1.838-1.579 3.483-1.941 3.414-.75 9.842-5.996 9.842-8.033 0-.749.836-1.808 1.859-2.355 3.006-1.609 4.595-9.434 4.445-21.885-.095-7.87-.566-11.953-1.548-13.432-1.392-2.096-1.537-2.037-10.084 4.173-4.77 3.465-8.672 6.845-8.672 7.509 0 1.219-4.098 5.558-5.248 5.558-.341 0-2.787 1.325-5.436 2.945-9.192 5.622-27.806 8.129-36.814 4.958-4.042-1.423-8.413-5.372-8.47-7.653-.018-.687-.482-1.25-1.032-1.25s-1-1.605-1-3.566c0-1.961-.495-4.491-1.101-5.622-1.507-2.817-1.568-20.543-.075-22.036 1.545-1.545 16.701-4.574 26.631-5.323 4.375-.331 8.749-1.026 9.72-1.547.971-.518 4.068-1.138 6.882-1.375 2.814-.236 5.67-.89 6.348-1.452.677-.562 3.451-1.506 6.163-2.1 5.288-1.156 7.287-2.373 9.039-5.501.609-1.087 2.397-2.205 3.973-2.483 1.697-.299 3.353-1.482 4.06-2.901.677-1.356 2.851-2.964 5.015-3.708 2.102-.723 3.991-1.824 4.199-2.447.793-2.38 6.264-7.745 9.093-8.917 1.625-.673 3.663-2.304 4.527-3.623.865-1.32 2.185-2.399 2.934-2.399 1.555 0 5.06-4.866 4.156-5.77-1.046-1.045-23.971 2.37-27.078 4.033-6.4 3.427-9.512 4.598-15.141 5.699-3.215.628-6.745 1.54-7.845 2.027-4.392 1.943-34.886 6.342-37.721 5.442-1.916-.608-2.478-4.881-.779-5.931.55-.34 1-2.523 1-4.852 0-3.466 3.271-16.977 5.543-22.9.698-1.819-5.241-8.303-8.868-9.682-3.191-1.213-5.173-1.189-15.675.181Zm146.353 20.991c-.259.419-3.546.762-7.305.762-5.152 0-6.976.369-7.41 1.5-.316.825-1.127 1.5-1.802 1.5s-2.489 1.209-4.031 2.687c-3.359 3.219-3.6 6.716-.944 13.709 3.209 8.45 11.494 14.736 17.45 13.241 3.638-.913 4.446.467 5.48 9.363.543 4.675 1.224 9.401 1.514 10.5.289 1.1 1.061 4.25 1.716 7 3.244 13.625 8.558 29.396 12.053 35.773 1.38 2.519-.56 2.994-7.652 1.873-10.207-1.612-10.02.139 1.174 11.009 10.906 10.587 11.687 11.408 16.033 16.845 16.527 20.677 37.482 22.992 59.249 6.541.758-.572 3.971-3.629 7.14-6.791 3.17-3.162 6.206-5.75 6.747-5.75.542 0 1.275-1.451 1.63-3.225s1.6-5.199 2.766-7.608c4.442-9.175 3.221-24.224-2.613-32.23-1.378-1.89-3.074-4.562-3.77-5.937-.696-1.375-3.874-4.974-7.062-8l-5.797-5.5 2.016-6c2.98-8.869 2.677-13.18-1.49-21.177-4.444-8.531-6.997-11.201-16.59-17.355-8.728-5.599-18.129-9.403-28.318-11.458-7.56-1.525-39.405-2.533-40.184-1.272Zm-150.438 9.067c-1.259 3.407-2.613 6.421-3.009 6.697-.396.276-1.12 2.045-1.609 3.933-.489 1.885-1.373 3.591-1.966 3.789-1.679.56-2.417-3.962-.928-5.687.729-.845 1.58-3.199 1.89-5.23.309-2.031 1.608-5.181 2.885-7 4.899-6.977 6.058-5.495 2.737 3.498Zm659.76 1.857c-1.685.943-66.525 3.14-68.995 2.338-.649-.21-15.45-.597-32.89-.857-17.441-.261-32.185-.769-32.765-1.127-.975-.603-18.24 1.261-32.64 3.523-10.187 1.601-14.663 1.224-19.842-1.671-4.226-2.362-4.865-2.475-6.238-1.1-1.374 1.372-1.186 2.23 1.829 8.38 3.8 7.753 10.219 14.766 15.553 16.995 4.536 1.895 10.497 1.16 22.781-2.809 7.36-2.377 11.439-3.022 22.032-3.485 14.989-.654 19.058.23 17.965 3.902-.368 1.237-1.298 3.557-2.067 5.154-.769 1.597-1.401 3.847-1.405 5-.003 1.153-.9 3.445-1.993 5.095-1.093 1.651-1.991 3.901-1.997 5-.006 1.1-.856 3.388-1.89 5.083-1.033 1.695-2.213 5.51-2.621 8.479-.409 2.969-1.391 7.207-2.183 9.418-2.237 6.244-2.202 27.486.057 35.02.989 3.3 2.22 6.675 2.735 7.5.515.825 1.491 2.647 2.168 4.048 2.085 4.317 10.867 13.789 14.289 15.412 5.684 2.698 14.872 1.622 21.192-2.48 1.237-.804 2.25-1.928 2.25-2.501 0-.572 1.237-1.524 2.75-2.116 1.944-.761 3.776-3.088 6.25-7.94 1.925-3.774 3.992-7.4 4.593-8.057.602-.658 1.681-2.614 2.399-4.346 1.117-2.696 1.082-3.374-.243-4.698-1.396-1.397-2.994-1.244-16.398 1.568-8.168 1.714-16.121 3.116-17.672 3.114-5.932-.007-7.543-4.9-5.679-17.245.686-4.542 2.135-10.509 3.22-13.259 1.086-2.75 2.585-6.575 3.332-8.5 2.115-5.452 3.643-16.76 3.378-25-.133-4.125-.284-9.3-.336-11.5l-.094-4 4.5.069c6.7.102 22.423 1.34 31.5 2.478 12.64 1.585 36.502 1.718 36.501.203-.001-.888 2.153-1.25 7.44-1.25 4.093 0 7.724-.456 8.069-1.016.346-.559 1.02-.774 1.499-.478.479.296 2.36-.37 4.181-1.48 1.82-1.11 4.21-2.021 5.31-2.026 1.1-.004 3.473-.906 5.274-2.004 1.801-1.098 4.19-1.996 5.309-1.996 1.119 0 3.695-1.296 5.726-2.881 2.03-1.584 5.269-3.114 7.197-3.398 5.688-.836 13.994-4.874 13.994-6.801 0-.938-.756-1.996-1.679-2.35-2.66-1.021-33.685-.505-35.646.592Zm-335.585 12.856c-1.876 1.046-3.878 2.37-4.45 2.942-.572.572-1.861 1.04-2.865 1.04-1.003 0-2.222 1.046-2.709 2.325-.486 1.279-3.175 4.386-5.975 6.904s-5.091 4.893-5.091 5.281c0 .387-1.125 1.587-2.5 2.669-1.375 1.081-2.5 2.53-2.5 3.219 0 .689-1.125 2.31-2.5 3.602-1.375 1.292-2.5 2.739-2.5 3.216 0 .477-.878 1.81-1.95 2.961-1.073 1.151-2.709 3.721-3.636 5.708-.927 1.988-3.199 5.701-5.05 8.25-1.85 2.549-3.364 5.261-3.364 6.026 0 .768-.597 2.282-1.326 3.366-3.293 4.898-8.529 25.499-8.508 33.473.018 6.94 2.316 17.073 5.183 22.859 3.186 6.43 15.551 20.141 18.162 20.141.718 0 3.545 1.162 6.283 2.583 5.097 2.644 14.333 4.326 24.095 4.385 5.807.036 24.47-5.161 27.19-7.57.868-.769 2.529-1.398 3.691-1.398 1.161 0 2.372-.421 2.69-.935.318-.515 3.149-1.897 6.291-3.073 3.142-1.175 7.859-3.68 10.483-5.565 2.624-1.885 5.097-3.427 5.496-3.427 1.571 0 8.17-8.268 8.766-10.983.348-1.583 1.269-3.407 2.047-4.053 1.067-.886 1.155-1.66.357-3.151-.828-1.548-.689-2.246.643-3.22 1.814-1.326 2.163-3.562 2.89-18.519.785-16.147-3.223-30.869-11.084-40.716-3.142-3.936-11.026-9.188-16.27-10.838-1.331-.419-4.931-2.395-8-4.391-5.439-3.537-5.829-3.63-15.579-3.702-15.974-.12-16.983-.534-13.433-5.521 1.817-2.552 2.302-4.427 2.135-8.26-.197-4.534-1.493-7.732-3.074-7.589-.346.032-2.163.914-4.038 1.961Zm-123.624 2.495c7.131.88 13.544 2.08 14.25 2.666 1.925 1.598 1.56 4.058-1.144 7.723l-2.427 3.29-1.795-2.096c-2.901-3.388-5.35-2.166-5.35 2.671 0 .882-.945 2.611-2.101 3.841-1.155 1.23-2.168 3.397-2.25 4.814-.082 1.418-.428 2.578-.769 2.578-.895 0-2.142 8.716-2.02 14.117.171 7.575 2.152 12.122 6.142 14.099 4.421 2.191 7.37 1.54 12.662-2.797 4.602-3.771 6.661-4.124 11.552-1.979 1.806.792 5.197 2.229 7.534 3.192 2.337.964 4.25 2.286 4.25 2.938 0 2.457-2.952 8.109-5.639 10.796-4.05 4.051-13.415 9.277-17.945 10.014-11.028 1.795-22.26 2.894-23.746 2.324-2.689-1.032-8.043-16.201-11.544-32.704-.991-4.675-2.263-9.625-2.826-11-.562-1.375-1.58-4.974-2.262-8-.682-3.025-2.263-7.75-3.514-10.5-7.418-16.319-7.682-17.008-6.821-17.87.933-.932 21.898.171 35.763 1.883Zm230.177 5.623c-.21.75-1.282 4.964-2.382 9.364-1.908 7.627-6.927 22.586-9.732 29-1.675 3.831-3.696 11.571-3.968 15.194-.115 1.543-.998 5.402-1.962 8.574-1.839 6.056-1.745 12.159.351 22.732 1.207 6.093 7.5 20 9.05 20 .543 0 2.274 1.775 3.845 3.945 9.284 12.816 28.91 18.534 44.326 12.913 3.206-1.169 5.829-2.513 5.829-2.987 0-.473 2.025-1.812 4.5-2.975 2.871-1.35 4.5-2.764 4.5-3.907 0-.987 1.571-2.718 3.5-3.855 2.176-1.284 3.5-2.835 3.5-4.099 0-1.119.498-2.035 1.107-2.035.616 0 .827-.729.476-1.645-.351-.914.088-2.439.988-3.433.89-.984 1.779-3.056 1.973-4.605.195-1.549.612-4.166.926-5.817.314-1.65.73-5.025.923-7.5.863-11.017 1.916-19 2.508-19 .354 0 1.181-2.812 1.839-6.25.658-3.437 2.1-8.013 3.205-10.167 2.438-4.753 1.88-8.13-1.914-11.583-1.511-1.375-3.728-3.941-4.925-5.704-3.009-4.428-5.229-3.447-4.657 2.058 1.875 18.044 1.874 18.075-.996 23.757-3.743 7.41-7.244 12.199-14.908 20.389-3.603 3.85-6.772 7.685-7.042 8.521-.271.837-3.532 3.072-7.248 4.969-10.879 5.552-22.102 5.307-28.023-.615-1.825-1.825-2.437-8.827-1.257-14.375 3.123-14.671 4.327-57.955 1.821-65.423-1.433-4.268-5.48-7.847-6.153-5.441Zm-96.643 19.415c13.811 6.474 16.799 8.352 23.619 14.855 6.166 5.879 7.793 8.115 9.493 13.053 1.564 4.541 1.874 7.04 1.305 10.5-.412 2.498-.81 4.991-.886 5.541-.287 2.082-1.834 7.04-2.497 8-.379.55-1.48 3.138-2.445 5.752-.966 2.613-2.506 5.32-3.422 6.015-.917.695-2.165 2.157-2.774 3.248-.609 1.092-1.959 2.15-3 2.351-1.041.201-2.129.738-2.417 1.193-.851 1.344-16.795 8.941-18.766 8.941-.995 0-2.301.492-2.902 1.093s-2.378 1.239-3.95 1.417c-1.572.179-4.883.854-7.358 1.501-8.885 2.324-25.031-.728-28.972-5.476-2.746-3.309 1.498-23.095 7.974-37.175 1.048-2.276 2.219-5.426 2.604-7 .385-1.573 2.189-5.785 4.009-9.36 1.821-3.575 4.454-9.023 5.853-12.107 1.398-3.084 3.89-7.017 5.537-8.741 1.647-1.723 2.995-3.55 2.995-4.058s1.013-2.062 2.25-3.454l2.25-2.531 4.5 2.635c2.475 1.449 5.625 3.163 7 3.807Zm-382 152.144c-3.053.509-8.794 2.148-11.5 3.284a55.38 55.38 0 0 1-3.75 1.4c-1.164.372-1.75 1.584-1.75 3.621 0 1.765-.62 3.302-1.462 3.625-.804.307-1.756 1.532-2.115 2.718-.359 1.187-1.497 3.083-2.53 4.214-1.032 1.13-3.227 4.843-4.877 8.25-1.65 3.406-3.454 6.193-4.008 6.193-.555 0-1.008.675-1.008 1.5s-.859 2.36-1.909 3.41c-1.05 1.05-2.063 2.649-2.25 3.553-.188.904-.739 1.593-1.224 1.531-.486-.062-1.74 1.601-2.786 3.696-3.651 7.313-5.206 9.844-9.005 14.65-2.104 2.662-3.826 5.204-3.826 5.65 0 1.389-9.75 3.227-13.721 2.587-2.078-.335-6.182-.825-9.12-1.089-2.936-.264-5.752-.736-6.256-1.048-.504-.312-1.181.122-1.504.963-.757 1.971 3.01 5.322 12.6 11.213 9.219 5.662 8.847 5.293 6.816 6.779-.925.676-1.986 2.438-2.357 3.917-.371 1.479-1.321 2.688-2.11 2.688-.79 0-1.363.563-1.273 1.25.34 2.632-.128 3.75-1.575 3.75-.841 0-1.5.893-1.5 2.031 0 1.118-.675 2.291-1.5 2.607-.825.317-1.504 1.316-1.51 2.22-.005.904-1.596 3.639-3.535 6.078-1.94 2.439-4.384 6.377-5.434 8.75-1.05 2.373-2.384 4.314-2.965 4.314s-1.056.621-1.056 1.379c0 .757-.675 1.936-1.5 2.621-2.457 2.039-1.87 5.909 1.065 7.026 4.839 1.84 17.435.342 17.435-2.073 0-.524.458-.953 1.017-.953 1.04 0 9.983-8.896 9.983-9.932 0-.316 1.532-2.729 3.404-5.363 1.873-2.633 4.817-8.257 6.544-12.496 5.066-12.443 4.827-12.288 17.967-11.537 6.118.349 11.79 1.13 12.605 1.733 1.213.897 1.312 2.182.549 7.095-2.242 14.442-3.248 33.993-2.178 42.317 1.71 13.293 6.501 26.933 11.589 32.973 6.505 7.73 25.447 12.6 38.111 9.79 4.148-.91 18.358-6.8 21.909-9.07 4.852-3.1 16.5-15.12 16.5-17.03 0-.97.681-2.26 1.513-2.87 1.428-1.05 3.509-9.485 3.974-16.11.116-1.65.534-4.011.928-5.245.395-1.235.147-3.825-.551-5.754-1.031-2.852-1.651-3.393-3.316-2.895-1.126.337-2.948 1.48-4.048 2.539-1.1 1.059-4.137 3.544-6.75 5.523-2.613 1.98-4.75 4.185-4.75 4.901 0 1.234-2.339 3.088-11.5 9.114-10.227 6.727-25.779 12.867-34.12 13.467l-4.841.35-2.199-4.5c-3.209-6.568-4.373-13.17-4.406-25-.033-12.101 1.084-22.533 3.482-32.5.927-3.849 1.873-7.922 2.103-9.05.561-2.744 6.125-5.258 14.29-6.455 3.68-.539 9.544-1.884 13.03-2.988 3.487-1.104 7.788-2.007 9.559-2.007 1.771 0 4.093-.661 5.161-1.468 1.067-.808 2.728-1.483 3.691-1.5.963-.018 2.65-.932 3.75-2.032 1.1-1.099 3.167-2 4.592-2 1.426 0 3.737-.9 5.135-2 1.399-1.099 3.117-2 3.819-2s2.412-1.349 3.801-3c1.388-1.65 3.028-3 3.643-3 .616 0 3.777-1.804 7.024-4.009 5.09-3.457 5.875-4.405 5.695-6.882l-.209-2.87-6 .515c-3.3.283-6.675.851-7.5 1.264-.825.412-3.412 1.068-5.749 1.455-2.338.387-4.588 1.277-5 1.98-.702 1.194-3.501 1.95-10.751 2.906-1.651.219-5.476.86-8.5 1.427-6.802 1.276-20.744 3.06-27.749 3.552-6.698.47-8.165-.922-6.326-6.005 1.564-4.325 3.262-19.825 3.442-31.411.127-8.167.289-8.758 3.383-12.286 1.787-2.038 3.25-4.162 3.25-4.72 0-1.929-3.027-6.859-4.76-7.755-2.355-1.215-8.182-1.975-11.24-1.466Zm78.11 23.456c-6.295 1.138-8.435 3.391-7.789 8.205.655 4.884 4.365 8.832 10.966 11.672 5.841 2.513 11.425 2.131 15.483-1.06 2.652-2.087 10.641-2.586 18.591-1.16l3.86.692 3.361 10c1.938 5.766 3.82 14.022 4.445 19.5.595 5.225 1.746 15.35 2.556 22.5 2.854 25.193 6.082 37.424 14.597 55.302 2.247 4.719 1.92 5.698-1.9 5.698-1.398 0-3.045.798-3.661 1.772-.937 1.488-.551 2.218 2.381 4.498 1.925 1.5 4.977 4.19 6.783 5.98s3.456 3.25 3.667 3.25c.211 0 4.809 4.42 10.217 9.82s11.183 10.72 12.833 11.81c4.277 2.83 16.825 6.73 21.787 6.76 7.105.05 17.431-1.17 19.554-2.3 1.108-.6 2.609-.89 3.337-.66.727.24 3.122-1.76 5.322-4.43s4.9-4.91 6-4.97c1.932-.11 2.738-1.49 10.542-18.03.908-1.92 2.206-5.97 2.884-9 .678-3.025 1.939-7.3 2.801-9.5 1.445-3.685 2.557-8.245 3.915-16.05.81-4.658-2.209-13.426-6.391-18.565-4.498-5.526-8.219-8.13-18.551-12.985-4.289-2.016-8.05-3.916-8.356-4.223-.306-.306.575-2.945 1.959-5.866 4.064-8.575 5.009-13.047 4.485-21.21-.536-8.355-1.924-11.138-10.026-20.101-7.596-8.401-30.488-18.556-46.262-20.519-3.85-.479-9.25-1.335-12-1.901-2.75-.567-10.4-1.51-17-2.096-6.6-.586-15.825-1.488-20.5-2.003-11.86-1.306-34.632-1.779-39.89-.83Zm-89.555 27.77c-.851 6.102-2.073 11.935-2.715 12.964-.893 1.43-2.896 2.026-8.516 2.536-4.423.4-8.04.262-9.086-.348-.956-.557-1.19-1.025-.519-1.042.67-.016.98-.652.688-1.412-.292-.76.622-2.626 2.031-4.146 1.409-1.52 2.562-3.064 2.562-3.43 0-.366.787-1.541 1.75-2.61s2.854-3.967 4.202-6.439c2.444-4.479 5.519-9.329 8.813-13.903l1.735-2.409.301 4.572c.166 2.515-.395 9.565-1.246 15.667Zm557.152-17.599c-.279.726-.342 4.12-.141 7.543.281 4.79.027 6.354-1.101 6.787-.806.309-1.465 1.123-1.465 1.808 0 .777-3.299 1.859-8.75 2.87-4.812.893-11.225 2.113-14.25 2.711-3.025.599-8.793 1.511-12.818 2.026-4.025.515-8.19 1.402-9.255 1.972-1.813.97-9.503 1.239-19.927.695-4.448-.231-4.496-.199-4.18 2.766.812 7.625 9.83 21.26 16.894 25.541 4.922 2.982 5.814 3.19 11.541 2.671 4.294-.39 6.675-1.129 7.726-2.397.835-1.008 2.869-2.858 4.519-4.111 1.65-1.253 3.689-3.457 4.53-4.898 1.413-2.419 7.252-5.179 14.826-7.009 3.129-.756 4.252 1.27 2.531 4.569-.756 1.449-1.377 3.225-1.381 3.946-.003.722-.641 3.422-1.418 6-3.633 12.063-4.766 38.41-1.78 41.396.656.656 1.192 2.302 1.192 3.656 0 3.235 6.096 15.951 9.174 19.136 3.675 3.803 10.559 9 11.921 9 .667 0 3.674 1.17 6.683 2.59 4.374 2.07 6.197 2.43 9.096 1.81 1.994-.43 4.347-.85 5.229-.94 4.568-.49 15.897-9.14 15.897-12.148 0-.721.45-1.312 1-1.312s1-1.021 1-2.271 1.28-3.837 2.844-5.75c3.949-4.831 5.689-12.769 3.32-15.145-1.108-1.111-17.451 4.9-19.113 7.03-2.328 2.985-14.313 4.494-22.508 2.835-8.988-1.821-12.996-13.395-8.465-24.449 2.027-4.946 2.704-6.935 3.828-11.25a1018.91 1018.91 0 0 1 2.677-10c.828-3.025 1.925-7.075 2.438-9 .512-1.925.942-6.261.955-9.636.024-6.117.035-6.139 3.274-6.789 8.201-1.645 22.922-3.717 29.657-4.173 5.403-.366 8.538-1.165 11.588-2.952 2.57-1.506 5.738-2.45 8.221-2.45 2.222 0 5.655-.675 7.63-1.5 1.974-.825 4.806-1.5 6.293-1.5s3.437-.664 4.333-1.474c.918-.831 6.411-2.172 12.579-3.071 10.768-1.569 20.281-3.603 25.699-5.495 7.919-2.765 8.866-3.269 7.595-4.055-3.198-1.976-67.688 1.89-70.504 4.227-.654.543-2.751.694-4.66.336-1.993-.374-4.379-.165-5.605.491-2.183 1.168-26.18 4.037-33.8 4.04-3.668.002-4.426-.387-5.75-2.948-.839-1.623-1.526-3.432-1.526-4.02 0-.589-1.131-2.862-2.513-5.051-2.537-4.02-4.849-5.083-5.78-2.658ZM288.095 888.68c7.544 1.795 35.213 6.29 49.5 8.041 5.225.64 11.408 2.018 13.739 3.062 2.332 1.044 4.646 1.897 5.143 1.897 1.167 0 2.118 2.512 2.118 5.593 0 5.371-6.262 14.852-12.651 19.151-10.549 7.1-27.368 10.116-28.669 5.14-.62-2.371-3.558-2.462-4.302-.134-1.089 3.407-2.817 6.417-4.921 8.57-1.986 2.033-5.501 8.696-6.909 13.097-1.298 4.057-2.45-.303-3.017-11.417-.967-18.953-2.19-28.174-4.576-34.5-2.852-7.56-4.322-9.959-9.34-15.25-4.434-4.674-3.917-5.107 3.885-3.25Zm176.75 9.031c-1.238.498-2.25 1.511-2.25 2.252 0 1.419-6.001 4.717-8.584 4.717-.833 0-2.873-.702-4.533-1.561-1.66-.858-3.921-1.421-5.024-1.25-1.857.288-1.78.564 1.038 3.708 2.954 3.297 2.996 3.477 1.414 6.154-.895 1.516-3.807 5.126-6.47 8.022-2.662 2.896-4.841 5.717-4.841 6.268 0 .551-.748 1.828-1.661 2.837-.914 1.01-2.151 2.72-2.75 3.8-4.081 7.359-9.059 15.022-9.759 15.022-.456 0-.833.787-.837 1.75-.003.963-.9 3.1-1.993 4.75-1.093 1.651-1.99 3.958-1.993 5.129-.004 1.17-.615 2.631-1.358 3.248-1.19.987-3.117 7.179-5.174 16.623-2.409 11.065-.367 27.75 4.181 34.16 1.014 1.44 2.294 3.36 2.845 4.29.967 1.63 3.105 3.75 9.139 9.07 3.285 2.9 13.218 7.84 18.36 9.13 9.882 2.48 24.128 1.7 31.735-1.74 1.78-.81 4.93-2.24 7-3.19 6.156-2.81 16.457-9.35 21.156-13.42 2.415-2.09 4.89-3.81 5.5-3.82.61-.01 3.343-2.26 6.074-5s5.318-4.98 5.75-4.98c.432 0 .785-.47.785-1.05 0-.58.962-3.172 2.139-5.753 1.916-4.207 2.074-5.811 1.523-15.45-.436-7.619-1.206-12.049-2.639-15.195-1.113-2.443-2.023-5.267-2.023-6.275 0-1.007-.701-2.833-1.558-4.056-.857-1.224-1.303-2.637-.991-3.142.312-.505-.113-1.598-.945-2.429-.832-.832-2.212-4.357-3.068-7.832-2.338-9.5-7.617-19.962-11.557-22.907-4.201-3.139-9.037-5.375-14.881-6.88-12.646-3.258-15-4.688-15-9.113 0-1.804-.92-3.496-2.635-4.845-2.932-2.307-2.958-2.31-6.115-1.042Zm110.219 9.219c-.257.688-.864 5.075-1.349 9.75-.629 6.074-1.771 10.401-4 15.162-1.716 3.664-3.12 6.971-3.12 7.349 0 .378-.663 2.106-1.473 3.838-3.79 8.109-5.015 15.922-4.962 31.651l.051 15.5 3.759 7.726c5.405 11.114 13.715 18.874 26.625 24.864 3.898 1.81 5.972 2.04 15.5 1.72 7.864-.25 11.97-.85 14.404-2.08 1.872-.95 4.025-1.73 4.785-1.73 1.697 0 6.114-2.73 8.834-5.47 1.113-1.11 4.6-4.28 7.75-7.02 3.15-2.75 5.727-5.37 5.727-5.84 0-.47 1.978-3.108 4.395-5.872 3.916-4.476 4.527-5.858 5.6-12.661 1.29-8.17 2.293-17.069 2.383-21.137.03-1.375.462-2.785.959-3.134.931-.652-.612-17.473-1.702-18.564-.952-.951-4.566 4.017-4.602 6.327-.018 1.17-.746 2.719-1.618 3.443-.872.724-2.271 3.028-3.109 5.121-.838 2.094-1.924 3.807-2.415 3.807-.49 0-.891.628-.891 1.396 0 .767-1.117 2.455-2.483 3.75-1.365 1.294-2.49 2.882-2.5 3.526-.009.643-2.001 3.154-4.425 5.578-2.424 2.425-4.562 5.498-4.75 6.829-.211 1.491-1.495 2.998-3.342 3.923-1.65.826-4.612 2.454-6.581 3.617-1.97 1.164-5.345 2.683-7.5 3.378-2.156.695-4.369 1.574-4.919 1.953-3.194 2.203-9.917 3.298-16.49 2.688-8.288-.771-10.413-1.878-12.703-6.628-2.229-4.623-2.256-18.168-.054-27.51a822.003 822.003 0 0 0 3.344-15c.933-4.4 2.305-9.928 3.049-12.285 2.259-7.148 1.758-16.144-1.213-21.815-2.966-5.661-4.882-7.4-8.156-7.4-1.287 0-2.55.563-2.808 1.25Zm-102.748 16.317c9.129 5.36 18.279 14.318 18.279 17.897 0 1.33.391 2.66.869 2.955 2.03 1.255 2.953 29.37 1.209 36.857-.907 3.894-7.171 12.44-9.881 13.479-.843.323-4.495 2.536-8.115 4.916-3.62 2.379-7.601 4.329-8.846 4.329s-3.045.41-4 .9c-7.365 3.83-21.839 4.08-28.736.49-3.831-1.99-4.014-2.3-4.322-7.483-.333-5.593 1.445-16.532 3.017-18.564.493-.637 1.294-3.336 1.78-6 1.319-7.229 3.026-13.632 3.947-14.804.449-.571 1.139-2.839 1.532-5.039 1.362-7.618 8.393-19.961 15.64-27.457 3.745-3.874 7.493-7.043 8.329-7.043.836 0 5.02 2.055 9.298 4.567Zm-100.221 38.39c18.477 1.767 20.376 3.037 17.999 12.048-.772 2.924-1.818 5.583-2.326 5.906-.507.324-1.798 2.232-2.867 4.239-4.05 7.596-9.852 12.001-19.306 14.659-6.749 1.901-24.609 3.681-36 3.581-15.726-.12-17.533-.98-22.172-10.499-1.98-4.065-4.13-9.641-4.778-12.391-.647-2.75-1.659-6.654-2.249-8.676-.589-2.021-.751-4.496-.359-5.5.632-1.618.876-1.514 2.16.914 1.936 3.659 4.942 4.236 15.241 2.923 4.761-.607 11.657-1.35 15.324-1.651 6.449-.531 13.248-2.898 17.288-6.02 1.27-.981 3.372-1.364 6-1.095 2.225.228 9.445.931 16.045 1.562ZM203.684 1084.93c-2.956 2.89-6.223 7.14-7.26 9.46-1.037 2.31-2.323 4.48-2.857 4.81-.535.33-.972 1.47-.972 2.54s-.389 1.94-.863 1.94c-.475 0-2.066 2.59-3.535 5.75-1.47 3.16-3.074 6.43-3.565 7.25-.491.83-1.156 2.18-1.478 3-.322.83-1.942 3.75-3.6 6.5-1.659 2.75-3.442 6.01-3.963 7.25-.52 1.24-1.295 2.25-1.721 2.26-.426 0-1.9 1.68-3.275 3.74-1.375 2.05-4.187 5.35-6.25 7.34-2.062 1.98-3.757 4.01-3.765 4.51-.008.49-2.483 3.56-5.5 6.81-3.017 3.25-5.485 6.29-5.485 6.75 0 .46-.562.85-1.25.86-.687.01-2.6 2.25-4.25 4.98-1.65 2.73-3.338 4.97-3.751 4.98-.413.01-2.477 1.8-4.587 3.97-3.229 3.33-5.009 4.22-11.249 5.63-12.92 2.91-20.062 3.71-33.413 3.73-10.25.01-13.635-.33-16-1.64-1.65-.91-3.342-1.66-3.761-1.66-.418-.01-2.751-.94-5.182-2.09-9.501-4.46-11.867-.75-7.042 11.04 1.697 4.15 3.963 9.08 5.035 10.96 5.358 9.38 14.777 16.05 22.7 16.07 4.365.01 5.037 2.01 1.5 4.45-3.943 2.73-8.956 6.98-11.137 9.45-1.162 1.31-3.347 3.56-4.855 5-1.508 1.44-4.771 4.54-7.25 6.9-2.48 2.36-4.508 4.72-4.508 5.25 0 .53-.35.96-.777.96-.428 0-2.153 1.26-3.834 2.79-1.681 1.54-4.828 3.32-6.992 3.97-2.165.65-4.775 1.8-5.801 2.55-1.808 1.32-1.8 1.42.265 3.35 5.127 4.77 11.12 6.69 22.368 7.15 6.945.29 10.77.09 10.77-.57 0-.56 1.137-1.31 2.526-1.66 2.979-.74 10.475-7.25 10.475-9.09 0-.7.675-1.53 1.5-1.85.825-.32 1.5-1.14 1.5-1.83 0-.68 1.08-2.17 2.403-3.31 1.32-1.14 3.434-4.04 4.694-6.46 1.26-2.42 6.858-8.93 12.44-14.47 17.909-17.77 18.172-17.97 26.743-19.99 8.843-2.08 11.328-1.67 10.18 1.68-1.228 3.59-2.025 23.61-1.244 31.24 1.258 12.3 1.965 16.5 2.774 16.5.434 0 1.396 2.06 2.138 4.57.741 2.51 2.141 5.42 3.11 6.46.969 1.04 1.769 2.47 1.777 3.18.02 1.61 8.451 10.73 12.485 13.5 6.97 4.79 16.432 9.11 22.5 10.27 12.929 2.48 12.811 2.49 19.617-1.04 3.511-1.82 6.383-3.74 6.383-4.26 0-.53.702-1.47 1.559-2.1 2.299-1.68 3.067-21.39.94-24.14-1.42-1.84-1.571-1.85-2.859-.19-.748.96-2.098 1.75-3 1.75-.902 0-1.64.36-1.64.79 0 .44-2.467 2.04-5.482 3.57-3.016 1.53-5.742 3.19-6.059 3.71-.917 1.48-8.015 1.08-14.612-.82-10.473-3.02-17.128-12.43-19.276-27.25-1.277-8.82-.437-26.61 1.766-37.4l1.205-5.9 4.979-1.39c2.739-.76 5.879-1.79 6.979-2.28 1.1-.49 5.451-1.62 9.669-2.51 4.218-.89 8.211-2.27 8.873-3.07.661-.8 2.301-1.45 3.643-1.45 1.342 0 5.337-1.01 8.878-2.25 4.614-1.61 6.437-2.74 6.437-4 0-1.45.917-1.75 5.345-1.75 5.189 0 8.655-1.85 8.655-4.63 0-.54 2.25-1.78 5-2.77s5.001-2.09 5.002-2.45c.003-1.3 8.769-6.15 11.106-6.15 1.356 0 3.6-1.27 5.162-2.93 1.52-1.61 4.444-3.47 6.497-4.14 2.053-.67 3.958-1.54 4.233-1.92.275-.39 2.413-1.91 4.75-3.37 2.337-1.47 4.25-3.08 4.25-3.58 0-.51.907-1.21 2.015-1.56 3.868-1.23.819-2.74-4.394-2.17-9.578 1.04-27.327 5.43-32.286 8-2.75 1.42-12.555 4.42-16.835 5.15-1.1.19-5.375 1.03-9.5 1.86-9.183 1.86-15.847 2.97-18.5 3.09-1.1.04-2.45.37-3 .71-.55.35-4.325.96-8.389 1.36l-7.388.73.517-2.36c.623-2.85 4.535-14.18 6.34-18.37 2.289-5.31 4.202-11.34 7.94-25 3.218-11.76 3.931-14.03 5.191-16.5.702-1.37 1.279-3.28 1.283-4.23.003-.95 1.806-5.52 4.006-10.15 2.2-4.63 4-8.85 4-9.37 0-.52.705-2.36 1.567-4.08 3.53-7.08-2.2-7.03-9.478.08Zm533.501 25.5c-.389 4.81-1.018 11.19-1.398 14.17-.669 5.24-.827 5.47-4.692 6.74-2.2.73-8.915 2.15-14.922 3.16-9.222 1.54-11.479 1.63-14.5.55-4.437-1.59-9.738-1.73-10.632-.28-.689 1.11 2.094 8.23 4.267 10.91.67.83 2.581 3.41 4.247 5.73 1.666 2.33 4.944 5.48 7.285 7 3.719 2.42 5.232 2.77 12.005 2.77 8.832 0 8.623-.3 6.711 9.61-1.329 6.9-1.374 33.01-.066 38.89 1.995 8.98 3.85 15.62 4.895 17.54 1.672 3.07 5.21 11.02 5.21 11.71 0 .35 2.756 4.28 6.124 8.75 6.588 8.75 12.053 12.95 17.858 13.72 3.108.42 4.123.02 6.834-2.69 1.751-1.75 3.184-3.96 3.184-4.91 0-.94.485-2.2 1.078-2.8.592-.59 1.442-2.69 1.888-4.67.965-4.28.136-5.17-5.466-5.89-5.784-.75-13.723-4.83-15.099-7.76-1.735-3.7-3.58-9.29-3.63-11-.024-.82-.526-2.11-1.116-2.85-1.277-1.62-1.704-20.16-.658-28.65 1.285-10.43 3.361-21.98 4.044-22.5.363-.27.99-2.52 1.394-5 .404-2.47.972-5.97 1.262-7.77.29-1.81 1.306-3.7 2.257-4.2 3.592-1.93 10.662-4 13.674-4.01 1.72-.01 3.724-.74 4.453-1.62.922-1.11 2.319-1.43 4.582-1.07 1.791.29 4.737.14 6.547-.33 1.809-.48 5.54-1.12 8.29-1.42 8.703-.97 14.346-2.21 15.873-3.47.813-.68 2.075-1.12 2.803-.97 1.63.31 13.684-4.1 14.414-5.28.29-.47 1.739-.87 3.219-.87 1.48-.01 5.24-1.31 8.355-2.89s8.065-3.42 11-4.1c2.935-.68 6.911-1.82 8.836-2.55 1.925-.72 5.155-1.58 7.177-1.91 2.023-.33 3.828-1.05 4.012-1.61.184-.55 2.13-1.62 4.323-2.39 9.063-3.14-4.39-3.13-33.012.05-7.7.85-16.341 1.78-19.202 2.07-2.861.29-5.729 1.15-6.373 1.93-.79.95-3.319 1.41-7.797 1.42-3.646 0-8.203.44-10.128.97-4.817 1.33-29.83 4.02-37.351 4.02-6.015 0-6.192-.08-7.47-3.25-.721-1.79-1.731-4.03-2.244-4.99-.514-.95-.939-2.3-.944-3-.005-.69-1.116-3.51-2.469-6.26-1.353-2.75-2.474-5.56-2.491-6.25-.017-.7-1.285-1.25-2.883-1.25h-2.852l-.706 8.75Zm-431.09 9.33c-3.3.45-7.406.57-9.125.28-3.713-.64-15.67 4.57-21.713 9.46-2.111 1.71-4.636 3.35-5.611 3.66-1.511.48-1.653 1.19-.956 4.79.45 2.33.837 4.55.861 4.94.166 2.7 9.607 8.78 13.64 8.79 4.173 0 9.342-2.71 10.383-5.44.467-1.23 2.272-3.43 4.012-4.9 3.046-2.56 4.597-3.19 10.009-4.03 2.452-.38 13.603 1.2 23.5 3.34 17.468 3.76 28.832 5.56 44 6.96 10.541.97 23.49 2.85 28.616 4.15 1.989.51 4.689.92 6 .92 1.311.01 3.902.93 5.758 2.06 3.161 1.93 3.338 2.32 2.814 6.23-.307 2.29-1.038 4.33-1.623 4.52-.586.2-1.065 1.04-1.065 1.88 0 2.85-5.952 9.05-11.284 11.75-4.086 2.06-6.456 2.61-10.227 2.37-4.293-.27-4.982-.62-5.493-2.8-.821-3.51-3.523-3.67-5.683-.33-.997 1.54-3.613 4.6-5.813 6.81-8.439 8.46-9.74 10.69-10.917 18.71-1.259 8.57 4.027 14.29 10.835 11.71 1.695-.64 8.344-1.26 14.776-1.37 10.519-.18 12.077-.45 15.5-2.65 6.586-4.24 8.655-4.82 13.411-3.75 2.395.53 5.159.76 6.142.51.984-.26 2.343.08 3.021.75.677.68 4.157 1.83 7.732 2.57 6.909 1.42 13.836 3.85 20.706 7.26 4.366 2.16 6.663 6 5.247 8.77-.422.83-1.294 3.47-1.937 5.87-.893 3.34-2.839 6.01-8.212 11.25-4.076 3.98-7.907 6.88-9.094 6.88-1.129 0-2.763.58-3.631 1.3-2.061 1.69-10.962 5.13-18.829 7.26-3.437.94-6.25 2.02-6.25 2.41 0 .93-8.447 3.4-21 6.15-6.645 1.45-20.254 1.79-24.8.61-2.085-.54-4.56-.44-6.719.28-1.889.62-4.057.76-4.846.31-1.925-1.1-12.635-14.89-12.635-16.27 0-.6-1.023-2.77-2.273-4.82-1.25-2.05-2.936-5.08-3.748-6.73-.812-1.65-1.732-3.22-2.045-3.5-1.444-1.27-4.078-16.78-4.924-29-.514-7.42-1.642-16.42-2.508-20-1.58-6.53-7.803-19.9-11.866-25.5-1.197-1.65-2.8-4.23-3.561-5.72-1.809-3.56-7.527-9.78-8.99-9.78-.804 0-.961 1.86-.526 6.25.341 3.44.781 9.85.979 14.25.197 4.4.61 9.8.918 12 .308 2.2 1.018 8.05 1.578 13 1.211 10.7 4.449 26.04 6.967 33 4.21 11.65 5.897 15.54 7.365 17.01.855.85 1.843 3.09 2.194 4.96s2.083 5.12 3.848 7.22c1.765 2.09 4.296 5.61 5.625 7.81 3.034 5.02 9.786 12.43 12.448 13.66 1.111.51 3.144 1.58 4.519 2.37s3.67 1.45 5.101 1.46c3.344.01 8.899 1.95 8.899 3.09 0 .48 1.822 1.81 4.049 2.95 2.227 1.13 4.3 2.72 4.607 3.52.307.8 1.667 1.45 3.022 1.45 1.356 0 3.048.58 3.761 1.3.713.71 3.268 1.93 5.679 2.71 2.41.78 4.928 2.16 5.595 3.07.667.91 3.142 1.92 5.5 2.25 2.358.33 6.295 1.03 8.748 1.54 7.972 1.68 39.039-5.51 39.039-9.03 0-.39.915-.99 2.032-1.35 1.118-.35 3.255-1.78 4.75-3.18 1.495-1.39 3.843-3.5 5.218-4.68 3.645-3.15 7.794-8.96 8.555-11.99.364-1.45 1.063-2.64 1.553-2.64.491 0 .892-.64.892-1.42 0-.78.442-1.56.983-1.75.54-.18 1.134-1.68 1.319-3.33.185-1.65.805-3.9 1.379-5 1.548-2.97 2.402-7.09 3.301-15.95 1.138-11.22-.579-17.35-8.131-29.05-3.282-5.08-11.688-13.5-13.483-13.5-.752 0-1.368-.39-1.368-.86 0-.76-16.667-7.79-22.792-9.62-1.698-.5-2.133-1.18-1.681-2.6.336-1.06.72-2.96.854-4.22.134-1.25.537-2.76.895-3.34 2.832-4.58.732-20.26-3.735-27.88-2.819-4.81-12.446-13.85-17.041-16.01-8.449-3.96-26.988-10.47-29.822-10.47-1.778 0-4.121-.59-5.205-1.3-2.719-1.8-10.376-3.56-20.473-4.71-9.958-1.14-38.861-1.09-47.5.09Zm219.015 26.45c-2.192 2.48-4.302 5.37-4.69 6.41-.779 2.11-6.818 10.98-10.479 15.39-1.29 1.55-2.346 3.46-2.346 4.25 0 .78-.367 1.42-.816 1.42-.449 0-1.877 1.91-3.175 4.25-1.298 2.34-3.405 5.64-4.684 7.34-1.279 1.71-2.325 3.4-2.325 3.78 0 .37-1.8 4.48-4 9.13s-4 8.86-4 9.36c0 .49-.626 1.42-1.391 2.05-.765.64-1.693 3.17-2.062 5.62-.368 2.46-1.002 4.47-1.408 4.47-1.18 0-3.277 11.7-3.87 21.59-.548 9.17.636 17.27 3.274 22.41.707 1.38 2.255 4.53 3.441 7 2.511 5.24 12.347 15.12 17.763 17.84 9.377 4.71 15.896 6.16 27.507 6.13 10.654-.03 11.509-.19 16.246-3.01 2.75-1.63 6.907-3.88 9.237-5s4.708-2.92 5.285-4 1.83-1.96 2.786-1.96c2.007 0 11.297-5.92 15.692-9.99 9.716-9.02 12.5-11.81 12.5-12.55 0-.46.897-1.79 1.994-2.95 1.097-1.17 2.388-4.23 2.869-6.81.481-2.57 1.353-5.26 1.938-5.96 1.381-1.66.741-34.56-.793-40.74a225.1 225.1 0 0 1-1.915-8.5c-3.197-16.03-13.052-31.09-21.885-33.43-2.04-.54-8.658-1.47-14.708-2.06-6.573-.64-14.126-2.13-18.768-3.69-8.19-2.75-7.729-2.25-9.314-10.07-.709-3.49-3.519-2.68-7.903 2.28Zm105.729-.54c-1.626 1.51-2.008 3.3-2.153 10.08-.18 8.44-2.044 15.69-6.543 25.43-2.842 6.16-8.532 28.72-8.592 34.07-.024 2.16-.444 5.96-.934 8.43-.905 4.57.299 17.59 1.989 21.5.476 1.1 1.061 3.58 1.3 5.5.544 4.38 3.644 12.71 5.945 15.97.959 1.36 1.744 3.16 1.744 4 0 1.41 5.025 7.11 9.906 11.25 3.858 3.26 12.614 7.08 17.094 7.45 4.582.37 18-3.15 18-4.73 0-.44.9-1.09 2-1.44 1.1-.35 2-1.28 2-2.07 0-.78.381-1.43.847-1.43 1.495 0 8.444-6.55 16.444-15.5 4.083-4.57 5.899-7.67 7.605-12.98 1.233-3.84 2.705-7.54 3.272-8.22 1.162-1.4 2.989-7.89 2.969-10.55-.007-.96.297-1.75.675-1.75.378 0 .766-2.02.862-4.5.095-2.47-.178-4.5-.608-4.5s-4.501 3.49-9.048 7.75-8.773 7.93-9.392 8.14c-.619.21-4.654 3.25-8.966 6.75-4.311 3.5-8.436 6.36-9.166 6.36-.73 0-1.489.49-1.687 1.08-.395 1.19-9.035 4.53-15.307 5.93-10.8 2.41-17.911-5.5-19.122-21.26-.688-8.94.716-20.04 3.198-25.27.787-1.66 2.06-5.93 2.828-9.5.769-3.56 2.117-8.15 2.997-10.2.879-2.04 1.599-4.99 1.599-6.55 0-1.56 1.168-4.39 2.596-6.29 2.451-3.25 2.567-3.92 2.071-12.1-.523-8.63-.541-8.67-5.628-14.99-5.926-7.35-7.993-8.47-10.795-5.86Zm-87.248 14.9c.277.39 3.628 2.24 7.447 4.12 7.944 3.91 18.86 12.74 21.102 17.08 1.886 3.65 1.812 30.67-.094 34.34-.65 1.26-1.751 4.71-2.447 7.68-.696 2.96-1.636 5.86-2.088 6.44-.452.57-.773 1.92-.713 3 .262 4.7-11.285 17.9-19.203 21.94-1.925.99-3.725 2.09-4 2.45-1.159 1.54-7.888 5.06-9.668 5.06-1.063 0-2.468.54-3.124 1.19-.665.67-5.078 1.38-9.999 1.61-7.672.37-9.479.12-14.01-1.94-6.47-2.93-9.722-8.41-8.644-14.54 1.006-5.73 5.491-22.54 6.533-24.48.501-.94.912-2.42.912-3.28 0-.87.945-3.71 2.1-6.32 2.599-5.87 3.375-7.8 4.906-12.24.664-1.92 1.807-4.85 2.539-6.5.732-1.65 2.259-5.14 3.393-7.75 1.134-2.61 2.962-6.69 4.062-9.07 1.1-2.37 2-5.05 2-5.95 0-2.02 2.065-6.8 3.665-8.48.654-.68 1.955-2.98 2.89-5.1l1.702-3.86 5.118 1.94c2.815 1.07 5.344 2.27 5.621 2.66Zm-405.996 179.82c-2.602.96-5 3.53-5 5.37 0 .98-.563 2.37-1.252 3.1-.688.73-2.471 3.12-3.962 5.32s-3.981 5.8-5.533 8c-1.552 2.2-3.627 5.58-4.611 7.5-3.376 6.61-4.16 7.66-5.4 7.25-.724-.24-1.242.45-1.242 1.67 0 1.14-.477 2.08-1.059 2.08s-.812.4-.511.89c.301.48-.122 1.44-.941 2.12-.819.68-1.489 1.79-1.489 2.48 0 .68-1.343 2.76-2.984 4.62-1.641 1.87-2.991 4.1-3 4.97-.009.86-1.141 2.63-2.516 3.92s-2.5 2.89-2.5 3.55c0 .66-.648 1.74-1.441 2.4-.792.66-1.17 1.95-.84 2.87.33.93.22 1.34-.241.92-.757-.69-4.606 5.26-6.07 9.39-.776 2.19-3.08 3.27-15.408 7.25-12.432 4.01-19.986 5.23-22.867 3.69-1.122-.6-4.751-1.37-8.065-1.72-5.036-.53-6.126-.36-6.653 1.01-.346.9-1.226 1.64-1.955 1.64-1.901 0-2.764 3.56-1.455 6.01.613 1.15 1.436 3.98 1.829 6.29.543 3.19 1.21 4.27 2.778 4.5 1.135.16 4.274 2.3 6.976 4.75 2.702 2.46 5.89 5.34 7.088 6.42 1.197 1.07 3.369 2.25 4.827 2.62 2.233.56 2.55 1.06 2.02 3.17-.345 1.38-2.404 4.61-4.575 7.19-2.172 2.57-3.948 5.05-3.948 5.49 0 .45-1.571 2.67-3.492 4.94-1.92 2.27-4.394 5.25-5.498 6.62-1.103 1.38-3.801 4.53-5.994 7-2.193 2.48-3.994 4.8-4.002 5.17-.008.37-1.313.96-2.9 1.31-2.133.46-3.032 1.36-3.445 3.43-1.311 6.55 2.647 10.27 11.635 10.92 6.882.5 13.455-2.14 15.677-6.29.736-1.38 2.099-2.75 3.027-3.04.929-.3 2.175-1.61 2.77-2.91.595-1.31 3.813-5.55 7.152-9.43 3.338-3.88 6.07-7.73 6.07-8.57 0-.84.943-2.55 2.095-3.8 4.694-5.13 11.905-15.83 11.905-17.67 0-2.18 8.035-11.12 9.994-11.12.678 0 2.87-.88 4.87-1.95 3.712-1.99 16.247-7.05 17.469-7.05.371 0 .631 9.56.576 21.25-.121 25.69 1.955 41.45 6.683 50.75 1.259 2.48 3.258 6.75 4.443 9.5 3.574 8.29 16.772 18.54 29.393 22.83 7.445 2.52 9.465 2.35 22.087-1.95 5.211-1.77 14.812-10.77 16.926-15.87.91-2.19 2.503-4.89 3.539-6 2.258-2.41 6.02-10.9 6.02-13.59 0-1.06.45-1.92 1-1.92s1-1.8 1-4c0-3.57-.259-4-2.443-4-1.344 0-3.063.89-3.821 1.97-.757 1.08-2.567 2.58-4.023 3.34-1.455.75-5.248 3.69-8.43 6.52-3.181 2.83-8.932 6.99-12.779 9.24-5.683 3.32-8.254 4.19-13.702 4.65-6.221.52-12.773-.8-12.818-2.59-.009-.35-1.303-2.09-2.876-3.87-1.573-1.79-3.399-4.71-4.058-6.5-.658-1.79-1.822-4.61-2.584-6.26-2.158-4.67-4.508-21.01-4.528-31.5-.024-12.76.49-23.28 1.198-24.5.318-.55.616-3.26.66-6.02.108-6.73 1.616-10.48 4.214-10.48 2.262 0 7.029-2.72 8.29-4.73.44-.7 1.985-1.27 3.434-1.27s4.464-.85 6.7-1.9c2.236-1.04 7.069-2.87 10.74-4.05 3.671-1.19 7.214-2.81 7.873-3.61.659-.79 2.043-1.44 3.075-1.44 1.033 0 2.778-.9 3.878-2s2.45-2 3-2c.55 0 1-.44 1-.98s1.238-1.25 2.75-1.58c4.522-.99 9.481-3.75 12.71-7.05 1.672-1.72 3.94-3.45 5.04-3.86 1.929-.71 1.918-.78-.328-1.82-2.277-1.06-8.206-.45-21.172 2.16-37.806 7.64-41.331 8.19-42.558 6.62-1.215-1.55-.67-8.49.667-8.49.49 0 .891-1.77.891-3.94s.36-4.16.801-4.44c.44-.27.908-2.31 1.039-4.54.132-2.23.903-5.93 1.715-8.23 1.305-3.7 2.616-17.42 2.823-29.55.105-6.08-3.166-9.33-9.302-9.22-2.517.04-5.251.33-6.076.63Zm-5.005 29c-1.089 1.7-1.118 1.7-.571-.04.317-1.01.612-2.36.655-3 .057-.84.216-.83.571.04.27.67-.024 2.02-.655 3Zm-1.433 5.04c-.36 1.51-1.961 7.03-3.559 12.25-1.597 5.23-3.41 12.72-4.029 16.66-.619 3.94-1.654 7.85-2.3 8.68-.662.86-3.679 1.82-6.924 2.2-5.865.7-7.198-.09-4.25-2.54.825-.68 1.5-2.04 1.5-3.01 0-.97.672-3.05 1.494-4.63.821-1.57 1.496-3.65 1.5-4.61.003-.96.447-1.75.987-1.75.539 0 1.274-1.24 1.631-2.75.568-2.4 4.587-8.81 6.421-10.25.352-.27 1.147-1.98 1.767-3.79 1.142-3.34 4.887-9.21 5.877-9.21.297 0 .245 1.24-.115 2.75Zm140.438 5.34c-3.025.43-10.225 1.33-16 1.98-5.775.66-11.807 1.81-13.404 2.56-1.597.75-3.721 1.37-4.72 1.37-2.307 0-13.229 5.52-14.894 7.52-1.995 2.41-.665 12.61 2.164 16.6 3.005 4.25 4.522 5.88 5.454 5.88.408 0 1.596.77 2.64 1.72 1.335 1.21 3.515 1.69 7.365 1.64 5.263-.08 5.674-.29 10.932-5.59 3.005-3.03 5.463-5.98 5.463-6.56 0-1.34 12.846-2.76 14.058-1.55.499.5 1.187 6.52 1.528 13.37.645 12.93 3.785 27.45 8.427 38.97 1.219 3.03 2.728 7.31 3.352 9.53 1.124 3.98 7.546 17.51 8.772 18.47.35.28 1.867 2.75 3.371 5.5s4.03 6.37 5.613 8.05c1.583 1.67 2.879 3.52 2.879 4.09 0 .58.9 1.87 2 2.86 1.1 1 2.034 2.3 2.076 2.91.127 1.84 12.205 11.84 15.924 13.18 3.484 1.25 3.47 1.26-2.872 1.33-5.806.07-6.251-.07-5.007-1.57 1.251-1.5.864-1.58-4.628-.93-3.296.39-7.619 1.14-9.607 1.65-1.987.51-5.454 1.01-7.703 1.09-6.53.26-7.153 1.24-3.301 5.22 1.847 1.9 4.468 3.74 5.824 4.08 1.356.34 2.989 1.05 3.63 1.57 5.684 4.61 7.916 6.04 12.944 8.34 3.178 1.44 6.235 2.63 6.792 2.63 1.066 0 1.354.2 6.928 4.85 6.475 5.4 10.231 6.38 28 7.31 3.839.2 28.366-6.33 31.154-8.29 1.46-1.03 3.598-1.87 4.75-1.87 1.196 0 2.096-.64 2.096-1.5 0-.82.434-1.5.965-1.5.531 0 3.906-2.93 7.5-6.5 4.336-4.32 6.535-7.29 6.535-8.85 0-1.29.83-3.09 1.845-4.01 1.014-.92 2.413-3.57 3.107-5.9.695-2.33 1.887-5.81 2.651-7.74 2.912-7.35 4.591-17.38 3.919-23.42-.626-5.62-4.306-14.71-6.503-16.07-.56-.34-1.019-1.38-1.019-2.29 0-2.79-9.445-10.64-17.696-14.72-4.285-2.12-11.619-4.83-16.297-6.03-6.218-1.59-8.384-2.55-8.049-3.57.252-.77.435-6.18.406-12.02-.051-10.32-.158-10.82-3.686-17.13-1.999-3.57-5.476-8.55-7.728-11.07-4.507-5.04-16.733-12.67-24.481-15.29-2.733-.93-5.869-2.06-6.969-2.51-14.238-5.89-42.599-9.8-56.5-7.79Zm497.247 4c-2.889.49-7.839 1.8-11 2.92-3.161 1.11-8.447 2.66-11.747 3.45-3.3.79-9.847 2.36-14.55 3.5-4.702 1.14-10.327 2.3-12.5 2.59-2.172.28-6.732 1.03-10.132 1.66-7.053 1.31-8.705.6-9.65-4.12-.875-4.38-4.631-8.03-8.558-8.33-3.081-.24-3.605.14-5.75 4.15-1.298 2.42-2.374 5.8-2.392 7.5-.048 4.68-1.915 6.28-10.039 8.62-12.204 3.5-14.727 3.69-23.319 1.73-8.949-2.05-11.61-1.67-11.61 1.66 0 3.84 4.786 16.44 8.58 22.58.849 1.38 1.767 3.19 2.041 4.03.712 2.19 8.346 6.79 12.816 7.72l3.796.78.432 11.49c.385 10.21 1.018 15.54 3.008 25.3.316 1.55 1.419 3.35 2.451 3.99 1.032.64 1.876 1.67 1.876 2.28 0 .61.788 2.04 1.75 3.17 4.636 5.48 5.25 6.33 5.25 7.25 0 .55.365.99.811.99.447 0 1.684.8 2.75 1.78 3.444 3.17 9.446 5.45 12.795 4.87 8.055-1.41 9.799-2.03 11.413-4.02.952-1.18 2.899-2.89 4.328-3.81 1.428-.91 3.155-3.16 3.838-4.99.683-1.83 2.295-5.4 3.582-7.94 3.074-6.06 4.074-11.47 2.474-13.4-1.609-1.94-4.966-1.91-6.406.06-.785 1.08-4.234 1.89-11.176 2.65-9.033.98-10.309.91-12.725-.67-2.576-1.69-2.682-2.11-2.64-10.39.025-4.89.669-10.38 1.485-12.64.792-2.2 1.448-4.74 1.456-5.64.008-.91.69-1.9 1.515-2.22.825-.32 1.5-1.44 1.5-2.49 0-2.57 1.451-3.52 8.5-5.54 22.142-6.34 29.791-9.28 37.186-14.3 1.872-1.27 4.062-2.31 4.868-2.31s2.236-.9 3.178-2c.942-1.1 2.236-2 2.875-2 .64 0 1.9-1.12 2.801-2.5.901-1.37 2.303-2.5 3.115-2.5.812 0 1.477-.81 1.477-1.81 0-1.72 4.147-5.48 8.5-7.71 1.1-.57 2.144-2.03 2.32-3.25.175-1.23.703-2.23 1.173-2.23 1.428 0 9.077-8.29 8.702-9.43-.462-1.41-4.018-1.58-10.448-.48Zm-182.511 18.61c-1.434 2.09-3.773 6.95-5.198 10.8-1.426 3.85-3.382 8.13-4.348 9.5-.966 1.38-2.611 4.53-3.654 7-1.044 2.48-2.492 5-3.217 5.61-.725.61-1.319 1.97-1.319 3.03 0 1.05-.699 2.91-1.554 4.13-.854 1.22-2.221 4.79-3.037 7.92-.816 3.13-1.866 6.17-2.333 6.75-.468.58-1.128 2.86-1.469 5.06-.34 2.2-.922 5.8-1.294 8-1.926 11.41.155 29.23 4.522 38.7 1.191 2.58 2.165 5.17 2.165 5.75 0 .58.42 1.05.933 1.05.513 0 1.217.9 1.565 1.99.347 1.1 2.359 4.18 4.47 6.85 10.808 13.67 30.211 15.04 41.032 2.89 2.475-2.78 4.5-5.47 4.5-5.97 0-.51 1.125-1.54 2.5-2.31 1.375-.76 2.05-1.41 1.5-1.44-.55-.03.688-1.58 2.75-3.43 2.063-1.86 3.75-3.68 3.75-4.05 0-.37.563-1.3 1.25-2.07 3.136-3.49 3.75-4.58 5.369-9.53.948-2.9 2.536-6.08 3.529-7.08.994-.99 1.571-2.42 1.284-3.17-.288-.75.172-1.94 1.022-2.64.914-.76 1.546-2.89 1.546-5.21 0-2.16.699-5.28 1.553-6.93.855-1.66 1.796-5.12 2.092-7.7.76-6.64-1.585-11.51-9.026-18.74-6.092-5.92-8.158-5.68-7.754.9.295 4.79-1.653 13.64-3.004 13.64-.386 0-.986 1.29-1.333 2.87-.348 1.59-1.733 3.91-3.08 5.18-1.346 1.26-2.448 2.62-2.448 3.01 0 .39-1.833 3.46-4.073 6.81-4.551 6.82-15.487 17.12-18.177 17.13-.962 0-1.75.42-1.75.93 0 1.29-5.843 4.07-8.572 4.07-3.307 0-5.428-1.02-5.428-2.61 0-.76-.397-1.39-.881-1.39-1.132 0-3.119-7.85-3.119-12.33 0-4.35 2.522-12.79 5.615-18.8 1.312-2.55 2.385-5.38 2.385-6.29 0-.9 1.125-3.87 2.5-6.58s2.5-5.47 2.5-6.12c0-.65 1.284-3.93 2.854-7.28 4.444-9.5 6.118-27.14 3.384-35.67-1.562-4.88-2.049-5.46-4.817-5.73-2.595-.25-3.488.3-5.685 3.5Zm-269.236 6.85c23.679 2.93 32.724 5.17 37.75 9.32 2.734 2.25 2.282 9.53-1 16.11-1.512 3.03-3.538 6.1-4.5 6.82-.962.72-1.75 1.96-1.75 2.76 0 2.17-4.325 1.75-5.768-.56-.687-1.1-2.057-2-3.044-2-1.668 0-7.471 5.23-8.315 7.5-.205.55-1.94 3.16-3.855 5.81-3.839 5.3-5.978 13.34-4.92 18.51.9 4.4 5.641 10.99 9.25 12.86 3.943 2.04 11.714 1.32 17.943-1.65 3.444-1.65 6.185-4.14 9.75-8.87 2.727-3.63 4.959-7.39 4.959-8.38 0-2.92 6.512-2.27 23.5 2.36 6.73 1.83 15.904 5.92 17.75 7.9 2.249 2.41 2.216 5.71-.113 11.13-2.414 5.61-10.179 14.2-14.361 15.89-1.802.72-4.332 1.99-5.622 2.81-4.978 3.16-37.685 13.76-46.654 15.12-5.608.85-5.968.71-6.079-2.33-.043-1.19-.156-3.57-.25-5.3-.094-1.72-1.746-5.42-3.671-8.22-1.925-2.8-3.5-5.3-3.5-5.56 0-.26-1.086-1.65-2.414-3.08-3.486-3.76-13.586-18.84-13.586-20.28 0-.67-.345-1.22-.767-1.22-1.091 0-4.79-10.41-6.218-17.5-1.548-7.68-4.088-23.11-4.444-27-.324-3.53-2.592-11.56-3.681-13.02-1.491-2.01-3.972-10.54-3.356-11.53.689-1.12 9.094-.62 26.966 1.6Zm148.106 14.04c-.335.87-.895 4.02-1.245 7l-.636 5.41h-4.363c-4.821 0-5.355.79-2.362 3.5 2.772 2.51 2.504 4.82-1 8.66-1.65 1.81-3.001 3.75-3.001 4.31-.001.57-1.188 2.38-2.637 4.03-1.45 1.65-3.936 5.7-5.524 9s-3.773 7.47-4.855 9.27c-1.083 1.8-3.119 6.98-4.525 11.5-1.406 4.53-3.009 9.05-3.562 10.05-1.414 2.57-1.18 17.96.387 25.49 2.127 10.21 10.759 18.48 21.717 20.81 5.617 1.2 19.048.46 21.38-1.17 1.136-.8 3.246-1.45 4.689-1.45 3.193 0 7.863-2.19 14.183-6.65 2.614-1.84 4.954-3.35 5.2-3.35.246 0 2.383-1.32 4.748-2.93 6.619-4.51 15.241-13.98 18.281-20.07 1.508-3.02 3.168-6.32 3.687-7.33 2.139-4.13 2.95-26.83 1.274-35.63-2.434-12.77-8.286-23.32-14.72-26.53-4.859-2.42-20.234-4.84-22.631-3.56-1.078.58-3.144 1.05-4.591 1.05s-3.519.48-4.604 1.06c-2.912 1.55-5.671.24-6.393-3.05-.694-3.15-5.974-11.01-7.402-11.01-.488 0-1.161.71-1.495 1.59Zm17.022 28.01c3.998 1.64 8.138 5.44 12.259 11.24 2.008 2.82 2.28 4.1 1.777 8.35-.327 2.76-1.057 5.58-1.621 6.26-.564.68-.788 1.47-.497 1.76 1.486 1.49-7.418 15.6-11.062 17.54-1.291.68-2.608 2.03-2.927 3-.32.96-2.713 2.79-5.319 4.06-2.606 1.27-5.863 2.95-7.238 3.74-1.375.78-3.475 1.43-4.667 1.44-1.191 0-2.316.42-2.5.92-.541 1.49-9.833.03-9.833-1.54 0-2.13 3.908-13.44 6.176-17.87 1.128-2.2 3.377-6.7 4.998-10 1.622-3.3 3.615-7.12 4.429-8.5.814-1.37 2.249-4.07 3.189-6 .939-1.92 1.966-3.72 2.282-4 .316-.27 1.182-2.75 1.926-5.5 1.233-4.56 2.432-6.44 4.128-6.48.345-.01 2.37.7 4.5 1.58Zm-346.628 180.81c-1.375.73-4.151 1.62-6.169 1.99-3.591.65-4.738 1.85-9.541 10.04-1.749 2.98-4.525 6.7-6.54 8.77-.963.98-1.75 2.07-1.75 2.41 0 .35-2.925 5.05-6.5 10.45-3.575 5.41-6.5 10.19-6.5 10.64 0 .45-.9 1.37-2 2.06s-2 1.89-2 2.68c0 .79-.787 2.03-1.75 2.74-.963.72-2.552 2.89-3.532 4.81-2.808 5.51-5.126 9.38-6.288 10.48-1.351 1.29-4.87 6.8-4.904 7.69-.014.36-.364 1-.776 1.41-.413.42-.75 1.54-.75 2.51 0 1.85-4.192 3.56-9.303 3.78-1.542.06-3.614.55-4.604 1.08-2.921 1.56-14.535 2.42-16.75 1.23-2.808-1.5-19.808-4.32-21.693-3.6-2.24.86-2.965 3.96-1.556 6.63 6.274 11.91 15.167 21.53 23.406 25.31 2.2 1.01 4.175 1.97 4.389 2.13.215.16-.798 1.85-2.25 3.76-1.451 1.9-2.64 3.89-2.64 4.41 0 .53-1.938 3.6-4.308 6.82s-4.957 7.33-5.75 9.12c-.791 1.8-1.942 3.07-2.557 2.83-.614-.23-1.623 1.26-2.242 3.33-.618 2.06-2.47 5.74-4.115 8.17-4.608 6.8-3.674 10.72 3.27 13.71 4.232 1.82 13.792 1.52 16.73-.52 3.05-2.12 5.895-5.41 5.94-6.87.018-.61.935-1.92 2.037-2.91 1.103-1 2.47-3.55 3.039-5.66.569-2.11 1.467-3.84 1.996-3.84.528 0 .96-.47.96-1.05 0-1.12 6.39-15.45 8.002-17.95.533-.82 1.628-2.96 2.433-4.75.805-1.79 1.937-3.25 2.515-3.25.578 0 1.05-.56 1.05-1.25 0-2.12 5.675-6.75 8.262-6.75 1.342 0 3.757-.46 5.367-1.02 1.609-.56 5.307-1.13 8.219-1.26l5.293-.23-.716 6c-.394 3.31-.873 7.14-1.064 8.51-.63 4.52 1.833 29.43 3.251 32.87.764 1.86 1.389 4.69 1.389 6.31 0 1.61 1.125 4.58 2.5 6.61 1.375 2.02 2.5 4.22 2.5 4.9 0 2.3 2.323 6.31 3.661 6.31.736 0 1.339.58 1.339 1.29 0 1.47 6.762 8.17 12 11.9 7.546 5.37 26.243 6.36 34.671 1.85 2.09-1.12 4.416-2.04 5.17-2.04 3.21 0 15.74-11.68 16.762-15.62.302-1.17 1.634-2.7 2.96-3.41 1.964-1.05 2.382-2.01 2.258-5.17-.084-2.14-.488-4.09-.898-4.35-.411-.25-.747-3.63-.747-7.5s-.497-7.63-1.105-8.36c-.608-.74-.825-2.07-.481-2.96.472-1.23.025-1.63-1.842-1.63-1.685 0-3.671 1.41-6.268 4.46-2.091 2.45-4.145 4.25-4.564 3.99-.923-.57-4.901 4.81-4.954 6.7-.043 1.55-6.499 6.26-10.065 7.36-1.318.4-2.918 1.15-3.555 1.66-1.892 1.51-16.381 5.83-19.547 5.83-6.228 0-8.917-2.76-11.686-12-3.02-10.08-3.767-16.84-2.99-27.08.394-5.18.913-13.56 1.155-18.63.477-9.98 2.22-14.29 5.781-14.29 1.105 0 3.682-.75 5.727-1.67 3.589-1.62 12.161-3.64 20.948-4.95 2.327-.35 3.987-1.03 3.691-1.51-.296-.48.5-.88 1.77-.88 4.129-.03 6.7-1.11 6.133-2.59-.357-.93.173-1.4 1.569-1.4 1.159 0 2.107-.45 2.107-1 0-1.69 3.566-4.67 6.461-5.4 1.512-.38 2.976-1.56 3.252-2.61.277-1.06 1.257-2.16 2.179-2.46.921-.29 2.473-1.88 3.448-3.53.975-1.65 2.221-3 2.769-3 .547 0 1.466-1.35 2.041-3 1.119-3.21 3.734-3.95 6.029-1.71 4.301 4.21 17.012 5.65 20.667 2.35 2.021-1.83 2.069-1.82 2.558.5.274 1.3.721 3.94.992 5.86.727 5.16 2.243 12.29 2.979 14 .355.83 1.053 4.43 1.553 8 1.299 9.29 2.791 14.77 5.607 20.6 1.356 2.8 2.498 5.73 2.538 6.5.04.77.926 2.75 1.968 4.4 1.043 1.65 2.573 4.49 3.402 6.31 2.151 4.73 4.952 8.15 14.32 17.47l8.264 8.22h-25.026v2.67c-.001 1.9 1.112 3.54 3.893 5.75 2.142 1.69 4.392 3.08 5 3.08.608 0 1.106.38 1.106.84 0 .46 1.129 1.35 2.509 1.98 2.391 1.09 5.655 3.78 13.19 10.88 1.868 1.76 4.194 3.45 5.168 3.76.975.31 2.755 1.89 3.958 3.52 1.281 1.73 2.771 2.73 3.599 2.41.778-.3 2.463.14 3.745.98 6.958 4.56 25.178 6 34.601 2.74 2.898-1 5.56-2.11 5.916-2.46.356-.36 1.45-.65 2.431-.65 1.91 0 9.767-4.95 11.861-7.47.697-.84 1.774-1.55 2.394-1.58.621-.02 2.478-1.8 4.128-3.95 1.65-2.16 3.693-4.16 4.539-4.46 1.831-.64 7.672-10.01 9.429-15.13.685-1.99 1.683-3.91 2.218-4.26.863-.58 2.844-11.31 3.905-21.15.23-2.13-.412-5.19-1.635-7.8-1.107-2.36-1.748-4.73-1.425-5.25.323-.52.146-.95-.393-.95-.538 0-1.282-1.38-1.651-3.06-.43-1.96-3.612-6.05-8.83-11.35-6.416-6.52-9.795-9.07-15.829-11.94-4.219-2.01-8.102-3.65-8.627-3.65-.526 0-1.516-.67-2.201-1.5-.86-1.04-.898-1.5-.122-1.5.617 0 1.122-.8 1.122-1.79 0-.98.913-3.57 2.029-5.75 2.845-5.55 5.124-21.31 3.788-26.19-.567-2.07-1.658-4.13-2.424-4.57-.766-.44-1.393-1.5-1.393-2.35 0-1.67-8.662-10.35-10.33-10.35-.557 0-1.723-.58-2.591-1.3-4.388-3.61-20.983-8.88-35.137-11.16-15.82-2.55-32.619-2.06-53.442 1.56-9.9 1.72-18.675 3.51-19.5 3.98-.825.48-4.051 2.27-7.168 3.99-6.658 3.67-8.302 6.68-7.604 13.95l.479 4.99-5.035 1.5c-2.769.82-5.487 1.49-6.039 1.49-.552 0-1.933.83-3.069 1.85-3.458 3.09-24.254 8.68-36.814 9.89-5.63.54-5.59.69-2.667-10.36 3.924-14.84 6.029-22.88 6.251-23.88.122-.55.496-1.45.83-2 .335-.55 1.187-3.7 1.894-7 .707-3.3 2.049-7.12 2.983-8.5.933-1.37 1.994-3.46 2.357-4.63.364-1.17 1.548-3.15 2.632-4.4 1.177-1.36 1.97-3.73 1.97-5.89 0-3.42-.26-3.7-4.884-5.34-5.768-2.05-6.811-2.09-10.116-.33Zm494.574 18.84c-.81 1.24-1.782 4.28-2.16 6.75-.378 2.48-1.024 4.95-1.435 5.5-.411.55-1.054 2.43-1.428 4.18-.374 1.75-1.219 3.63-1.877 4.18-3.553 2.94-29.809 10.54-36.174 10.46-2.2-.02-5.8-.37-8-.76-3.372-.61-4.188-.41-5.197 1.26-2.89 4.79 3.267 14.35 12.197 18.95 5.453 2.81 11.598 3.33 21.632 1.83l5.632-.85.389 17c.234 10.18.828 17.55 1.482 18.37.601.76 1.079 2.12 1.062 3.02-.043 2.32 2.372 7.86 3.424 7.86.484 0 .879.5.879 1.11 0 2.48 12 15.89 14.223 15.89.474 0 1.827.9 3.007 2 1.181 1.1 2.737 2 3.459 2 .721 0 1.311.45 1.311 1s.638 1 1.417 1 1.566.42 1.75.94c.416 1.18 14.833 2.54 17.997 1.7 1.285-.34 3.871-1.98 5.747-3.65 3.036-2.7 3.392-3.55 3.235-7.69-.097-2.57-.378-4.87-.626-5.11-.247-.25.01-1.31.572-2.36.62-1.16.749-4.68.327-8.95-.581-5.9-1.037-7.18-2.806-7.85-1.162-.44-2.563-.46-3.113-.05-.55.41-3.015 1.01-5.478 1.32-2.464.31-4.639 1.05-4.834 1.64-.54 1.62-9.803 1.3-11.498-.39-.798-.8-1.654-1.25-1.9-1.01-.247.25-1.472-.64-2.723-1.97-1.983-2.11-2.335-3.75-2.74-12.74-.288-6.4.04-13 .863-17.33l1.329-7 8.99-1.24c4.945-.69 10.084-1.73 11.419-2.31 1.335-.59 4.631-1.49 7.324-2 5.343-1.01 16.748-5.89 16.748-7.16 0-.43.605-.79 1.345-.79s2.16-.9 3.155-2c.995-1.1 2.538-2 3.427-2 2.531 0 24.073-21.77 24.073-24.33 0-.7.469-1.74 1.042-2.31.724-.73.644-1.38-.26-2.13-2.099-1.74-28.616 4.47-33.282 7.8-1.857 1.32-30.777 7.01-39.25 7.72l-5.25.44-.178-3.35c-.098-1.84-.119-4.24-.045-5.34.175-2.63-1.827-10.66-3.055-12.25-1.516-1.96-4.533-1.47-6.148 1Zm-517.918 35.96c-.811 1.81-1.708 4.42-1.995 5.79-.287 1.38-1.019 4.3-1.626 6.5-.608 2.2-1.254 5.03-1.436 6.28-.433 2.99-.47 3.02-5.42 3.81l-4.245.68.652-4.39c.358-2.41 1.318-4.91 2.133-5.56.815-.65 1.199-1.64.853-2.2-.345-.56.285-1.51 1.4-2.1 1.115-.6 2.028-1.91 2.028-2.92s.823-2.9 1.83-4.21c1.006-1.32 2.128-3.21 2.493-4.2.364-1 1.084-1.56 1.598-1.24.514.32 1.288-.44 1.72-1.68l.785-2.27.352 2.21c.193 1.22-.312 3.7-1.122 5.5Zm414.055.01c-1.508 2.9-2.735 5.79-2.727 6.41.009.62-1.11 3.67-2.485 6.78-4.235 9.57-10.549 29.22-11.115 34.59-.501 4.75-.403 20.39.15 23.94 1.115 7.16 4.225 17.06 5.36 17.06.358 0 1.541 1.69 2.629 3.75 1.087 2.06 3.439 5.15 5.227 6.87 1.788 1.71 3.25 3.85 3.25 4.75 0 .9.71 1.63 1.577 1.63s2.9 1.32 4.518 2.94c3.984 3.99 13.034 7.06 20.776 7.06 5.478 0 7.054-.48 12.934-3.97 3.682-2.18 7.239-4.43 7.903-5 .664-.57 1.472-1.03 1.795-1.03.526 0 11.365-10.97 14.084-14.25.598-.73 1.356-2.43 1.685-3.78.735-3.04-1.383-18.14-2.813-20.07-1.909-2.57-7.459-16.09-7.459-18.17 0-.78-1.113-1.92-2.472-2.53-1.36-.62-2.759-2.27-3.109-3.67-.35-1.39-1.276-2.53-2.059-2.53-.782 0-1.682-.67-1.998-1.5-.317-.82-1.09-1.5-1.719-1.5-.629-.01-3.393-1.78-6.143-3.94-8.101-6.36-13.634-9.46-14.47-8.11-.999 1.62-.214 5.77 1.994 10.55 6.074 13.15 6.775 19.06 3.921 33-1.487 7.26-4.241 10.11-10.797 11.15-6.241.99-8.222.61-10.986-2.09-2.07-2.02-2.334-3.19-2.296-10.17.023-4.34.196-10.59.383-13.89 1.181-20.75 1.751-50.68 1.039-54.49-1.179-6.3-3.229-6.23-6.577.21Zm-228.211 1.06c8.52 1.5 9.784 2.22 8.929 5.05-1.37 4.56-3.672 8.6-4.777 8.39-.634-.12-1.294 1.02-1.468 2.53-.174 1.51-.627 2.75-1.006 2.75-.38 0-1.259 1.24-1.954 2.75-2.511 5.46-4.068 6.83-6.235 5.48-3.305-2.07-4.683-1.41-6.884 3.27-1.163 2.48-2.563 4.5-3.11 4.5-.547 0-.995.68-.995 1.5 0 .83-.45 1.5-1 1.5s-1 .65-1 1.45c0 .79-1.161 3.61-2.58 6.25-2.888 5.38-3.154 8.45-1.443 16.69 1.094 5.27 1.476 5.81 5.35 7.63 3.433 1.6 5.106 1.8 9.431 1.11 2.891-.46 6.077-1.57 7.078-2.48 1.002-.91 2.249-1.65 2.772-1.65.523 0 1.599-.9 2.392-2 1.038-1.44 2.589-2 5.537-2 7.895 0 24.427 3.84 29.11 6.76 2.135 1.33 2.137 1.36.337 6.29-1.8 4.92-7.343 12.09-12.473 16.12-3.479 2.74-22.117 10.83-24.939 10.83-1.195 0-2.6.4-3.122.89-1.178 1.1-15.656 4.05-18.109 3.69-1.065-.16-2.06-1.45-2.442-3.17-1.299-5.85-4.113-10.79-8.149-14.3-1.512-1.32-2.75-3.01-2.75-3.75 0-.75-.461-1.36-1.025-1.36-.886 0-2.637-3.33-3.421-6.5-.136-.55-.766-2.27-1.4-3.81-.635-1.55-1.154-3.31-1.154-3.91 0-3.32-6.657-21.78-8.884-24.63-1.439-1.84-3.376-4.54-4.305-6-1.919-3.01-1.648-2.66-8.236-10.67-2.708-3.29-5.436-6.43-6.062-6.98-.627-.55-2.01-2.56-3.076-4.46-1.065-1.91-3.225-4.67-4.798-6.15-2.692-2.53-2.791-2.9-1.67-6.3.655-1.98 2.168-4.15 3.361-4.81 1.429-.8 10.531-1.44 26.67-1.88 27.251-.74 37.167-.45 47.5 1.38Zm131 5.78c-26.06.86-32.5 1.95-32.5 5.48 0 .92 1.009 1.47 2.75 1.48 1.512 0 3.423.44 4.245.96 1.311.83 1.293 1.1-.148 2.23-.903.71-3.644 3.77-6.09 6.79-2.446 3.03-6.092 7.28-8.102 9.45-2.01 2.17-3.655 4.53-3.655 5.25 0 .71-.45 1.3-1 1.3s-1 .68-1 1.51-.9 2.28-2 3.22c-1.1.94-2 2.46-2 3.37 0 .91-.675 2.22-1.5 2.9-.825.69-1.509 1.98-1.521 2.87-.012.9-1.184 4.78-2.606 8.63-1.422 3.85-3.003 10.15-3.514 14-.511 3.85-1.303 8.38-1.76 10.06-1.759 6.47 1.57 26.71 5.082 30.9.481.57 2.379 3.21 4.217 5.85 3.108 4.48 12.289 11.67 14.939 11.71.64 0 3.032.66 5.316 1.46 2.285.79 6.335 1.52 9 1.6 6.38.22 17.435-.93 18.781-1.94.586-.44 2.641-1.42 4.566-2.17 1.925-.75 4.625-2.1 6-3.02 1.375-.91 5.143-3.41 8.374-5.55 3.23-2.14 7.494-5.43 9.475-7.29 1.98-1.87 5.098-4.02 6.927-4.79 3.872-1.62 17.004-14.42 20.507-19.99 1.676-2.67 2.315-4.96 2.106-7.55-.18-2.23.264-4.29 1.108-5.13.774-.78 1.204-1.62.954-1.86-.249-.25-.654-5.15-.9-10.87-.286-6.66-1.188-12.72-2.499-16.8-1.129-3.51-2.052-7.19-2.052-8.19 0-1-.45-2.09-1-2.43-.55-.34-1-1.38-1-2.32 0-.93-.9-2.26-2-2.95-1.1-.68-2-1.92-2-2.75 0-.83-.411-2.29-.914-3.24-.503-.96-1.847-4.06-2.986-6.89-2.567-6.39-8.352-12.98-12.484-14.22-5.372-1.63-8.578-1.74-29.116-1.07Zm8.934 9.01c1.136.47 3.866 1.34 6.066 1.91 4.86 1.28 7.32 3.29 10.343 8.45 1.955 3.34 2.321 5.44 2.436 14 .174 13.01-2.54 28.55-6.039 34.57-2.527 4.35-9.824 12-11.446 12-.437 0-.794.62-.794 1.38 0 .75-2.25 2.34-5 3.53-2.75 1.18-5 2.58-5 3.1 0 .53-1.52 1.6-3.378 2.38-1.858.77-3.684 1.9-4.059 2.51-.375.6-1.371 1.1-2.214 1.1-.844 0-2.71.93-4.148 2.06-1.696 1.33-3.42 1.85-4.908 1.48-1.261-.32-2.293-.18-2.293.31 0 1.44-8.987 2.23-13.025 1.14-5.924-1.59-6.492-2.87-5.009-11.28 1.441-8.17 4.371-18.18 7.152-24.45 1.035-2.33 1.882-4.75 1.882-5.37 0-.63 1.302-3.67 2.894-6.76 5.74-11.16 6.702-14.53 7.996-28.02.548-5.72 1.4-10.8 1.893-11.29.493-.5 2.431-1.78 4.307-2.86 2.93-1.68 4.597-1.87 11.844-1.35 4.638.33 9.363.99 10.5 1.46Zm-307.084 206.89c-1.182.49-2.655 2.43-3.273 4.31-.618 1.87-2.463 4.68-4.1 6.25-1.637 1.57-2.977 3.41-2.977 4.08 0 .68-.346 1.38-.769 1.57-.423.18-2.846 3.26-5.385 6.83-2.539 3.58-6.011 8.08-7.715 10-1.704 1.93-3.106 4.24-3.115 5.14-.009.91-.691 1.91-1.516 2.22-.825.32-1.5 1.22-1.5 2 0 .79-.675 1.69-1.5 2-.825.32-1.5 1.23-1.5 2.03 0 .79-1.8 3.37-4 5.73-2.258 2.42-4 5.29-4 6.59 0 1.39-.601 2.29-1.525 2.29-.904 0-1.776 1.26-2.142 3.09-.34 1.69-1.228 3.32-1.975 3.6-.747.29-1.358 1.29-1.358 2.22 0 .93-.468 2.16-1.04 2.73-.572.57-1.863 2.57-2.868 4.45-1.006 1.88-2.451 3.42-3.211 3.43-.76.02-1.257.77-1.105 1.68.152.91-.523 1.9-1.5 2.21-2.593.82-11.006 2.59-16.898 3.55-2.817.46-5.967 1.27-7 1.8-1.033.54-5.465 1.29-9.85 1.67-4.385.38-8.523 1.15-9.196 1.71-.74.61-6.391.89-14.237.69-10.873-.28-13.276-.07-14.612 1.26-1.466 1.47-1.454 1.9.144 5.25.959 2.02 2.227 3.66 2.818 3.66.59 0 1.636.9 2.323 2s1.768 2 2.403 2 3.218 1.32 5.74 2.92c2.525 1.61 7.684 3.92 11.466 5.13 5.907 1.89 8.249 2.12 16.61 1.6 5.353-.33 10.007-.32 10.343.01.336.34-.217 1.79-1.228 3.23-1.012 1.43-2.188 3.74-2.614 5.11-.426 1.38-1.61 3.09-2.631 3.81-1.022.72-1.857 2.23-1.857 3.35 0 1.13-1.352 3.76-3.005 5.85-1.653 2.08-3.291 5.22-3.641 6.97-.421 2.1-1.453 3.49-3.055 4.1-1.331.5-2.123 1.4-1.761 1.98.362.59-.026 1.83-.862 2.75-.836.93-1.83 2.93-2.206 4.44-.378 1.51-1.038 2.75-1.467 2.75-.43 0-1.076 1.58-1.437 3.5-.361 1.93-1.086 3.5-1.611 3.5-.525 0-.955 1.04-.955 2.32 0 1.27-1.588 4.09-3.528 6.25-3.897 4.34-3.998 7.25-.381 10.93 3.156 3.21 12.755 2.51 20.409-1.49 7.408-3.87 8.5-5.25 8.5-10.73 0-4.78 2.287-11.28 3.968-11.28.629 0 .823-.98.47-2.39-.33-1.32-.14-2.68.423-3.02.563-.35 1.335-2.71 1.715-5.25.38-2.53 1.53-5.45 2.558-6.47 1.026-1.03 1.866-2.68 1.866-3.68s.788-2.7 1.75-3.79c2.142-2.42 6.257-10.43 6.253-12.17-.003-1.36 5.027-9.52 6.19-10.04.382-.18.456-.94.164-1.7-.292-.76.295-2.23 1.306-3.26 2.937-2.99 10.969-7.23 13.706-7.23 1.382 0 2.79-.45 3.13-1 .34-.55 1.258-1 2.04-1 1.108 0 1.294 1.04.848 4.75-2.553 21.19-3.026 27.74-2.672 37.07.222 5.88.827 11.11 1.344 11.63.518.52.94 2.11.94 3.53s.62 3.46 1.376 4.55c.756 1.08 1.695 3.88 2.088 6.22.392 2.34 1.047 4.25 1.456 4.25.409 0 1.372 1.24 2.142 2.75 2.342 4.6 6.178 9.5 11.558 14.75 7.295 7.12 9.132 8.5 13.239 9.96 2.003.71 5.641 2.34 8.084 3.62 6.45 3.37 19.229 3.83 27.938 1 3.509-1.15 6.997-2.08 7.75-2.08.754 0 1.37-.38 1.37-.84 0-.47 2.136-1.93 4.747-3.25 6.651-3.37 12.253-8.11 12.253-10.36 0-.72.709-1.89 1.576-2.61 1.306-1.09 1.74-1.06 2.531.12.647.98.725.48.24-1.56-1.015-4.27-.67-6.79 1.108-8.09 2.092-1.53 3.768-10.69 2.544-13.91-1.52-4-4.397-3.02-11.205 3.83-3.462 3.48-7.081 6.62-8.044 6.97-.963.35-1.75 1.33-1.75 2.17 0 .84-.839 1.53-1.865 1.53s-3.025.91-4.442 2.03c-4.604 3.62-13.52 6.78-21.193 7.51-9.372.9-18.991-3.33-26.217-11.53-2.127-2.41-5.481-8.42-5.867-10.51-.101-.55-.737-3.02-1.413-5.5-.675-2.47-1.263-9.51-1.305-15.63-.062-9.08.228-11.44 1.572-12.78 1.328-1.33 1.534-2.88 1.058-7.98-.394-4.22-.214-6.56.54-7.03.623-.38 1.147-2.13 1.165-3.89.035-3.44 3.145-13.34 4.587-14.6.962-.85 10.102-3.67 14.88-4.6 1.65-.33 4.575-.99 6.5-1.49 1.925-.49 7.1-1.68 11.5-2.63s8.29-2.17 8.645-2.69c.355-.53 2.685-.99 5.178-1.03 2.494-.04 4.343-.38 4.111-.76-.579-.93 2.164-1.89 5.425-1.89 1.483 0 3.584-.59 4.668-1.32 1.085-.73 3.548-1.95 5.473-2.71 1.925-.76 4.095-1.97 4.821-2.68.727-.71 2.935-1.29 4.906-1.29 2.288 0 4.777-.91 6.883-2.52 1.814-1.38 4.659-2.78 6.322-3.12 1.663-.33 3.538-1.22 4.168-1.98.63-.76 1.704-1.38 2.388-1.38.683 0 2.386-.9 3.785-2 1.398-1.1 3.511-2 4.694-2 1.183 0 1.885-.43 1.559-.96-.487-.78 4.219-4.04 5.845-4.04 1.15 0 1.712 6.19.675 7.44-.873 1.06-.553 1.99 1.413 4.11 1.399 1.51 2.997 4.43 3.551 6.49 1.783 6.62 9.698 9.72 14.938 5.84 2.74-2.03 3.052-2.8 3.052-7.6 0-2.94-.648-6.9-1.44-8.79-1.365-3.27-1.125-10.49.348-10.49.355 0 2.155-1.38 3.998-3.06 1.844-1.68 4.397-3.75 5.674-4.58 3.006-1.97 6.415-.93 6.435 1.96.055 8.03 1.199 28.42 1.946 34.68.491 4.13.939 10.43.994 14 .056 3.58 1.231 12.99 2.613 20.93 1.381 7.93 2.294 14.99 2.028 15.68-.266.69-.036 1.41.511 1.59 1.352.45 5.967 13.87 5.198 15.12-.345.55-.108.68.54.28.635-.4 1.155-.27 1.155.28 0 .54.52 2.26 1.156 3.81.636 1.54 1.058 3.6.937 4.56-.12.96.18 1.75.667 1.75.487 0 1.882 1.91 3.1 4.25 2.749 5.27 4.298 7.79 5.824 9.46.652.72 1.47 2.2 1.818 3.3.348 1.09 1.101 1.99 1.672 1.99.572 0 .781.68.464 1.5-.331.86-.018 1.5.738 1.5.723 0 2.171.95 3.219 2.12l1.905 2.12-7.5-.37c-6.853-.34-7.5-.2-7.5 1.55 0 1.16 1.954 3.28 5 5.41 2.75 1.92 5.15 3.87 5.333 4.33.184.46 1.162.84 2.173.84 1.012 0 3.167 1.33 4.789 2.95 1.622 1.62 4.099 3.24 5.505 3.59 1.405.35 2.79 1.25 3.076 2 .286.74 2.906 2.47 5.822 3.82 5.303 2.47 9.802 7.5 9.802 10.95 0 .93.498 1.69 1.107 1.69s.841-.69.517-1.54c-.981-2.55 1.928-2.75 8.136-.54 6.752 2.39 25.747 3.06 26.459.92.213-.63 1.897-1.11 3.744-1.06 3.103.09 11.102-3.3 11.87-5.03.184-.41 1.135-.75 2.115-.75.98 0 2.926-.9 4.325-2 1.398-1.1 2.786-2 3.084-2 .298 0 2.927-2.27 5.842-5.05 2.916-2.78 6.426-5.74 7.801-6.57 1.375-.84 3.597-3.96 4.938-6.94 1.34-2.98 3.253-5.68 4.25-6 .996-.32 1.812-1.39 1.812-2.38 0-2.04 2.331-4.4 3.342-3.38.362.36.658-.36.658-1.61 0-1.24.878-3.49 1.95-5 1.073-1.51 1.925-3.6 1.894-4.65-.032-1.06.428-3.27 1.021-4.92s1.324-4.24 1.626-5.75c.91-4.57 3.019-3.31 2.929 1.75-.044 2.48.273 4.5.705 4.5.431 0 1.084 1.69 1.449 3.75.721 4.06 5.08 11.89 8.95 16.06 1.798 1.94 2.105 2.83 1.197 3.48-.881.62-.806.75.272.46.821-.23 3.653.86 6.294 2.42 2.64 1.56 5.439 2.83 6.218 2.83.779 0 2.243.89 3.253 1.97 2.478 2.66 14.965 5.41 23.989 5.28 11.098-.16 23.824-2.92 29.753-6.45 1.65-.99 4.055-1.79 5.344-1.8 1.531 0 2.532-.72 2.887-2.08.359-1.37 1.137-1.93 2.28-1.63 1.296.34 1.611-.02 1.246-1.42-.33-1.26.039-1.87 1.126-1.87.89 0 1.617-.45 1.617-1s.592-1 1.316-1c.724 0 2.668-1.46 4.32-3.25 1.652-1.79 5.533-5.49 8.623-8.22 5.96-5.27 7.741-8.06 7.741-12.14 0-1.39.471-3.4 1.046-4.48.576-1.07.696-2.5.268-3.18-.695-1.1-1.165-9.34-1.222-21.42-.014-3.19-.51-4.46-2.056-5.29-1.12-.6-2.036-1.83-2.036-2.73 0-.9-.623-2.34-1.384-3.21-2.902-3.31-7.793-16.23-7.168-18.93.436-1.89.335-2.23-.349-1.2-.767 1.15-1.095.91-1.62-1.18-.362-1.44-1.518-3.4-2.569-4.35-1.05-.95-1.913-2.67-1.917-3.82-.003-1.16-.9-3.45-1.993-5.1-1.093-1.65-1.99-3.77-1.993-4.71-.004-.95-1.378-3.28-3.054-5.19-3.736-4.26-10.343-6.61-18.89-6.73l-6.299-.09.501-4.44c.439-3.89.199-4.64-1.927-6.04-2.116-1.38-2.777-1.41-5.133-.19-1.488.76-3.155 1.88-3.705 2.49-.55.6-2.575 1.68-4.5 2.4-1.925.72-3.95 1.84-4.5 2.49-.55.65-3.823 1.48-7.272 1.83-8.044.84-16.228 3.51-16.228 5.3 0 1.04 1.64 1.38 6.573 1.38 5.719 0 6.531.23 6.244 1.75-.181.96-1.339 2.19-2.573 2.74-1.234.54-2.244 1.33-2.244 1.75 0 .85-1.698 2.92-7.25 8.84-2.062 2.2-3.75 4.43-3.75 4.96 0 .53-.675.96-1.5.96s-1.5.48-1.5 1.06c0 .58.45.78 1 .44s1 .04 1 .83c0 .8-.654 1.71-1.452 2.01-.799.31-2.395 2.5-3.547 4.86-1.152 2.37-3.199 5.83-4.548 7.7-1.349 1.87-2.453 4.45-2.453 5.75 0 1.29-.419 2.35-.93 2.35-.512 0-1.075 1.01-1.251 2.25-.208 1.46-.955 2.2-2.136 2.1-.999-.08-1.56.11-1.247.42.312.31-.22 1.45-1.184 2.53-1.691 1.9-1.674 1.94.498 1.27 2.232-.7 3.198.73 1.294 1.9-.526.33-.721 1.21-.432 1.96.288.75.044 1.67-.544 2.03-.587.36-1.107 2.09-1.154 3.85l-.086 3.19-.929-3c-.512-1.65-1.122-4.12-1.357-5.5-1.65-9.66-2.272-10.78-10.518-19.01-4.958-4.95-14.806-10.99-17.909-10.99-.652 0-2.207-.67-3.457-1.49-1.249-.82-6.485-1.92-11.636-2.45-11.902-1.24-12.655-1.91-10.104-9.1 1.065-3 2.015-5.01 2.111-4.46.097.55.678-.57 1.291-2.5 1.607-5.04 1.222-26.36-.597-33.05-2.02-7.43-9.623-15.41-18.866-19.8-3.654-1.73-7.276-3.15-8.05-3.15-.774 0-1.835-.38-2.357-.85-.98-.87-12.099-3.13-25.738-5.24-9.243-1.43-39.326-.7-41.022 1-.599.6-2.202 1.09-3.56 1.09-2.111 0-7.323 2.01-19.121 7.37-5.073 2.3-13.901 8.67-15.882 11.45-1.369 1.92-2.967 2.9-4.836 2.96-1.535.05-5.473.8-8.751 1.66-3.278.86-6.735 1.56-7.681 1.56-.946 0-7.183 1.8-13.859 4s-12.981 4-14.01 4c-1.03 0-2.155.46-2.5 1.02-.346.56-.937.82-1.315.59-1.087-.67-11.538 1.45-12.971 2.64-.712.59-2.873 1.01-4.801.94-1.928-.07-5.17.48-7.204 1.24-2.034.75-8.199 2.12-13.699 3.04-5.5.92-13.42 2.31-17.6 3.1-8.167 1.54-14.082 1.86-12.304.67.603-.41 1.391-2.94 1.752-5.64.36-2.69 1.143-5.49 1.739-6.2.597-.72.783-1.8.413-2.4-.37-.6-.243-1.63.281-2.29.524-.67 1.249-3.68 1.612-6.71.648-5.41 4.322-22.97 7.161-34.23 1.922-7.63 1.823-11.12-.37-13.1-2.285-2.07-7.025-2.9-9.834-1.71Zm578.794 16.37c-2.056 2.47-4.144 8.59-4.144 12.14 0 1.94-.357 3.53-.793 3.53-.436 0-1.596 2.36-2.579 5.25-.982 2.89-2.313 5.94-2.957 6.78-.644.84-5.671 2.54-11.171 3.78-5.5 1.23-11.919 2.68-14.264 3.22-2.346.53-5.651.97-7.346.97-1.695 0-5.401.64-8.236 1.42-2.835.78-8.808 1.71-13.275 2.06-6.822.53-8.216.39-8.719-.92-.738-1.93-11.605-2.21-13.46-.36-2.375 2.38-1.425 11.87 1.862 18.61 2.625 5.38 12.938 18.04 12.938 15.89 0-.41 1.117-.01 2.482.88 1.999 1.31 3.847 1.49 9.5.92 4.623-.46 7.018-1.13 7.018-1.97 0-1.23 4.652-4.62 10.25-7.47 1.513-.77 2.75-1.78 2.75-2.24 0-.47 1.237-.81 2.75-.76 1.513.05 4.55-.38 6.75-.96s4.525-1.06 5.167-1.08c1.401-.02 1.098 6.33-.392 8.21-.553.7-1.311 4.37-1.684 8.17-.372 3.79-1.131 7.74-1.686 8.78-.555 1.04-1.226 5.13-1.49 9.1-.264 3.97-.699 8.23-.966 9.47-.268 1.24-.094 2.25.387 2.25s1.157 3.03 1.503 6.73c.537 5.75 3.533 15.28 6.761 21.51.495.95.9 2.23.9 2.83 0 1.73 16.697 17.93 18.479 17.93.881 0 2.961 1 4.621 2.23 2.634 1.95 4.212 2.23 12.376 2.18 9.065-.05 9.477-.16 13.191-3.3 7.195-6.1 8.149-7.14 10.35-11.38 1.211-2.32 2.593-4.48 3.071-4.78 1.057-.66 1.445-14.28.452-15.88-.814-1.32-4.28-.47-6.289 1.54-1.701 1.7-13.305 5.34-19.394 6.08-3.237.39-5.63.07-7.904-1.06-1.793-.9-3.866-1.63-4.607-1.63-.74 0-1.346-.51-1.346-1.13 0-.63-1.121-2.18-2.49-3.45-1.502-1.39-2.254-2.92-1.893-3.86.328-.86.148-1.56-.402-1.56-1.66 0-2.451-4.89-2.817-17.44-.258-8.8.049-13.11 1.166-16.4.834-2.46 1.784-6.42 2.112-8.81.328-2.39.933-4.35 1.345-4.35.412 0 1.055-2.45 1.429-5.44.565-4.53.965-5.35 2.365-4.86 1.373.49 1.453.35.435-.75-1.799-1.94-1.543-2.95.75-2.95 1.1 0 2-.37 2-.83 0-.46.563-.84 1.25-.85 6.078-.08 24.849-4.49 27.291-6.4.572-.45 3.272-1.31 6-1.91 2.727-.6 5.537-1.85 6.244-2.79.706-.93 1.831-1.75 2.5-1.81.668-.06 2.228-.17 3.465-.26 1.237-.08 2.25-.74 2.25-1.45 0-.72 2.362-2.13 5.25-3.13 2.888-1.01 5.7-2.35 6.25-2.99.55-.64 2.575-1.96 4.5-2.94 1.925-.97 4.625-2.39 6-3.14 4.195-2.3 9.719-4.5 11.294-4.5.821 0 1.735-.63 2.031-1.41.297-.77 1.945-1.71 3.663-2.09 2.176-.47 3.028-1.19 2.808-2.34-.397-2.09-10.806-2.82-18.296-1.29-17.293 3.52-66.055 9.91-67.172 8.79-.161-.16.149-1.83.689-3.72.541-1.88.983-4.69.983-6.23 0-1.55.687-4.14 1.526-5.76 1.284-2.48 1.302-2.95.116-2.95-1.268 0-3.024-3.35-2.75-5.25.059-.41-.342-.75-.892-.75s-1-.67-1-1.5c0-1.93-7.276-2.08-8.856-.17Zm77.439 14.54c-.431.69-.513 1.53-.183 1.86.895.9 1.871-.42 1.387-1.87-.338-1.01-.574-1.01-1.204.01Zm-670.536 9.9c-1.007 2.05-2.61 6.43-3.563 9.73-.952 3.3-2.129 6.68-2.614 7.5-.486.83-1.146 2.18-1.467 3-1.362 3.5-2.694 6.61-3.52 8.24-.486.95-.883 3.1-.883 4.78 0 3.38-2.543 4.98-6.66 4.19-2.887-.55-3.1-2.21-.281-2.21 1.176 0 1.782-.45 1.414-1.04-.355-.58-.101-1.7.563-2.5.851-1.03.877-1.46.086-1.46-1.55 0-1.413-2.72.187-3.7.72-.44 1.933-2.37 2.696-4.3.763-1.92 2.65-5.57 4.191-8.11 1.542-2.54 2.804-5.3 2.804-6.14 0-1.93 2.678-3.05 3.426-1.44.306.65.304.18-.003-1.06-.349-1.41.216-3.34 1.509-5.15 1.138-1.6 2.068-3.43 2.068-4.06 0-.64.422-.9.938-.58.538.33.157 2.17-.891 4.31Zm21.032-2.19c.048 1.17.285 1.41.604.61.289-.72.253-1.59-.079-1.92-.332-.33-.568.26-.525 1.31Zm207.978 2.37c10.612 1.08 17.337 2.58 24.206 5.41 4.102 1.69 6.054 7.69 5.577 17.13-.211 4.19-.867 7.93-1.457 8.31-.591.39-1.329 2.28-1.641 4.2-.659 4.07-1.875 6.96-5.263 12.5-1.345 2.2-2.454 4.77-2.463 5.72-.022 2.3-6.071 8.78-8.2 8.78-.934 0-1.941.39-2.239.88-.297.48-1.674.95-3.059 1.04-1.385.09-3.445.25-4.579.34-2.668.22-15.939 12.88-15.939 15.21 0 1.46-.262 1.56-1.5.53-1.249-1.04-1.5-.91-1.5.76 0 1.11-.672 3.3-1.494 4.88-.821 1.57-1.496 3.84-1.5 5.03-.003 1.19-.568 2.43-1.256 2.75-1 .46-1 .7 0 1.16.688.32 1.25 2.09 1.25 3.92 0 2.71.77 3.94 4.104 6.58 3.792 3.01 4.666 3.25 11.487 3.25 7.188 0 7.478-.09 10.944-3.66 1.959-2.02 3.99-3.67 4.513-3.67.524 0 .952-.56.952-1.26 0-.69 1.326-1.84 2.946-2.56 1.684-.74 2.735-1.85 2.454-2.58-.27-.7.204-1.86 1.054-2.56.851-.71 1.546-1.72 1.546-2.26 0-.53.862-2.18 1.916-3.66 1.054-1.48 2.311-4.25 2.794-6.16 1.09-4.29 5.839-6.97 12.29-6.92 9.503.07 29.194 4.12 32.079 6.6.868.75 2.012 1.36 2.541 1.36.53 0 2.6 1.54 4.6 3.43 4.322 4.08 5.51 9.42 3.795 17.07-1.336 5.95-5.674 15.5-7.044 15.5-.534 0-.971.57-.971 1.27 0 .7-1.151 2.39-2.558 3.75a424.882 424.882 0 0 0-5.525 5.48c-1.632 1.65-3.405 3-3.942 3-.536 0-2.575 1.28-4.53 2.84-1.983 1.58-4.216 2.58-5.051 2.26-.824-.32-1.253-.18-.955.3.667 1.08-3.755 4.1-6 4.1-.897 0-3.05.74-4.785 1.64-6.007 3.13-6.582 3.33-8.122 2.73-.851-.32-2.612.11-3.913.96-3.423 2.24-21.541 4.67-34.862 4.67-13.36 0-15.867-1.16-17.908-8.3-.66-2.31-1.513-4.65-1.898-5.2-2.688-3.85-7.952-14.95-7.955-16.77-.002-1.23-.936-3.76-2.075-5.63-1.14-1.87-2.15-5.24-2.246-7.5-.096-2.25-.511-4.35-.921-4.66-.41-.3-.86-5.48-1-11.5-.14-6.01-.564-11.17-.944-11.46-.379-.29-.823-4.45-.985-9.25-.163-4.8-.577-8.73-.921-8.73-.344 0-.888-2.22-1.209-4.92-.32-2.71-1.048-5.75-1.617-6.75-1.473-2.6-5.078-14.31-5.078-16.49 0-1.01-.415-1.84-.922-1.84-.508 0-1.477-1.69-2.154-3.75-2.6-7.92-9.031-20.24-11.19-21.43-2.132-1.17-2.052-1.26 1.766-1.97 2.2-.4 8.05-.79 13-.86 4.95-.06 15.975-1.17 24.5-2.46 8.525-1.28 15.976-2.2 16.557-2.04.581.17 6.206.82 12.5 1.46Zm-77.514 7.98c-.317.51-.118 1.21.441 1.56.559.35 1.016-.07 1.016-.93 0-1.76-.6-2.02-1.457-.63Zm326.723 5.32c-1.158 3.44-2.339 7.63-2.625 9.33-.678 4-9.463 22.42-10.694 22.42-.521 0-.947 1.1-.947 2.44 0 1.34-.45 2.72-1 3.06-.55.34-1 1.63-1 2.86s-.38 2.67-.845 3.19c-1.989 2.24-9.446 26.72-9.066 29.76.081.66.088 1.87.014 2.69-.119 1.33-.254 1.33-1.213 0-.854-1.19-.912-1.08-.279.5.737 1.85.736 8.44-.006 21-.315 5.34 3.708 20.5 5.439 20.5.526 0 .956 1.13.956 2.5 0 1.38.9 3.51 2 4.75 4.35 4.89 5 5.79 5 6.92 0 .64.297.87.66.5.363-.36 1.267.21 2.009 1.27 2.585 3.69 15.925 4.95 26.971 2.54 1.727-.38 4.565-1.99 6.306-3.58 1.742-1.59 4.224-3.15 5.516-3.48 1.292-.32 2.574-1.45 2.85-2.5.568-2.18 3.639-2.54 5.593-.67 1.067 1.02 1.181.66.621-2-.517-2.45-.34-3.25.726-3.25.775 0 2.012-1.12 2.748-2.5.736-1.37 1.937-2.5 2.669-2.5s1.331-.45 1.331-1 .788-1.01 1.75-1.01c1.496-.02 1.532-.16.25-.99-1.255-.81-.977-1.46 1.696-3.98 1.757-1.66 3.557-3.02 4-3.03.94-.01 3.304-4.79 3.304-6.69 0-.71.627-1.3 1.393-1.3 1.632 0 2.607-2.14 2.607-5.71 0-1.41.844-3.96 1.875-5.67 1.97-3.28 3.717-18.62 2.12-18.62-.469 0-1.429-2.59-2.135-5.75-.738-3.31-2.255-6.72-3.571-8.04-1.259-1.27-2.289-2.92-2.289-3.69 0-.76-1.013-1.7-2.25-2.09-2.364-.74-10.727-8.53-10.781-10.05-.082-2.3-8.336-6.21-9.417-4.46-.339.54.032 3.83.824 7.29.792 3.46 1.594 8.54 1.782 11.29.188 2.75.737 5.29 1.219 5.64.483.35.837 4.14.787 8.43-.085 7.27-.28 7.95-2.877 10.08-1.533 1.25-2.224 2.29-1.537 2.31 1.773.06 1.56 2.04-.219 2.04-.899 0-1.243.59-.888 1.51.415 1.08.121 1.34-1.032.89-1.214-.46-1.611 0-1.611 1.86 0 3.21-3.59 7.74-6.132 7.74-1.148 0-1.709.45-1.329 1.06.794 1.29-2.309 4.94-4.194 4.94-.74 0-1.345.36-1.345.8 0 1.37-8.953 5.23-13.578 5.87-4.857.66-8.709-1.14-6.219-2.92.886-.63.542-.76-1.084-.4l-2.381.53.518-9.69c.299-5.6 1.199-11.26 2.131-13.41.887-2.04 1.613-4.99 1.613-6.55 0-1.56.548-3.38 1.217-4.05.67-.67 1.345-3.12 1.501-5.45.156-2.32.733-4.38 1.283-4.56.549-.19.999-1.4.999-2.69 0-1.3.45-2.64 1-2.98.55-.34 1-1.49 1-2.56s.45-1.94 1-1.94 1-1.16 1-2.58c0-1.42 1.053-5.81 2.341-9.75 4.413-13.51 5.679-18.18 6.563-24.17.487-3.3.753-6.22.59-6.5-.163-.27-.57-2.3-.905-4.5-.755-4.96-3.638-7.5-8.515-7.5-3.653 0-3.733.09-5.808 6.25Zm-94.032 26.8c5.615 1.56 14.68 7.1 15.4 9.41.35 1.12.912 2.27 1.251 2.54.945.77 3.325 7.26 3.486 9.5.078 1.1.496 2.55.927 3.22.89 1.39 2.367 13.86 3.055 25.78.328 5.68-.054 10.03-1.318 15-2.895 11.39-4.272 13.68-10.035 16.69-1.375.72-3.095 1.87-3.821 2.56-.727.69-2.028 1.25-2.89 1.25-.863 0-2.068.62-2.679 1.39-1.537 1.92-13.163 5.48-18.61 5.69-5.914.24-17-1.13-17-2.1 0-.42-1.1-1.04-2.444-1.38-3.049-.76-8.116-5.4-8.964-8.21-.396-1.31-.072-2.58.858-3.35 1.316-1.09 1.318-1.41.022-2.71-1.62-1.62-1.334-5.3 1.227-15.83.802-3.3 1.706-7.12 2.008-8.5.302-1.37 1.649-3.98 2.994-5.78 1.345-1.8 2.257-3.83 2.027-4.5-.231-.67 1.086-4.07 2.926-7.55 1.84-3.49 3.346-6.97 3.346-7.75 0-.78.448-1.42.995-1.42.547 0 1.984-2.14 3.194-4.75s2.482-4.97 2.828-5.25c.346-.27.919-1.29 1.275-2.25.355-.96 1.334-1.75 2.177-1.75.842 0 1.531-.48 1.531-1.07 0-1.25 1.985-3.34 6.815-7.18 3.886-3.09 4.212-3.15 9.419-1.7Zm177.766 13.95c0 .55.477 1 1.059 1s.781-.45.441-1-.816-1-1.059-1-.441.45-.441 1Zm-51.5 33c-.34.55-.141 1 .441 1s1.059-.45 1.059-1-.198-1-.441-1-.719.45-1.059 1Zm-71.421 4.58c.048 1.17.285 1.41.604.61.289-.72.253-1.59-.079-1.92-.332-.33-.568.26-.525 1.31Zm-2.396 1.61c-.319.8-.556.56-.604-.61-.043-1.05.193-1.64.525-1.31.332.33.368 1.2.079 1.92Zm-116.99 15.54c-.254.97-.478.42-.498-1.23-.02-1.65.187-2.45.461-1.77.274.68.291 2.03.037 3Zm-.693 4.77c0 .83-.436 1.5-.969 1.5-.532 0-.709-.67-.393-1.5.317-.82.753-1.5.969-1.5.216 0 .393.68.393 1.5Zm22 3.5c0 .55-.198 1-.441 1s-.719-.45-1.059-1c-.34-.55-.141-1 .441-1s1.059.45 1.059 1Zm1.564 4.71c-.542 1.42-.428 1.54.56.56.684-.68.991-1.49.683-1.8-.308-.3-.867.25-1.243 1.24Zm179.436 11.85c0 .86.457 1.28 1.016.93.559-.35.758-1.05.441-1.56-.857-1.39-1.457-1.13-1.457.63Zm-64.921 8.02c.048 1.17.285 1.41.604.61.289-.72.253-1.59-.079-1.92-.332-.33-.568.26-.525 1.31Zm28.921 13.42c0 .55.45 1 1 1s1-.45 1-1-.45-1-1-1-1 .45-1 1Zm-100 10c0 1.13.667 2 1.535 2 1.225 0 1.319-.4.465-2-.589-1.1-1.28-2-1.535-2-.256 0-.465.9-.465 2Zm-35.731-.31c.973.26 2.323.24 3-.03.677-.28-.119-.48-1.769-.46-1.65.02-2.204.24-1.231.49Zm28.231.31c-.782 1.27.542 1.27 2.5 0 1.293-.83 1.266-.97-.191-.98-.93-.01-1.969.43-2.309.98Z" clip-rule="evenodd"/>
</svg>
