<svg xmlns="http://www.w3.org/2000/svg" width="1452" height="1482" fill="none">
  <path fill="#000" fill-rule="evenodd" d="M1088.48 17.94c-24.97 28.138-113.627 58.158-151.264 51.226-25.471-4.69-43.489-1.37-195.264 35.954-43.352 10.666-86.386 18.098-95.633 16.527-14.082-2.395-107.192 31.963-160.547 59.239-8.03 4.103-40.13 20.108-71.32 35.553-31.193 15.459-75.243 41.485-97.889 57.87-22.657 16.369-43.821 25.923-47.059 21.239-3.223-4.694-12.513 4.098-20.618 19.522-8.118 15.423-35.12 45.978-60.016 67.9-24.884 21.924-46.29 45.507-47.56 52.403-1.27 6.895-22.314 36.696-46.77 66.212-34.647 41.831-50.3 77.122-70.972 159.992-15.115 60.6-23.611 122.75-19.76 144.503 3.726 20.99 8.907 68.199 11.534 104.925C26.813 1071.58 276.488 1316.55 509.75 1396.11c148.731 50.73 363.659 84.55 430.009 67.66 86.652-22.07 217.572-88.69 232.042-118.1 7.44-15.08 27.86-28.3 45.47-29.43 17.59-1.12 33.33-9.39 34.98-18.35 3.41-18.48 115.68-91.24 135.23-87.64 7.01 1.29 14.95-9.57 17.63-24.14 2.69-14.59 15.71-33.97 28.95-43.09 22-15.16 22.42-17.96 4.88-32.5-10.57-8.78-43.83-16.86-73.92-17.98-30.11-1.13-92.72-5.86-139.15-10.51-120.52-12.08-153.38-10.11-133.43 7.94 8.86 8.02 11.7 17.6 6.32 21.31-21.51 14.82-375.183-45.91-482.247-82.8-131.055-45.167-257.524-117.094-304.531-173.197-10.432-12.45-19.813-18.106-20.838-12.541-1.022 5.553-10.679-6.649-21.456-27.138-25.209-47.909-23.766-52.947 27.935-97.815 95.54-82.891 237.352-156.32 378.744-196.085 124.391-34.999 279.463-126.132 310.086-182.236 6.311-11.575 16.837-20.046 23.397-18.837 6.57 1.208 14.06-9.316 16.65-23.388 2.59-14.073 9.55-24.696 15.46-23.607 5.91 1.088 22.84-21.085 37.62-49.287 14.79-28.202 37.44-63.115 50.36-77.6 12.93-14.47 28.98-50.203 35.69-79.405 11.24-48.919 9.53-53.876-21.66-63.43-23.9-7.312-40.2-3.197-55.49 14.026Z" clip-rule="evenodd"/>
</svg>
