<svg xmlns="http://www.w3.org/2000/svg" width="9312" height="1973" fill="none">
  <path fill="#000" fill-rule="evenodd" d="M6913.54 610.681c-84.83 46.589-85.05 46.829-87.59 93.467-3.12 57.229 18.54 103.525 69.29 148.138 24.53 21.554 42.6 49.947 50.38 79.162 6.68 25.049 17.29 62.361 23.58 82.912 16.57 54.11 46.04 203.73 46.61 236.59 1.1 63.58 123.09 350.87 162.34 382.32 22.16 17.74 68.92-.21 75.64-29.03 3.23-13.95 3.79-49.64 1.22-79.33-2.58-29.69-.38-54.05 4.89-54.15 5.26-.08 39.69 18.16 76.51 40.53 154.86 94.1 281.15 135.74 405.2 133.6l63.34-1.1 21.5-50.93c11.81-28.01 23.87-78.4 26.8-111.97 5.02-57.6 3.87-61.42-20.36-67.81-14.12-3.71-35.39-10.59-47.27-15.26-49.75-19.58-122.08-34.23-172.43-34.93-31.1-.44-66.33-8.66-83.5-19.49-16.34-10.31-29.65-15.5-29.58-11.53.06 3.95-13.27.23-29.66-8.29-16.38-8.52-42.31-17.89-57.64-20.83-15.32-2.96-41.77-15.94-58.79-28.85-17.02-12.92-40.73-24.81-52.69-26.41-11.96-1.62-42.69-14.74-68.29-29.15-56.98-32.08-61.47-60.21-12.58-78.75 19.05-7.22 57.38-25.38 85.16-40.33 27.78-14.96 59.87-27.36 71.33-27.56 11.45-.19 23.71-5.24 27.26-11.2 3.54-5.96 15.98-11.01 27.64-11.21 11.66-.2 33.89-9.03 49.4-19.63 15.51-10.6 42.87-24.4 60.8-30.667 31.68-11.085 32.54-13.214 30.58-75.646-2.21-70.969-8.98-88.43-70-180.64-51.39-77.664-112.03-119.574-224.83-155.41-69.19-21.974-105.81-27.061-182.86-25.409-92.16 1.988-100.07 4.11-181.4 48.793Zm323.49 245.49c18.53 10.143 5.29 23.689-49.8 50.942-87.07 43.086-108.28 46.801-122.41 21.462-17.57-31.515-6.6-48.713 43.78-68.652 39.61-15.654 103.29-17.515 128.43-3.752Zm-251.1 31.271c15.14 14.633 18.78 72.647 4.56 72.892-5.26.091-12.68-11.402-16.48-25.545-3.82-14.142-10.02-33.351-13.79-42.686-8.06-19.992 7.01-22.721 25.71-4.661Zm1230.6-351.159c-3.54 5.963-15.39 10.997-26.32 11.186-14.75.254-21.51 11.177-26.23 42.358-3.5 23.1-33.22 97.26-66.05 164.789-32.83 67.529-62.91 136.652-66.83 153.6l-7.14 30.825-146.16-1.35c-101.48-.941-147.33 2.34-149.98 10.735-10.96 34.754 149.42 148.924 232.82 165.734 30.2 6.09 32.84 10.53 40.14 67.56 15.28 119.36 49.05 183.78 138.71 264.65 60.71 54.74 131.59 85.58 232.02 100.94 54.49 8.33 150.23-14.12 173.44-40.68 10.23-11.69 25.09-21.38 33.03-21.52 7.93-.14 14.45-6.28 14.47-13.66.02-7.38 18.79-22.46 41.7-33.5 30.7-14.79 44.74-29.97 53.36-57.7 19.22-61.81 13.41-65.05-127.22-70.85-70.21-2.88-146.84-11.71-170.29-19.62-23.47-7.9-59.56-14.49-80.22-14.64-48.58-.35-95.7-25.77-140.8-75.94-44.31-49.31-34.99-62.39 35.85-50.26 29.13 4.99 99.16 5.34 155.61.77 56.44-4.56 168.63-9.74 249.3-11.49l146.67-3.2 30.94 35.09c17.02 19.29 51.88 61.75 77.45 94.36 42.68 54.38 46.63 64.61 47.75 123.72.67 35.44-2.84 79.63-7.82 98.21-4.99 18.56-11.74 80.22-15.01 137.01-5.68 98.43-4.96 103.22 15.35 102.87 21.14-.37 46.82-59.18 101.49-232.47 19.86-62.95 12.3-189.79-16.82-281.98-9.72-30.76-14.84-60.7-11.37-66.53 3.47-5.84 27.65-10.98 53.74-11.43 112.61-1.94 281.98-45.13 267.21-68.13-3.38-5.25-41.22-14.48-84.09-20.49-42.88-6.02-92.51-14.99-110.31-19.96-17.79-4.96-63.77-11.43-102.19-14.37-122.12-9.36-117.35-7.13-178.26-83.909-52-65.539-162.27-172.459-185.04-179.384-31.41-9.566-104-62.795-96.39-70.685 3.67-3.798-4.23-6.72-17.56-6.489-13.32.23-36.51-8.899-51.52-20.294-15-11.384-43.73-23.497-63.85-26.916-20.12-3.42-36.65-10.238-36.74-15.173-.22-13.002-113.24-83.271-133.35-82.924-9.38.162-19.94 5.174-23.49 11.137Zm71.91 218.295c15.51 72.511 69.99 157.837 117.47 183.985 17.74 9.781 7.11 12.228-58.79 13.538-44.25.871-98.6-1.087-120.8-4.363-47.41-6.994-50.66-21.253-20.72-90.846 11.15-25.915 25.57-82.009 32.06-124.648 9.75-64.19 13.95-74.414 24.46-59.444 6.97 9.946 18.81 46.742 26.32 81.778ZM6279.68 546.784c-13.6 15.001-29.02 43.951-34.27 64.323-5.25 20.373-14.14 37.117-19.76 37.214-5.69.098-9.52 41.114-8.63 92.426 1.54 89.427 2.62 93.175 35.57 122.9 69.34 62.567 132.85 47.874 156.67-36.24 25.21-89.042-9.95-247.416-64.05-288.483-34.05-25.843-35.09-25.718-65.53 7.86Zm-610.15 182.48c-108.17 12.008-232.3 32.781-248.23 41.544-12.03 6.614-30.6 4.21-55.63-7.195-34.21-15.602-39.07-15.593-54.2.078-9.15 9.461-16.55 21.179-16.45 26.028.17 8.528-35.2 89.429-53.52 122.411-4.97 8.939-18.3 36.608-29.63 61.496-13.68 30.044-28.6 46.524-44.45 49.054-20.1 3.22-25.49 14.07-34.33 69.1-5.76 35.9-13.86 70.95-17.98 77.89-4.12 6.93-11.22 50.19-15.77 96.13-9.23 93.21 5.02 194.96 37.13 265.18 25.76 56.33 95.06 132.5 120.15 132.07 11-.19 23.34 4.87 27.44 11.26 7.6 11.84 48.1 8.28 128.81-11.31 34.08-8.27 61.74-29.47 126.5-96.96 86.85-90.5 127.75-151.18 109.29-162.15-5.88-3.49-81.85-4.31-168.8-1.81-149.66 4.31-179.01 1.96-217.52-17.4-26.71-13.44-19.85-38.19 10.1-36.4 27.46 1.63 118.61-28.29 128.05-42.05 7.87-11.47 71.41-43.95 86.47-44.21 7.25-.13 28.73-17.8 47.73-39.28 19-21.48 38.96-36.41 44.36-33.21 5.4 3.21 18.29-3.86 28.63-15.7 10.36-11.85 23.42-21.61 29.03-21.71 5.6-.1 23.31-11.26 39.34-24.82 16.03-13.57 39.06-31.72 51.19-40.36 12.12-8.63 21.07-19.31 19.86-23.72-1.2-4.42 7.34-15.69 18.98-25.04 37.36-30.04.77-40.334-115.42-32.48-97.01 6.56-104.5 5.59-111.2-14.315-5.38-15.993 2.97-30.689 33.37-58.696 22.31-20.549 52.56-40.795 67.25-44.998 14.68-4.192 61.05-21.969 103.05-39.51 41.99-17.53 84.5-32.021 94.47-32.193 9.97-.172 32.25-12.63 49.53-27.683 17.27-15.054 40.41-27.526 51.41-27.716 32.37-.559 35.29-21.213 4.57-32.293-26.13-9.422-185.13-8.855-273.58.968Zm708.23 206.9c-9.58 14.191-17.32 31.601-17.2 38.692.12 7.081-11.6 27.434-26.05 45.224-14.44 17.78-26.17 37.81-26.05 44.51.11 6.7-11.37 41.07-25.51 76.37-20.6 51.41-25.35 81.87-23.83 153.01 1.9 89.94 31.83 201.6 56.07 209.22 6.4 2.02 11.72 8.72 11.83 14.91.32 18.36 89.06 97.14 143.01 126.96 43.07 23.79 58.18 26.66 107.67 20.42 32.6-4.11 73.67-18.13 94.7-32.33 20.42-13.79 55.13-31.11 77.13-38.49 28.27-9.47 39.18-61.55 38.93-76.36-.2-11.53 6.83-23.86 15.62-27.41 21.84-8.82 19.73-33.75-3.37-40-10.39-2.81-51.99 34.33-93.36 31.21-86.76-6.52-131.24-17.27-199.36-48.16-77.86-35.3-80.58-39.95-66.36-113.2 8.63-44.44 9.21-97.98 1.92-179.21-5.72-63.71-9.59-130.65-8.61-148.749 1.05-19.302-6.81-43.161-18.98-57.674l-20.77-24.763-17.43 25.82ZM4251.97 552.066c-6.14 4.441-24.97 27.634-41.86 51.534-33.43 47.333-123.65 159.389-157 195.002-18.13 19.339-33.81 22.432-118.87 23.396-53.91.62-112.03-3.935-129.16-10.121-17.13-6.175-71.1-13.463-119.93-16.183-86.09-4.812-89.06-4.192-97.95 20.46-5.8 16.09-3.73 51.821 5.65 97.373 12.18 59.165 22.38 79.775 57.38 115.933 59.25 61.23 56.46 60 134.04 59.03 98.63-1.24 103.1 3.02 87.45 83.58-16.82 86.63-3.34 226.75 27.41 284.66 39.01 73.49 192.19 193.01 233.89 182.51 5.21-1.32 23.81 3.21 41.33 10.07 17.52 6.85 73.58 12.39 124.58 12.3l92.74-.16 71.9-72.98c39.55-40.14 76.29-73.05 81.66-73.15 5.37-.09 6.97-8.57 3.56-18.84-4.08-12.32 8.84-35.34 38-67.72 73.47-81.56 104.38-161.6 56.62-146.58-13.2 4.15-73.82 11.31-134.68 15.89-65.14 4.91-116.01 13.87-123.65 21.78-47.69 49.36-323.35 10.51-347.35-48.95-3.55-8.79 2.83-46.09 14.18-82.9l20.63-66.93 153.76-10.34c246.75-16.58 373.42-33.88 404.16-55.18 15.12-10.48 34.27-17.73 42.56-16.12 27.07 5.27 106.61-33.29 113.03-54.787 3.42-11.477 13.6-21 22.6-21.155 9-.156 18.82-10.337 21.81-22.633 4.2-17.296 11.2-21.012 30.9-16.426 18.41 4.286 25.4 1.407 25.19-10.372-.15-8.958 3.34-16.723 7.75-17.261 28.19-3.363 47.11-11.523 86.21-37.159 24.25-15.904 44.05-32.546 43.97-36.966-.08-4.43 10.09-12.998 22.6-19.041 0 0 6.37-32.12-270.19-25.864-156.34 3.547-313.21 7.801-348.6 9.475-63.59 2.997-63.9 3.163-26.58 14.387l37.76 11.367-58.89 7.628c-76.2 9.879-97.75 5.454-121.09-24.844-18.28-23.744-18.23-27.962.94-93.034 19.94-67.693 26.15-159.637 10.74-159.059-4.42.172-13.07 3.938-19.2 8.38ZM1186.48 192.948c-24.97 28.138-113.63 58.157-151.26 51.226-25.48-4.691-43.494-1.369-195.269 35.954-43.352 10.666-86.386 18.098-95.633 16.527-14.082-2.395-107.192 31.963-160.547 59.239-8.03 4.102-40.13 20.108-71.32 35.553-31.193 15.459-75.243 41.485-97.889 57.869-22.657 16.369-43.821 25.924-47.059 21.24-3.223-4.694-12.513 4.097-20.618 19.522-8.118 15.423-35.12 45.977-60.016 67.899-24.884 21.925-46.29 45.508-47.56 52.403-1.27 6.896-22.314 36.696-46.77 66.212-34.647 41.832-50.3 77.123-70.972 159.993-15.115 60.6-23.611 122.75-19.761 144.503 3.727 20.992 8.908 68.202 11.535 104.922 11.471 160.58 261.146 405.55 494.407 485.1 148.731 50.74 363.659 84.56 430.012 67.66 86.65-22.07 217.56-88.68 232.04-118.09 7.44-15.08 27.86-28.31 45.47-29.43 17.59-1.12 33.33-9.39 34.98-18.36 3.41-18.47 115.68-91.23 135.22-87.63 7.01 1.29 14.95-9.57 17.64-24.14 2.68-14.59 15.71-33.97 28.95-43.1 22-15.15 22.42-17.96 4.88-32.5-10.57-8.77-43.83-16.85-73.92-17.98-30.11-1.12-92.72-5.85-139.15-10.5-120.52-12.08-153.38-10.12-133.43 7.94 8.86 8.02 11.7 17.6 6.32 21.3-21.51 14.82-375.184-45.91-482.248-82.79-131.055-45.17-257.524-117.1-304.531-173.2-10.432-12.45-19.813-18.1-20.838-12.54-1.022 5.55-10.679-6.65-21.456-27.138-25.209-47.909-23.766-52.947 27.935-97.815 95.54-82.891 237.352-156.32 378.744-196.085 124.391-34.999 279.464-126.132 310.084-182.236 6.31-11.575 16.84-20.046 23.4-18.837 6.57 1.208 14.06-9.316 16.65-23.388 2.59-14.073 9.55-24.696 15.46-23.608 5.91 1.089 22.84-21.084 37.62-49.286 14.78-28.202 37.44-63.115 50.36-77.601 12.93-14.47 28.98-50.202 35.68-79.404 11.25-48.919 9.54-53.876-21.65-63.429-23.9-7.313-40.2-3.199-55.49 14.025Zm782.47 582.767c3.59.985 9.35 1.005 17.6-.304 15-2.381 23.15 3.28 25.43 17.692.03.162.05.323.08.484.03.167.05.334.08.504.03.161.05.323.07.484l.09.503c.02.162.05.323.07.484.03.167.06.335.08.504.03.161.05.323.08.484.03.166.05.334.08.504.03.161.05.322.07.483l.09.504c.02.162.05.323.07.484.03.167.06.335.08.504.03.161.05.323.08.484.03.166.05.334.08.504.03.161.05.322.07.483l.09.504c.02.162.05.323.07.484.03.167.06.335.08.504.03.161.05.323.08.484.03.166.05.334.08.503.03.162.05.323.07.484l.09.504c1.85 11.657-1.73 22.001-7.95 22.988-6.21.985-25.03 16.193-41.83 33.795-16.79 17.602-37.21 33.171-45.38 34.598-8.17 1.427-25.31 13.813-38.07 27.527-12.76 13.714-31.13 26.297-40.83 27.966-9.69 1.667-18.64 6.868-19.9 11.543-3.74 14.055-133.9 132.596-148.03 134.836-7.21 1.14-12.48 6.11-11.7 11.03.79 4.92-8.49 24.72-20.6 44-35.86 57.1-52.75 104.18-68.53 190.98-8.34 45.95-10.73 73.67-7.15 101.17 1.44 7.72 3.34 15.61 5.7 24.05 14.97 53.44 64.71 130.24 105.77 163.31 23.08 18.58 117.74 48.61 165.83 52.59 16.66 1.39 30.8 5.79 31.43 9.8 4.43 27.9 366.95-47.66 521.45-108.7 42.23-16.68 101.05-48.47 130.71-70.62 29.66-22.16 60.6-41.35 68.76-42.64 8.15-1.29 14.18-6.37 13.4-11.28-.78-4.91 14.17-20.72 33.22-35.15l3.63-13.02 10.61-37.97 17.11-50.53 32.43-69.47c3.99-6.75 5.47-15 4.3-21.47-.03-.16-.06-.32-.1-.48a6.49 6.49 0 0 0-.1-.47c-.04-.16-.07-.32-.11-.47-.04-.16-.08-.31-.13-.46-.04-.16-.08-.31-.13-.46-.04-.15-.09-.29-.14-.44-.05-.15-.1-.3-.16-.44-.05-.14-.1-.29-.16-.43-.57-1.42-1.3-2.69-2.21-3.74a14.73 14.73 0 0 1-3.46-7.79c-.06-.33-.11-.66-.16-.99-.06-.32-.11-.65-.15-.98-.07-.33-.12-.66-.16-.99-.06-.33-.11-.66-.16-.99-.06-.33-.11-.66-.15-.99-.07-.33-.12-.65-.16-.99-.06-.32-.11-.65-.16-.98-.06-.33-.11-.66-.15-.99-.07-.33-.12-.66-.16-.99-.06-.33-.11-.66-.16-.99-.95-4.91.64-10.14 4.62-13.57 3.57-3.07 5.03-8.58 4.33-17.05-1.72-7.9-4.62-17.49-8.71-28.98-6.46-18.14-12.8-45.32-16.67-69.9-.06-.33-.11-.66-.16-.98-.05-.33-.1-.66-.16-.99l-.15-.99c-.06-.33-.11-.66-.16-.99-.05-.33-.1-.66-.16-.99l-.15-.98c-.06-.33-.11-.66-.16-.99-.05-.33-.1-.66-.16-.99l-.15-.99c-.06-.33-.11-.65-.16-.98-1.79-11.23-3.08-21.94-3.64-31.04-.35-5.68-.85-11.11-1.54-16.39-5.15-27.368-16.3-52.508-38.57-89.862-21.24-35.599-39.5-70.301-40.58-77.126-1.09-6.835-5.56-11.883-9.93-11.222-4.37.65-18.51-12-31.41-28.129-14.79-18.491-43.4-34.333-77.42-42.874-115.3-28.954-150.55-40.332-151.93-49.032-1.88-11.847-238.82 7.686-304.78 25.134-25.81 6.827-45.83 18.572-53.07 27.386Zm431.15 34.927c64.17 24.004 105.29 74.413 114.26 132.161.05.329.11.658.16.987l.15.988c.06.329.11.658.16.988.05.329.11.658.16.987l.15.988c.06.329.11.658.16.988.05.329.11.658.16.987l.15.988c.06.329.11.658.16.988.05.329.11.658.16.987 4.53 27.968 1.51 57.691-10.1 86.981-33.17 83.69-50.6 117.8-61.11 119.54-5.9.98-13.75 13.13-17.45 27.01-4.55 17.11-30.77 39.2-81.32 68.54-161.79 93.86-517.01 162.33-526.75 101.53-.01-.05-.01-.11-.01-.17-.05-.27-.1-.54-.15-.82a.482.482 0 0 1 0-.17c-.06-.27-.11-.54-.15-.81-.01-.05-.01-.11-.01-.18-.06-.27-.11-.54-.15-.81-.01-.05-.01-.11-.01-.18-.05-.26-.1-.54-.15-.81a.484.484 0 0 1 0-.17c-.06-.27-.11-.54-.15-.82-.01-.05-.01-.1-.01-.17-.06-.27-.11-.54-.15-.82-.01-.04-.01-.1-.01-.17l-.15-.81a.54.54 0 0 1 0-.18c-.06-.26-.11-.54-.16-.81v-.17c-.06-.27-.11-.54-.15-.82-.01-.05-.01-.1-.01-.17-.05-.27-.1-.54-.15-.82a.477.477 0 0 1 0-.17c-.06-.27-.11-.54-.16-.81-.47-2.92 23.2-40.89 52.59-84.39 137.93-204.13 186.22-268.544 203.41-271.271 5.64-.895 14.75-9.229 20.27-18.512 5.5-9.281 24.06-27.033 41.24-39.437 17.17-12.394 37.77-27.514 45.77-33.585 49.06-37.245 81.26-57.877 93.28-59.783 7.55-1.199 18.53-10.273 24.4-20.167 14.93-25.172 48.13-27.667 101.67-7.633Z" clip-rule="evenodd"/>
  <path fill="#000" d="M2989.95 1646.45c47.38 31.87 172.12 57.76 265.36 55.07 95.33-2.74 226.51-39.44 256.41-71.74 12.42-13.43 28.68-25.37 36.12-26.55 7.44-1.18 23.44-19.6 35.55-40.95 12.11-21.34 27.41-46.98 33.97-56.99 29.69-45.24 39.83-116.6 30.28-183.79-5.19-29.61-14.27-58.08-27.25-82.74-43.17-81.99-94.09-140.39-151.87-174.18-54.64-31.95-350.21-131.664-377.46-127.342-15.17 2.407-48.72-17.821-50.75-30.601a2.808 2.808 0 0 1-.02-.306c-.05-.23-.1-.457-.13-.682a1.457 1.457 0 0 1-.03-.306c-.05-.229-.1-.457-.13-.682-.02-.093-.02-.195-.02-.305-.06-.23-.1-.457-.14-.682a2.808 2.808 0 0 1-.02-.306c-.05-.23-.1-.457-.13-.682a1.457 1.457 0 0 1-.03-.306c-.05-.229-.1-.457-.13-.682-.02-.093-.02-.194-.02-.305-.06-.23-.1-.457-.14-.682a2.808 2.808 0 0 1-.02-.306c-.05-.229-.1-.457-.13-.682a1.457 1.457 0 0 1-.03-.306c-.05-.229-.1-.456-.13-.682-.02-.092-.02-.194-.02-.305-.06-.23-.1-.457-.14-.682a2.808 2.808 0 0 1-.02-.306c-.05-.229-.1-.457-.13-.682a1.457 1.457 0 0 1-.03-.306c-.05-.229-.1-.456-.13-.682-1.52-9.558 81.11-115.442 91.35-117.066 13.95-2.213 70.35-90.639 76.46-117.454-11.61-17.45-66.49-14.897-177.8 7.807-106.34 21.704-146.6 44.44-186.74 105.486-41.51 63.111-53.59 115.206-42.89 185.718 9.12 56.497 12.56 59.717 67.95 98.007 32.38 22.39 79.42 49.27 104.53 59.73 25.12 10.47 78.9 32.84 119.53 49.73 40.63 16.88 105.16 38.44 143.39 47.91 38.24 9.47 78.06 22.36 88.5 28.64 10.42 6.27 27.09 10.11 37.04 8.54 22.05-3.5 71.36 17.82 72.09 30.12.08.34.13.67.15.99.09.34.14.67.16.99.09.33.14.66.16.99.08.33.13.66.15.98.09.34.14.67.16.99.09.34.14.67.16.99.08.33.13.66.15.99.09.33.14.66.16.98.09.34.14.67.16.99.08.34.13.67.15.99.26 1.02.22 1.99-.15 2.89-2.08 4.96-54.57 17.85-116.65 28.64-62.07 10.78-116.37 22.62-120.66 26.31-4.29 3.69-26.51 4.91-49.38 2.71-22.88-2.18-79.31-3.17-125.4-2.17s-92.85-1.01-103.91-4.45c-32.3-10.04-129.25-26.23-162.79-27.18-9.83-.27-19.07-2.97-27.07-7.29l-36.81 27.68-7.16 38.75 6.94 27.43 12.56 21.28c58.76 55.54 168.58 139.46 286.87 219.03Z"/>
  <path fill="#000" fill-rule="evenodd" d="M1820.62 1352.57c-1.49-1.93-2.5-4.04-2.99-6.34-.06-.27-.11-.54-.16-.81-.47-2.92 23.2-40.89 52.59-84.39 137.93-204.13 186.22-268.544 203.41-271.271 5.64-.895 14.75-9.229 20.27-18.512 5.5-9.281 24.06-27.033 41.24-39.437 17.17-12.394 37.77-27.514 45.77-33.585 49.06-37.245 81.26-57.877 93.28-59.783 7.55-1.199 18.53-10.273 24.4-20.167 14.93-25.172 48.13-27.667 101.67-7.633 64.17 24.004 105.29 74.413 114.26 132.161.26 1.646.49 3.297.69 4.955-10.78-55.262-51.25-103.07-113.23-126.252-53.54-20.034-86.73-17.539-101.67 7.633-5.87 9.894-16.84 18.968-24.4 20.167-12.02 1.906-44.21 22.538-93.27 59.784-8 6.07-28.6 21.191-45.78 33.584-17.17 12.404-35.74 30.156-41.24 39.438-5.51 9.283-14.63 17.617-20.27 18.508-17.19 2.73-65.48 67.14-203.4 271.27-24.89 36.83-45.67 69.69-51.17 80.68Z" clip-rule="evenodd"/>
</svg>
