<svg width="782" height="598" fill="none" xmlns="http://www.w3.org/2000/svg"><g filter="url(#a)"><path d="M777.328 1h-52l-4 164.5h-207c-.828-2-2.328-15.5 0-32.5 2.718-19.84 3-46.5 3-49.5L406.5 67.5 297 48.5c-2.5-.5-5.9-1.5-7.5-1.5-1.6 0-2.645-.5-2.978 1-.5 15-1.5 42-2.194 51-.43 5.583-2.161 43-6.828 64.5-88.833.333-267.2-3.7-272-4.5-4.8-.8 12.328 161.833 21.828 241L482 404l3.5 1 1.328 2v91.5l-1 91H533.5c2-59 11.5-181.2 11.5-184 0-3.5 164.5-.5 166 3.5 0 15.5 2.328 141.199 2.328 150.5 0 7 0 20 4.672 24.5 14.833.333 44.828 2.3 42.828 1.5-2-.8 10.167-390 16.5-584.5Z" fill="#000"/><path d="M777.328 1h-52l-4 164.5h-207c-.828-2-2.328-15.5 0-32.5 2.718-19.84 3-46.5 3-49.5L406.5 67.5 297 48.5c-2.5-.5-5.9-1.5-7.5-1.5-1.6 0-2.645-.5-2.978 1-.5 15-1.5 42-2.194 51-.43 5.583-2.161 43-6.828 64.5-88.833.333-267.2-3.7-272-4.5-4.8-.8 12.328 161.833 21.828 241L482 404l3.5 1 1.328 2v91.5l-1 91H533.5c2-59 11.5-181.2 11.5-184 0-3.5 164.5-.5 166 3.5 0 15.5 2.328 141.199 2.328 150.5 0 7 0 20 4.672 24.5 14.833.333 44.828 2.3 42.828 1.5-2-.8 10.167-390 16.5-584.5Z" stroke="#000"/></g><defs><filter id="a" x=".168" y=".5" width="781.677" height="597.5" filterUnits="userSpaceOnUse" color-interpolation-filters="sRGB"><feFlood flood-opacity="0" result="BackgroundImageFix"/><feColorMatrix in="SourceAlpha" values="0 0 0 0 0 0 0 0 0 0 0 0 0 0 0 0 0 0 127 0" result="hardAlpha"/><feOffset dy="4"/><feGaussianBlur stdDeviation="2"/><feComposite in2="hardAlpha" operator="out"/><feColorMatrix values="0 0 0 0 0 0 0 0 0 0 0 0 0 0 0 0 0 0 0.25 0"/><feBlend in2="BackgroundImageFix" result="effect1_dropShadow_1_3"/><feBlend in="SourceGraphic" in2="effect1_dropShadow_1_3" result="shape"/></filter></defs></svg>