<svg width="834" height="598" viewBox="0 0 834 598" fill="none" xmlns="http://www.w3.org/2000/svg">
<g filter="url(#filter0_d_1_3)">
<path d="M829.328 1H777.328L773.328 165.5H566.328C565.5 163.5 564 150 566.328 133C569.045 113.16 569.328 86.5 569.328 83.5L458.5 67.5L349 48.5C346.5 48 343.1 47 341.5 47C339.9 47 338.855 46.5 338.522 48C338.022 63 337.022 90 336.328 99C335.898 104.583 334.167 142 329.5 163.5C240.667 163.833 61.2577 158.978 56.5 160C-78.4997 189 99.5 350 79.3282 400L534 404L537.5 405L538.829 407V498.5L537.829 589.5H585.5C587.5 530.5 597 408.3 597 405.5C597 402 761.5 405 763 409C763 424.5 765.328 550.199 765.328 559.5C765.328 566.5 765.328 579.5 770 584C784.833 584.333 814.828 586.3 812.828 585.5C810.828 584.7 822.995 195.5 829.328 1Z" fill="black"/>
<path d="M829.328 1H777.328L773.328 165.5H566.328C565.5 163.5 564 150 566.328 133C569.045 113.16 569.328 86.5 569.328 83.5L458.5 67.5L349 48.5C346.5 48 343.1 47 341.5 47C339.9 47 338.855 46.5 338.522 48C338.022 63 337.022 90 336.328 99C335.898 104.583 334.167 142 329.5 163.5C240.667 163.833 61.2577 158.978 56.5 160C-78.4997 189 99.5 350 79.3282 400L534 404L537.5 405L538.829 407V498.5L537.829 589.5H585.5C587.5 530.5 597 408.3 597 405.5C597 402 761.5 405 763 409C763 424.5 765.328 550.199 765.328 559.5C765.328 566.5 765.328 579.5 770 584C784.833 584.333 814.828 586.3 812.828 585.5C810.828 584.7 822.995 195.5 829.328 1Z" stroke="black"/>
</g>
<defs>
<filter id="filter0_d_1_3" x="0.99646" y="0.5" width="832.848" height="597.5" filterUnits="userSpaceOnUse" color-interpolation-filters="sRGB">
<feFlood flood-opacity="0" result="BackgroundImageFix"/>
<feColorMatrix in="SourceAlpha" type="matrix" values="0 0 0 0 0 0 0 0 0 0 0 0 0 0 0 0 0 0 127 0" result="hardAlpha"/>
<feOffset dy="4"/>
<feGaussianBlur stdDeviation="2"/>
<feComposite in2="hardAlpha" operator="out"/>
<feColorMatrix type="matrix" values="0 0 0 0 0 0 0 0 0 0 0 0 0 0 0 0 0 0 0.25 0"/>
<feBlend mode="normal" in2="BackgroundImageFix" result="effect1_dropShadow_1_3"/>
<feBlend mode="normal" in="SourceGraphic" in2="effect1_dropShadow_1_3" result="shape"/>
</filter>
</defs>
</svg>
