<svg xmlns="http://www.w3.org/2000/svg" width="869" height="972" fill="none">
  <path fill="#000" fill-rule="evenodd" d="M573.535 8.256C465.358 20.265 341.227 41.037 325.303 49.8c-12.034 6.615-30.607 4.21-55.636-7.194-34.211-15.603-39.062-15.594-54.202.077-9.14 9.462-16.546 21.18-16.44 26.028.168 8.528-35.2 89.429-53.528 122.411-4.964 8.939-18.297 36.608-29.628 61.496-13.678 30.047-28.6 46.52-44.449 49.058-20.097 3.212-25.49 14.068-34.327 69.1-5.765 35.898-13.863 70.946-17.982 77.885-4.119 6.929-11.217 50.19-15.767 96.133-9.23 93.209 5.02 194.962 37.126 265.179 25.762 56.334 95.058 132.498 120.151 132.065 10.996-.19 23.337 4.876 27.44 11.266 7.598 11.833 48.1 8.28 128.813-11.314 34.078-8.272 61.732-29.471 126.498-96.961 86.851-90.493 127.75-151.175 109.285-162.146-5.876-3.493-81.845-4.306-168.798-1.807-149.656 4.301-179.013 1.954-217.518-17.406-26.716-13.435-19.846-38.192 10.103-36.402 27.456 1.629 118.604-28.286 128.046-42.045 7.872-11.468 71.407-43.953 86.469-44.214 7.252-.125 28.731-17.794 47.73-39.273 18.998-21.479 38.958-36.418 44.358-33.217 5.399 3.212 18.293-3.857 28.637-15.7 10.355-11.844 23.418-21.609 29.029-21.706 5.6-.097 23.307-11.263 39.341-24.825 16.023-13.561 39.06-31.719 51.187-40.352 12.116-8.634 21.065-19.315 19.862-23.726-1.203-4.422 7.337-15.687 18.98-25.042 37.361-30.038.763-40.33-115.426-32.475-97.003 6.558-104.499 5.592-111.195-14.316-5.385-15.993 2.968-30.689 33.368-58.696 22.309-20.549 52.564-40.795 67.247-44.998 14.683-4.192 61.056-21.969 103.055-39.51 41.988-17.53 84.501-32.021 94.467-32.193 9.966-.172 32.255-12.63 49.529-27.683 17.275-15.054 40.41-27.526 51.416-27.716 32.366-.559 35.283-21.213 4.562-32.293-26.121-9.422-185.124-8.855-273.571.968Z" clip-rule="evenodd"/>
</svg>
