<svg xmlns="http://www.w3.org/2000/svg" width="568" height="572" fill="none">
  <path fill="#000" fill-rule="evenodd" d="M55.448 1.05c-1.215.587-4.043 4.494-6.284 8.682-3.79 7.082-6.545 11.953-13.107 23.172-9.64 16.48-14.691 26.573-20.99 41.944-7.127 17.39-12.911 34.014-12.911 37.107 0 .889 1.302 4.491 2.894 8.005 2.754 6.077 7.319 20.229 11.975 37.117 1.172 4.251 2.128 9.876 2.124 12.5-.01 6.535-3.118 18.951-7.878 31.469-2.188 5.754-5.627 18.076-7.643 27.382-4.08 18.839-4.454 26.399-2.435 49.102 1.113 12.521 2.326 17.301 4.576 18.032 2.199.714 3.363-5.508 4.34-23.214.835-15.086 1.493-19.768 4.066-28.919 4.987-17.738 16.504-43.876 23.167-52.581 1.053-1.375 4.142-5.641 6.865-9.48 3.018-4.255 11.533-13.041 21.806-22.5 18.99-17.486 23.904-20.548 48.643-30.305 18.323-7.226 24.617-8.418 51.5-9.745 54.846-2.709 55-2.727 55-6.485 0-1.871-2.287-2.468-13.545-3.535-7.544-.715-13.013-1.982-21.291-4.935-11.937-4.258-27.659-8.422-35.47-9.394-6.996-.87-17.309.886-26.313 4.482-10.146 4.052-25.112 11.575-33.381 16.78-3.575 2.25-7.832 4.833-9.461 5.739-1.63.906-5.981 4.247-9.673 7.424-3.691 3.177-9.333 7.675-12.54 9.997-3.204 2.321-9.295 7.619-13.536 11.775l-7.71 7.555-2.29-2.811c-4.433-5.44-9.807-14.982-12.782-22.698-3.855-9.995-4.012-16.76-.535-22.957a577.473 577.473 0 0 0 5.398-9.927c4.112-7.759 33.566-37.317 46.629-46.794 5.5-3.99 12.475-8.784 15.5-10.653 15.374-9.497 19.007-11.527 24.92-13.926 9.846-3.995 12.754-7.64 7.648-9.58-3.181-1.21-5.708-.382-19.568 6.42-27.66 13.57-43.826 22.924-61.877 35.803-8.501 6.066-10.123 6.734-10.123 4.17 0-1.729 8.405-17.975 10.59-20.47.747-.852 2.026-3.444 2.843-5.76.817-2.317 2.854-6.2 4.527-8.63 1.672-2.432 3.04-4.857 3.04-5.39 0-.533 1.635-3.377 3.634-6.32 7.03-10.352 8.148-14.689 4.535-17.6-1.806-1.455-1.96-1.457-4.877-.048Zm368.708 61.81c-10.375.804-19.695 2.508-24.453 4.471-1.676.691-7.547 2.738-13.047 4.55-15.42 5.075-27.93 11.757-45.5 24.301-18.217 13.007-22.924 18.418-22.978 26.416l-.022 3.25h5.408c4.883 0 5.928-.419 10.75-4.313 8.704-7.029 14.451-10.633 24.164-15.155 26.677-12.42 58.906-18.478 91.678-17.232 12.721.483 30.136 2.257 36.427 3.71 2.24.518 11.089.952 19.663.966 18.475.03 28.242-1.936 35.485-7.137 4.938-3.546 6.331-6.778 4.443-10.306-2.519-4.706-4.478-4.997-24.79-3.68-22.522 1.458-28.642.845-52.728-5.28-18.692-4.756-28.731-5.784-44.5-4.562Zm132.701 28.58c-4.89 2.543-13.994 10.692-14.982 13.408-.414 1.14-1.183.72-3.205-1.75-3.571-4.365-6.22-4.145-12.672 1.054-7.931 6.389-11.269 8.136-23 12.036-8.824 2.933-14.501 3.987-33 6.127-59.771 6.914-67.406 8.122-79.08 12.511-8.272 3.109-14.815 7.871-17.206 12.522-1.131 2.2-4.194 6.862-6.806 10.36-4.709 6.305-4.75 6.427-4.75 14.095 0 8.492.864 10.056 6.675 12.081 2.436.85 5.256.553 14.113-1.487 13.741-3.165 15.939-3.17 21.808-.049 3.199 1.701 6.291 2.5 9.673 2.5 2.734 0 11.552.954 19.596 2.12 28.762 4.17 41.315 1.872 72.808-13.327 1.195-.577 3.22-.78 4.5-.452 3.2.82 14.078 9.807 15.437 12.754 6.749 14.63 9.94 23.216 14.367 38.65 3.175 11.071 9.227 13.743 10.588 4.673 1.145-7.64-1.311-16.658-10.328-37.918-4.556-10.741-6.462-14.004-10.974-18.779-4.508-4.771-5.247-6.035-4.239-7.25.671-.809 2.662-1.471 4.424-1.471 3.669 0 7.552-3.447 7.552-6.704 0-4.747-2.886-6.352-13.553-7.536-8.837-.981-10.432-.914-13.393.563-1.849.922-4 1.677-4.78 1.677-.78 0-3.298 1.098-5.596 2.44-4.332 2.53-20.163 9.293-29.585 12.64-6.224 2.211-14.094 2.585-14.092.67.001-.687 2.253-2.515 5.006-4.061 7.474-4.198 9.82-10.255 6.476-16.722-.834-1.613-2.936-3.667-4.671-4.564-2.523-1.305-2.851-1.801-1.64-2.479.833-.467 11.598-1.282 23.921-1.812 19.599-.844 23.854-1.335 33.953-3.918 18.178-4.65 25.424-9.05 30.91-18.769 1.72-3.049 5.727-8.104 8.905-11.234 8.199-8.077 8.522-8.599 7.059-11.377-2.375-4.508-3.622-4.657-10.219-1.223Zm-371.201 49.172c-1.966.405-19.606 8.054-24.5 10.624-1.375.722-6.55 2.539-11.5 4.038-4.95 1.498-16.233 5.166-25.074 8.149-8.841 2.984-16.888 5.425-17.882 5.425-.993 0-5.727 1.346-10.518 2.991-5.265 1.808-12.631 3.397-18.62 4.017-11.633 1.204-26.17 3.806-28.656 5.131-.962.512-1.75 1.783-1.75 2.824 0 2.242 4.484 6.037 7.135 6.037 3.393 0 1.938 1.808-2.885 3.583-2.613.961-5.152 2.098-5.644 2.527-1.341 1.167 1.232 6.554 3.995 8.364 1.32.865 2.399 2.071 2.399 2.681 0 .61-2.925 3.867-6.5 7.237s-6.5 6.918-6.5 7.884c0 1.017 1.449 2.448 3.445 3.399 3.907 1.863 2.558 2.493 14.828-6.925 4.12-3.163 7.756-5.75 8.078-5.75.323 0 3.638-1.969 7.368-4.375 7.893-5.093 25.218-13.926 30.282-15.439 1.925-.575 6.338-2.231 9.808-3.679 3.47-1.449 6.801-2.47 7.402-2.27.627.209 1.135 3.144 1.191 6.892.083 5.528.528 7.093 2.906 10.209 2.413 3.164 2.58 3.768 1.185 4.303-2.328.894-14.633-.406-24.174-2.553-10.14-2.281-11.308-1.814-17.118 6.839-3.591 5.347-4.251 7.071-4 10.456.235 3.191.869 4.372 2.978 5.55 2.309 1.291 3.62 1.317 9.5.192 3.752-.717 10.335-1.705 14.631-2.194 4.295-.489 10.035-1.55 12.756-2.358 2.72-.808 14.034-3.107 25.142-5.11 24.178-4.36 29.531-6.172 34.136-11.552 3.075-3.593 8.107-14.293 12.126-25.787 2.37-6.777 2.111-31.247-.388-36.751-2.116-4.661-2.758-5.191-5.582-4.609Zm235.918 3.843c2.224.853 2.035 1.512-1.918 6.689-2.781 3.642-3.5 5.492-3.5 9.005v4.42l-5.25.631c-2.888.347-7.275.64-9.75.651-2.475.011-6.975.685-10 1.497-7.936 2.13-13 1.996-13-.345 0-1.015.946-2.701 2.102-3.748 1.157-1.046 2.724-3.104 3.483-4.572 1.495-2.889 12.058-9.835 14.958-9.835 1.631 0 9.318-1.976 15.457-3.974 3.226-1.05 5.448-1.175 7.418-.419Zm-240.07 23.857c.481 1.253-.893 8.083-3.017 15.003-.786 2.561-11.254 13.533-12.911 13.533-.796 0-1.534-2.063-1.962-5.488-.553-4.431-1.439-6.344-4.593-9.928-2.782-3.16-3.553-4.659-2.675-5.201 1.913-1.183 22.168-9.22 23.453-9.306.629-.042 1.396.582 1.705 1.387Zm138.393 55.989c-4.813 1.687-6.192 2.871-8.149 6.994-2.113 4.453-2.009 7.754.34 10.739 2.523 3.207 7.438 4.598 20.704 5.858l10.864 1.031 4.802 5.089c5.79 6.135 10.676 14.36 10.689 17.993.007 2.224-1.953 4.151-12.057 11.852-12.508 9.533-18.775 16.371-23.42 25.551-4.259 8.418-1.332 12.774 4.3 6.399a149.325 149.325 0 0 1 18.686-17.823c3.85-3.079 11.163-9.657 16.251-14.618 8.039-7.836 9.251-9.458 9.25-12.372-.003-7.457-13.008-26.049-23.818-34.051a944.804 944.804 0 0 1-9.27-6.964c-7.694-5.875-13.612-7.627-19.172-5.678Zm-99.975 19.233c-3.45.904-21.161 25.331-23.187 31.977-.826 2.714 2.308 12.17 7.365 22.218 4.641 9.223 6.82 11.35 11.783 11.503 3.624.111 3.785-.024 4.071-3.43.225-2.669-.852-5.709-4.348-12.281l-4.646-8.733 10.077-10.462c5.542-5.754 10.369-11.627 10.726-13.05.357-1.423.363-5.139.013-8.257-.915-8.142-4.877-11.312-11.854-9.485Zm93.619 35.158c-16.245 5.424-22.358 10.161-25.835 20.015-1.322 3.746-1.32 5.207.019 12.932.829 4.79 2.259 11.106 3.177 14.036 1.569 5.011 1.561 5.958-.127 15.936-.987 5.835-2.678 12.85-3.758 15.589-2.287 5.803-2.113 10.488.448 12.047 1.397.851 2.079.754 3-.426.655-.839 3.406-2.977 6.112-4.75 4.645-3.042 5.44-3.223 14.142-3.223 8.92 0 9.24.079 9.828 2.421.642 2.56-.094 5.579-1.36 5.579-.416 0-2.447 1.344-4.513 2.986-3.821 3.037-19.94 11.301-29.018 14.879-6.65 2.621-25.174 6.135-32.339 6.135-6.046 0-13.851-3.071-15.251-6-1.358-2.84-3.189-15.322-3.106-21.169.076-5.306.63-6.759 5.89-15.416 3.193-5.257 7.343-11.652 9.222-14.212 4.265-5.812 6.363-12.47 5.521-17.523-.84-5.044-3.109-5.826-6.092-2.098-1.284 1.605-2.337 3.204-2.34 3.554-.003.35-1.901 3.5-4.219 7-4.401 6.647-21.196 23.976-43.254 44.63l-12.967 12.142 2.312 2.461c3.869 4.119 6.449 4.119 12.305.003 9.553-6.715 23.741-9.979 26.178-6.023 1.653 2.681-2.726 5.917-15.029 11.106-10.579 4.462-21.212 11.368-26.132 16.971-4.388 4.997-6.708 13.394-6.652 24.074.055 10.407.756 12.158 9.408 23.5 3.147 4.125 6.995 9.693 8.551 12.374 3.467 5.972 12.827 16.23 16.581 18.171 1.52.786 6.795 2.125 11.721 2.975 8.158 1.408 9.66 1.401 16.825-.072 4.327-.89 9.442-2.457 11.367-3.483 1.925-1.025 5.975-2.812 9-3.97 9.064-3.47 19.698-9.251 26.33-14.313 4.841-3.696 5.649-4.044 12.17-5.243 6.316-1.162 9.99-.525 17.24 2.989 10.098 4.894 13.74 5.827 21.12 5.41 4.773-.27 8.384-1.208 12.659-3.289 7.945-3.867 17.381-13.415 19.816-20.049 1.009-2.75 2.477-6.708 3.261-8.796 2.359-6.281-1.995-10.368-6.603-6.197-.916.828-5.414 2.454-9.995 3.613-8.163 2.064-8.554 2.072-19.414.419-6.096-.928-14.459-2.855-18.584-4.281-8.74-3.023-18.485-3.589-21.654-1.258-7.216 5.307-19.573 14.458-23.62 17.49-6.075 4.553-7.515 5.085-23.226 8.583-15.917 3.544-19.606 3.596-31.984.456-10.484-2.659-14.736-4.81-23.881-12.078l-5.865-4.661.45-5.434c.382-4.604 1.013-6.01 4.122-9.194 2.018-2.067 6.701-5.312 10.405-7.21l6.736-3.452 14.508.094c17.326.112 23.106 1.505 32.27 7.779 16.671 11.413 26.674 9.895 51.999-7.892 8.819-6.194 14.938-6.392 34.934-1.127 5.331 1.404 12.994 2.851 17.027 3.217l7.334.664 3.829-4.238c5.494-6.081 10.918-18.027 11.436-25.184.382-5.285.239-5.813-1.578-5.813-1.099 0-3.613.675-5.588 1.5-1.974.825-6.426 1.5-9.894 1.5-13.737 0-28.464-6.683-39.713-18.022-5.839-5.885-6.491-6.89-4.766-7.341 1.685-.441 1.907-1.093 1.41-4.152-.558-3.441-3.364-7.267-20.049-27.343-5.879-7.073-8.532-13.104-9.273-21.081l-.656-7.055 3.673-3.463c2.224-2.097 5.139-3.716 7.393-4.104 7.141-1.231 19.601-4.584 22.391-6.027 3.643-1.884 6.167-5.774 5.372-8.279-.614-1.935-5.308-4.196-8.441-4.067-.881.036-6.603 1.736-12.716 3.778Zm-83.13 9.285c-1.784.509-3.98 2.047-4.878 3.418-1.515 2.312-1.509 2.818.073 6.962.939 2.458 2.815 5.341 4.169 6.406 3.407 2.68 11.215 4.297 22.067 4.569l9.186.231-.558-5.108c-.852-7.795-2.132-9.611-9.314-13.209-7.065-3.539-15.269-4.832-20.745-3.269Zm-61.378 3.17c-3.1 2.36-5.869 8.15-5.873 12.28-.003 2.904.901 5.445 3.14 8.825 3.109 4.694 3.137 4.85 2.501 13.81-.891 12.563-3.851 21.953-8.553 27.137-2.07 2.282-6.577 7.749-10.016 12.149-3.438 4.4-13.075 15.16-21.414 23.912-8.339 8.751-16.89 18.201-19.002 21-3.757 4.977-3.832 5.241-3.415 12.113.464 7.648.526 7.795 14.09 33.381 4.201 7.924 8.333 15.175 9.183 16.114.85.939 3.025 5.256 4.834 9.594 1.809 4.337 6.182 12.585 9.718 18.329 3.537 5.743 9.58 16.768 13.43 24.5 6.863 13.782 9.665 17.198 13.045 15.901 2.013-.772 2.433-3.797 3.116-22.459.456-12.464.289-19.044-.572-22.5-.669-2.687-4.875-12.276-9.345-21.309-8.034-16.234-12.874-23.242-32.755-47.429-2.194-2.669-3.989-5.431-3.989-6.139 0-1.797 2.35-4.269 10.982-11.551 8.958-7.557 22.715-22.968 28.527-31.957 3.741-5.784 9.491-18.35 9.491-20.738 0-.494 2.018-7.291 4.485-15.105 10.196-32.296 9.498-43.146-3.185-49.543-3.791-1.912-6.207-2.002-8.423-.315Zm190.123 25.413c-9.234.95-11.586 4.354-8.369 12.116 2.994 7.224 8.631 10.857 21.96 14.152 3.578.885 5.221 2.421 13.12 12.266 4.967 6.19 11.451 14.593 14.41 18.674l5.379 7.42.342 12.58c.418 15.395-.543 21.784-7.309 48.58-2.916 11.55-6.749 27.3-8.517 35-3.891 16.946-8.102 29.744-12.719 38.659-3.604 6.957-9.709 14.841-11.493 14.841-.572 0-2.524 1.237-4.338 2.75-4.1 3.418-8.501 6.114-24.966 15.291-19.029 10.607-26.373 15.604-27.082 18.429-.677 2.697.092 4.535 1.891 4.521 1.674-.013 21.177-9.53 34.227-16.703 6.03-3.314 16.8-9.049 23.932-12.744 17.034-8.825 22.548-12.747 35.856-25.503 8.426-8.076 14.07-15.084 24.597-30.541 16.044-23.558 20.484-29.957 25.83-37.222 2.338-3.178 5.183-8.253 6.323-11.278 1.139-3.025 2.871-6.4 3.849-7.5 2.687-3.021 3.16-5.274 1.463-6.971-.841-.841-1.855-1.529-2.254-1.529-1.455 0-8.164 7.67-11.384 13.015-1.817 3.017-6.495 9.535-10.395 14.485-3.9 4.95-11.391 15.075-16.646 22.5-11.732 16.574-14.644 20.157-15.804 19.44-.497-.307-.903-3.884-.903-7.949 0-9.22 2.783-41.778 3.973-46.491 3.133-12.397 5.475-47.032 3.736-55.228-1.035-4.875-14.725-25.434-22.658-34.027l-6.237-6.755.684-4.979c.569-4.136.316-5.575-1.493-8.504-4.371-7.072-17.542-11.974-29.005-10.795Z" clip-rule="evenodd"/>
</svg>
