<svg xmlns="http://www.w3.org/2000/svg" width="604" height="1160" fill="none">
  <path fill="#000" fill-rule="evenodd" d="M63.684 26.774c-13.606 15.001-29.02 43.952-34.27 64.324-5.25 20.372-14.146 37.116-19.768 37.213-5.685.099-9.517 41.115-8.63 92.426 1.543 89.428 2.627 93.176 35.57 122.901 69.34 62.567 132.852 47.874 156.671-36.24 25.215-89.042-9.95-247.416-64.046-288.484-34.056-25.842-35.095-25.717-65.527 7.86Zm98.078 389.38c-9.585 14.191-17.323 31.602-17.2 38.693.122 7.081-11.6 27.436-26.048 45.22-14.448 17.784-26.174 37.818-26.058 44.512.115 6.705-11.363 41.071-25.509 76.374-20.596 51.403-25.35 81.865-23.832 153.007 1.907 89.937 31.833 201.603 56.077 209.222 6.398 2.015 11.719 8.715 11.826 14.905.317 18.363 89.06 97.143 143.016 126.963 43.066 23.79 58.172 26.66 107.663 20.43 32.605-4.12 73.677-18.14 94.7-32.34 20.419-13.79 55.136-31.11 77.136-38.48 28.263-9.47 39.179-61.56 38.923-76.368-.199-11.533 6.831-23.866 15.623-27.409 21.836-8.822 19.732-33.757-3.373-40.001-10.382-2.814-51.989 34.33-93.358 31.213-86.755-6.528-131.238-17.275-199.356-48.163-77.862-35.302-80.582-39.956-66.362-113.205 8.633-44.436 9.21-97.973 1.916-179.21-5.714-63.708-9.584-130.647-8.609-148.745 1.051-19.302-6.809-43.161-18.982-57.674l-20.762-24.763-17.431 25.819Z" clip-rule="evenodd"/>
</svg>
