<svg xmlns="http://www.w3.org/2000/svg" width="6218" height="2399" fill="none">
  <path fill="#000" fill-rule="evenodd" d="M2041.06 17.739c-28.39 9.196-123.9 56.563-212.25 105.283-88.34 48.709-165.67 88.79-171.83 89.068-6.16.278-11.04 4.364-10.82 9.07.21 4.716-17.41 15.821-39.17 24.697-67.71 27.608-186.12 103.675-182.19 117.042 2.58 8.798-6.32 11.197-28.78 7.753-21.48-3.306-37.59.579-47.52 11.445-8.26 9.04-19.59 16.64-25.19 16.893-5.59.252-15.62 7.664-22.28 16.471-12.42 16.413-141.02 87.559-159.82 88.408-5.74.259-41.06 16.352-78.47 35.761-37.42 19.41-72.703 35.501-78.427 35.76-5.713.257-28.87 10.968-51.447 23.801-22.577 12.833-50.493 23.759-62.026 24.28-11.533.52-22.409 4.641-24.182 9.146-1.763 4.504-41.208 22.932-87.654 40.923-46.445 18.002-110.504 44.359-142.352 58.577-31.848 14.208-74.494 33.112-94.768 42.007-20.274 8.895-58.547 17.581-85.052 19.292-26.506 1.712-66.594 10.63-89.1 19.808-27.568 11.254-49.38 13.903-66.911 8.132-33.416-11.016-93.483-49.26-111.376-70.921-16.031-19.415-55.611-30.411-62.824-17.455-6.469 11.602 26.297 96.992 64.874 169.071 50.281 93.933 104.528 140.299 185.172 158.269 73.766 16.45 119.752 12.32 204.154-18.29 119.211-43.252 159.943-61.727 190.323-86.339 17.563-14.24 50.544-30.249 73.277-35.581 22.743-5.344 62.786-21.714 88.996-36.398 26.209-14.683 59.385-32.344 73.712-39.252 14.331-6.897 33.081-17.334 41.681-23.178 8.6-5.834 44.1-22.418 78.89-36.844 34.79-14.437 72.73-30.519 84.31-35.745 11.58-5.227 44.79-19.077 73.79-30.761 29.01-11.694 61.97-28.196 73.24-36.664 11.26-8.466 28.67-15.771 38.66-16.222 21.45-.968 121.21-55.271 129.77-70.651 3.27-5.851 46.96-32.536 97.1-59.296 70.38-37.577 103.62-63.543 145.91-113.998 30.11-35.932 60.18-65.783 66.82-66.329 6.63-.546 30.17-27.89 52.32-60.767s50.88-65.288 63.88-72.018c12.99-6.73 23.28-19.577 22.88-28.549-.65-14.395 3.68-17.243 26.31-17.276 3.09-.011 17.54-13.068 32.13-29.031 25.92-28.375 75.13-56.243 84.38-47.8 10.93 9.99-41.25 83.36-145.87 205.086-23.85 27.755-43.23 53.611-43.06 57.459.18 3.848-10.65 13.509-24.06 21.482-13.41 7.973-32.68 30.205-42.82 49.394-10.13 19.199-23.99 41.068-30.79 48.593-6.79 7.535-22.11 31.188-34.02 52.551-11.9 21.374-25.04 39.011-29.18 39.199-4.15.187-15.96 16.433-26.27 36.091-10.3 19.658-45.12 74.544-77.37 121.946-32.25 47.414-58.42 90.89-58.16 96.603.26 5.724-3.97 10.608-9.4 10.853-5.43.245-12.4 15.059-15.48 32.919-3.08 17.861-10.17 32.68-15.74 32.932-5.57.251-14.7 13.96-20.28 30.451-5.57 16.491-14.76 42.285-20.41 57.308-5.65 15.022-10.81 29.752-11.47 32.742-.66 2.98-9.06 34.77-18.64 70.65-13.32 49.84-16.05 98.76-11.58 207.28 3.21 78.12 2.26 142.81-2.13 143.74-4.39.94-11.56 2.55-15.95 3.57-4.39 1.03-14.99 6.92-23.58 13.08-8.58 6.17-25.21 12.52-36.95 14.13-136.35 18.62-365.51 54.22-415.96 64.6-35.117 7.24-105.056 20.14-155.43 28.67-50.364 8.52-126.41 29.13-168.975 45.78-42.564 16.66-85.646 30.65-95.722 31.11-23.269 1.05-111.46 31.5-202.385 69.89-63.143 26.66-97.939 52.9-183.152 138.14-13.914 13.93-35.977 25.79-49.021 26.38-26.711 1.21-105.015 93.91-99.083 117.31 1.987 7.85-1.206 17.55-7.082 21.56-14.755 10.07-9.92 81.06 7.572 111.18 20.356 35.06 103.547 73.55 161.15 74.56 62.536 1.09 97.082 8.81 315.117 70.37 229.981 64.92 290.363 79.68 320.472 78.32 13.441-.6 57.974 7.83 98.968 18.74 44.049 11.72 109.631 19.38 160.391 18.72 47.23-.61 106.25 1.38 131.16 4.44 24.9 3.05 75.46-1.28 112.34-9.63 36.88-8.35 91.84-17.48 122.13-20.27 30.29-2.8 52.7-8.6 49.8-12.9-2.9-4.31 9.49-8.49 27.51-9.3 18.03-.81 32.63-5.12 32.43-9.58-.21-4.46 15-15.41 33.8-24.34 52.9-25.13 112.21-72.12 111.48-88.33-.36-8.04 4.59-14.86 11.02-15.15 19.03-.86 49.05-46.04 79.27-119.32 23.86-57.83 27-77.53 19.81-124.41-9.68-63.28-50.97-190.88-74.4-229.96-31.53-52.57-50.27-114.84-37.94-126.01 20.14-18.27 193.17-106.54 210.33-107.32 15.1-.68 160.1-52.18 196.53-69.8 8.67-4.2 19.42-7.02 23.89-6.29 4.46.74 7.91-3.11 7.66-8.55-.24-5.45 24.91-10.45 55.89-11.13 33.95-.74 70.5-9.12 92-21.08 19.61-10.92 39.34-20.03 43.84-20.23 4.5-.2 30.88-11.34 58.63-24.74 39.16-18.92 46.83-26.5 34.26-33.88-16.56-9.74-76.54-1.75-133.09 17.73-57.69 19.87-665.81 108.4-677.08 98.58-2.8-2.44-8.19-34.33-11.98-70.84-6.72-64.78-2.73-85.65 43.39-226.83 7.29-22.34 24.58-54.54 38.41-71.55 13.84-17.01 46.64-59.876 72.9-95.248 26.24-35.381 70.71-90.552 98.8-122.601 28.09-32.06 50.81-63.943 50.51-70.857-.3-6.914 18.58-30.503 41.97-52.427 23.4-21.913 54.1-58.72 68.23-81.773 14.14-23.064 38.55-57.01 54.25-75.44 15.71-18.43 28.31-39.534 28-46.909-.3-7.366 3.26-13.573 7.91-13.783 12.85-.579 70.18-111.601 76.66-148.454 3.14-17.863 16.13-66.781 28.88-108.707 30.54-100.544 22.92-155.417-28.3-203.715-40.33-38.027-54.8-39.598-132.69-14.377Zm2859.37 498.51c-33.66 6.201-190.1 20.38-347.64 31.515-312.83 22.114-596.78 50.767-654.57 66.047-25.62 6.774-56 4.46-99.98-7.626-118.1-32.435-123.79.118-17.13 97.877 84.08 77.072 138.24 114.83 163.12 113.707 9.08-.409 16.7 3.554 16.94 8.806 1.06 23.57 207.95 30.014 317.05 9.862 207.76-38.394 267.98-47.05 402.22-57.864 78.45-6.31 161.73-16.834 185.07-23.364 42.1-11.803 123.62-26.618 198.89-36.157 21.56-2.734 43.22-7.707 48.14-11.065 4.92-3.358 80.88-10.641 168.79-16.175 128.17-8.081 167.62-14.286 199.14-31.303 21.62-11.673 63-22.293 91.95-23.599 71.36-3.219 164.32-26.166 173.62-42.868 7.42-13.309 100.97-28.861 259.47-43.121 42.64-3.836 89.48-15.111 108.8-26.186 18.65-10.701 49.49-23.616 68.52-28.707l34.59-9.261-27.33-10.539c-18.13-6.99-196.89-4.07-531.25 8.684-277.16 10.57-547.42 19.412-600.58 19.641-53.15.239-124.17 5.505-157.83 11.696ZM2934.72 810.105c-5.65 5.839-45.28 36.251-88.09 67.578l-77.82 56.966-95.71-2.47c-79.62-2.057-94.77.033-90.09 12.421 3.1 8.184 30.01 23.446 59.8 33.916 29.8 10.47 56.53 21.844 59.41 25.274 2.88 3.43-11.89 28.26-32.8 55.18-20.92 26.92-37.8 54.65-37.49 61.63.29 6.97-8.98 16.17-20.6 20.44-11.62 4.28-20.9 12.89-20.62 19.14.28 6.25-12.27 41.53-27.9 78.39-44.37 104.68-53.54 163.38-41.58 266.34 7.31 63.01 18.51 104.77 36.54 136.36 35.94 62.94 109.32 133.1 153.66 146.91 20.36 6.34 37.17 15.03 37.37 19.33 1.42 31.5 257.45 43.31 344.41 15.89 20.38-6.43 51.42-14.8 68.97-18.61 32.34-7.01 87.24-28.54 151.66-59.46 19.48-9.35 62.23-41.85 95-72.21 52.22-48.39 62.08-64.38 79.83-129.54 17.29-63.44 18.22-81.1 6.39-120.51-7.62-25.39-14.39-57.77-15.03-71.98-.64-14.19-13.85-47.26-29.35-73.5-15.5-26.23-25.85-50.24-23-53.36 2.85-3.12-9.16-20.25-26.7-38.09-17.53-17.82-47.83-56.73-67.3-86.46-39.99-61.04-104.02-106.289-160.08-113.125-20.79-2.531-46.38-8.788-56.87-13.9-10.49-5.112-30.91-8.755-45.38-8.102-14.47.652-29.51-3.502-33.42-9.233-3.91-5.731-16.46-9.998-27.91-9.481-22.12.998-28.7-14.472-11.22-26.388 5.77-3.944 16.95-21.161 24.84-38.261 13.14-28.497 12.4-33.361-8.84-57.997-23.21-26.91-60.79-33.055-80.08-13.088Zm55.13 264.705c127.24 55.12 177.48 126.37 174.09 246.89-1.42 50.09-6.52 64.08-31.54 86.48-41.59 37.21-126.6 81.85-177.24 93.06-23.4 5.18-47.58 13.98-53.75 19.56-20.81 18.82-173.33 22.73-204.71 5.25-20.2-11.27-2.64-170.07 20.56-185.9 5.58-3.8 9.61-18.78 8.95-33.29-.65-14.5 11-47.37 25.89-73.03 14.89-25.66 33.88-60.01 42.2-76.35 31.36-61.56 75.46-108.65 102.9-109.89 14.86-.67 56.55 11.57 92.65 27.22Zm953.04 9.4c-95.57 40.39-198.2 138-266.77 253.73-42.96 72.49-47.13 86.11-47.92 156.49-3.18 282.96 218.56 356.26 619.36 204.76 60.99-23.05 132.32-48.76 158.53-57.14 26.2-8.38 57.05-21.04 68.54-28.16 11.49-7.1 36.09-16.91 54.66-21.77 18.57-4.87 39.2-16.05 45.84-24.82 6.65-8.79 19.93-16.32 29.52-16.76 14.12-.63 18.3 12.05 21.87 66.21 5.79 87.68 41.27 155.98 99.01 190.55 37.33 22.35 54.65 25.32 128.36 21.99 57.81-2.61 89.72-8.77 99.22-19.17 7.7-8.43 24.86-19.31 38.13-24.2 30.84-11.35 118.72-106.71 139.16-151.02 19.05-41.29 25.47-38.77-134.93-53.05-131.78-11.74-168.56-29.55-161.15-78.03 24.27-158.63-6.64-233.23-104.73-252.75-35.3-7.02-71.97 14.72-70.74 41.94.6 13.23-25.75 33.11-87.25 65.79-48.46 25.77-92.67 47.05-98.25 47.3-5.58.25-23.9 8.12-40.71 17.48-73.45 40.87-599.68 107.65-630.02 79.94-15.72-14.36-11.05-42.32 20.34-121.78 22.37-56.66 97.85-154.78 119.82-155.77 8.19-.37 14.69-5.16 14.44-10.65-.77-17.15 147.23-93.31 184.61-94.99 67.59-3.05 118.42 32.57 87.11 61.04-22.05 20.03-17.16 38.49 15.27 57.71 38.24 22.67 95.45 20.92 120.28-3.68 17.12-16.95 18.08-25.38 7.11-61.7-12.84-42.44-64.5-93.05-93.64-91.74-8.39.38-15.44-3.4-15.66-8.4-.44-9.63-156.1-27.23-210.51-23.81-17.68 1.11-66.68 16.62-108.9 34.46Zm1881.05 49.63c-11.89 15.73-43.01 27.55-165.21 62.8-67.27 19.42-203.16 82.92-215.63 100.78-2.78 3.97-23.82 19.63-46.77 34.79-44.24 29.23-79.32 60.42-106.85 95-9.24 11.59-24.9 29.08-34.79 38.86-9.89 9.78-17.51 28.52-16.91 41.66.59 13.13-5.33 28.02-13.17 33.1-16.64 10.8-25.45 57.94-28.67 153.48-7.09 210.69 198.39 338.11 510.25 316.42 104.52-7.27 218.4-37.18 259.91-68.25 14.37-10.75 40.04-25.33 57.04-32.4 32.03-13.31 35.84-18.61 59.31-82.51 14.81-40.36 13.62-103.69-2.39-126.96-5.25-7.63-17.85-40.89-28-73.92-45.1-146.83-57.31-189.55-64.1-224.48-11.1-57.02-61.34-100.27-59.12-50.88.54 11.86-3.17 30.16-8.23 40.65-5.07 10.48-19.27 43.68-31.56 73.77-12.31 30.09-25.32 57.26-28.93 60.38-3.62 3.11-12.82 27.69-20.47 54.62-13.01 45.84-17.84 50.53-75.79 73.64-77.81 31.04-270.48 39.66-324.93 14.54-18.41-8.49-33.61-18.5-33.78-22.24-1.15-25.44 205.74-163.02 248-164.93 29.86-1.35 115.86-59.56 151.07-102.25 35.59-43.15 77.09-123.07 90.37-173.97 8.49-32.54-53.05-94.97-70.65-71.7Zm-4234.15 602.17c49.24 92.66 53.09 123.05 23.45 185.18-32.14 67.34-121.94 134.19-247.26 184.05-58.54 23.3-94.43 28.87-245.31 38.08-97.2 5.93-208.289 7.54-246.864 3.58-94.74-9.75-175.98-23.78-189.433-32.73-6.09-4.06-28.848-9.28-50.563-11.62-57.007-6.13-233.774-73.07-271.581-102.84-39.901-31.43-48.994-65.38-19.209-71.78 11.701-2.51 47.216-18.77 78.922-36.14 49.975-27.36 76.146-33.39 196.656-45.23 76.455-7.52 158.08-19.45 181.39-26.51 23.31-7.08 61.479-18.06 84.821-24.42 23.343-6.35 61.485-17.95 84.76-25.78 47.061-15.83 404.351-83.47 493.401-93.42 31.33-3.5 59.67-9.31 62.96-12.92 13.54-14.82 23.43-3.6 63.86 72.5Z" clip-rule="evenodd"/>
</svg>
