<svg xmlns="http://www.w3.org/2000/svg" width="15855" height="2636" fill="none">
  <path fill="#000" fill-rule="evenodd" d="M2129.06 200.739c-28.39 9.196-123.9 56.563-212.25 105.283-88.34 48.709-165.67 88.79-171.83 89.068-6.16.278-11.04 4.364-10.82 9.07.21 4.716-17.41 15.821-39.17 24.697-67.71 27.608-186.12 103.675-182.19 117.042 2.58 8.798-6.32 11.197-28.78 7.753-21.48-3.306-37.59.579-47.52 11.445-8.26 9.04-19.59 16.64-25.19 16.893-5.59.252-15.62 7.664-22.28 16.471-12.42 16.413-141.02 87.559-159.82 88.408-5.74.259-41.06 16.352-78.47 35.761-37.42 19.41-72.7 35.501-78.43 35.76-5.71.257-28.87 10.968-51.44 23.801-22.581 12.833-50.497 23.759-62.03 24.28-11.533.52-22.409 4.641-24.182 9.146-1.763 4.504-41.208 22.932-87.654 40.923-46.445 18.002-110.504 44.359-142.352 58.577-31.848 14.208-74.494 33.112-94.768 42.007-20.274 8.895-58.547 17.581-85.052 19.292-26.506 1.712-66.594 10.63-89.1 19.808-27.568 11.256-49.38 13.906-66.911 8.136-33.416-11.02-93.483-49.264-111.376-70.925-16.031-19.415-55.611-30.411-62.824-17.455-6.469 11.602 26.297 96.99 64.874 169.07 50.281 93.93 104.528 140.3 185.172 158.27 73.766 16.45 119.752 12.32 204.154-18.29 119.211-43.25 159.943-61.73 190.323-86.34 17.563-14.24 50.544-30.25 73.277-35.58 22.743-5.34 62.786-21.71 88.999-36.4 26.21-14.68 59.38-32.34 73.71-39.25 14.33-6.9 33.08-17.33 41.68-23.18 8.6-5.832 44.1-22.416 78.89-36.842 34.79-14.437 72.73-30.519 84.31-35.745 11.58-5.227 44.79-19.077 73.79-30.761 29.01-11.694 61.97-28.196 73.24-36.664 11.26-8.466 28.67-15.771 38.66-16.222 21.45-.968 121.21-55.271 129.77-70.651 3.27-5.851 46.96-32.536 97.1-59.296 70.38-37.577 103.62-63.543 145.91-113.998 30.11-35.932 60.18-65.783 66.82-66.329 6.63-.546 30.17-27.89 52.32-60.767s50.88-65.288 63.88-72.018c12.99-6.73 23.28-19.577 22.88-28.549-.65-14.395 3.68-17.243 26.31-17.276 3.09-.011 17.54-13.068 32.13-29.031 25.92-28.375 75.13-56.243 84.38-47.8 10.93 9.99-41.25 83.36-145.87 205.086-23.85 27.755-43.23 53.611-43.06 57.459.18 3.848-10.65 13.509-24.06 21.482-13.41 7.973-32.68 30.205-42.82 49.394-10.13 19.199-23.99 41.068-30.79 48.593-6.79 7.535-22.11 31.188-34.02 52.551-11.9 21.374-25.04 39.011-29.18 39.199-4.15.187-15.96 16.433-26.27 36.091-10.3 19.658-45.12 74.544-77.37 121.946-32.25 47.414-58.42 90.888-58.16 96.598.26 5.73-3.97 10.61-9.4 10.86-5.43.24-12.4 15.06-15.48 32.92s-10.17 32.68-15.74 32.93-14.7 13.96-20.28 30.45c-5.57 16.49-14.76 42.28-20.41 57.31-5.65 15.02-10.81 29.75-11.47 32.74-.66 2.98-9.06 34.77-18.64 70.65-13.32 49.84-16.05 98.76-11.58 207.28 3.21 78.12 2.26 142.81-2.13 143.74-4.39.94-11.56 2.55-15.95 3.57-4.39 1.03-14.99 6.92-23.58 13.08-8.58 6.17-25.21 12.52-36.95 14.13-136.35 18.62-365.51 54.22-415.96 64.6-35.12 7.24-105.056 20.14-155.43 28.67-50.364 8.52-126.41 29.13-168.975 45.78-42.564 16.66-85.646 30.65-95.722 31.11-23.269 1.05-111.46 31.5-202.385 69.89-63.143 26.66-97.939 52.9-183.152 138.14-13.914 13.93-35.977 25.79-49.021 26.38-26.711 1.21-105.015 93.91-99.083 117.31 1.987 7.85-1.206 17.55-7.082 21.56-14.755 10.07-9.92 81.06 7.572 111.18 20.356 35.06 103.547 73.55 161.15 74.56 62.536 1.09 97.082 8.81 315.117 70.37 229.981 64.92 290.363 79.68 320.472 78.32 13.441-.6 57.974 7.83 98.969 18.74 44.05 11.72 109.63 19.38 160.39 18.72 47.23-.61 106.25 1.38 131.16 4.44 24.9 3.05 75.46-1.28 112.34-9.63 36.88-8.35 91.84-17.48 122.13-20.27 30.29-2.8 52.7-8.6 49.8-12.9-2.9-4.31 9.49-8.49 27.51-9.3 18.03-.81 32.63-5.12 32.43-9.58-.21-4.46 15-15.41 33.8-24.34 52.9-25.13 112.21-72.12 111.48-88.33-.36-8.04 4.59-14.86 11.02-15.15 19.03-.86 49.05-46.04 79.27-119.32 23.86-57.83 27-77.53 19.81-124.41-9.68-63.28-50.97-190.88-74.4-229.96-31.53-52.57-50.27-114.84-37.94-126.01 20.14-18.27 193.17-106.54 210.33-107.32 15.1-.68 160.1-52.18 196.53-69.8 8.67-4.2 19.42-7.02 23.89-6.29 4.46.74 7.91-3.11 7.66-8.55-.24-5.45 24.91-10.45 55.89-11.13 33.95-.74 70.5-9.12 92-21.08 19.61-10.92 39.34-20.03 43.84-20.23 4.5-.2 30.88-11.34 58.63-24.74 39.16-18.92 46.83-26.5 34.26-33.88-16.56-9.74-76.54-1.75-133.09 17.73-57.69 19.87-665.81 108.4-677.08 98.58-2.8-2.44-8.19-34.33-11.98-70.84-6.72-64.78-2.73-85.65 43.39-226.83 7.29-22.34 24.58-54.54 38.41-71.55 13.84-17.01 46.64-59.88 72.9-95.25 26.24-35.38 70.71-90.55 98.8-122.6 28.09-32.059 50.81-63.942 50.51-70.856-.3-6.914 18.58-30.503 41.97-52.427 23.4-21.913 54.1-58.72 68.23-81.773 14.14-23.064 38.55-57.01 54.25-75.44 15.71-18.43 28.31-39.534 28-46.909-.3-7.366 3.26-13.573 7.91-13.783 12.85-.579 70.18-111.601 76.66-148.454 3.14-17.863 16.13-66.781 28.88-108.707 30.54-100.544 22.92-155.417-28.3-203.715-40.33-38.027-54.8-39.598-132.69-14.377Zm2859.37 498.51c-33.66 6.201-190.1 20.38-347.64 31.515-312.83 22.114-596.78 50.767-654.57 66.047-25.62 6.774-56 4.46-99.98-7.626-118.1-32.435-123.79.118-17.13 97.877 84.08 77.072 138.24 114.828 163.12 113.708 9.08-.41 16.7 3.55 16.94 8.8 1.06 23.58 207.95 30.02 317.05 9.87 207.76-38.397 267.98-47.053 402.22-57.867 78.45-6.31 161.73-16.834 185.07-23.364 42.1-11.803 123.62-26.618 198.89-36.157 21.56-2.734 43.22-7.707 48.14-11.065 4.92-3.358 80.88-10.641 168.79-16.175 128.17-8.081 167.62-14.286 199.14-31.303 21.62-11.673 63-22.293 91.95-23.599 71.36-3.219 164.32-26.166 173.62-42.868 7.42-13.309 100.97-28.861 259.47-43.121 42.64-3.836 89.48-15.111 108.8-26.186 18.65-10.701 49.49-23.616 68.52-28.707l34.59-9.261-27.33-10.539c-18.13-6.99-196.89-4.07-531.25 8.684-277.16 10.57-547.42 19.412-600.58 19.641-53.15.239-124.17 5.505-157.83 11.696ZM3022.72 993.105c-5.65 5.839-45.28 36.255-88.09 67.575l-77.82 56.97-95.71-2.47c-79.62-2.06-94.77.03-90.09 12.42 3.1 8.18 30.01 23.45 59.8 33.92 29.8 10.47 56.53 21.84 59.41 25.27 2.88 3.43-11.89 28.26-32.8 55.18-20.92 26.92-37.8 54.65-37.49 61.63.29 6.97-8.98 16.17-20.6 20.44-11.62 4.28-20.9 12.89-20.62 19.14.28 6.25-12.27 41.53-27.9 78.39-44.37 104.68-53.54 163.38-41.58 266.34 7.31 63.01 18.51 104.77 36.54 136.36 35.94 62.94 109.32 133.1 153.66 146.91 20.36 6.34 37.17 15.03 37.37 19.33 1.42 31.5 257.45 43.31 344.41 15.89 20.38-6.43 51.42-14.8 68.97-18.61 32.34-7.01 87.24-28.54 151.66-59.46 19.48-9.35 62.23-41.85 95-72.21 52.22-48.39 62.08-64.38 79.83-129.54 17.29-63.44 18.22-81.1 6.39-120.51-7.62-25.39-14.39-57.77-15.03-71.98-.64-14.19-13.85-47.26-29.35-73.5-15.5-26.23-25.85-50.24-23-53.36 2.85-3.12-9.16-20.25-26.7-38.09-17.53-17.82-47.83-56.73-67.3-86.46-39.99-61.04-104.02-106.29-160.08-113.13-20.79-2.53-46.38-8.78-56.87-13.89-10.49-5.12-30.91-8.76-45.38-8.11-14.47.66-29.51-3.5-33.42-9.23s-16.46-10-27.91-9.48c-22.12 1-28.7-14.47-11.22-26.39 5.77-3.94 16.95-21.16 24.84-38.26 13.14-28.5 12.4-33.36-8.84-58-23.21-26.907-60.79-33.052-80.08-13.085Zm55.13 264.705c127.24 55.12 177.48 126.37 174.09 246.89-1.42 50.09-6.52 64.08-31.54 86.48-41.59 37.21-126.6 81.85-177.24 93.06-23.4 5.18-47.58 13.98-53.75 19.56-20.81 18.82-173.33 22.73-204.71 5.25-20.2-11.27-2.64-170.07 20.56-185.9 5.58-3.8 9.61-18.78 8.95-33.29-.65-14.5 11-47.37 25.89-73.03 14.89-25.66 33.88-60.01 42.2-76.35 31.36-61.56 75.46-108.65 102.9-109.89 14.86-.67 56.55 11.57 92.65 27.22Zm953.04 9.4c-95.57 40.39-198.2 138-266.77 253.73-42.96 72.49-47.13 86.11-47.92 156.49-3.18 282.96 218.56 356.26 619.36 204.76 60.99-23.05 132.32-48.76 158.53-57.14 26.2-8.38 57.05-21.04 68.54-28.16 11.49-7.1 36.09-16.91 54.66-21.77 18.57-4.87 39.2-16.05 45.84-24.82 6.65-8.79 19.93-16.32 29.52-16.76 14.12-.63 18.3 12.05 21.87 66.21 5.79 87.68 41.27 155.98 99.01 190.55 37.33 22.35 54.65 25.32 128.36 21.99 57.81-2.61 89.72-8.77 99.22-19.17 7.7-8.43 24.86-19.31 38.13-24.2 30.84-11.35 118.72-106.71 139.16-151.02 19.05-41.29 25.47-38.77-134.93-53.05-131.78-11.74-168.56-29.55-161.15-78.03 24.27-158.63-6.64-233.23-104.73-252.75-35.3-7.02-71.97 14.72-70.74 41.94.6 13.23-25.75 33.11-87.25 65.79-48.46 25.77-92.67 47.05-98.25 47.3-5.58.25-23.9 8.12-40.71 17.48-73.45 40.87-599.68 107.65-630.02 79.94-15.72-14.36-11.05-42.32 20.34-121.78 22.37-56.66 97.85-154.78 119.82-155.77 8.19-.37 14.69-5.16 14.44-10.65-.77-17.15 147.23-93.31 184.61-94.99 67.59-3.05 118.42 32.57 87.11 61.04-22.05 20.03-17.16 38.49 15.27 57.71 38.24 22.67 95.45 20.92 120.28-3.68 17.12-16.95 18.08-25.38 7.11-61.7-12.84-42.44-64.5-93.05-93.64-91.74-8.39.38-15.44-3.4-15.66-8.4-.44-9.63-156.1-27.23-210.51-23.81-17.68 1.11-66.68 16.62-108.9 34.46Zm1881.05 49.63c-11.89 15.73-43.01 27.55-165.21 62.8-67.27 19.42-203.16 82.92-215.63 100.78-2.78 3.97-23.82 19.63-46.77 34.79-44.24 29.23-79.32 60.42-106.85 95-9.24 11.59-24.9 29.08-34.79 38.86-9.89 9.78-17.51 28.52-16.91 41.66.59 13.13-5.33 28.02-13.17 33.1-16.64 10.8-25.45 57.94-28.67 153.48-7.09 210.69 198.39 338.11 510.25 316.42 104.52-7.27 218.4-37.18 259.91-68.25 14.37-10.75 40.04-25.33 57.04-32.4 32.03-13.31 35.84-18.61 59.31-82.51 14.81-40.36 13.62-103.69-2.39-126.96-5.25-7.63-17.85-40.89-28-73.92-45.1-146.83-57.31-189.55-64.1-224.48-11.1-57.02-61.34-100.27-59.12-50.88.54 11.86-3.17 30.16-8.23 40.65-5.07 10.48-19.27 43.68-31.56 73.77-12.31 30.09-25.32 57.26-28.93 60.38-3.62 3.11-12.82 27.69-20.47 54.62-13.01 45.84-17.84 50.53-75.79 73.64-77.81 31.04-270.48 39.66-324.93 14.54-18.41-8.49-33.61-18.5-33.78-22.24-1.15-25.44 205.74-163.02 248-164.93 29.86-1.35 115.86-59.56 151.07-102.25 35.59-43.15 77.09-123.07 90.37-173.97 8.49-32.54-53.05-94.97-70.65-71.7Zm-4234.15 602.17c49.24 92.66 53.09 123.05 23.45 185.18-32.14 67.34-121.94 134.19-247.26 184.05-58.54 23.3-94.43 28.87-245.31 38.08-97.2 5.93-208.29 7.54-246.864 3.58-94.74-9.75-175.98-23.78-189.433-32.73-6.09-4.06-28.848-9.28-50.563-11.62-57.007-6.13-233.774-73.07-271.581-102.84-39.901-31.43-48.994-65.38-19.209-71.78 11.701-2.51 47.216-18.77 78.922-36.14 49.975-27.36 76.146-33.39 196.656-45.23 76.455-7.52 158.08-19.45 181.39-26.51 23.31-7.08 61.479-18.06 84.821-24.42 23.343-6.35 61.481-17.95 84.761-25.78 47.06-15.83 404.35-83.47 493.4-93.42 31.33-3.5 59.67-9.31 62.96-12.92 13.54-14.82 23.43-3.6 63.86 72.5Zm11778.71-869.33c-84.8 46.58-85 46.82-87.6 93.46-3.1 57.23 18.6 103.53 69.3 148.14 24.6 21.55 42.6 49.95 50.4 79.16 6.7 25.05 17.3 62.36 23.6 82.91 16.6 54.11 46 203.73 46.6 236.59 1.1 63.58 123.1 350.87 162.4 382.33 22.1 17.74 68.9-.22 75.6-29.04 3.2-13.94 3.8-49.63 1.2-79.32-2.6-29.7-.4-54.06 4.9-54.15 5.3-.08 39.7 18.16 76.5 40.53 154.9 94.1 281.2 135.73 405.2 133.59l63.4-1.09 21.4-50.94c11.9-28.01 23.9-78.39 26.9-111.97 5-57.59 3.8-61.42-20.4-67.8-14.1-3.72-35.4-10.59-47.3-15.27-49.7-19.57-122.1-34.23-172.4-34.93-31.1-.43-66.3-8.66-83.5-19.49-16.4-10.31-29.7-15.5-29.6-11.53.1 3.96-13.3.23-29.6-8.29-16.4-8.51-42.4-17.88-57.7-20.83-15.3-2.95-41.8-15.93-58.8-28.85-17-12.91-40.7-24.8-52.7-26.41-11.9-1.62-42.7-14.74-68.3-29.15-56.9-32.08-61.4-60.21-12.5-78.75 19-7.22 57.3-25.37 85.1-40.33 27.8-14.95 59.9-27.35 71.3-27.55 11.5-.2 23.8-5.24 27.3-11.2 3.6-5.97 16-11.01 27.6-11.21 11.7-.2 33.9-9.03 49.4-19.64 15.6-10.6 42.9-24.4 60.8-30.66 31.7-11.09 32.6-13.22 30.6-75.65-2.2-70.97-9-88.43-70-180.64-51.4-77.66-112-119.57-224.8-155.41-69.2-21.97-105.8-27.06-182.9-25.41-92.1 1.99-100 4.11-181.4 48.8Zm323.5 245.49c18.6 10.14 5.3 23.68-49.8 50.94-87 43.08-108.2 46.8-122.4 21.46-17.6-31.52-6.6-48.71 43.8-68.65 39.6-15.66 103.3-17.52 128.4-3.75Zm-251.1 31.27c15.2 14.63 18.8 72.64 4.6 72.89-5.3.09-12.7-11.4-16.5-25.55-3.8-14.14-10-33.35-13.8-42.68-8-20 7-22.72 25.7-4.66Zm1230.6-351.165c-3.5 5.963-15.4 10.997-26.3 11.186-14.7.255-21.5 11.178-26.2 42.359-3.5 23.1-33.2 97.26-66.1 164.79-32.8 67.53-62.9 136.65-66.8 153.6l-7.1 30.82-146.2-1.35c-101.5-.94-147.3 2.34-150 10.74-10.9 34.75 149.4 148.92 232.8 165.73 30.2 6.09 32.9 10.53 40.2 67.56 15.3 119.37 49 183.78 138.7 264.65 60.7 54.74 131.6 85.58 232 100.94 54.5 8.33 150.2-14.12 173.5-40.68 10.2-11.69 25-21.38 33-21.52 7.9-.14 14.4-6.28 14.5-13.66 0-7.37 18.7-22.45 41.7-33.49 30.6-14.8 44.7-29.98 53.3-57.7 19.2-61.81 13.4-65.06-127.2-70.85-70.2-2.89-146.8-11.72-170.3-19.63-23.5-7.9-59.6-14.49-80.2-14.64-48.6-.35-95.7-25.76-140.8-75.94-44.3-49.31-35-62.38 35.8-50.26 29.2 4.99 99.2 5.34 155.6.77 56.5-4.56 168.7-9.73 249.3-11.49l146.7-3.2 30.9 35.09c17.1 19.29 51.9 61.75 77.5 94.36 42.7 54.38 46.6 64.62 47.7 123.73.7 35.43-2.8 79.63-7.8 98.2-5 18.57-11.7 80.23-15 137.01-5.7 98.44-4.9 103.22 15.4 102.87 21.1-.37 46.8-59.18 101.5-232.47 19.8-62.95 12.3-189.79-16.9-281.98-9.7-30.76-14.8-60.7-11.3-66.53 3.4-5.84 27.6-10.97 53.7-11.42 112.6-1.95 282-45.14 267.2-68.14-3.4-5.25-41.2-14.48-84.1-20.49-42.8-6.02-92.5-14.99-110.3-19.95-17.8-4.97-63.8-11.44-102.2-14.38-122.1-9.36-117.3-7.13-178.2-83.91-52-65.54-162.3-172.46-185.1-179.38-31.4-9.57-104-62.8-96.4-70.69 3.7-3.79-4.2-6.72-17.5-6.49-13.3.23-36.5-8.89-51.5-20.29-15-11.38-43.8-23.5-63.9-26.92-20.1-3.41-36.6-10.23-36.7-15.17-.2-13-113.3-83.269-133.4-82.921-9.4.161-19.9 5.173-23.5 11.136Zm71.9 218.295c15.5 72.51 70 157.84 117.5 183.98 17.8 9.79 7.1 12.23-58.8 13.54-44.2.87-98.6-1.08-120.8-4.36-47.4-6.99-50.6-21.25-20.7-90.85 11.2-25.91 25.6-82 32.1-124.64 9.7-64.19 13.9-74.42 24.4-59.45 7 9.95 18.8 46.74 26.3 81.78Zm-2008.7-207.794c-13.6 15.004-29 43.954-34.3 64.324-5.2 20.37-14.1 37.12-19.8 37.21-5.6.1-9.5 41.12-8.6 92.43 1.6 89.43 2.6 93.17 35.6 122.9 69.3 62.57 132.8 47.87 156.7-36.24 25.2-89.04-10-247.42-64.1-288.484-34-25.843-35.1-25.717-65.5 7.86Zm-610.2 182.484c-108.1 12-232.3 32.78-248.2 41.54-12 6.61-30.6 4.21-55.6-7.19-34.2-15.61-39.1-15.6-54.2.07-9.2 9.46-16.6 21.18-16.5 26.03.2 8.53-35.2 89.43-53.5 122.41-5 8.94-18.3 36.61-29.6 61.5-13.7 30.05-28.6 46.52-44.5 49.06-20.1 3.21-25.5 14.06-34.3 69.1-5.8 35.89-13.9 70.94-18 77.88-4.1 6.93-11.2 50.19-15.8 96.13-9.2 93.21 5.1 194.97 37.2 265.18 25.7 56.34 95 132.5 120.1 132.07 11-.19 23.4 4.87 27.5 11.26 7.6 11.84 48.1 8.28 128.8-11.31 34.1-8.27 61.7-29.47 126.5-96.96 86.8-90.49 127.7-151.18 109.3-162.15-5.9-3.49-81.9-4.3-168.8-1.8-149.7 4.3-179.1 1.95-217.6-17.41-26.7-13.43-19.8-38.19 10.1-36.4 27.5 1.63 118.6-28.29 128.1-42.05 7.9-11.46 71.4-43.95 86.5-44.21 7.2-.13 28.7-17.8 47.7-39.27 19-21.48 38.9-36.42 44.3-33.22 5.4 3.21 18.3-3.86 28.7-15.7 10.3-11.84 23.4-21.61 29-21.71 5.6-.09 23.3-11.26 39.4-24.82 16-13.56 39-31.72 51.1-40.35 12.2-8.64 21.1-19.32 19.9-23.73-1.2-4.42 7.3-15.69 19-25.04 37.3-30.04.7-40.33-115.4-32.48-97 6.56-104.5 5.6-111.2-14.31-5.4-16 2.9-30.69 33.3-58.7 22.3-20.55 52.6-40.79 67.3-45 14.7-4.19 61-21.97 103-39.51 42-17.53 84.5-32.02 94.5-32.19 10-.17 32.3-12.63 49.5-27.68 17.3-15.06 40.4-27.53 51.4-27.72 32.4-.56 35.3-21.21 4.6-32.29-26.1-9.42-185.1-8.86-273.6.97Zm708.3 206.9c-9.6 14.19-17.4 31.6-17.2 38.69.1 7.08-11.6 27.43-26.1 45.22-14.4 17.78-26.2 37.82-26 44.51.1 6.71-11.4 41.07-25.6 76.37-20.5 51.41-25.3 81.87-23.8 153.01 1.9 89.94 31.8 201.6 56.1 209.22 6.4 2.02 11.7 8.72 11.8 14.91.3 18.36 89.1 97.14 143 126.96 43.1 23.8 58.2 26.66 107.7 20.43 32.6-4.12 73.7-18.13 94.7-32.34 20.4-13.79 55.1-31.11 77.1-38.48 28.3-9.47 39.2-61.56 39-76.37-.2-11.53 6.8-23.86 15.6-27.41 21.8-8.82 19.7-33.75-3.4-40-10.4-2.81-52 34.33-93.4 31.22-86.7-6.53-131.2-17.28-199.3-48.17-77.9-35.3-80.6-39.95-66.4-113.2 8.7-44.44 9.2-97.97 1.9-179.21-5.7-63.71-9.5-130.65-8.6-148.75 1.1-19.3-6.8-43.16-18.9-57.67l-20.8-24.76-17.4 25.82ZM10795 991.058c-6.2 4.441-25 27.632-41.9 51.532-33.4 47.33-123.6 159.39-157 195-18.1 19.34-33.8 22.44-118.9 23.4-53.9.62-112-3.94-129.1-10.12-17.2-6.18-71.1-13.46-119.9-16.18-86.1-4.82-89.1-4.2-98 20.46-5.8 16.09-3.7 51.82 5.7 97.37 12.1 59.16 22.3 79.77 57.3 115.93 59.3 61.23 56.5 60 134.1 59.03 98.6-1.24 103.1 3.03 87.4 83.59-16.8 86.62-3.3 226.74 27.4 284.65 39 73.49 192.2 193.02 233.9 182.51 5.2-1.31 23.8 3.22 41.3 10.07 17.6 6.86 73.6 12.39 124.6 12.3l92.8-.16 71.9-72.98c39.5-40.14 76.3-73.05 81.6-73.15 5.4-.09 7-8.57 3.6-18.84-4.1-12.32 8.8-35.34 38-67.72 73.5-81.56 104.4-161.6 56.6-146.58-13.2 4.16-73.8 11.31-134.7 15.89-65.1 4.91-116 13.87-123.6 21.78-47.7 49.36-323.4 10.51-347.4-48.95-3.5-8.78 2.9-46.09 14.2-82.9l20.6-66.93 153.8-10.34c246.8-16.58 373.4-33.87 404.2-55.18 15.1-10.48 34.2-17.73 42.5-16.11 27.1 5.26 106.6-33.3 113.1-54.8 3.4-11.47 13.6-20.99 22.6-21.15 9-.16 18.8-10.34 21.8-22.63 4.2-17.3 11.2-21.01 30.9-16.43 18.4 4.29 25.4 1.41 25.2-10.37-.2-8.96 3.3-16.72 7.7-17.26 28.2-3.36 47.1-11.52 86.2-37.16 24.3-15.9 44.1-32.55 44-36.97-.1-4.43 10.1-12.99 22.6-19.04 0 0 6.4-32.12-270.2-25.86-156.4 3.55-313.2 7.8-348.6 9.47-63.6 3-63.9 3.17-26.6 14.39l37.8 11.37-58.9 7.62c-76.2 9.88-97.8 5.46-121.1-24.84-18.3-23.74-18.2-27.96.9-93.03 20-67.7 26.2-159.639 10.8-159.062-4.4.173-13.1 3.938-19.2 8.38ZM7729.48 631.94c-24.97 28.138-113.63 58.158-151.26 51.226-25.47-4.691-43.49-1.369-195.27 35.954-43.35 10.666-86.38 18.098-95.63 16.527-14.08-2.395-107.19 31.963-160.55 59.239-8.03 4.103-40.13 20.108-71.32 35.553-31.19 15.459-75.24 41.485-97.89 57.87-22.65 16.369-43.82 25.923-47.06 21.239-3.22-4.694-12.51 4.098-20.61 19.522-8.12 15.423-35.12 45.978-60.02 67.9-24.88 21.92-46.29 45.51-47.56 52.4-1.27 6.9-22.31 36.7-46.77 66.21-34.65 41.84-50.3 77.13-70.97 160-15.12 60.6-23.61 122.75-19.76 144.5 3.72 20.99 8.9 68.2 11.53 104.93 11.47 160.57 261.15 405.54 494.41 485.1 148.73 50.73 363.66 84.55 430.01 67.66 86.65-22.07 217.57-88.69 232.04-118.1 7.44-15.08 27.86-28.3 45.47-29.43 17.59-1.12 33.33-9.39 34.98-18.35 3.41-18.48 115.68-91.24 135.23-87.64 7.01 1.29 14.95-9.57 17.63-24.14 2.69-14.59 15.71-33.97 28.95-43.09 22-15.16 22.42-17.96 4.88-32.5-10.57-8.78-43.83-16.86-73.92-17.98-30.11-1.13-92.72-5.86-139.15-10.51-120.52-12.08-153.38-10.11-133.43 7.94 8.86 8.02 11.7 17.6 6.32 21.31-21.51 14.82-375.18-45.91-482.25-82.8-131.05-45.17-257.52-117.09-304.53-173.2-10.43-12.45-19.81-18.1-20.84-12.54-1.02 5.55-10.68-6.65-21.45-27.14-25.21-47.9-23.77-52.94 27.93-97.81 95.54-82.89 237.35-156.32 378.75-196.09 124.39-35 279.46-126.13 310.08-182.232 6.31-11.575 16.84-20.046 23.4-18.837 6.57 1.208 14.06-9.316 16.65-23.388 2.59-14.073 9.55-24.696 15.46-23.607 5.91 1.088 22.84-21.085 37.62-49.287 14.79-28.202 37.44-63.115 50.36-77.6 12.93-14.47 28.98-50.203 35.69-79.405 11.24-48.919 9.53-53.876-21.66-63.429-23.9-7.313-40.2-3.198-55.49 14.025Zm782.47 582.77c3.59.98 9.35 1 17.6-.31 15.01-2.38 23.15 3.28 25.44 17.7.02.16.05.32.07.48.03.17.06.33.08.5.03.16.05.33.08.49.03.16.05.33.08.5.03.16.05.32.07.48l.09.51c.02.16.05.32.07.48.03.17.06.34.08.51.03.16.05.32.08.48.03.17.05.33.08.5.03.16.05.33.07.49.03.16.06.33.09.5.02.16.05.32.07.48.03.17.06.34.08.51.03.16.05.32.08.48.03.17.05.34.08.51.03.16.05.32.07.48l.09.5c.02.17.05.33.07.49.03.16.06.33.08.5.03.16.05.32.08.49.03.16.05.33.08.5 1.85 11.66-1.72 22-7.94 22.99-6.21.98-25.04 16.19-41.83 33.79-16.8 17.6-37.22 33.17-45.39 34.6-8.17 1.43-25.3 13.81-38.07 27.53-12.76 13.71-31.13 26.29-40.83 27.96-9.69 1.67-18.64 6.87-19.9 11.55-3.74 14.05-133.9 132.59-148.03 134.83-7.21 1.15-12.47 6.11-11.69 11.03.78 4.92-8.5 24.72-20.6 44-35.87 57.1-52.76 104.18-68.53 190.98-8.34 45.95-10.74 73.67-7.15 101.17 1.43 7.72 3.33 15.61 5.7 24.05 14.96 53.44 64.7 130.24 105.76 163.31 23.08 18.58 117.74 48.61 165.83 52.59 16.66 1.39 30.8 5.8 31.43 9.8 4.43 27.9 366.96-47.66 521.46-108.7 42.23-16.68 101.04-48.46 130.7-70.62 29.66-22.16 60.6-41.34 68.76-42.64 8.15-1.29 14.18-6.36 13.4-11.28-.78-4.91 14.17-20.72 33.22-35.15l3.63-13.01 10.61-37.98 17.11-50.52 32.43-69.48c4-6.74 5.47-14.99 4.3-21.46-.03-.17-.06-.33-.09-.49-.04-.16-.07-.31-.11-.47-.03-.16-.07-.32-.11-.47-.04-.16-.08-.31-.12-.46-.05-.15-.09-.3-.14-.45-.04-.15-.09-.3-.14-.45-.05-.15-.1-.29-.15-.44-.06-.14-.11-.29-.17-.43-.56-1.42-1.3-2.68-2.21-3.74a14.73 14.73 0 0 1-3.46-7.79c-.06-.32-.11-.65-.15-.98-.07-.33-.12-.66-.16-.99-.06-.33-.12-.66-.16-.99-.06-.33-.11-.66-.15-.99-.07-.33-.12-.65-.16-.99-.06-.32-.12-.65-.16-.98-.06-.33-.11-.66-.15-.99-.07-.33-.12-.66-.16-.99-.06-.33-.12-.66-.16-.99-.06-.32-.11-.65-.15-.98-.95-4.91.63-10.15 4.61-13.58 3.57-3.07 5.03-8.58 4.33-17.05-1.72-7.89-4.61-17.48-8.71-28.98-6.46-18.13-12.8-45.32-16.67-69.9-.05-.32-.11-.65-.16-.98l-.15-.99c-.06-.33-.11-.66-.16-.99-.05-.33-.11-.66-.16-.99l-.15-.98c-.06-.33-.11-.66-.16-.99-.05-.33-.11-.66-.16-.99l-.15-.99c-.06-.33-.11-.66-.16-.98-.05-.33-.11-.66-.16-.99-1.79-11.23-3.08-21.94-3.64-31.04-.35-5.67-.85-11.11-1.54-16.39-5.15-27.37-16.29-52.51-38.57-89.86-21.24-35.6-39.5-70.3-40.58-77.13-1.08-6.83-5.56-11.88-9.93-11.22-4.37.65-18.51-12-31.41-28.13-14.79-18.49-43.4-34.33-77.42-42.87-115.3-28.95-150.54-40.33-151.92-49.03-1.88-11.85-238.83 7.68-304.78 25.13-25.82 6.83-45.84 18.57-53.08 27.39Zm431.15 34.92c64.17 24.01 105.29 74.42 114.26 132.16.06.33.11.66.16.99.05.33.11.66.16.99l.15.99c.06.33.11.66.16.99.05.32.11.65.16.98l.15.99c.06.33.11.66.16.99.05.33.11.66.16.99l.15.98c.06.33.11.66.16.99 4.53 27.97 1.51 57.69-10.1 86.98-33.17 83.69-50.6 117.8-61.11 119.54-5.9.98-13.75 13.13-17.44 27.02-4.56 17.1-30.78 39.2-81.33 68.53-161.79 93.86-517.01 162.33-526.75 101.53a.482.482 0 0 1 0-.17c-.06-.27-.11-.54-.16-.82v-.17c-.06-.27-.11-.54-.15-.81-.01-.05-.01-.11-.01-.18-.05-.26-.11-.54-.15-.81a.484.484 0 0 1 0-.17c-.06-.27-.11-.54-.16-.82v-.17c-.06-.27-.11-.54-.15-.82-.01-.04-.01-.1-.01-.17-.05-.27-.11-.54-.15-.81a.54.54 0 0 1 0-.18c-.06-.27-.11-.54-.16-.81v-.17c-.06-.27-.11-.54-.15-.82-.01-.05-.01-.1-.01-.17-.05-.27-.11-.54-.15-.82a.477.477 0 0 1 0-.17c-.06-.27-.11-.54-.16-.81 0-.05-.01-.11 0-.18-.06-.27-.11-.54-.15-.81-.48-2.91 23.19-40.89 52.59-84.39 137.92-204.13 186.21-268.54 203.4-271.27 5.64-.89 14.76-9.23 20.27-18.51 5.5-9.28 24.07-27.03 41.24-39.44 17.18-12.39 37.77-27.51 45.77-33.58 49.07-37.25 81.26-57.88 93.28-59.79 7.55-1.19 18.53-10.27 24.4-20.16 14.94-25.17 48.13-27.67 101.67-7.64Z" clip-rule="evenodd"/>
  <path fill="#000" d="M9532.96 2085.45c47.38 31.86 172.11 57.75 265.35 55.07 95.33-2.74 226.49-39.45 256.39-71.75 12.4-13.42 28.7-25.37 36.1-26.55 7.5-1.18 23.5-19.6 35.6-40.94 12.1-21.35 27.4-46.99 34-56.99 29.7-45.24 39.8-116.61 30.2-183.8-5.1-29.61-14.2-58.08-27.2-82.73-43.2-82-94.1-140.4-151.9-174.18-54.62-31.96-350.19-131.67-377.43-127.35-15.18 2.41-48.73-17.82-50.76-30.6-.01-.09-.02-.2-.02-.31-.05-.23-.1-.45-.13-.68-.02-.09-.02-.19-.02-.3-.06-.23-.1-.46-.14-.69a2.66 2.66 0 0 1-.02-.3c-.05-.23-.1-.46-.14-.68-.01-.1-.02-.2-.02-.31-.05-.23-.1-.46-.13-.68-.02-.09-.02-.2-.02-.31-.06-.23-.1-.45-.14-.68a2.69 2.69 0 0 1-.02-.31c-.05-.22-.1-.45-.14-.68a2.66 2.66 0 0 1-.02-.3c-.05-.23-.1-.46-.13-.68-.02-.1-.02-.2-.02-.31-.06-.23-.1-.46-.14-.68-.01-.1-.02-.2-.02-.31-.05-.23-.1-.45-.14-.68a2.69 2.69 0 0 1-.02-.31c-.05-.23-.1-.45-.13-.68-.02-.09-.02-.19-.02-.3-.06-.23-.1-.46-.14-.69-1.52-9.55 81.11-115.44 91.35-117.06 13.95-2.21 70.35-90.64 76.46-117.46-11.61-17.45-66.48-14.89-177.8 7.81-106.33 21.7-146.59 44.44-186.74 105.49-41.5 63.11-53.59 115.2-42.89 185.72 9.12 56.49 12.56 59.71 67.95 98 32.39 22.39 79.42 49.27 104.54 59.74 25.11 10.46 78.89 32.84 119.52 49.73 40.63 16.87 105.16 38.43 143.39 47.9 38.25 9.47 78.07 22.36 88.5 28.64 10.43 6.27 27.09 10.12 37.04 8.54 22.05-3.5 71.36 17.82 72.09 30.13.08.33.14.66.16.98.08.34.13.67.15.99.09.34.14.66.16.99.08.33.14.66.16.99.08.33.13.66.15.98.09.34.14.67.16.99.08.34.14.67.16.99.08.33.13.66.15.99.09.33.14.66.16.98.08.34.14.67.16.99.25 1.02.21 1.99-.16 2.89-2.08 4.97-54.57 17.86-116.65 28.64-62.07 10.78-116.37 22.62-120.66 26.31-4.28 3.69-26.51 4.91-49.38 2.72-22.88-2.19-79.31-3.17-125.4-2.17-46.08 1-92.85-1.02-103.91-4.45-32.3-10.05-129.25-26.24-162.79-27.18-9.83-.28-19.07-2.98-27.07-7.29l-36.8 27.67-7.16 38.75 6.93 27.43 12.56 21.29c58.77 55.53 168.58 139.45 286.88 219.03Z"/>
  <path fill="#000" fill-rule="evenodd" d="M8363.62 1791.56c-1.49-1.92-2.49-4.03-2.99-6.34-.06-.27-.11-.54-.15-.81-.48-2.91 23.19-40.89 52.59-84.39 137.92-204.13 186.21-268.54 203.4-271.27 5.64-.89 14.76-9.23 20.27-18.51 5.5-9.28 24.07-27.03 41.24-39.44 17.18-12.39 37.77-27.51 45.77-33.58 49.07-37.25 81.26-57.88 93.28-59.79 7.55-1.19 18.53-10.27 24.4-20.16 14.94-25.17 48.13-27.67 101.67-7.64 64.17 24.01 105.29 74.42 114.26 132.16.26 1.65.49 3.3.69 4.96-10.78-55.26-51.25-103.07-113.23-126.25-53.54-20.04-86.73-17.54-101.66 7.63-5.87 9.9-16.85 18.97-24.41 20.17-12.01 1.9-44.21 22.54-93.27 59.78-8 6.07-28.6 21.19-45.78 33.59-17.17 12.4-35.74 30.15-41.24 39.43-5.51 9.29-14.63 17.62-20.27 18.52-17.18 2.72-65.48 67.13-203.4 271.26-24.89 36.83-45.66 69.69-51.17 80.68Z" clip-rule="evenodd"/>
</svg>
