<svg xmlns="http://www.w3.org/2000/svg" width="1147" height="982" fill="none">
  <path fill="#000" fill-rule="evenodd" d="M406.818 56.867c3.59.986 9.349 1.005 17.6-.304 15.006-2.38 23.15 3.28 25.436 17.692.026.162.05.323.074.484l.083.504.074.484.083.504c.025.161.05.323.073.484a35.192 35.192 0 0 1 .157.987l.083.504c.026.162.05.323.074.484l.083.504c.025.161.05.323.073.484a36.752 36.752 0 0 1 .157.987l.083.504c.026.162.05.323.074.484l.083.504c.025.161.05.323.073.484a36.768 36.768 0 0 1 .157.987c.029.167.056.335.083.504.026.161.05.323.074.484l.083.504c1.849 11.656-1.725 22-7.945 22.987-6.21.985-25.035 16.193-41.83 33.795-16.795 17.602-37.215 33.172-45.386 34.598-8.171 1.427-25.304 13.814-38.066 27.528-12.762 13.713-31.135 26.297-40.833 27.966-9.686 1.667-18.639 6.867-19.896 11.543-3.745 14.054-133.9 132.594-148.037 134.837-7.206 1.143-12.47 6.107-11.69 11.024.781 4.927-8.494 24.726-20.601 44.006-35.863 57.097-52.752 104.176-68.53 190.981-8.34 45.948-10.738 73.669-7.15 101.168 1.436 7.721 3.335 15.607 5.7 24.046 14.963 53.444 64.703 130.246 105.766 163.308 23.079 18.588 117.737 48.612 165.832 52.596 16.657 1.388 30.794 5.794 31.43 9.799 4.426 27.898 366.952-47.664 521.451-108.698 42.231-16.683 101.045-48.468 130.708-70.621 29.661-22.164 60.599-41.347 68.759-42.641 8.15-1.293 14.18-6.366 13.4-11.283-.78-4.907 14.17-20.717 33.22-35.145l14.24-50.993 17.11-50.524 32.43-69.479c3.99-6.742 5.47-14.991 4.3-21.462a7.768 7.768 0 0 0-.1-.482c-.03-.16-.06-.319-.1-.476a7.56 7.56 0 0 0-.11-.468l-.12-.461c-.05-.152-.09-.303-.14-.453a6.95 6.95 0 0 0-.14-.445c-.05-.148-.1-.294-.16-.438-.05-.145-.1-.289-.16-.43-.57-1.422-1.3-2.687-2.21-3.744a14.705 14.705 0 0 1-3.46-7.786c-.06-.328-.11-.657-.16-.987-.06-.328-.11-.658-.15-.988-.07-.328-.12-.657-.16-.988-.06-.328-.11-.657-.16-.987-.06-.328-.11-.658-.15-.988-.07-.328-.12-.657-.16-.988-.06-.328-.11-.657-.16-.987-.06-.328-.11-.658-.15-.988-.07-.328-.12-.657-.16-.988-.06-.327-.11-.657-.16-.987-.95-4.911.64-10.146 4.62-13.575 3.57-3.074 5.03-8.582 4.33-17.049-1.72-7.896-4.62-17.486-8.71-28.978-6.46-18.139-12.8-45.327-16.67-69.9-.06-.33-.11-.659-.16-.987-.05-.33-.1-.659-.16-.988l-.15-.988c-.06-.33-.11-.659-.16-.987-.05-.33-.1-.659-.16-.988l-.15-.988c-.06-.329-.11-.659-.16-.988-.05-.329-.1-.658-.16-.987l-.15-.988c-.06-.329-.11-.659-.16-.987-1.79-11.225-3.08-21.94-3.64-31.041-.35-5.671-.85-11.103-1.54-16.39-5.15-27.364-16.3-52.503-38.57-89.857-21.24-35.599-39.5-70.302-40.58-77.126-1.09-6.835-5.56-11.883-9.93-11.222-4.37.65-18.51-12.001-31.414-28.13-14.786-18.49-43.393-34.332-77.415-42.873C801.296 24.426 766.053 13.047 764.673 4.347 762.793-7.5 525.85 12.033 459.895 29.482c-25.818 6.827-45.838 18.571-53.077 27.385Zm431.151 34.927c64.173 24.005 105.292 74.414 114.263 132.161.053.329.105.658.156.988.053.329.106.658.157.988a337.125 337.125 0 0 1 .313 1.975 401.6 401.6 0 0 1 .47 2.963c.054.329.106.658.157.987l.157.988c.053.329.105.658.156.988 4.529 27.967 1.508 57.686-10.1 86.982-33.166 83.687-50.601 117.794-61.112 119.538-5.896.978-13.745 13.131-17.442 27.014-4.554 17.105-30.772 39.2-81.328 68.535-161.785 93.857-517.004 162.333-526.747 101.532a.69.69 0 0 1-.004-.173 15.614 15.614 0 0 1-.153-.815.74.74 0 0 1-.004-.173 15.42 15.42 0 0 1-.153-.815.79.79 0 0 1-.004-.172 15.61 15.61 0 0 1-.152-.815.69.69 0 0 1-.004-.173 15.614 15.614 0 0 1-.153-.815.732.732 0 0 1-.004-.172c-.058-.27-.109-.541-.153-.815a.802.802 0 0 1-.004-.173 15.61 15.61 0 0 1-.152-.815.69.69 0 0 1-.004-.173 15.614 15.614 0 0 1-.153-.815.732.732 0 0 1-.004-.172 15.614 15.614 0 0 1-.153-.815.802.802 0 0 1-.004-.173 15.614 15.614 0 0 1-.153-.815.746.746 0 0 1-.003-.173 15.42 15.42 0 0 1-.153-.815.732.732 0 0 1-.004-.172 15.614 15.614 0 0 1-.153-.815c-.473-2.913 23.193-40.888 52.588-84.389 137.926-204.129 186.218-268.542 203.406-271.269 5.637-.894 14.755-9.228 20.268-18.511 5.502-9.281 24.066-27.034 41.24-39.438 17.176-12.393 37.776-27.513 45.775-33.584 49.061-37.245 81.257-57.877 93.274-59.784 7.556-1.198 18.534-10.273 24.406-20.167 14.931-25.171 48.125-27.667 101.667-7.633Z" clip-rule="evenodd"/>
  <path fill="#000" fill-rule="evenodd" d="M258.49 633.722c-1.488-1.925-2.496-4.036-2.992-6.338a15.614 15.614 0 0 1-.153-.815c-.473-2.913 23.193-40.888 52.588-84.389 137.926-204.129 186.218-268.542 203.406-271.269 5.637-.894 14.755-9.228 20.268-18.511 5.502-9.281 24.066-27.034 41.24-39.438 17.176-12.393 37.776-27.513 45.775-33.584 49.061-37.245 81.257-57.877 93.274-59.784 7.556-1.198 18.534-10.273 24.406-20.167 14.931-25.171 48.125-27.667 101.667-7.633 64.173 24.005 105.292 74.414 114.263 132.161.255 1.646.485 3.298.688 4.955-10.781-55.261-51.253-103.069-113.228-126.252-53.542-20.034-86.736-17.538-101.667 7.633-5.872 9.894-16.85 18.969-24.405 20.168-12.017 1.906-44.213 22.538-93.274 59.783-8 6.071-28.6 21.191-45.775 33.584-17.174 12.404-35.739 30.157-41.241 39.438-5.512 9.283-14.63 17.617-20.268 18.511-17.188 2.727-65.48 67.14-203.406 271.27-24.883 36.825-45.662 69.69-51.166 80.677Z" clip-rule="evenodd"/>
</svg>
