<svg xmlns="http://www.w3.org/2000/svg" width="1031" height="1084" fill="none">
  <path fill="#000" fill-rule="evenodd" d="M88.543 49.675C3.713 96.265 3.493 96.504.95 143.142c-3.122 57.23 18.538 103.525 69.293 148.138 24.528 21.554 42.596 49.947 50.376 79.162 6.678 25.05 17.292 62.361 23.581 82.91 16.569 54.109 46.044 203.729 46.612 236.588 1.098 63.584 123.091 350.87 162.341 382.33 22.154 17.74 68.922-.22 75.636-29.04 3.236-13.94 3.789-49.632 1.216-79.324-2.573-29.691-.376-54.056 4.891-54.147 5.268-.081 39.698 18.158 76.516 40.53 154.853 94.101 281.146 135.731 405.203 133.591l63.338-1.09 21.497-50.94c11.81-28.01 23.87-78.395 26.8-111.969 5.02-57.595 3.87-61.417-20.36-67.802-14.118-3.716-35.388-10.592-47.273-15.27-49.743-19.573-122.077-34.227-172.428-34.924-31.095-.44-66.327-8.664-83.501-19.495-16.339-10.31-29.65-15.499-29.582-11.53.069 3.959-13.27.23-29.653-8.287-16.383-8.516-42.311-17.888-57.643-20.832-15.321-2.955-41.772-15.933-58.789-28.849-17.017-12.917-40.733-24.805-52.694-26.412-11.961-1.617-42.685-14.737-68.291-29.147-56.978-32.078-61.467-60.213-12.574-78.753 19.051-7.218 57.38-25.372 85.162-40.328 27.771-14.955 59.868-27.357 71.326-27.554 11.446-.198 23.711-5.239 27.257-11.202 3.545-5.964 15.981-11.007 27.642-11.209 11.662-.201 33.894-9.03 49.399-19.632 15.517-10.602 42.869-24.402 60.799-30.668 31.68-11.085 32.544-13.214 30.586-75.645-2.212-70.97-8.985-88.431-70.006-180.641-51.39-77.664-112.024-119.574-224.826-155.41C383.615 4.317 346.988-.77 269.935.882 177.779 2.87 169.874 4.992 88.543 49.675Zm323.487 245.49c18.525 10.143 5.291 23.689-49.804 50.942-87.068 43.086-108.272 46.801-122.402 21.462-17.575-31.515-6.604-48.713 43.777-68.652 39.606-15.654 103.285-17.515 128.429-3.752Zm-251.103 31.271c15.147 14.633 18.778 72.647 4.564 72.893-5.257.09-12.677-11.403-16.484-25.546-3.817-14.142-10.02-33.35-13.786-42.686-8.061-19.992 7.012-22.721 25.706-4.661Z" clip-rule="evenodd"/>
</svg>
