<svg xmlns="http://www.w3.org/2000/svg" width="968" height="1052" fill="none">
  <path fill="#000" d="M306.824 996.607c47.379 31.863 172.116 57.763 265.356 55.073 95.328-2.74 226.506-39.45 256.406-71.75 12.428-13.422 28.686-25.366 36.125-26.546 7.44-1.18 23.442-19.602 35.547-40.946 12.116-21.346 27.407-46.988 33.968-56.992 29.697-45.238 39.839-116.604 30.286-183.792-5.191-29.614-14.272-58.079-27.256-82.737-43.165-81.996-94.081-140.393-151.869-174.181-54.64-31.951-350.208-131.667-377.452-127.345-15.175 2.407-48.725-17.822-50.753-30.602a1.914 1.914 0 0 1-.021-.305 9.67 9.67 0 0 1-.136-.682 1.942 1.942 0 0 1-.02-.306 8.563 8.563 0 0 1-.136-.682 1.82 1.82 0 0 1-.021-.305c-.055-.23-.1-.457-.136-.682a1.829 1.829 0 0 1-.02-.306 9.145 9.145 0 0 1-.137-.682 1.942 1.942 0 0 1-.02-.306 8.563 8.563 0 0 1-.136-.682 1.82 1.82 0 0 1-.021-.305c-.055-.23-.1-.457-.136-.682a1.824 1.824 0 0 1-.021-.306c-.055-.23-.1-.457-.136-.682a1.942 1.942 0 0 1-.02-.306 8.563 8.563 0 0 1-.136-.682 1.82 1.82 0 0 1-.021-.305c-.055-.23-.1-.457-.136-.682a1.824 1.824 0 0 1-.021-.306c-.055-.23-.1-.457-.136-.682a1.829 1.829 0 0 1-.02-.306 8.563 8.563 0 0 1-.136-.682c-1.517-9.558 81.11-115.442 91.346-117.066 13.952-2.213 70.354-90.64 76.464-117.454-11.612-17.45-66.485-14.897-177.802 7.807-106.334 21.704-146.594 44.44-186.741 105.486-41.503 63.111-53.585 115.206-42.891 185.718 9.125 56.493 12.568 59.713 67.955 98.006 32.384 22.392 79.418 49.27 104.533 59.735 25.114 10.464 78.898 32.839 119.524 49.729 40.635 16.878 105.163 38.439 143.395 47.909 38.243 9.469 78.061 22.359 88.497 28.634 10.426 6.276 27.091 10.118 37.042 8.54 22.046-3.498 71.356 17.82 72.086 30.127.085.335.138.664.157.987.085.336.138.665.157.988.085.335.137.664.156.988.085.335.138.664.157.987.085.336.138.665.157.988.084.335.137.664.156.988.085.335.138.664.157.987.085.335.138.665.157.988.084.335.137.664.156.988.085.335.138.664.157.987.258 1.02.219 1.987-.157 2.886-2.08 4.969-54.57 17.858-116.651 28.641-62.07 10.781-116.368 22.622-120.66 26.312-4.282 3.688-26.51 4.911-49.379 2.716-22.877-2.183-79.308-3.17-125.396-2.171-46.087 1-92.848-1.012-103.91-4.45-32.304-10.041-129.255-26.23-162.79-27.179-9.836-.278-19.07-2.977-27.07-7.29L7.614 690.109l-7.16 38.754 6.938 27.425 12.553 21.289c58.77 55.534 168.581 139.454 286.879 219.03Z"/>
</svg>
