<svg width="947" height="341" fill="none" xmlns="http://www.w3.org/2000/svg"><mask id="a" fill="#fff"><path fill-rule="evenodd" clip-rule="evenodd" d="M374.04 1.643c-.819 2.156-2.502 8.11-3.775 13.357-1.683 6.938-4.981 25.184-15.271 84.5-4.699 27.088-8.658 49.634-8.796 50.105-.139.47-3.718 3.008-7.952 5.64-8.43 5.239-16.184 10.76-24.466 17.423-6.12 4.923-6.007 4.913-9.25.811-4.538-5.741-8.056-14.002-9.07-21.294-.937-6.731.528-15.622 4.395-26.685 3.863-11.051 14.053-29.204 21.034-37.47 7.555-8.946 14.581-13.528 26.051-16.986 4.664-1.406 4.09-2.203-.953-1.323-4.777.834-10.282 3.121-15.061 6.26-12.007 7.882-26.487 29.758-33.87 51.167-6.638 19.252-4.909 32.831 6.095 47.854l2.724 3.718-6.653 7.015c-3.66 3.858-7.829 8.477-9.265 10.265-4.6 5.724-6.74 11.778-4.573 12.938 1.662.889 4.362 1.134 5.871.533l1.495-.595-2.64-.62c-1.452-.341-2.768-.746-2.922-.902-.659-.659.546-3.53 2.872-6.842 2.133-3.037 16.898-18.958 18.012-19.421.21-.087 2.444 1.322 4.965 3.132 6.035 4.333 12.157 8.103 20.713 12.753l7 3.805.326 14.734c.52 23.602 3.137 42.799 7.904 58.005 1.203 3.835 1.343 4.757.791 5.196-9.979 7.942-21.171 14.975-34.233 21.511-10.577 5.292-22.141 9.201-33.288 11.25-9.589 1.763-11.413 2.229-11.656 2.977-.518 1.59 16.4-.88 26.936-3.933 14.549-4.216 32.316-13.643 48.937-25.966 2.266-1.68 4.33-3.055 4.587-3.055.257 0 .679.507.938 1.125 8.472 20.234 14.203 29.645 23.983 39.375 7.443 7.405 15.341 12.406 24.663 15.617 4.363 1.502 5.087 1.598 13.415 1.783 6.98.154 9.466.026 12-.618 16.989-4.322 30.169-22.624 35.163-48.829 1.793-9.404 2.596-16.299 3.581-30.769.814-11.962.716-16.022-.323-13.331-.234.606-.895 6.794-1.468 13.75-2.761 33.489-5.979 46.162-15.272 60.147-6.81 10.251-13.825 15.416-23.781 17.51-14.438 3.037-34.43-4.026-46.263-16.345-8.437-8.785-16.215-21.649-22.384-37.024l-1.944-4.845 5.362-5.635c2.949-3.099 6.574-7.457 8.056-9.683 3.178-4.777 7.958-14.536 8.684-17.728.784-3.451.644-10.453-.27-13.534-2.927-9.859-11.938-19.842-26.819-29.714L344 199.85v-3.582c0-5.988 2.634-32.322 4.067-40.653.507-2.949.665-3.208 2.659-4.377 1.166-.684 6.374-3.073 11.572-5.31 19.521-8.401 46.613-16.13 67.202-19.171 7.723-1.141 11-1.833 11-2.322 0-1.234-10.819-.07-24.207 2.605-21.608 4.317-43.214 10.983-58.543 18.062-3.575 1.651-6.98 3.112-7.568 3.247l-1.068.246 1.462-8.422c.803-4.633 3.58-20.348 6.17-34.923a18537.84 18537.84 0 0 0 8.715-49.5c3.52-20.201 9.085-50.918 9.806-54.125.33-1.473-.665-1.458-1.227.018Zm-241.79 51.07c-12.788 2.289-21.519 5.161-32.75 10.771-15.876 7.93-30.207 18.26-42.96 30.965-15.002 14.944-23.051 27.537-34.35 53.74C9.489 177.647 2.157 207.01.451 235.25c-.765 12.67-.32 39.187.773 46.082 1.115 7.032 4.297 19.432 6.523 25.418 4.137 11.128 8.704 18.804 14.774 24.832 12.556 12.469 29.477 11.797 50.576-2.009 6.908-4.521 16.195-11.544 22.762-17.213 9.553-8.248 37.662-36.115 41.353-40.998 3.79-5.015-.612-1.135-15.835 13.953-9.145 9.064-19.102 18.703-22.127 21.421-16.626 14.938-32.84 25.75-44.75 29.839-4.336 1.489-5.273 1.631-10.75 1.627-6.93-.006-9.79-.807-15.009-4.207-10.073-6.564-17.24-19.113-22.418-39.258-3.45-13.428-3.902-17.226-4.191-35.296-.409-25.498 1.484-42.823 7.178-65.691 7.738-31.075 22.767-65.098 37.374-84.606 4.669-6.236 14.19-15.942 21.978-22.404C96.301 63.81 121.736 53.5 150.678 53.5c9.839 0 13.628 1.368 20.528 7.415 3.192 2.797 4.034 3.028 2.334.64-1.833-2.574-6.469-6.37-9.923-8.124l-3.31-1.681-10.778-.1c-9.379-.088-11.623.05-17.279 1.063ZM593 62.757c-10.507 1.444-25.889 6.283-29.178 9.176C562.507 73.09 561 76.22 561 77.796c0 3.217 4.557 7.752 10.743 10.692 13.078 6.215 23.277 7.243 68.265 6.885 23.063-.184 31.175-.423 38.39-1.133 11.262-1.108 10.498-1.488 15.206 7.562 10.022 19.268 14.964 39.485 19.114 78.198 4.903 45.744 6.609 72.267 4.979 77.443-.445 1.414-2.182-1.092-5.638-8.136-1.906-3.881-4.978-10.657-6.828-15.057-5.433-12.926-8.675-18.218-14.554-23.762-4.657-4.392-9.635-6.988-13.402-6.988-7.153 0-13.037 2.612-18.932 8.403-8.985 8.827-14.307 21.338-20.782 48.847-5.737 24.374-8.033 27.476-11.282 15.243-2.723-10.254-4.794-25.949-7.784-58.993-3.367-37.206-7.046-68.29-9.553-80.73-1.083-5.372-3.246-10.52-4.42-10.52-1.435 0-2.89 7.984-4.238 23.25a67775.48 67775.48 0 0 1-1.793 20.25c-2.193 24.73-5.768 40.798-13.347 60-4.504 11.411-9.035 19.416-14.942 26.398-11.068 13.081-28.18 14.965-43.099 4.745l-2.146-1.47 2.283-4.087c8.056-14.417 14.91-29.639 19.288-42.836 4.507-13.584 6.472-25.299 6.472-38.586 0-8.003-.563-12.577-2.484-20.184-2.667-10.559-5.252-15.441-11.516-21.746-6.879-6.924-14.296-9.962-24.77-10.145-5.008-.088-5.085-.071-9.332 2.031-7.412 3.671-12.415 10.622-15.569 21.63-3.678 12.844-4.862 35.445-2.584 49.36 1.097 6.708 4.392 19.238 6.476 24.635 3.775 9.775 10.026 20.729 15.891 27.85 1.176 1.428 4.366 4.978 7.089 7.891 4.552 4.868 4.903 5.385 4.353 6.405-1.083 2.006-11.338 16.124-16.107 22.176-4.303 5.457-8.067 10.077-23.106 28.358-6.421 7.804-9.349 12.046-9.321 13.507.024 1.328 1.459-.188 12.476-13.182 15.226-17.957 26.122-31.915 34.737-44.5 2.166-3.162 4.026-5.859 4.134-5.99.109-.133.914.188 1.79.712 8.148 4.872 14.206 6.813 21.362 6.841 14.944.06 26.019-8.613 35.683-27.943 4.541-9.082 9.824-23.763 12.73-35.37 3.259-13.025 4.339-20.546 6.317-44 1.302-15.428 2.559-27.89 3.074-30.459.243-1.208.372-1.317.755-.633 2.229 3.983 5.628 31.309 10.397 83.592 3.223 35.331 5.011 48.792 8.036 60.5 1.746 6.759 2.647 8.954 4.093 9.967 1.621 1.135 2.787.969 4.382-.626 1.825-1.825 3.545-7.218 7.963-24.964 5.759-23.132 9.42-32.798 15.514-40.966 5.627-7.541 11.269-11.399 17.728-12.123 4.831-.543 7.49.032 11.162 2.41 7.558 4.895 12.578 12.258 18.616 27.302 3.416 8.51 9.053 19.856 11.428 23 1.85 2.449 3.681 3.372 4.689 2.364 1.094-1.094 1.528-10.801.955-21.364-1.441-26.569-6.636-75.971-9.761-92.82-3.315-17.867-10.151-38.435-16.24-48.861-3.011-5.156-3.004-5.165 3.178-3.546 5.955 1.56 9.942 3.582 13.211 6.7 3.447 3.288 5.124 6.181 6.539 11.279 3.093 11.14 3.886 21.461 4.773 62.122.417 19.044.994 36.989 1.286 39.876 1.532 15.197 5.511 24.878 12.308 29.947 3.532 2.635 6.162 3.826 11.387 5.16 5.238 1.337 15.911 1.068 22.028-.555 8.741-2.32 13.345-5.307 28.262-18.334 4.703-4.107 8.786-7.551 9.072-7.652.802-.284.146 1.385-4.204 10.684-6.915 14.785-10.105 22.895-18.884 48-5.983 17.112-8.423 25.611-8.83 30.76-.245 3.107-.156 3.877.516 4.434 1.27 1.054 2.727-.234 5.38-4.754 2.798-4.767 22.756-42.03 31.97-59.69 6.923-13.27 20.556-40.833 25.968-52.5 6.186-13.339 14.991-30.361 18.751-36.25 7.97-12.484 18.879-25.816 22.891-27.977 1.582-.852 1.782-.856 3.434-.072 1.725.819 2.973 2.701 4.013 6.049 1.636 5.27 1.369 29.159-.575 51.5-1.676 19.257-3.3 30.542-6.262 43.5-4.453 19.482-6.023 31.318-5.642 42.54.208 6.146.397 7.387 1.49 9.773 4.659 10.178 15.065 12.672 47.845 11.47 13.697-.503 20.514-1.292 21.74-2.518 1.02-1.02-.238-1.055-6.258-.171-5.096.748-9.327.903-24.177.887-16.58-.018-18.359-.104-22.547-1.086-8.362-1.961-12.146-4.61-14.231-9.962-1.006-2.582-1.137-3.769-1.1-9.933.07-11.467.934-17.393 6.332-43.415 3.776-18.195 5.855-37.479 6.835-63.366.938-24.776-.449-33.795-5.691-36.991-2.315-1.412-4.815-1.257-7.148.441-4.727 3.439-13.089 13.86-22.333 27.831-4.905 7.414-9.255 15.795-20.628 39.75-6.258 13.18-17.84 36.352-24.868 49.75-6.391 12.185-31.207 58.03-32.199 59.487-.66.968-.672.966-.672-.092 0-2.507 3.33-13.49 8.911-29.395 8.774-25.001 11.225-31.235 19.838-50.469 3.914-8.74 4.364-10.519 2.792-11.018-1.644-.521-4.565 1.464-11.492 7.813-11.402 10.449-14.435 12.793-20.299 15.687-7.257 3.581-12.658 4.887-20.25 4.895-9.295.01-16.17-2.364-21.46-7.41-3.473-3.312-5.528-6.967-7.238-12.865-2.696-9.305-3.585-21.38-4.041-54.883-.681-50.187-2.96-64.893-11.33-73.1-4.408-4.324-9.7-6.565-21.509-9.109-.852-.184-2.233-1.44-3.861-3.51-6.062-7.714-14.109-14.57-21.311-18.159-6.823-3.4-18.082-6.154-29-7.094-8.534-.736-37.854-.582-43.75.229Zm34.299.747c26.58 1.032 39.523 5.444 51.868 17.678 4.436 4.397 8.665 9.652 8.168 10.15-.168.168-3.969.736-8.445 1.262-10.647 1.25-55.884 1.844-72.481.95-18.135-.976-24.492-2.286-34.282-7.065-5.724-2.794-6.244-3.17-7.966-5.763l-1.842-2.775.914-1.596c1.468-2.56 2.35-3.37 5.267-4.835 8.293-4.162 21.984-7.336 34.5-7.996 10.144-.536 10.774-.536 24.299-.01Zm-105.903 60.275c6.324 1.28 10.879 3.712 15.372 8.208 6.309 6.314 9.2 11.594 11.691 21.351 6.759 26.479-.564 59.552-21.46 96.912-4.22 7.545-3.951 7.356-6.852 4.835-4.312-3.75-5.683-5.259-10.106-11.124-10.616-14.072-16.643-28.522-20.32-48.711-1.118-6.145-1.55-25.639-.743-33.542 2.166-21.213 8.483-33.462 19.476-37.763 2.891-1.131 7.855-1.195 12.942-.166ZM224.5 141.168c-3.401.794-7.807 3.025-11.75 5.949-6.094 4.518-14.912 14.301-20.34 22.563-2.768 4.213-3.449 5.82-2.469 5.82.242 0 3.105-3.432 6.363-7.625 9.875-12.712 18.44-20.419 26.044-23.434 3.996-1.584 10.196-1.58 14.27.008 10.639 4.147 19.969 15.446 25.564 30.958 5.924 16.421 9.519 49.17 8.304 75.642-1.796 39.135-12.732 63.642-31.236 69.999-3.126 1.074-4.329 1.2-11.25 1.177-7.231-.023-8.001-.119-11.5-1.426-13.25-4.951-25.454-14.841-33.359-27.033-10.735-16.559-13.916-22.918-18.669-37.322-5.053-15.312-6.547-24.379-6.54-39.694.008-15.048 1.343-23.517 5.343-33.891 2.857-7.411 9.461-19.326 15.303-27.609l2.468-3.5-2.317 2.5c-6.322 6.822-16.467 24.73-19.686 34.75-2.727 8.488-3.239 12.803-3.268 27.5-.02 10.624.157 14.34.894 18.75 1.19 7.121 3.727 16.951 6.323 24.5 4.111 11.953 13.559 29.167 22.093 40.25 7.914 10.28 18.832 18.314 30.915 22.752 4.988 1.831 14.837 2.33 20.617 1.044 13.2-2.937 23.012-13.609 29.304-31.872 3.911-11.355 5.816-22.416 6.638-38.548 1.384-27.173-1.985-59.601-8.11-78.064-4.192-12.636-12.903-24.978-21.481-30.434-5.695-3.622-12.764-5.042-18.468-3.71Zm121.496 13.207c-.002.206-.436 3.637-.965 7.625-.528 3.988-1.564 13.775-2.299 21.75-.736 7.975-1.435 14.603-1.555 14.729-.351.37-10.432-4.775-16.884-8.617-6.03-3.591-13.354-8.747-14.07-9.906-.821-1.328 12.349-11.999 24.777-20.076 7.971-5.181 11.008-6.701 10.996-5.505Zm4.207 51.482c8.944 5.95 17.871 15.441 21.952 23.338l2.095 4.055-.058 5.75c-.05 4.943-.245 6.241-1.395 9.25-1.769 4.626-5.703 11.68-8.879 15.918-3.316 4.424-10.332 11.832-11.207 11.832-.914 0-2.813-6.367-4.937-16.552-3.063-14.684-4.383-28.107-4.473-45.448-.051-9.735.143-11.5 1.261-11.5.326 0 2.865 1.511 5.641 3.357Z"/></mask><path fill-rule="evenodd" clip-rule="evenodd" d="M374.04 1.643c-.819 2.156-2.502 8.11-3.775 13.357-1.683 6.938-4.981 25.184-15.271 84.5-4.699 27.088-8.658 49.634-8.796 50.105-.139.47-3.718 3.008-7.952 5.64-8.43 5.239-16.184 10.76-24.466 17.423-6.12 4.923-6.007 4.913-9.25.811-4.538-5.741-8.056-14.002-9.07-21.294-.937-6.731.528-15.622 4.395-26.685 3.863-11.051 14.053-29.204 21.034-37.47 7.555-8.946 14.581-13.528 26.051-16.986 4.664-1.406 4.09-2.203-.953-1.323-4.777.834-10.282 3.121-15.061 6.26-12.007 7.882-26.487 29.758-33.87 51.167-6.638 19.252-4.909 32.831 6.095 47.854l2.724 3.718-6.653 7.015c-3.66 3.858-7.829 8.477-9.265 10.265-4.6 5.724-6.74 11.778-4.573 12.938 1.662.889 4.362 1.134 5.871.533l1.495-.595-2.64-.62c-1.452-.341-2.768-.746-2.922-.902-.659-.659.546-3.53 2.872-6.842 2.133-3.037 16.898-18.958 18.012-19.421.21-.087 2.444 1.322 4.965 3.132 6.035 4.333 12.157 8.103 20.713 12.753l7 3.805.326 14.734c.52 23.602 3.137 42.799 7.904 58.005 1.203 3.835 1.343 4.757.791 5.196-9.979 7.942-21.171 14.975-34.233 21.511-10.577 5.292-22.141 9.201-33.288 11.25-9.589 1.763-11.413 2.229-11.656 2.977-.518 1.59 16.4-.88 26.936-3.933 14.549-4.216 32.316-13.643 48.937-25.966 2.266-1.68 4.33-3.055 4.587-3.055.257 0 .679.507.938 1.125 8.472 20.234 14.203 29.645 23.983 39.375 7.443 7.405 15.341 12.406 24.663 15.617 4.363 1.502 5.087 1.598 13.415 1.783 6.98.154 9.466.026 12-.618 16.989-4.322 30.169-22.624 35.163-48.829 1.793-9.404 2.596-16.299 3.581-30.769.814-11.962.716-16.022-.323-13.331-.234.606-.895 6.794-1.468 13.75-2.761 33.489-5.979 46.162-15.272 60.147-6.81 10.251-13.825 15.416-23.781 17.51-14.438 3.037-34.43-4.026-46.263-16.345-8.437-8.785-16.215-21.649-22.384-37.024l-1.944-4.845 5.362-5.635c2.949-3.099 6.574-7.457 8.056-9.683 3.178-4.777 7.958-14.536 8.684-17.728.784-3.451.644-10.453-.27-13.534-2.927-9.859-11.938-19.842-26.819-29.714L344 199.85v-3.582c0-5.988 2.634-32.322 4.067-40.653.507-2.949.665-3.208 2.659-4.377 1.166-.684 6.374-3.073 11.572-5.31 19.521-8.401 46.613-16.13 67.202-19.171 7.723-1.141 11-1.833 11-2.322 0-1.234-10.819-.07-24.207 2.605-21.608 4.317-43.214 10.983-58.543 18.062-3.575 1.651-6.98 3.112-7.568 3.247l-1.068.246 1.462-8.422c.803-4.633 3.58-20.348 6.17-34.923a18537.84 18537.84 0 0 0 8.715-49.5c3.52-20.201 9.085-50.918 9.806-54.125.33-1.473-.665-1.458-1.227.018Zm-241.79 51.07c-12.788 2.289-21.519 5.161-32.75 10.771-15.876 7.93-30.207 18.26-42.96 30.965-15.002 14.944-23.051 27.537-34.35 53.74C9.489 177.647 2.157 207.01.451 235.25c-.765 12.67-.32 39.187.773 46.082 1.115 7.032 4.297 19.432 6.523 25.418 4.137 11.128 8.704 18.804 14.774 24.832 12.556 12.469 29.477 11.797 50.576-2.009 6.908-4.521 16.195-11.544 22.762-17.213 9.553-8.248 37.662-36.115 41.353-40.998 3.79-5.015-.612-1.135-15.835 13.953-9.145 9.064-19.102 18.703-22.127 21.421-16.626 14.938-32.84 25.75-44.75 29.839-4.336 1.489-5.273 1.631-10.75 1.627-6.93-.006-9.79-.807-15.009-4.207-10.073-6.564-17.24-19.113-22.418-39.258-3.45-13.428-3.902-17.226-4.191-35.296-.409-25.498 1.484-42.823 7.178-65.691 7.738-31.075 22.767-65.098 37.374-84.606 4.669-6.236 14.19-15.942 21.978-22.404C96.301 63.81 121.736 53.5 150.678 53.5c9.839 0 13.628 1.368 20.528 7.415 3.192 2.797 4.034 3.028 2.334.64-1.833-2.574-6.469-6.37-9.923-8.124l-3.31-1.681-10.778-.1c-9.379-.088-11.623.05-17.279 1.063ZM593 62.757c-10.507 1.444-25.889 6.283-29.178 9.176C562.507 73.09 561 76.22 561 77.796c0 3.217 4.557 7.752 10.743 10.692 13.078 6.215 23.277 7.243 68.265 6.885 23.063-.184 31.175-.423 38.39-1.133 11.262-1.108 10.498-1.488 15.206 7.562 10.022 19.268 14.964 39.485 19.114 78.198 4.903 45.744 6.609 72.267 4.979 77.443-.445 1.414-2.182-1.092-5.638-8.136-1.906-3.881-4.978-10.657-6.828-15.057-5.433-12.926-8.675-18.218-14.554-23.762-4.657-4.392-9.635-6.988-13.402-6.988-7.153 0-13.037 2.612-18.932 8.403-8.985 8.827-14.307 21.338-20.782 48.847-5.737 24.374-8.033 27.476-11.282 15.243-2.723-10.254-4.794-25.949-7.784-58.993-3.367-37.206-7.046-68.29-9.553-80.73-1.083-5.372-3.246-10.52-4.42-10.52-1.435 0-2.89 7.984-4.238 23.25a67775.48 67775.48 0 0 1-1.793 20.25c-2.193 24.73-5.768 40.798-13.347 60-4.504 11.411-9.035 19.416-14.942 26.398-11.068 13.081-28.18 14.965-43.099 4.745l-2.146-1.47 2.283-4.087c8.056-14.417 14.91-29.639 19.288-42.836 4.507-13.584 6.472-25.299 6.472-38.586 0-8.003-.563-12.577-2.484-20.184-2.667-10.559-5.252-15.441-11.516-21.746-6.879-6.924-14.296-9.962-24.77-10.145-5.008-.088-5.085-.071-9.332 2.031-7.412 3.671-12.415 10.622-15.569 21.63-3.678 12.844-4.862 35.445-2.584 49.36 1.097 6.708 4.392 19.238 6.476 24.635 3.775 9.775 10.026 20.729 15.891 27.85 1.176 1.428 4.366 4.978 7.089 7.891 4.552 4.868 4.903 5.385 4.353 6.405-1.083 2.006-11.338 16.124-16.107 22.176-4.303 5.457-8.067 10.077-23.106 28.358-6.421 7.804-9.349 12.046-9.321 13.507.024 1.328 1.459-.188 12.476-13.182 15.226-17.957 26.122-31.915 34.737-44.5 2.166-3.162 4.026-5.859 4.134-5.99.109-.133.914.188 1.79.712 8.148 4.872 14.206 6.813 21.362 6.841 14.944.06 26.019-8.613 35.683-27.943 4.541-9.082 9.824-23.763 12.73-35.37 3.259-13.025 4.339-20.546 6.317-44 1.302-15.428 2.559-27.89 3.074-30.459.243-1.208.372-1.317.755-.633 2.229 3.983 5.628 31.309 10.397 83.592 3.223 35.331 5.011 48.792 8.036 60.5 1.746 6.759 2.647 8.954 4.093 9.967 1.621 1.135 2.787.969 4.382-.626 1.825-1.825 3.545-7.218 7.963-24.964 5.759-23.132 9.42-32.798 15.514-40.966 5.627-7.541 11.269-11.399 17.728-12.123 4.831-.543 7.49.032 11.162 2.41 7.558 4.895 12.578 12.258 18.616 27.302 3.416 8.51 9.053 19.856 11.428 23 1.85 2.449 3.681 3.372 4.689 2.364 1.094-1.094 1.528-10.801.955-21.364-1.441-26.569-6.636-75.971-9.761-92.82-3.315-17.867-10.151-38.435-16.24-48.861-3.011-5.156-3.004-5.165 3.178-3.546 5.955 1.56 9.942 3.582 13.211 6.7 3.447 3.288 5.124 6.181 6.539 11.279 3.093 11.14 3.886 21.461 4.773 62.122.417 19.044.994 36.989 1.286 39.876 1.532 15.197 5.511 24.878 12.308 29.947 3.532 2.635 6.162 3.826 11.387 5.16 5.238 1.337 15.911 1.068 22.028-.555 8.741-2.32 13.345-5.307 28.262-18.334 4.703-4.107 8.786-7.551 9.072-7.652.802-.284.146 1.385-4.204 10.684-6.915 14.785-10.105 22.895-18.884 48-5.983 17.112-8.423 25.611-8.83 30.76-.245 3.107-.156 3.877.516 4.434 1.27 1.054 2.727-.234 5.38-4.754 2.798-4.767 22.756-42.03 31.97-59.69 6.923-13.27 20.556-40.833 25.968-52.5 6.186-13.339 14.991-30.361 18.751-36.25 7.97-12.484 18.879-25.816 22.891-27.977 1.582-.852 1.782-.856 3.434-.072 1.725.819 2.973 2.701 4.013 6.049 1.636 5.27 1.369 29.159-.575 51.5-1.676 19.257-3.3 30.542-6.262 43.5-4.453 19.482-6.023 31.318-5.642 42.54.208 6.146.397 7.387 1.49 9.773 4.659 10.178 15.065 12.672 47.845 11.47 13.697-.503 20.514-1.292 21.74-2.518 1.02-1.02-.238-1.055-6.258-.171-5.096.748-9.327.903-24.177.887-16.58-.018-18.359-.104-22.547-1.086-8.362-1.961-12.146-4.61-14.231-9.962-1.006-2.582-1.137-3.769-1.1-9.933.07-11.467.934-17.393 6.332-43.415 3.776-18.195 5.855-37.479 6.835-63.366.938-24.776-.449-33.795-5.691-36.991-2.315-1.412-4.815-1.257-7.148.441-4.727 3.439-13.089 13.86-22.333 27.831-4.905 7.414-9.255 15.795-20.628 39.75-6.258 13.18-17.84 36.352-24.868 49.75-6.391 12.185-31.207 58.03-32.199 59.487-.66.968-.672.966-.672-.092 0-2.507 3.33-13.49 8.911-29.395 8.774-25.001 11.225-31.235 19.838-50.469 3.914-8.74 4.364-10.519 2.792-11.018-1.644-.521-4.565 1.464-11.492 7.813-11.402 10.449-14.435 12.793-20.299 15.687-7.257 3.581-12.658 4.887-20.25 4.895-9.295.01-16.17-2.364-21.46-7.41-3.473-3.312-5.528-6.967-7.238-12.865-2.696-9.305-3.585-21.38-4.041-54.883-.681-50.187-2.96-64.893-11.33-73.1-4.408-4.324-9.7-6.565-21.509-9.109-.852-.184-2.233-1.44-3.861-3.51-6.062-7.714-14.109-14.57-21.311-18.159-6.823-3.4-18.082-6.154-29-7.094-8.534-.736-37.854-.582-43.75.229Zm34.299.747c26.58 1.032 39.523 5.444 51.868 17.678 4.436 4.397 8.665 9.652 8.168 10.15-.168.168-3.969.736-8.445 1.262-10.647 1.25-55.884 1.844-72.481.95-18.135-.976-24.492-2.286-34.282-7.065-5.724-2.794-6.244-3.17-7.966-5.763l-1.842-2.775.914-1.596c1.468-2.56 2.35-3.37 5.267-4.835 8.293-4.162 21.984-7.336 34.5-7.996 10.144-.536 10.774-.536 24.299-.01Zm-105.903 60.275c6.324 1.28 10.879 3.712 15.372 8.208 6.309 6.314 9.2 11.594 11.691 21.351 6.759 26.479-.564 59.552-21.46 96.912-4.22 7.545-3.951 7.356-6.852 4.835-4.312-3.75-5.683-5.259-10.106-11.124-10.616-14.072-16.643-28.522-20.32-48.711-1.118-6.145-1.55-25.639-.743-33.542 2.166-21.213 8.483-33.462 19.476-37.763 2.891-1.131 7.855-1.195 12.942-.166ZM224.5 141.168c-3.401.794-7.807 3.025-11.75 5.949-6.094 4.518-14.912 14.301-20.34 22.563-2.768 4.213-3.449 5.82-2.469 5.82.242 0 3.105-3.432 6.363-7.625 9.875-12.712 18.44-20.419 26.044-23.434 3.996-1.584 10.196-1.58 14.27.008 10.639 4.147 19.969 15.446 25.564 30.958 5.924 16.421 9.519 49.17 8.304 75.642-1.796 39.135-12.732 63.642-31.236 69.999-3.126 1.074-4.329 1.2-11.25 1.177-7.231-.023-8.001-.119-11.5-1.426-13.25-4.951-25.454-14.841-33.359-27.033-10.735-16.559-13.916-22.918-18.669-37.322-5.053-15.312-6.547-24.379-6.54-39.694.008-15.048 1.343-23.517 5.343-33.891 2.857-7.411 9.461-19.326 15.303-27.609l2.468-3.5-2.317 2.5c-6.322 6.822-16.467 24.73-19.686 34.75-2.727 8.488-3.239 12.803-3.268 27.5-.02 10.624.157 14.34.894 18.75 1.19 7.121 3.727 16.951 6.323 24.5 4.111 11.953 13.559 29.167 22.093 40.25 7.914 10.28 18.832 18.314 30.915 22.752 4.988 1.831 14.837 2.33 20.617 1.044 13.2-2.937 23.012-13.609 29.304-31.872 3.911-11.355 5.816-22.416 6.638-38.548 1.384-27.173-1.985-59.601-8.11-78.064-4.192-12.636-12.903-24.978-21.481-30.434-5.695-3.622-12.764-5.042-18.468-3.71Zm121.496 13.207c-.002.206-.436 3.637-.965 7.625-.528 3.988-1.564 13.775-2.299 21.75-.736 7.975-1.435 14.603-1.555 14.729-.351.37-10.432-4.775-16.884-8.617-6.03-3.591-13.354-8.747-14.07-9.906-.821-1.328 12.349-11.999 24.777-20.076 7.971-5.181 11.008-6.701 10.996-5.505Zm4.207 51.482c8.944 5.95 17.871 15.441 21.952 23.338l2.095 4.055-.058 5.75c-.05 4.943-.245 6.241-1.395 9.25-1.769 4.626-5.703 11.68-8.879 15.918-3.316 4.424-10.332 11.832-11.207 11.832-.914 0-2.813-6.367-4.937-16.552-3.063-14.684-4.383-28.107-4.473-45.448-.051-9.735.143-11.5 1.261-11.5.326 0 2.865 1.511 5.641 3.357Z" fill="#000" stroke="#000" stroke-width="2" mask="url(#a)"/></svg>