<svg xmlns="http://www.w3.org/2000/svg" width="1465" height="1119" fill="none">
  <path fill="#000" fill-rule="evenodd" d="M668.97 9.058c-6.137 4.441-24.967 27.634-41.853 51.534-33.436 47.333-123.659 159.389-157.007 195.002-18.124 19.339-33.813 22.432-118.872 23.397-53.902.619-112.026-3.936-129.152-10.122-17.137-6.175-71.101-13.463-119.931-16.183-86.092-4.812-89.064-4.192-97.953 20.46-5.796 16.09-3.73 51.821 5.651 97.373 12.182 59.165 22.379 79.775 57.375 115.936 59.251 61.228 56.461 59.999 134.041 59.024 98.629-1.241 103.103 3.027 87.453 83.588-16.822 86.622-3.34 226.741 27.407 284.652 39.01 73.489 192.189 193.021 233.891 182.511 5.214-1.31 23.814 3.22 41.327 10.07 17.524 6.86 73.581 12.39 124.585 12.3l92.735-.16 71.904-72.98c39.548-40.14 76.292-73.053 81.656-73.145 5.375-.093 6.977-8.577 3.57-18.841-4.087-12.324 8.833-35.34 38.003-67.726 73.46-81.558 104.38-161.599 56.61-146.577-13.2 4.156-73.813 11.308-134.676 15.89-65.138 4.912-116.009 13.871-123.653 21.783-47.684 49.36-323.348 10.509-347.35-48.956-3.553-8.781 2.831-46.085 14.182-82.896l20.629-66.932L643.3 567.722c246.753-16.58 373.42-33.877 404.16-55.183 15.13-10.477 34.28-17.729 42.57-16.112 27.06 5.263 106.6-33.294 113.02-54.792 3.42-11.477 13.6-21 22.6-21.155 9-.155 18.82-10.337 21.81-22.633 4.2-17.296 11.2-21.011 30.91-16.426 18.4 4.286 25.39 1.407 25.18-10.372-.15-8.958 3.34-16.723 7.76-17.261 28.18-3.362 47.1-11.523 86.2-37.159 24.26-15.903 44.05-32.546 43.97-36.965-.08-4.431 10.09-12.998 22.6-19.041 0 0 6.37-32.121-270.19-25.865-156.34 3.547-313.211 7.801-348.594 9.475-63.595 2.997-63.903 3.163-26.58 14.388l37.755 11.367-58.888 7.627c-76.203 9.879-97.753 5.454-121.09-24.844-18.277-23.744-18.231-27.962.938-93.034C697.37 92.045 703.583.101 688.173.677c-4.419.174-13.067 3.94-19.203 8.38Z" clip-rule="evenodd"/>
</svg>
