<svg xmlns="http://www.w3.org/2000/svg" width="722" height="2057" fill="none">
  <path fill="#E6E6E6" fill-rule="evenodd" d="M323.636 1.303c-3.552.787-6.702 1.778-7 2.202-1.047 1.487-11.342 5.175-14.448 5.175-4.811 0-10.594 5.2-10.594 9.526 0 3.648 1.8 8.474 3.161 8.474.461 0 .839.627.839 1.393s.563 1.67 1.25 2.01c6.461 3.195 7.609 4.436 18.457 19.953 9.186 13.14 10.078 14.728 10.734 19.102.89 5.93 3.574 9.057 8.935 10.407 4.407 1.109 8.848 5.455 18.917 18.513 3.456 4.483 8.288 5.139 9.263 1.256.791-3.154-1.089-9.82-4.763-16.88-1.651-3.171-2.753-6.415-2.449-7.208.929-2.422 6.669-4.806 10.193-4.234 2.49.404 16.639 7.976 19.451 10.409.269.232.785 4.833 1.148 10.224.68 10.133 1.429 12.462 5.644 17.555 7.438 8.989 13.22 2.896 13.22-13.932 0-7.786-.423-10.468-2.331-14.79-1.283-2.903-2.637-6.497-3.009-7.988-.668-2.671-11.849-14.79-13.645-14.79-2.058 0-5.84-4.954-5.315-6.962.293-1.121.859-2.038 1.257-2.038 1.407 0 3.325-10.835 2.657-15.012-.752-4.702-3.68-10.968-6.041-12.927-.865-.718-1.573-1.773-1.573-2.344 0-2.243-13.214-12.717-16.043-12.717-.959 0-1.981-.621-2.272-1.38-1.327-3.456-24.705-5.423-35.643-2.997ZM21.196 12.208c-1.734 1.287-1.836 2.262-1.17 11.19.4 5.38.89 12.257 1.087 15.282.431 6.63 2.228 15.4 3.995 19.5.711 1.65 1.77 4.125 2.353 5.5 8.086 19.047 26.701 36 39.53 36 3.425 0 4.603-.384 4.603-1.5 0-.841.892-1.5 2.031-1.5 1.118 0 2.277-.64 2.578-1.423.955-2.49 3.027-2.49 7.943-.001 2.633 1.333 5.23 2.424 5.771 2.424.541 0 3.292 1.092 6.114 2.427 5.22 2.469 20.942 5.447 34.33 6.501 3.997.315 7.226 1.011 7.175 1.547-.051.536.392 1.136.984 1.334.617.205.816-.317.468-1.225-.498-1.298.189-1.584 3.799-1.584 2.424 0 4.835-.396 5.357-.879.522-.484 2.583-1.401 4.579-2.038 1.996-.637 4.428-2.041 5.405-3.121.977-1.08 2.404-1.962 3.172-1.962.768 0 2.031-1.52 2.808-3.38.776-1.857 2.103-3.643 2.949-3.967 3.119-1.197.859-18.678-4.314-33.365-1.591-4.516-2.65-8.453-2.354-8.75.296-.296.116-.538-.401-.538s-1.827-1.687-2.911-3.75c-2.877-5.47-18.247-20.035-22.535-21.354-3.258-1.003-13.419-.91-16.911.157-.835.255-1.903-.52-2.488-1.803-.563-1.238-1.561-2.25-2.219-2.25-2.03 0-2.523 3.755-1.279 9.757 1.059 5.11 1.845 6.347 7.139 11.234 4.261 3.934 6.887 7.479 9.258 12.5 6.333 13.408 7.879 17.582 6.88 18.58-.531.532-4.085 1.882-7.897 3-5.863 1.723-8.514 1.936-17.21 1.384-5.654-.358-12.629-1.33-15.5-2.16-2.872-.83-6.698-1.735-8.504-2.014-3.389-.524-5.252-2.925-6.585-8.488-2.377-9.92-9.206-14.142-21.234-13.125-9.106.77-12.115 2.712-13.026 8.404-.345 2.16-1.019 3.928-1.498 3.928-1.726 0-6.822-9.6-7.432-14-.344-2.475-1.062-6.23-1.597-8.343-.535-2.114-1.603-7.74-2.373-12.5-2.27-14.03-5.933-19.296-10.87-15.63Zm321.398.897c3.575 1.287 10.55 4.035 15.5 6.107 14.096 5.899 16.641 9.433 9.75 13.54-2.062 1.229-4.2 2.728-4.75 3.33-.55.605-3.145 2.146-5.766 3.426-4.135 2.02-5.626 2.236-11.276 1.63-4.947-.53-6.86-1.194-7.962-2.767-1.67-2.385-1.613-2.42-4.295 2.634l-2.029 3.825-2.6-4.436c-2.88-4.915-7.104-14.896-9.108-21.522-1.237-4.09-1.193-4.35.866-5.141a214.452 214.452 0 0 0 4.67-1.874c4.058-1.691 10.062-1.25 17 1.248Zm96.507 1.825c-.237.688-.934 5.073-1.55 9.745-.616 4.673-1.476 8.948-1.912 9.5-.792 1.005-1.554 6.29-2.666 18.505-1.138 12.49 3.328 29.865 11.952 46.5.57 1.1 1.626 3.165 2.346 4.588 1.675 3.315 4.188 5.475 7.235 6.22 3.556.869 5.768-.789 6.54-4.904.377-2.008 1.048-4.382 1.491-5.277 6.183-12.474 8.118-16.047 8.978-16.578.437-.27 3.19 1.296 6.118 3.48 2.927 2.184 5.606 3.97 5.953 3.97.347 0 1.503.789 2.569 1.75 1.067.963 3.623 2.876 5.682 4.25 4.26 2.846 4.591 4.584 1.761 9.227-3.849 6.313-3.272 6.783 8.246 6.704 5.638-.039 11.087-.4 12.111-.802 2.078-.817 4.613-6.674 5.359-12.378.71-5.432-6.14-18.644-12.961-25-2.804-2.613-5.519-4.75-6.034-4.75-.514 0-2.936-1.35-5.382-3.001-2.445-1.651-5.758-3.68-7.36-4.508-3.214-1.662-3.124-3.177.412-6.916a86.646 86.646 0 0 0 3.869-4.428c2.504-3.126 7.736-19.428 7.736-24.103 0-2.16.45-4.204 1-4.544.55-.34 1-1.442 1-2.45 0-1.341-.918-1.938-3.43-2.232-1.886-.22-3.21-.044-2.941.39.269.436-.009.792-.619.792-1.013 0-17.179 9.335-19.51 11.266-.55.456-3.475 2.645-6.5 4.864-3.025 2.22-6.914 5.39-8.643 7.045-2.637 2.525-3.472 2.834-5.184 1.917-2.881-1.541-3.018-1.467-3.967 2.158-.732 2.797-1.005 1.899-1.961-6.448-1-8.735-2.946-17.321-5.338-23.552-.929-2.42-3.695-3.048-4.4-1ZM317.067 28.674l.696 7.494-3.026-3.808c-2.831-3.563-6.915-12.367-6.037-13.016.217-.161 1.739-1.313 3.384-2.561l2.99-2.268.649 3.332c.356 1.833.961 6.705 1.344 10.827Zm-99.973-6.941c-11.644 1.314-17.5 3.008-17.5 5.06 0 1.3 1.037 1.966 3.75 2.409 6.278 1.025 11.25 3.559 11.25 5.734 0 1.146-3.924 5.802-9.5 11.269-5.225 5.124-9.5 9.979-9.5 10.789 0 .81-.675 1.73-1.5 2.048-.825.316-1.5 1.463-1.5 2.548 0 1.084-.398 2.218-.884 2.519-1.611.995-3.394 13.633-2.769 19.619.659 6.304 5.895 16.048 9.353 17.407.99.389 6.023.965 11.185 1.281 7.44.455 10.03.245 12.5-1.011 3.025-1.54 14.88-4.725 17.582-4.725 1.216 0 4.429-1.372 16.599-7.09 2.236-1.05 4.646-1.91 5.356-1.91.709 0 2.149-1.092 3.2-2.428 1.05-1.335 3.365-2.912 5.144-3.504 3.655-1.218 10.721-8.056 12.985-12.568 2.778-5.536.352-16.217-7.106-31.29-2.231-4.507-3.422-5.67-8.071-7.868-17.328-8.198-31.215-10.474-50.574-8.29Zm45.787 18.876c2.565 3.049 4.307 10.625 3.225 14.033-.338 1.065-1.492 2.214-2.564 2.555-1.073.34-2.415 1.488-2.984 2.55-.569 1.063-1.708 1.933-2.531 1.933-.822 0-1.755.675-2.071 1.5-.317.825-1.401 1.5-2.409 1.5-1.008 0-4.435 1.35-7.616 3-3.18 1.65-6.437 3-7.238 3-1.829 0-7.804 1.868-11.099 3.47-1.375.669-5.783 1.813-9.795 2.542-11.519 2.093-11.631 1.527-3.097-15.61 3.862-7.754 8.326-15.527 9.921-17.273 3.692-4.041 11.549-5.89 25.632-6.03 10.06-.098 10.186-.07 12.626 2.83Zm4.713 148.44c-5.864.698-10.446 1.801-11.973 2.881-1.359.962-3.338 1.75-4.397 1.75-2.62 0-13.757 4.017-15.709 5.666-.868.734-1.958 1.334-2.421 1.334-3.361 0-13.835 5.623-18.511 9.937-3.019 2.786-6.276 5.32-7.239 5.631-.963.312-1.75 1.159-1.75 1.882 0 .723-1.733 3.055-3.851 5.182-4.153 4.172-13.31 22.087-14.754 28.868-.468 2.2-.861 10.163-.873 17.696-.015 9.596-.396 14.072-1.272 14.95-.687.69-1.25 2.234-1.25 3.432 0 1.979-2.573 5.254-3.39 4.315-.187-.216-1.592-2.418-3.121-4.893-1.53-2.475-4.733-7.082-7.118-10.238-2.474-3.275-4.835-7.783-5.498-10.5-1.45-5.943-2.378-7.126-7.373-9.399-4.591-2.088-11.625-2.41-14.816-.677-1.201.652-4.406 1.692-7.122 2.311-6.442 1.469-8.839 4.57-8.986 11.625-.059 2.872-.6 5.386-1.202 5.587-1.877.625-6.593-6.32-14.239-20.97-4.051-7.761-7.988-14.735-8.75-15.497-.762-.762-1.385-1.869-1.385-2.46 0-2.04-7.426-12.298-12.83-17.722-5.074-5.093-5.505-5.322-6.773-3.588-1.304 1.783-1 5.819.605 8.028.4.55 1.988 5.05 3.53 10 6.663 21.4 11.423 31.89 19.058 42 6.507 8.616 26.103 27.113 33.467 31.591 2.994 1.82 5.715 3.702 6.047 4.182.933 1.348 11.516 1.287 13.158-.076 2.064-1.712 4.145-14.992 3.269-20.86l-.721-4.837 3.189 4c1.755 2.2 3.658 4.872 4.231 5.937.572 1.065 1.426 2.415 1.898 3l4.365 5.408c1.929 2.389 3.507 4.734 3.507 5.21 0 1.711 13.035 13.794 17.718 16.423 3.426 1.924 6.581 2.788 11.126 3.046 6.323.359 6.356.347 10.31-3.832 5.607-5.925 5.824-6.53 8.848-24.692.595-3.575.841-7.85.546-9.5-.295-1.65-.562-9.975-.593-18.5-.047-13.12.274-16.575 2.091-22.5 1.181-3.85 2.376-8.69 2.656-10.756.28-2.066.912-4.005 1.404-4.309.492-.304.894-1.634.894-2.955 0-1.321.884-3.225 1.963-4.231 1.08-1.006 2.901-3.949 4.047-6.539 1.146-2.591 2.497-4.71 3.002-4.71.505 0 2.397-1.267 4.203-2.815 1.807-1.548 4.978-3.597 7.046-4.552 2.069-.956 4.481-2.835 5.36-4.177 1.138-1.737 2.214-2.287 3.738-1.912 1.405.346 4.021-.689 7.607-3.009 3.007-1.944 5.888-3.535 6.403-3.535 1.47 0 13.397-5.812 14.03-6.837.662-1.07-4.257-2.216-8.774-2.044-1.719.065-7.4.628-12.625 1.25Zm35.087 34.324c-3.991 1.645-15.373 13.483-16.56 17.223-.364 1.146-1.078 2.084-1.586 2.084-.846 0-3.878 4.769-9.665 15.206-1.224 2.206-3.4 8.707-4.837 14.446-2.421 9.67-2.538 11.122-1.596 19.793.934 8.593 4.351 19.543 6.363 20.388.437.184.794.971.794 1.75s.866 2.283 1.924 3.341c1.059 1.059 2.412 2.835 3.007 3.947 1.199 2.24 11.156 10.038 15.069 11.801 7.12 3.208 9.361 3.578 18.876 3.12 8.727-.42 10.44-.826 15.35-3.635 6.213-3.555 13.774-10.084 13.774-11.894 0-.656.899-1.674 1.997-2.261 2.418-1.295 6.232-8.203 7.177-13.002.38-1.925 1.132-5.525 1.673-8 1.087-4.976.836-15.039-.698-28-1.628-13.758-5.023-19.557-15.463-26.414-11.095-7.287-16.602-8.624-25.209-6.122-3.131.91-5.894 1.452-6.141 1.205-.247-.247.495-2.458 1.649-4.914 1.154-2.455 2.192-5.767 2.307-7.36.19-2.649-.089-2.912-3.292-3.09-1.925-.107-4.136.068-4.913.388Zm186.033.211c-.967.613-1.608 4.417-2.144 12.735-.49 7.595-1.492 13.921-2.787 17.589-8.27 23.426-6.329 49.889 4.573 62.346 2.056 2.349 4.635 5.412 5.731 6.806 2.908 3.699 8.656 5.998 13.402 5.361 6.977-.936 21.105-13.49 21.105-18.754 0-1.643.367-2.987.815-2.987.448 0 1.566-1.575 2.484-3.5.918-1.925 2.108-3.5 2.645-3.5 1.316 0 3.479-7.454 2.73-9.408-.67-1.744-5.206-1.293-9.708.965-1.393.699-5.668 1.97-9.5 2.825-3.831.855-9.084 2.09-11.673 2.745-6.343 1.604-7.882.336-7.647-6.301.188-5.292.689-5.953 4.885-6.441 3.398-.396 23.563-6.952 26.969-8.768 1.375-.734 4.698-1.869 7.384-2.523 6.014-1.466 11.499-4.199 14.021-6.988 1.048-1.158 2.476-2.106 3.173-2.106.698 0 2.551-1.079 4.118-2.397 1.567-1.319 4.751-3.39 7.077-4.601 2.325-1.212 4.227-2.545 4.227-2.963 0-.417 1.57-2.284 3.489-4.149 1.919-1.864 3.494-3.852 3.5-4.417.006-.565 1.361-2.505 3.011-4.312 1.65-1.806 3-3.659 3-4.116 0-.457.575-1.052 1.278-1.321.702-.27 2.567-2.861 4.144-5.758l2.867-5.268-3.894.614c-2.142.338-6.82 1.502-10.395 2.586-3.575 1.085-9.62 2.895-13.433 4.024-3.814 1.129-7.189 2.446-7.5 2.926-1.061 1.634-6.552 3.935-13.567 5.684-3.85.961-12.301 3.484-18.779 5.607-10.962 3.593-18.697 4.877-18.738 3.111-.01-.413-.659-3.775-1.443-7.473-2.699-12.737-10.059-21.268-15.42-17.873Zm-91.62 5.196c-1.65.365-5.258.717-8.018.782-7.419.175-11.884 3.544-14.127 10.662-2.207 7.001-.943 12.682 4.227 18.991 2.628 3.207 4.021 6.371 5.462 12.404 1.064 4.455 2.608 9.127 3.432 10.384.823 1.256 2.36 4.735 3.415 7.73 3.231 9.171 9.486 20.756 15.568 28.83.572.76 2.632 3.079 4.576 5.152 6.555 6.992 11.306 2.844 9.542-8.333-.683-4.334-1.914-7.38-8.644-21.392-4.065-8.463-4.713-11.985-2.847-15.471.907-1.694 1.691-1.918 4.75-1.355 5.872 1.08 19.786 8.457 24.765 13.13 3.409 3.199 6.399 8.334 6.399 10.99 0 2.703 4.594 11.676 7.254 14.17 1.334 1.251 3.809 2.671 5.5 3.156 2.6.745 3.422.512 5.323-1.512 1.743-1.856 2.209-3.441 2.072-7.057-.248-6.554-8.779-22.661-15.757-29.752-5.438-5.525-16.446-13.246-22.18-15.558-1.808-.729-3.134-1.601-2.947-1.938 2.979-5.366 3.912-9.109 3.431-13.77-.294-2.844-1.047-6.13-1.674-7.301-1.07-2-12.114-9.68-16.522-11.49-3.47-1.424-9.886-2.141-13-1.452Zm14.957 14.648c.325.848-.026 2.264-.781 3.147s-1.651 2.393-1.993 3.355c-.371 1.046-1.645 1.75-3.168 1.75-1.929 0-2.954.854-4.225 3.519-.923 1.935-2.144 3.363-2.714 3.173-1.161-.387-4.566-9.254-4.572-11.907-.005-2.111 2.929-3.78 6.68-3.8 1.549-.009 3.408-.391 4.131-.849 1.878-1.191 5.945-.204 6.642 1.612Zm-110.693 3.105c2.962 1.455 8.585 3.876 12.027 5.178 5.243 1.984 8.074 4.759 11.225 11 4.149 8.22 4.127 13.039-.103 22.353-1.028 2.264-1.879 5.749-1.891 7.745-.017 2.865-.865 4.498-4.021 7.75-2.199 2.267-4.449 4.121-5 4.121-.551 0-1.001.352-1.001.782 0 .43-2.025 1.379-4.5 2.11-2.475.731-4.5 1.64-4.5 2.02 0 1.301-7.211.898-10.857-.608-7.872-3.249-8.799-6.868-5.143-20.061 1.1-3.97 2-8.123 2-9.23 0-1.107.358-2.013.796-2.013.438 0 1.334-3.712 1.99-8.25.984-6.807 5.95-23.75 6.96-23.75.155 0 1.063.384 2.018.853Zm-35.193 119.871c-1.061.27-2.591 1.153-3.399 1.961-.809.809-2.287 1.257-3.284.996-.998-.261-2.336.154-2.974.922-.637.768-1.713 1.397-2.39 1.397-.678 0-2.334 1.013-3.681 2.25-1.348 1.237-3.652 2.882-5.12 3.655-5.573 2.932-15.723 14.842-15.723 18.449 0 .841-.45 1.806-1 2.146-.55.34-1 1.253-1 2.029 0 .777-1.111 3.84-2.468 6.807-1.357 2.968-2.978 7.594-3.601 10.28-2.269 9.776-2.819 11.982-4.337 17.384a312.235 312.235 0 0 0-2.722 10.5c-1.948 8.275-5.995 19.476-9.534 26.387-1.836 3.585-3.352 7.214-3.37 8.065-.038 1.877-2.325 5.048-3.64 5.048-.523 0-1.467-6.552-2.097-14.561-.706-8.979-1.737-15.746-2.688-17.653-.849-1.702-1.543-3.452-1.543-3.89 0-1.958-6.603-10.274-12.13-15.276-9.47-8.569-16.364-11.038-22.991-8.234-5.466 2.314-8.01 8.413-7.446 17.854.239 3.993.748 16.88 1.132 28.637.801 24.519.842 24.436-6.799 14.055-2.603-3.538-5.098-6.882-5.543-7.432-.446-.55-3.392-5.179-6.546-10.287-5.756-9.319-18.118-26.546-22.392-31.203-1.257-1.369-2.285-2.765-2.285-3.101 0-1.339-10.966-12.909-12.235-12.909-1.97 0-.489 5.334 4.443 16 5.586 12.081 7.085 14.938 10.76 20.5 2.181 3.3 4.282 6.675 4.67 7.5 1.09 2.318 17.119 23.674 20.158 26.858 5.08 5.32 13.204 15.575 13.204 16.667 0 .405 2.362 3.552 5.25 6.994 10.132 12.078 18.496 12.724 15.063 1.164-.809-2.724-1.353-6.804-1.21-9.068.298-4.703-.614-10.328-2.613-16.115-.76-2.2-2.479-8.275-3.82-13.5-5.496-21.408-5.879-24.445-3.849-30.5 1.895-5.656 2.861-6.947 5.925-7.919 1.184-.376 3.573-2.01 5.309-3.632 1.736-1.622 3.671-2.943 4.301-2.937 2.688.03 9.467 7.888 11.711 13.575 2.014 5.107 2.37 7.959 2.605 20.913.528 29.082 2.935 38.285 11.78 45.031 3.296 2.514 7.513 2.839 6.046.466-.345-.559.301-2.198 1.437-3.642 1.136-1.443 2.065-3.414 2.065-4.378 0-.965 2.527-4.363 5.615-7.552 5.661-5.845 9.471-12.562 10.053-17.726.174-1.54.865-3.79 1.536-5 .672-1.209 1.137-2.503 1.034-2.874-.103-.371.486-2.846 1.309-5.5 2.975-9.589 4.453-20.047 4.453-31.516 0-6.43.396-11.936.881-12.235 1.302-.805 1.929-5.163.984-6.851-.576-1.029.503-2.921 3.619-6.345 2.441-2.683 5.793-7.447 7.448-10.587 1.655-3.139 3.877-6.739 4.938-8 1.061-1.26 3.78-4.541 6.043-7.291 5.817-7.068 8.043-9.26 12.51-12.316 6.251-4.276 5.406-6.311-1.852-4.46Zm152.179 18.167c-1.513 1.7-2.75 4.194-2.75 5.541 0 1.348-.43 2.716-.956 3.041-.526.325-.684 1.364-.351 2.309.343.973-.811.308-2.662-1.532-1.798-1.788-4.062-3.25-5.033-3.25-3.377 0-3.935 7.303-1.116 14.617 1.035 2.685 2.346 7.133 2.912 9.883 1.596 7.751 4.339 16.725 6.34 20.736.476.955.866 4.007.866 6.781 0 3.042.944 7.313 2.379 10.763 1.309 3.146 2.705 6.781 3.102 8.077.725 2.368 1.091 2.884 7.519 10.612a400.29 400.29 0 0 1 6.326 7.826c1.555 1.99 3.777 3.92 4.938 4.289 2.99.949 5.736-2.752 5.736-7.73 0-4.298-3.912-17.477-7.526-25.354-8.211-17.897-10.12-24.76-11.129-40-.332-5.004-.069-7.533.92-8.87 1.345-1.818 1.57-1.807 8.118.405 6.684 2.258 14.859 7.547 15.914 10.296.335.875-1.271 3.075-4.124 5.65l-7.391 6.673c-4.638 4.19-6.265 13.863-2.898 17.23 1.892 1.892 6.519 1.891 7.69-.003.299-.485 1.98-.879 3.735-.878 2.592.003 4.505 1.287 10.191 6.839 11.422 11.153 15.913 17.671 16.822 24.411 1.118 8.29 5.484 14.92 10.678 16.214 4.558 1.135 5.89-1.057 6.954-11.442.883-8.619.804-9.659-.876-11.5-1.017-1.114-2.177-3.106-2.579-4.427-.957-3.147-6.461-12.504-7.606-12.931-.491-.184-.893-.806-.893-1.384 0-.578-1.237-2.14-2.75-3.473-4.262-3.754-9.556-8.133-11.651-9.639-1.66-1.192-1.755-1.784-.75-4.667 2.756-7.907.899-13.077-7.877-21.929-7.017-7.077-9.166-8.753-14.964-11.665-2.899-1.456-5.816-4.001-7.605-6.636-4.386-6.458-5.187-7.047-10.236-7.529-4.223-.404-4.929-.152-7.417 2.646Zm101.785 8.359c-.277 1.237-.96 7.875-1.518 14.75s-1.437 15.875-1.954 20c-2.103 16.785-.517 35.592 3.921 46.5.448 1.1 1.322 3.35 1.943 5s3.507 5.608 6.412 8.795c4.761 5.224 5.707 5.813 9.577 5.967 6.331.253 7.301-1.566 6.904-12.942l-.32-9.179-4.213-3.821c-4.942-4.481-6.379-8.8-7.01-21.07-.403-7.843-.321-8.25 1.671-8.25 2.021 0 7.734 3.242 13.163 7.467 1.436 1.118 3.636 2.708 4.889 3.533 3.972 2.616 11.336 8.656 16.268 13.344 2.622 2.493 5.711 4.832 6.864 5.198 1.736.551 2.004 1.235 1.558 3.983-.485 2.987-.211 3.474 2.737 4.873 3.402 1.615 13.067 2.441 14.286 1.222.383-.383.877-3.529 1.098-6.991.481-7.563-1.432-12.015-7.98-18.563-4.008-4.008-14.92-12.066-16.339-12.066-1.101 0-13.493-6.192-13.985-6.988-.262-.424 2.779-1.813 6.758-3.086 11.229-3.594 18.735-8.442 18.735-12.1 0-1.004.624-1.826 1.386-1.826 2.077 0 4.977-6.892 5.05-12l.064-4.5-3.5.098c-5.246.147-19.648 5.661-36.863 14.112-16.588 8.143-17.091 8.186-17.122 1.447-.032-7.079-7.97-25.157-11.047-25.157-.511 0-1.156 1.013-1.433 2.25Zm-197.97 4.691c-3.072 2.782-5.975 5.059-6.451 5.059-.475 0-1.12 1.278-1.432 2.84-.312 1.562-1.744 3.925-3.181 5.25-2.754 2.541-9.501 12.345-9.501 13.807 0 .472-.666 1.411-1.479 2.086-2.25 1.867-4.337 6.61-5.075 11.529-.365 2.433-1.31 4.96-2.1 5.616-2.246 1.864-1.681 20.96.841 28.429 2.479 7.344 8.133 13.814 15.556 17.8 5.194 2.79 6.591 3.085 14.283 3.023 15.011-.122 28.608-6.729 43.671-21.221 1.809-1.739 3.699-4.94 4.351-7.367.634-2.361 1.558-5.326 2.052-6.589.495-1.263.894-5.763.887-10-.016-8.99-4.002-22.035-8.037-26.304a376.988 376.988 0 0 1-5.312-5.775c-1.575-1.75-4.95-4.602-7.5-6.337-2.551-1.735-4.863-3.419-5.138-3.741-.935-1.096-6.086-3.046-8.047-3.046-1.074 0-1.953-.509-1.953-1.131 0-.729-1.216-.933-3.422-.575-3.554.576-4.578-.375-4.578-4.253 0-.988-.641-2.328-1.424-2.978-1.15-.954-2.499-.208-7.011 3.878Zm6.199 18.059c2.277 1.1 4.499 2.015 4.938 2.033 1.446.061 4.755 3.401 7.398 7.469 2.827 4.352 3.794 7.897 4.573 16.769.776 8.842-3.667 15.882-13.038 20.66-7.98 4.069-21.395 5.173-25.134 2.069-1.965-1.63-1.962-9.592.005-13.364.822-1.576 1.494-3.633 1.494-4.573 0-.94 1.35-4.495 3-7.902 1.65-3.406 3-6.581 3-7.054 0-.474.675-1.422 1.5-2.107.825-.685 1.5-2.09 1.5-3.122 0-1.033.355-1.878.789-1.878.434 0 1.879-2.475 3.211-5.5 1.332-3.025 2.467-5.5 2.523-5.5.056 0 1.964.9 4.241 2Zm-71.572 171.023c-2.92.425-6.105 1.494-7.079 2.375-.974.881-2.243 1.602-2.82 1.602-2.026 0-10.205 10.746-12.251 16.096-3.015 7.881-3.496 21.714-1.685 48.404.859 12.65 1.365 25.475 1.124 28.5-.24 3.025-.717 9.925-1.059 15.333l-.621 9.834-2.54-.638c-3.991-1.001-17.891-10.317-19.872-13.318-.984-1.491-4.406-7.823-7.603-14.071-3.198-6.248-6.682-12.463-7.742-13.811-1.06-1.348-2.424-4.786-3.032-7.64-.607-2.854-1.95-6.211-2.985-7.459-2.234-2.698-7.887-5.23-11.674-5.23-3.263 0-9.353 2.084-9.353 3.201 0 .439-1.055.799-2.345.799-4.768 0-5.652 2.538-5.242 15.057.207 6.294.678 12.185 1.049 13.092.371.907.132 1.984-.531 2.394-1.604.991-3.909-2.12-9.445-12.749-2.494-4.788-4.974-8.977-5.51-9.309-.537-.332-.976-1.444-.976-2.473 0-1.028-.613-2.482-1.361-3.231-.749-.748-3.041-4.943-5.094-9.321-6.816-14.536-7.95-16.385-10.763-17.55-4.724-1.957-5.782-.748-5.782 6.608 0 3.908.612 7.765 1.507 9.495.829 1.603 2.889 7.093 4.579 12.201 3.589 10.849 9.875 24.371 13.219 28.435 1.29 1.568 3.996 5.368 6.013 8.443 3.439 5.245 23.538 26.088 28.38 29.431 3.218 2.222 10.927 3.472 12.83 2.08 2.538-1.856 1.836-23.679-1.174-36.494-.397-1.691-.272-2.257.355-1.609 1.661 1.718 10.042 14.854 11.449 17.945 2.583 5.674 11.357 15.226 21.276 23.162 10.614 8.492 20.249 12.265 29.685 11.626 5.709-.388 7.087-.882 10.021-3.591 4.327-3.997 5.326-6.148 7.871-16.96 1.799-7.637 1.937-9.821 1.034-16.313-.573-4.123-1.493-8.338-2.044-9.367-.55-1.029-1.016-3.138-1.034-4.686-.032-2.825-3.107-12.789-4.32-14.002-.356-.356-.647-1.478-.647-2.494 0-1.016-.444-2.629-.986-3.584-.542-.955-2.13-6.531-3.528-12.391-2.389-10.016-2.451-10.916-1.028-15 .832-2.39 1.519-5.257 1.527-6.372.008-1.116.727-3.045 1.598-4.288 1.359-1.94 1.408-2.942.345-7.09-.91-3.549-.96-5.929-.188-8.967 1.059-4.175 1.023-9.819-.103-16.171-.338-1.901-.355-2.892-.04-2.201.759 1.661 2.403.581 2.403-1.578 0-.937 1.01-2.148 2.244-2.691 1.234-.543 2.392-1.775 2.573-2.737.363-1.926-.115-1.967-8.625-.727Zm86.058 13.639c-1.817.734-1.53 3.124.5 4.165.963.494 4.675 1.177 8.25 1.518 7.421.708 12.39 2.308 19.422 6.256 6.501 3.649 13.578 10.512 13.578 13.169 0 1.161.396 2.357.88 2.656 1.498.925 3.987 9.818 4.702 16.797.489 4.776.195 8.854-1.045 14.464-2.087 9.446-5.469 19.313-6.62 19.313-.462 0-1.309 1.741-1.882 3.869-1.831 6.802-8.217 13.552-16.535 17.477-3.3 1.558-6.9 3.32-8 3.917-1.1.597-5.374 1.216-9.498 1.375-6.626.256-8.285-.073-14.264-2.828-7.802-3.597-10.516-7.055-11.369-14.491-.604-5.27 2.286-17.561 5.063-21.525.862-1.231 1.568-3.064 1.568-4.071 0-2.814 10.119-24.272 14.046-29.787 1.075-1.51 1.954-3.06 1.954-3.446 0-.386 1.125-2.038 2.5-3.672 1.375-1.634 2.5-3.557 2.5-4.272 0-.716.626-1.821 1.392-2.456 1.771-1.47 2.582-4.514 1.618-6.074-.879-1.422-5.397.612-9.417 4.239a231.96 231.96 0 0 1-5.481 4.745c-1.645 1.375-4.202 4.75-5.68 7.5-1.479 2.75-3.011 5.225-3.403 5.5-1.649 1.155-8.029 11.104-8.029 12.521 0 .848-.675 1.801-1.5 2.117-.825.317-1.5 1.007-1.5 1.533s-1.125 3.417-2.5 6.423c-1.375 3.006-2.5 6.487-2.5 7.736 0 1.248-.506 2.776-1.125 3.395-1.772 1.772-1.335 21.884.621 28.613 5.73 19.71 21.597 31.379 44.796 32.943 3.186.215 6.025.014 6.309-.445.285-.46 1.503-.838 2.708-.84 1.205-.002 3.541-.811 5.191-1.798s5.25-2.622 8-3.633c2.75-1.011 5.71-2.452 6.579-3.202.868-.75 2.073-1.363 2.677-1.363.604 0 1.927-1.013 2.938-2.25 1.012-1.237 3.541-3.12 5.621-4.184 2.08-1.063 5.129-3.763 6.776-6 5.321-7.227 6.218-12.555 6.244-37.066.028-26.691.833-23.686-14.241-53.112-1.99-3.884-5.883-6.397-13.594-8.774-3.3-1.018-7.8-2.649-10-3.624-6.826-3.029-23.983-5.049-28.25-3.328Zm99.325 3.967c-3.259 1.401-6.783 3.637-7.831 4.969-1.047 1.331-2.28 2.189-2.739 1.905-1.254-.775-6.854 4.3-8.68 7.866-.882 1.722-2.062 3.426-2.622 3.787-.56.361-1.035 3.286-1.055 6.5-.042 6.669 3.321 14.204 8.334 18.67 1.835 1.635 3.145 3.998 3.541 6.385.807 4.864 1.949 8.07 6.162 17.289 4.032 8.821 3.418 7.783 10.116 17.114 8.104 11.291 9.632 13.143 22.307 27.029 4.739 5.191 7.892 3.202 7.892-4.976 0-4.184-.772-6.956-3.355-12.05-1.845-3.64-3.874-8.21-4.508-10.158-.637-1.955-3.59-5.908-6.595-8.829-4.387-4.263-6.809-8.063-12.492-19.597-3.877-7.87-7.05-14.529-7.05-14.799 0-.269-.749-2.232-1.664-4.362-.916-2.13-1.782-4.547-1.926-5.372-.143-.825-.806-3.441-1.473-5.812-1.198-4.264-1.173-4.345 2.176-7.17 6.11-5.155 23.907-8.168 29.887-5.06 6.555 3.406 8.029 8.691 3.67 13.156-1.281 1.312-2.629 3.205-2.995 4.205-.447 1.221-1.278 1.625-2.529 1.227-2.295-.728-3.398.658-5.133 6.454-.741 2.475-2.397 7.729-3.68 11.676-2.743 8.439-2.819 10.629-.532 15.324 2.438 5.003 6.019 5.235 9.541.618 1.462-1.917 2.658-3.761 2.658-4.099 0-.957 8.675-9.52 9.64-9.514.473.002 2.494 1.465 4.49 3.25 1.997 1.785 5.633 4.807 8.08 6.717 2.447 1.909 5.963 5.734 7.813 8.5 1.849 2.765 4.114 5.928 5.032 7.028 3.415 4.093 8.945 15.54 8.945 18.518 0 1.695.621 4.296 1.38 5.782.758 1.485 1.7 4.275 2.093 6.2.992 4.863 6.622 10 10.96 10 5.103 0 6.071-1.987 6.04-12.404-.024-7.707-.533-10.523-3.341-18.442-1.822-5.141-4.257-10.991-5.411-13-4.342-7.56-14.82-18.868-21.988-23.731-3.978-2.699-7.383-5.248-7.566-5.665-.184-.417-.987-.758-1.786-.758-.798 0-2.561-.727-3.916-1.615-2.303-1.509-2.466-2.181-2.475-10.25-.012-11.013-2.542-16.845-10.896-25.121-8.464-8.386-12.126-10.023-22.304-9.973-6.604.033-9.495.559-14.215 2.588Zm212.925 2.345c-7.721 4.956-15.992 10.111-19.353 12.064-1.456.846-4.447 2.679-6.647 4.074-2.2 1.396-5.562 3.404-7.47 4.463-1.909 1.059-3.934 2.262-4.5 2.673-.567.412-5.468 3.03-10.893 5.82-17.881 9.194-25.637 15.507-25.637 20.871 0 3.272 4.907 8.225 10.372 10.47 4.839 1.988 16.005 2.075 21.415.166 3.638-1.283 4.172-1.259 5.376.25 1.509 1.89 5.072 8.993 10.255 20.444 1.934 4.273 4.142 8.009 4.906 8.302.765.293 1.977 2.31 2.693 4.481.717 2.171 1.834 3.948 2.483 3.948.648 0 1.692 1.125 2.318 2.5 1.678 3.682 6.886 3.462 10.633-.449 2.668-2.784 2.798-3.33 2.335-9.794-.895-12.507-6.413-21.411-18.786-30.308-7.659-5.507-8.157-5.977-7.725-7.288.211-.639 1.257-1.611 2.324-2.161 2.757-1.42 10.401-7.697 10.401-8.541 0-.388 1.8-2.675 4-5.082s4-5.059 4-5.894 1.125-3.174 2.5-5.198c1.375-2.023 2.5-4.121 2.5-4.661 0-.539.572-1.576 1.271-2.303 2.926-3.041 10.232-20.199 9.266-21.761-.939-1.519-1.381-1.358-8.037 2.914Zm-99.01.042c-.346.559-.975.802-1.399.541-1.226-.758-1.607 5.735-1.375 23.443.201 15.355.589 18.587 4.269 35.545 1.469 6.771 8.94 25.477 12.562 31.455.833 1.375 3.791 6.96 6.574 12.412 5.277 10.338 5.805 11.082 9.852 13.879 5.364 3.708 7.853 1.107 8.514-8.897.406-6.133-1.229-15.899-3.496-20.894-6.412-14.124-8.359-18.705-11.415-26.864-1.967-5.252-3.579-10.356-3.582-11.342-.004-.987-.711-3.144-1.573-4.794-.861-1.65-1.602-4.254-1.647-5.786-.044-1.532-.461-3.021-.927-3.309-.466-.288-.847-1.345-.847-2.35 0-1.004-.672-3.115-1.494-4.691-.821-1.575-1.496-4.341-1.5-6.146-.003-1.806-1.401-6.981-3.106-11.5-3.581-9.49-7.444-13.883-9.41-10.702Zm108.607 208.142c-3.353 2.836-6.097 5.536-6.097 5.999 0 .464-.523.843-1.163.843s-3.677 2.588-6.75 5.75c-6.08 6.258-11.71 11.25-12.687 11.25-.34 0-1.582.869-2.759 1.931-5.256 4.739-9.469 8.069-10.209 8.069-.442 0-1.732.844-2.868 1.877-3.847 3.497-20.383 14.123-21.979 14.123-1.268 0-1.585-1.183-1.585-5.924 0-7.352-1.934-16.076-3.565-16.076-1.311 0-2.435 2.186-2.435 4.735 0 .864-2.03 7.846-4.512 15.516-4.9 15.148-7.48 26.258-7.939 34.186-.336 5.803 1.068 18.408 2.624 23.563 4.043 13.391 15.639 29.911 22.143 31.543 3.733.937 9.511-1.422 11.128-4.543 3.441-6.643 5.556-12.32 5.556-14.912 0-2.524-.555-3.04-4.75-4.415-10.183-3.339-12.148-4.556-14.425-8.929-1.996-3.833-2.216-5.76-2.267-19.917l-.058-15.674 2.875-.576c4.366-.876 4.367-.876 8.892 3.759 2.328 2.384 8.748 7.532 14.267 11.44 5.518 3.907 12.871 10.168 16.34 13.914a1871.77 1871.77 0 0 0 8.347 8.968c2.625 2.775 1.86 6.107-2.551 11.117-6.064 6.889-10.876 14.245-10.301 15.745 1.466 3.821 21.475-.282 26.194-5.371 3.374-3.639 5.788-12.456 5.074-18.533-.517-4.394-1.766-7.561-5.833-14.787-2.435-4.327-13.346-14.318-18.336-16.79-2.732-1.354-6.768-3.576-8.968-4.938-2.2-1.362-7.546-3.71-11.88-5.219-4.334-1.508-8.339-3.201-8.899-3.761-1.95-1.95 1.905-5.574 10.389-9.768 4.615-2.28 10.618-5.88 13.341-8 5.641-4.389 14.887-13.64 17.346-17.353.91-1.375 2.228-2.86 2.929-3.3.701-.44 1.274-1.622 1.274-2.627 0-1.006.628-2.349 1.395-2.986.768-.637 1.708-2.83 2.09-4.873.382-2.043 1.032-4.164 1.446-4.714 2.014-2.677 6.841-14.523 6.104-14.978-.462-.286-3.584 1.801-6.938 4.636Zm-174.753 6.883c-2.286.453-5.886 1.7-8 2.772-2.114 1.071-6.402 2.75-9.529 3.73-7.698 2.412-10.815 5.424-10.815 10.45 0 5.386 1.684 8.742 7.029 14.007 2.513 2.475 6.022 6.218 7.799 8.318 5.021 5.934 6.298 4.571 3.577-3.818-2.744-8.46-2.891-11.218-.821-15.368 3.246-6.506 22.987-11.488 30.558-7.711 1.741.868 3.769 1.579 4.508 1.579 1.658 0 12.781 3.679 16.85 5.573 6.1 2.84 7.859 4.884 7.169 8.332-.724 3.62-6.341 11.095-8.336 11.095-.733 0-1.333.407-1.333.905 0 1.31-8.502 6.095-10.829 6.095-1.179 0-2.92 1.477-4.322 3.666-6.519 10.174-5.943 9.582-7.42 7.62-.74-.982-1.888-4.261-2.552-7.286-.664-3.025-1.532-5.95-1.929-6.5-.397-.55-1.033-2.887-1.413-5.192-.767-4.653-2.963-7.28-4.664-5.579-1.107 1.107-1.504 26.438-.441 28.158 1.308 2.115-1.396 2.005-2.948-.12-1.637-2.242-1.648-2.23-.958 1.128.384 1.867 1.998 5.599 3.587 8.294 1.589 2.694 2.889 5.582 2.889 6.417 0 2.281 3.14 11.618 4.663 13.867.736 1.084 1.337 2.78 1.337 3.768 0 .987 1.8 4.758 4 8.379 2.2 3.622 4 6.936 4 7.366 0 1.61 8.205 8.12 9.819 7.791 1.324-.27 1.655-1.399 1.56-5.31-.092-3.781-1.345-7.485-5.25-15.515-2.846-5.854-5.129-11.947-5.129-13.691 0-1.729-.45-3.421-1-3.761-2.013-1.244-.901-2.448 3.25-3.523 2.338-.605 5.55-2.032 7.14-3.171 2.817-2.021 2.967-2.027 6-.267 4.482 2.602 7.804 6.138 12.172 12.961 3.691 5.764 3.857 6.394 4.218 16 .551 14.658 1.093 17.572 4.092 22 4.623 6.825 11.625 5.458 14.085-2.75 2.511-8.383 2.521-18.74.025-26.842-4.499-14.6-11.235-23.975-22.732-31.638-2.696-1.797-2.893-4.595-.5-7.108 6.503-6.829 9.28-16.498 7.279-25.342-1.79-7.912-2.051-8.694-3.359-10.064-.659-.691-2.613-3.056-4.341-5.256-1.728-2.2-5.322-5.122-7.986-6.493-2.663-1.371-5.518-2.995-6.343-3.608-1.395-1.037-5.892-2.199-17-4.392-5.473-1.08-12.089-1.067-17.656.034Zm-298.7 4.725c-.262.425.087 4.087.775 8.14 1.151 6.773 1.111 7.404-.488 7.822-1.377.36-1.576 1.022-.958 3.179 1.617 5.636 11.775 22.007 18.052 29.093 1.706 1.925 4.636 6.504 6.513 10.176 1.877 3.671 3.834 6.936 4.35 7.255.516.319 1.242 2.49 1.614 4.824.372 2.335 1.312 6.173 2.087 8.53.776 2.357 1.411 5.818 1.411 7.691 0 1.873.49 3.709 1.09 4.08 2.696 1.666-2.044 13.912-7.682 19.842-3.158 3.321-3.979 3.726-5.557 2.741-1.018-.636-1.851-.796-1.851-.356 0 .44-1.494 2.384-3.319 4.319-3.657 3.878-16.4 9.903-17.509 8.28-.37-.542-2.791-1.779-5.382-2.751-2.59-.971-6.415-2.94-8.5-4.375a1160.528 1160.528 0 0 0-9.404-6.374c-10.154-6.811-18.295-18.488-20.834-29.882-3.312-14.864-6.275-26.763-7.097-28.5-.521-1.1-2.513-7.148-4.426-13.439-3.651-12.006-5.271-14.758-8.059-13.688-1.516.582-1.629 2.273-1.134 16.887.538 15.852 1.341 23.225 3.606 33.096 1.285 5.599 10.3 24.219 15.161 31.314 7.712 11.254 25.109 25.812 40.397 33.805 13.632 7.128 24.265 5.627 26.009-3.672.579-3.084 1.207-3.756 4.334-4.634 6.988-1.961 11.518-3.942 12.694-5.551.651-.89 1.696-1.618 2.323-1.618s1.14-.644 1.14-1.432c0-.787 1.296-2.354 2.879-3.482l2.879-2.05 2.757 4.232c3.642 5.591 10.904 12.19 16.485 14.982 3.849 1.924 6.092 2.25 15.5 2.25 10.703 0 11.162-.093 17-3.437 3.3-1.891 8.119-4.881 10.708-6.645 2.59-1.763 7.479-4.142 10.864-5.285 3.386-1.143 8.017-3.596 10.292-5.45 2.275-1.855 5.261-3.951 6.636-4.659 2.912-1.498 13.9-13.007 13.959-14.621.023-.603.932-2.124 2.02-3.379 1.089-1.255 1.767-2.626 1.507-3.047-.26-.42.219-2.724 1.064-5.12 1.285-3.641 1.36-5.813.457-13.241-.594-4.887-1.514-9.695-2.044-10.685-.53-.99-.963-2.594-.963-3.566 0-2.21-6.881-20.336-8.49-22.365-.655-.825-3.551-6-6.437-11.5-5.876-11.198-7.559-13.414-9.052-11.921-.917.917 1.377 8.813 7.493 25.786 1.534 4.258 1.595 5.57.495 10.5-.691 3.099-2.551 8.379-4.133 11.732-1.582 3.353-2.876 6.395-2.876 6.759 0 1.242-10.84 17.133-14.424 21.144-1.966 2.2-4.587 5.459-5.825 7.243-1.238 1.784-2.786 3.246-3.439 3.25-.654.004-2.667 1.357-4.473 3.007-1.807 1.65-3.902 3-4.657 3-.756 0-2.568.847-4.028 1.882-6.999 4.962-18.792 7.063-26.071 4.646-8.968-2.979-13.382-10.134-16.058-26.028-1.107-6.573-2.102-10.261-4.048-15-.452-1.1-1.104-4.025-1.449-6.5-1.196-8.572-7.537-24.314-13.093-32.501-1.339-1.973-2.435-3.98-2.435-4.46s-.357-1.022-.793-1.206c-.436-.183-1.826-2.026-3.089-4.096-1.263-2.069-3.163-4.226-4.222-4.793-3.018-1.615-3.376 1.142-1.113 8.558 1.095 3.586 1.66 6.724 1.256 6.974-.403.249-2.189-1.19-3.967-3.199-2.557-2.888-3.316-4.736-3.627-8.833-.425-5.59-1.733-9.886-3.306-10.858-.542-.335-1.281-1.954-1.642-3.597-.361-1.644-1.062-2.989-1.557-2.989-.496 0-1.187-1.137-1.536-2.526-.646-2.576-3.895-5.106-4.76-3.708Zm207.939 25.1c-.294.476-1.671.649-3.059.383-2.03-.388-2.524-.084-2.524 1.553 0 1.208-1.32 2.869-3.25 4.087-4.84 3.057-11.931 10.862-15.773 17.361-1.87 3.162-3.754 5.75-4.188 5.75-.434 0-.789.916-.789 2.035 0 1.12-.662 3.046-1.472 4.282-2.08 3.175-5.535 14.327-6.142 19.827-1.07 9.694 3.512 24.487 9.552 30.838 8.319 8.749 16.25 11.727 34.895 13.103 13.251.978 13.941.93 22.667-1.578 4.95-1.422 11.015-3.519 13.479-4.659 6.074-2.812 17.021-10.724 17.021-12.303 0-.704 1.788-2.463 3.973-3.909 7.019-4.645 9.802-14.33 7.052-24.542-1.476-5.482-4.744-12.616-6.415-14.003-.778-.645-1.711-2.358-2.075-3.806-1.008-4.016-6.238-10.733-11.047-14.186-2.373-1.705-4.578-3.099-4.899-3.099-.321 0-3.397-1.301-6.836-2.891-9.375-4.334-22.404-9.109-24.855-9.109-4.136 0-10.186-2.384-10.661-4.202-.482-1.843-3.694-2.486-4.654-.932Zm15.265 13.214c20.093 9.308 25.034 12.324 30.425 18.574 2.166 2.51 5.551 14.372 6.389 22.385.583 5.578.436 6.138-2.682 10.199-5.273 6.868-12.383 10.703-27.98 15.091-8.754 2.463-11.47 2.679-20.241 1.611-16.544-2.016-25.713-6.492-27.647-13.497-1.443-5.224.409-19.561 3.545-27.443 3.538-8.895 7.2-16 8.246-16 .478 0 1.609-1.559 2.513-3.464.904-1.906 2.438-4.043 3.409-4.75.971-.707 3.036-2.973 4.589-5.036 1.553-2.062 3.608-3.75 4.567-3.75.959 0 7.649 2.736 14.867 6.08Zm-99.307 145.85c-.317.52-1.04 3.1-1.608 5.75-.567 2.65-1.454 6.62-1.971 8.82-.517 2.2-1.637 7.82-2.488 12.5-.852 4.67-1.759 9.62-2.015 11-1.549 8.29-3.495 24.44-4.457 37-1.19 15.52-1.639 19.66-2.987 27.5-.473 2.75-1.367 8.15-1.988 12-.621 3.85-1.581 9.25-2.134 12-.553 2.75-1.259 6.57-1.568 8.5-.641 3.99-1.958 6-3.939 6-2.811 0-16.386-12.06-16.386-14.55 0-.44-1.39-3.75-3.089-7.37-15.586-33.19-18.862-41.74-22.812-59.51-.729-3.27-2.794-4.53-3.676-2.23-.663 1.73.847 20.04 2.981 36.16 2.323 17.54 7.757 36.89 12.359 44 3.647 5.64 19.081 20.72 24.065 23.52 2.295 1.29 4.172 2.67 4.172 3.06 0 1.09 2.816 1.95 11.354 3.47 6.852 1.21 8.221 1.2 10.72-.09 2.922-1.51 10.926-12.27 10.926-14.68 0-.74.744-2.4 1.653-3.7 1.993-2.84 2.686-21.9 1.258-34.58-.652-5.79-.441-13.33.767-27.33 1.309-15.18 1.415-20.02.494-22.57-.644-1.78-1.172-5.29-1.172-7.8s-.657-6.13-1.46-8.05c-.804-1.92-1.198-3.76-.877-4.08.321-.32.202-1.39-.266-2.38-.467-.98-.9-6.07-.961-11.29-.315-26.94-.854-32-3.412-32-.498 0-1.165.42-1.483.93Zm77.846 47.5c-.33.86-1.197 1.57-1.926 1.57-.729 0-2.324 1.4-3.546 3.12-3.038 4.27-10.587 8.88-14.53 8.88-1.772 0-4.58-.78-6.239-1.73-1.659-.95-3.347-1.4-3.75-1-.8.8.997 4.82 3.892 8.7 1.558 2.08 1.624 2.62.43 3.5-.776.56-2.168 2.38-3.095 4.03-.926 1.65-2.556 4.35-3.623 6a140.208 140.208 0 0 0-3.495 5.75c-.856 1.51-1.995 2.75-2.531 2.75s-.974.65-.974 1.44c0 .79-1.737 5.18-3.86 9.75-6.532 14.06-7.545 18.96-6.765 32.75.558 9.87 1.18 13.22 3.54 19.01 3.409 8.38 9.082 16.15 13.436 18.41 1.732.89 3.824 2.02 4.649 2.49 7.872 4.54 12.121 5.58 27.5 6.76 8.053.61 13.25-.24 26-4.28 11.533-3.65 14.269-4.86 19.5-8.64 5.943-4.29 7.406-5.82 12.142-12.67 3.046-4.4 3.085-4.61 2.409-12.94-.377-4.66-1.106-9.25-1.619-10.21-.512-.96-.932-2.87-.932-4.25 0-1.37-.45-2.78-1-3.12-.55-.34-1-1.65-1-2.92 0-1.26-1.305-4.95-2.899-8.19-1.595-3.24-3.872-8.37-5.06-11.39-2.747-7-5.311-12-6.147-12-.358 0-1.178-1.27-1.822-2.83-2.107-5.08-15.6-14.17-21.047-14.17-.977 0-4.251-1.1-7.276-2.43l-5.501-2.44.927-5.1c.51-2.8.792-7.44.626-10.31-.281-4.87-.488-5.24-3.057-5.54-1.797-.2-2.965.23-3.357 1.25Zm90.929 2.37c-.634.4-1.302 2.22-1.485 4.07-.354 3.58.392 3.16-12.641 7.16-4.036 1.24-8.19 5.24-8.19 7.87 0 .61-.45 1.1-1 1.1s-1 1.8-1 4 .45 4 1 4 1 .79 1 1.76c0 2.28 7.152 9.63 12.03 12.38 3.215 1.8 4.73 3.99 9.884 14.27 3.347 6.67 6.086 12.5 6.086 12.96 0 .45.618 2.25 1.374 3.98 2.36 5.41 3.626 11.18 3.626 16.54 0 4.72 4.635 18.65 7.172 21.56.455.52.828 1.76.828 2.75s.45 1.8 1 1.8 1 .6 1 1.32c0 .73 1.575 3.54 3.5 6.25s3.5 5.51 3.5 6.22.447 1.84.993 2.5c.546.67 2.599 3.23 4.561 5.71 1.963 2.47 4.212 5.29 4.998 6.25 1.636 2 6.471 2.33 8.248.55 2.542-2.54.628-19.58-2.876-25.61-1.058-1.82-1.924-3.98-1.924-4.8 0-.83-1.993-6.09-4.428-11.7-2.435-5.6-4.747-11.54-5.138-13.19-.39-1.65-1.034-3.45-1.431-4-.397-.55-.999-2.46-1.337-4.25-.554-2.92-.377-3.25 1.738-3.25 2.113 0 13.144 5.88 14.537 7.75.549.74 3.611 2.38 19.559 10.48 11.752 5.97 24.787 15.16 26.188 18.47.654 1.54 1.503 4.55 1.887 6.69.832 4.62 4.23 10.3 6.675 11.14 6.379 2.2 10.09-7.63 7.749-20.53-1.393-7.69-4.289-12.88-10.718-19.21-9.938-9.78-14.156-12.74-27.281-19.14-17.722-8.64-16.676-7.72-13.109-11.53 1.646-1.77 4.889-6 7.206-9.41 2.318-3.42 4.594-6.36 5.059-6.54.464-.19.847-.86.85-1.5.004-.65.717-2.52 1.586-4.17 2.354-4.47 2.861-12.34 1.066-16.55-3.25-7.61-15.488-16.17-27.211-19.03-2.721-.67-5.493-1.64-6.159-2.16-1.585-1.23-21.29-1.49-28.071-.35-4.687.78-5.535.64-7.516-1.22-1.227-1.15-2.751-1.78-3.385-1.39Zm-281.244 5.74c-1.14 3.04-2.072 6.1-2.072 6.79 0 .69-.61 3.71-1.357 6.71-3.308 13.32-4.683 21.56-6.248 37.46-1.767 17.95-1.864 26.75-.327 29.63.513.95.932 2.86.932 4.23 0 1.37.675 3.17 1.5 4 .825.82 1.5 1.82 1.5 2.21 0 .39 1.346 2 2.991 3.57 5.78 5.53 14.792 2.9 16.969-4.94 1.82-6.55.597-21.58-1.887-23.18-1.92-1.23-7.119-13.38-8.425-19.68-2.846-13.73-3.724-19.41-3.144-20.35.325-.52.832-4.67 1.126-9.22.294-4.55 1.166-10.97 1.937-14.27 1.767-7.55 1.767-8.5.005-8.5-.816 0-2.316 2.37-3.5 5.54Zm425.444 3.73c-.907 2.73-3.649 29.22-4.735 45.73-1.233 18.75-.165 36.36 2.803 46.19.779 2.58 1.416 5.43 1.416 6.34 0 .91.609 2.86 1.354 4.32.745 1.46 2.658 5.31 4.25 8.56 5.331 10.89 14.034 17.04 18.455 13.04 1.625-1.47 1.831-2.61 1.323-7.35-.331-3.08-1.677-8.02-2.992-10.97-1.314-2.96-2.39-6.13-2.39-7.05 0-.92-.379-2.11-.843-2.63-1.029-1.16-3.963-11.19-4.083-13.95-.348-8.05-.147-36 .259-36 .279 0 1.555.91 2.837 2.01 1.281 1.11 3.764 3.03 5.517 4.28 1.868 1.32 4.268 4.62 5.795 7.95 1.434 3.13 2.925 5.94 3.313 6.23.388.29 2.406 3.06 4.485 6.15 5.782 8.59 12.567 14.19 25.204 20.81 4.329 2.26 8.466 4.61 9.193 5.22 1.764 1.46 1.669 4.28-.27 8.03-1.486 2.87-1.469 3.2.25 4.84 1.574 1.51 2.96 1.67 9.495 1.11 8.043-.7 10.479-2.19 12.852-7.86 1.555-3.72-1.852-17.81-4.902-20.27-.341-.28-1.741-2.18-3.111-4.24s-3.053-3.75-3.741-3.75c-.687-.01-1.25-.37-1.25-.81 0-1.3-15.109-9.99-20-11.5-15.832-4.89-18.981-6.01-21.827-7.74-3.625-2.21-4.013-3.51-1.259-4.23 1.053-.27 3.145-2.46 4.65-4.86 1.504-2.41 3.118-4.52 3.585-4.7.468-.19.851-1.02.851-1.86 0-2.81 5.05-11.61 9.024-15.73 9.4-9.74 10.975-11.29 15.355-15.03 5.561-4.76 6.041-6.69 1.371-5.53-5.777 1.44-9.917 2.87-11.097 3.83-.634.52-4.303 2.62-8.153 4.68-10.706 5.72-24.591 15.22-28.598 19.57-1.979 2.14-4.1 3.9-4.714 3.9-.614 0-2.209 1.61-3.545 3.57l-2.429 3.58-.702-6.33c-.387-3.47-1.528-9.45-2.536-13.28s-1.571-7.39-1.25-7.91c.321-.51.063-.62-.571-.23-.649.41-1.151.14-1.145-.59.005-.72-.995-4.56-2.223-8.54-2.1-6.8-4.349-9.79-5.271-7Zm-510.113 4.12c-.436 1.14 1.708 27.94 3.008 37.61.994 7.4 5.793 25.29 8.046 30 1.902 3.98 4.643 9.23 6.67 12.78 1.03 1.8 1.873 3.94 1.873 4.75s.395 1.47.879 1.47c.483 0 1.438 1.35 2.121 3s1.638 3 2.121 3c.484 0 .879.43.879.95 0 3.39 16.644 22.75 28.5 33.16 8.781 7.7 25.38 15.89 32.213 15.89 3.745 0 6.326-3.08 6.93-8.27.205-1.76.628-4.01.94-4.99.311-.98.284-3.07-.06-4.63-.604-2.76-.869-2.87-7.824-3.32-6.18-.39-10.79-1.78-12.699-3.83-.275-.29-2.975-2.16-6-4.15-10.176-6.71-34-31.48-34-35.35 0-.33-1.166-2.12-2.59-3.99-1.425-1.87-2.834-5.21-3.132-7.43-.298-2.22-.88-4.04-1.293-4.04-.414 0-1.013-2.81-1.332-6.25-1.716-18.5-5.151-29.44-13.737-43.75-.495-.83-2.232-4.03-3.859-7.12-2.512-4.78-4.55-6.88-6.67-6.88-.247 0-.69.63-.984 1.39Zm399.798 3.02c2.915.78 8.224 2.35 11.799 3.49 3.575 1.14 7.4 2.11 8.5 2.15 2.539.09 11.017 4.2 10.722 5.2-.122.41-.222 1.6-.222 2.65 0 1.05-2.693 4.61-5.984 7.92-7.184 7.23-14.602 10.52-22.569 10.01-4.774-.31-5.259-.11-8.358 3.42-3.464 3.94-5.095 4.08-5.081.44.022-5.54-5.256-24.47-8.189-29.38-1.824-3.05-1.83-3.27-.14-5.25 1.432-1.67 2.941-2.06 7.994-2.06 3.426 0 8.614.64 11.528 1.41Zm-31.071 12.6c.643 5.6 1.511 10.16 4.278 22.42 2.824 12.52-.55 9.3-7.271-6.93-2.664-6.44-3.864-17.92-2.096-20.05 2.485-2.99 4.421-1.26 5.089 4.56Zm-91.684 8.71c6.087 4.09 14.505 12.54 14.531 14.58.013.99.69 3.09 1.504 4.66.815 1.58 1.698 4.82 1.962 7.2.264 2.39.784 6.69 1.155 9.57.844 6.53-.995 13.8-4.432 17.52-1.397 1.51-2.989 2.75-3.537 2.75-.549 0-2.827.86-5.063 1.92-5.53 2.61-11.323 3.52-22.566 3.55-7.127.02-10.35-.41-12.904-1.72-1.872-.96-3.955-1.75-4.628-1.75-2.164 0-3.907-5.74-2.608-8.59.627-1.38 1.14-3.28 1.14-4.23 0-.94 1.088-3.32 2.417-5.27 1.33-1.96 4.158-6.9 6.285-10.99 4.876-9.36 6.252-11.6 9.048-14.71 1.237-1.38 2.25-3.34 2.25-4.36 0-1.02.343-1.85.763-1.85.419 0 1.207-.82 1.75-1.83.543-1.01 1.858-3.48 2.922-5.5 2.354-4.46 4.478-4.66 10.011-.95Zm-8.446 223.97c-3.513.59-12.302 3.42-13.5 4.35-.55.43-4.15 2.01-8 3.52-10.176 3.99-10.833 4.75-10.204 11.73.799 8.87 4.666 13.25 13.359 15.14l3.155.69-.134-5.83c-.151-6.6 2.145-11.59 6.324-13.76 6.575-3.41 8.591-3.94 14.329-3.79 6.307.16 14.418 1.88 16.121 3.41.523.47 1.648.85 2.5.85.853 0 4.859 1.35 8.904 3 4.044 1.65 8.319 3.01 9.5 3.03 1.18.02 2.994.68 4.031 1.46 1.037.79 3.849 1.72 6.25 2.08 2.401.36 4.358 1.17 4.35 1.79-.03 2.25-2.897 9.14-2.972 7.14-.068-1.85-.152-1.87-1.098-.24-.563.96-.767 2.17-.455 2.68.313.5-.245 1.17-1.239 1.49-.995.32-3.588 2.26-5.763 4.32-5.548 5.26-7.855 6.25-14.572 6.25-4.931 0-5.889.28-5.907 1.75-.011.96-1.73 4.79-3.821 8.51l-3.8 6.77-2.99-3.77c-1.645-2.07-4.753-6.46-6.907-9.76s-4.419-6.52-5.032-7.17c-.614-.64-1.691-2.55-2.394-4.25-.703-1.69-1.673-3.08-2.156-3.08-.484 0-.879-.45-.879-1s-.9-1.9-2-3c-1.921-1.92-4-2.65-4-1.4 0 1.45 3.323 12 4.078 12.95.461.58 1.377 4.4 2.036 8.5s1.956 8.57 2.881 9.95c.926 1.37 3.156 6.77 4.955 12 1.799 5.22 3.671 9.93 4.161 10.45.489.52.889 1.67.889 2.55 0 2.36 14.825 32 16.001 32 .549 0 .999.67.999 1.49s.9 2.05 2 2.74c1.1.69 2 1.8 2 2.48 0 .67 1.397 2.81 3.104 4.75 3.023 3.45 5.082 4.17 8.314 2.93 2.526-.97 2.029-9.9-1.001-17.99-1.42-3.8-2.812-7.8-3.093-8.9-.992-3.88-6.787-17.03-8.544-19.39-2.2-2.94-2.263-4.71-.198-5.5 3.158-1.22 7.532-.56 12.175 1.82 6.483 3.33 16.272 7.57 17.463 7.57 2.207 0 20.345 8.77 21.824 10.55.623.75 1.519 4.44 1.991 8.2 1.117 8.9 2.125 11.36 5.956 14.59 4.074 3.43 8.833 3.53 11.225.23 2.035-2.8 2.556-12.66.893-16.89-.61-1.54-1.109-4.11-1.109-5.7 0-1.62-.987-3.94-2.25-5.28-1.237-1.31-3.782-4.95-5.653-8.09-1.872-3.13-4.797-6.66-6.5-7.84-1.704-1.18-4.081-3.1-5.283-4.26-2.959-2.86-20.275-11.53-23.005-11.52-3.722.01-3.696-2.01.076-5.87 1.988-2.04 3.615-4.07 3.615-4.52 0-.45 1.739-2.91 3.865-5.46 2.126-2.55 4.169-5.61 4.539-6.8.37-1.19 1.331-2.71 2.135-3.37 2.133-1.77 1.884-12.45-.408-17.47-3.861-8.46-13.819-15.26-29.131-19.88-12.327-3.72-32.166-5.58-42-3.93Zm-228.054 9.41c-1.213 2.27-.826 8.97.887 15.4.587 2.2 3.79 9.36 7.117 15.9 3.328 6.55 6.05 12.87 6.05 14.04 0 1.18.904 3.91 2.01 6.08 1.58 3.1 2.185 7.04 2.829 18.46.451 7.99.608 15.35.349 16.37-.59 2.31-4.098 1.75-12.125-1.92-6.747-3.08-10.753-6.74-11.596-10.58-.859-3.91-3.501-9.09-5.401-10.58-.861-.68-3.216-1.7-5.232-2.27-3.102-.87-4.21-.71-7.206 1.06-1.946 1.14-3.77 2.84-4.052 3.76-.686 2.24-.702 9.46-.049 22.18.66 12.84.153 13.93-5.141 11.09-10.054-5.39-23.817-14.79-27.823-19-1.615-1.7-3.506-3.09-4.202-3.09-.696 0-2.725-2.14-4.51-4.75-1.784-2.61-3.763-5.2-4.398-5.75-2.703-2.34-6.453-8.35-6.453-10.34 0-1.19-.346-2.16-.769-2.16-.423 0-2.236-2.67-4.028-5.93-4.505-8.19-13.649-17.07-17.584-17.07-1.802 0-5.067 4.46-4.242 5.8.302.49 1.703 5.33 3.114 10.76 1.411 5.43 3.16 10.79 3.883 11.91.724 1.12 2.25 4.53 3.388 7.59 1.14 3.06 3.46 7.92 5.155 10.8 1.695 2.87 3.083 5.66 3.083 6.18 0 .53.45.96 1 .96s1 .63 1 1.39c0 1.44 15.68 18.61 16.99 18.61.402 0 2.285 1.46 4.185 3.25 1.901 1.79 6.351 5.02 9.89 7.17 6.773 4.13 22.908 12.51 24.182 12.55.411.02 3.7 1.42 7.309 3.13 7.06 3.34 17.627 5.03 18.866 3.03.383-.62 1.515-1.13 2.516-1.13 2.791 0 4.438-5.11 3.625-11.24-.38-2.87-1.064-5.67-1.519-6.24-.966-1.19-3.406-12.49-2.824-13.07.458-.46 10.036 4.48 10.78 5.56.804 1.16 7.791 4.45 17.992 8.46 9.176 3.6 9.773 3.7 18 3.04 7.26-.59 8.911-1.07 11.258-3.29 1.855-1.75 2.75-3.61 2.75-5.71 0-1.71.393-3.54.872-4.06 1.237-1.35-1.655-23.47-3.42-26.16-.799-1.22-1.452-3.59-1.452-5.26 0-1.66-.435-3.03-.966-3.03-.531 0-1.26-2.22-1.62-4.94-.367-2.76-1.263-5.17-2.035-5.47-.758-.29-1.379-1.42-1.379-2.5s-.384-2.21-.852-2.5c-.469-.29-1.117-3.68-1.44-7.53-.323-3.85-1.244-8.48-2.047-10.28-.803-1.81-2.065-4.74-2.804-6.53-.74-1.79-1.685-3.25-2.101-3.25-.416 0-.758-.79-.76-1.75-.012-5.86-11.284-16.06-20.867-18.88-4.143-1.22-6.728-2.81-9.791-6.01-4.617-4.84-6.712-5.4-8.392-2.26Zm358.981 3.15c-.04.14-.231 5.42-.425 11.75-.193 6.32-.635 13.3-.981 15.5-.94 5.97-1.149 30.2-.315 36.5 1.904 14.38 10.981 44.57 15 49.89 3.822 5.06 10.482 10.11 13.33 10.11 1.795 0 4.665-2.47 3.835-3.3-.293-.29-.103-1.36.423-2.36 1.058-2.03-.704-14.44-2.537-17.86-1.193-2.23-5.257-13.52-5.257-14.61 0-.38 1.778.17 3.952 1.22 4.08 1.97 8.154 2.47 9.465 1.16.412-.41 1.226-.75 1.807-.75 1.097 0 1.918-1.28 3.496-5.44l.924-2.43 4.428 4.06c4.783 4.38 15.151 11.31 16.923 11.31.6 0 3.209 1.95 5.798 4.34 10.118 9.33 15.556 11.44 20.742 8.04 1.721-1.12 2.465-2.52 2.465-4.64 0-1.66.785-3.66 1.75-4.45.963-.79 1.283-1.21.712-.94-1.558.76-3.738-5.02-3.222-8.53.327-2.23.01-3.22-1.144-3.57-.878-.26-4.071-3.35-7.096-6.87-3.025-3.52-7.075-7.23-9-8.26-1.925-1.03-7.1-3.73-11.5-6-7.181-3.7-12.5-7.59-12.5-9.15 0-.31 3.6-4.29 8-8.85 4.4-4.55 8-9.08 8-10.05 0-.97.839-2.73 1.863-3.91 1.025-1.18 2.146-4.21 2.49-6.72.344-2.51 1.259-5.2 2.033-5.97 2.147-2.15 5.111-12.37 3.929-13.56-1.313-1.31-4.897.19-9.064 3.78-1.788 1.55-4.938 4.07-7 5.62-13.913 10.41-19.036 14.52-21.09 16.94-1.286 1.51-2.974 2.75-3.75 2.75-.776 0-1.415.34-1.42.75-.004.41-1.623 2.45-3.597 4.54-2.575 2.71-4.127 3.61-5.496 3.18-2.299-.73-3.66 1.91-2.01 3.89.84 1.02.444 2.72-1.622 6.99-2.625 5.43-4.217 7.05-4.31 4.4-.217-6.19-2.907-21.28-6.64-37.25-2.09-8.94-7.821-21.5-9.814-21.5-.826 0-1.535.11-1.575.25Zm-232.343 5.11c.287.75 1.623 1.95 2.969 2.67 1.346.72 2.435 1.57 2.421 1.89-.014.32-2.939 1.91-6.5 3.54-3.561 1.63-6.474 3.21-6.474 3.51 0 .3-1.35 1.14-3 1.87-1.65.73-3 1.94-3 2.69 0 .74-.872 1.97-1.937 2.71-4.564 3.2-21.063 25.06-21.063 27.91 0 .66-.613 1.9-1.362 2.77-1.709 1.98-4.638 10.67-4.638 13.76 0 1.27-.396 2.32-.88 2.32-1.378 0-.292 13.95 1.518 19.5 2.514 7.71 11.294 17.86 18.198 21.04 11.7 5.4 13.959 5.88 27.664 5.82 13.173-.04 20.07-.86 21.068-2.47.303-.49 1.622-.89 2.932-.89 1.31 0 2.688-.49 3.061-1.1.374-.6 1.943-1.63 3.487-2.28 2.913-1.22 17.952-13.57 17.952-14.73 0-.37 1.575-2.96 3.5-5.75 1.925-2.8 3.5-6 3.5-7.12 0-1.11.429-2.02.953-2.02.525 0 .948-1.91.94-4.25-.007-2.34.042-5.15.111-6.25.127-2.06-1.25-12.07-2.907-21.13-.516-2.82-1.837-7.32-2.935-10-1.098-2.68-2.244-6.02-2.547-7.42-.649-3-7.712-14.27-11.405-18.2-1.421-1.51-3.512-2.75-4.647-2.76-1.135 0-3.413-.9-5.063-1.99-2.394-1.59-4.717-1.99-11.5-2.01-4.828-.01-10.228-.64-12.5-1.46-5.225-1.88-8.601-1.96-7.916-.17Zm26.916 16.48c1.651 1 4.351 4.26 6 7.24 2.801 5.06 3 6.12 2.993 15.92-.006 10.01-1.509 20.04-3.358 22.4-.472.6-1.13 2.24-1.461 3.63-.331 1.39-1.968 4.06-3.638 5.93s-3.036 3.77-3.036 4.22c0 .45-.62.82-1.378.82-.757 0-1.901.63-2.542 1.4-2.183 2.63-11.565 6.29-19.192 7.49-7.784 1.22-20.888.58-20.888-1.03 0-.47-.816-.86-1.813-.86s-3.057-1.3-4.578-2.89c-2.503-2.61-2.703-3.34-2.108-7.75.743-5.49 4.293-17.37 5.623-18.81.482-.52.876-1.66.876-2.52 0-3.51 17.229-24.75 22.87-28.19 10.409-6.36 15.033-8.27 21.13-8.72.825-.06 2.85.71 4.5 1.72Zm186.5 220.88c-.825.31-2.625 1.34-4 2.29s-3.599 2.07-4.942 2.49c-1.343.41-5.146 2.72-8.45 5.13-3.305 2.4-6.407 4.37-6.894 4.37-.782 0-3.691 2.43-9.858 8.25-1.021.96-2.194 1.75-2.606 1.76-.412 0-3.675 3.19-7.25 7.09s-8.412 9.15-10.75 11.69c-2.338 2.53-4.25 5.18-4.25 5.9 0 .72-.675 1.31-1.5 1.31s-1.5.66-1.5 1.48c0 .81-1.125 2.21-2.5 3.11-1.375.9-2.5 2.28-2.5 3.07 0 .78-.458 1.97-1.017 2.63-2.19 2.6-5.982 8.32-6.933 10.46-.55 1.24-1.413 2.25-1.917 2.25s-1.219 1.21-1.59 2.68c-.37 1.48-1.76 3.98-3.089 5.56l-2.417 2.87-2.015-3.31c-1.108-1.81-2.016-3.77-2.018-4.35-.002-.58-1.75-4.63-3.885-9-2.134-4.37-4.89-10.31-6.123-13.2-1.233-2.89-2.862-5.25-3.619-5.25-1.969 0-1.962 44.42.008 54.75.76 3.99 1.178 7.25.927 7.25-.25 0 .252.71 1.117 1.57.864.87 1.571 2.37 1.571 3.33 0 .97.299 2.07.665 2.43.722.72 1.503 5.03 1.463 8.07-.077 5.65 9.124 16.6 13.947 16.6 3.743 0 5.925-2.42 5.925-6.57 0-1.89.45-3.43 1-3.43s1-1.45 1-3.22c0-2.69 1.2-4.37 7.328-10.25 10.059-9.65 14.672-16.4 14.672-21.46 0-3.21 2.799-13.17 4.074-14.5.491-.52 1.161-.67 1.488-.34.691.69 8.405 22.18 9.162 25.52.28 1.24.907 2.25 1.393 2.25.485 0 .883.45.883 1.01 0 1.45 5.67 9.07 7.919 10.65 1.046.73 3.556 3.58 5.579 6.34 4.03 5.49 4.08 6.51.923 18.86-1.451 5.68-.67 9.14 2.065 9.14 1.734 0 11.091-2.45 14.514-3.79 1.375-.54 4.067-2.36 5.983-4.04 3.038-2.66 3.552-3.8 4.015-8.86.403-4.41.107-6.6-1.233-9.09-.971-1.81-1.765-4.12-1.765-5.15 0-4.87-17.211-27.07-28.65-36.95-11.674-10.09-16.35-14.75-16.35-16.29 0-.85 1.125-3.21 2.5-5.24 1.375-2.02 2.5-4.5 2.5-5.51 0-1.01.687-2.41 1.527-3.1.84-.7 3.532-5.45 5.982-10.55 2.873-5.99 5.171-9.51 6.473-9.92 1.11-.36 2.018-1.19 2.018-1.86 0-1.19 3.27-5.56 7.75-10.34 1.237-1.32 2.25-2.83 2.25-3.36 0-.52.45-.95 1-.95s1-.58 1-1.28c0-.7.787-1.99 1.75-2.86 4.551-4.12 8.25-8.87 8.25-10.58 0-1.05.661-2.77 1.468-3.84 2.729-3.61 1.633-5.26-2.468-3.72Zm-398 21.34c-1.925.51-5.638.66-8.25.34s-4.75-.31-4.75.04c0 3.71 7.321 13.56 10.08 13.56 1.758 0 8.227 7.45 10.06 11.59 2.519 5.68 3.015 12.24 3.066 40.49.06 33.62-.444 34.8-12.59 29.43-5.02-2.22-5.916-3.09-8.233-7.98-1.43-3.02-4.352-7.08-6.494-9.01-3.513-3.18-4.458-3.52-9.642-3.5-4.16.02-6.438.56-8.247 1.98-1.375 1.08-3.077 1.97-3.78 1.98-.706.01-1.535.68-1.844 1.48-.308.81-1.419 1.74-2.468 2.07-1.05.33-1.908 1.25-1.908 2.04 0 2.61-2.116 1.49-7.337-3.89-4.966-5.12-14.738-20.12-16.206-24.88-.39-1.27-2.017-4.26-3.615-6.65-1.673-2.5-3.155-6.32-3.49-9-.939-7.5-5.059-15.05-9.265-16.99-1.973-.92-3.737-2-3.92-2.41-.66-1.49-6.996-.71-9.279 1.14-3.314 2.68-2.81 8.79 1.655 20.08 1.976 5 3.845 10.65 4.155 12.56.31 1.91.87 3.47 1.244 3.47s1.283 2.36 2.021 5.25c1.52 5.95 4.793 12.75 6.138 12.75.494 0 .9.58.9 1.29 0 .71 1.77 3.3 3.935 5.75 13.031 14.77 15.742 17.62 18.161 19.13 1.475.91 2.844 2.08 3.042 2.59.522 1.34 9.461 7.54 15.861 11 3.025 1.63 7.226 3.94 9.335 5.13 8.455 4.78 18.795 3.35 20.142-2.79.886-4.03 1.79-4.46 4.655-2.23 7.369 5.76 22.033 11.91 30.136 12.65 5.888.54 15.75-2.97 18.628-6.64 5.283-6.73 7.779-20.1 5.578-29.88-.805-3.58-1.672-7.76-1.926-9.29-.254-1.53-1.344-3.91-2.422-5.28s-2.277-4.39-2.663-6.71c-.387-2.32-1.774-6.15-3.083-8.51-1.309-2.35-2.38-5.65-2.38-7.31 0-1.67-.432-3.84-.959-4.82-.528-.99-1.072-3.47-1.209-5.51-.138-2.04-.606-3.93-1.041-4.2-.435-.27-.791-1.78-.791-3.36 0-1.58-.594-3.46-1.319-4.19-.726-.73-1.594-2.22-1.93-3.32-2.022-6.62-8.089-22.36-9.379-24.33-2.753-4.21-12.009-6.78-18.372-5.11Zm202.5 10.33c-2.75.73-9.01 2.73-13.91 4.46-4.901 1.73-9.937 3.15-11.191 3.15-1.255 0-2.571.47-2.925 1.04-.354.57-2.359 1.73-4.455 2.57-2.096.84-5.433 3.33-7.415 5.54-3.379 3.76-3.604 4.43-3.599 10.68.004 6.14.266 6.95 3.273 10.23 1.798 1.96 5.734 5.05 8.746 6.87 6.328 3.82 11.976 10.24 11.976 13.62 0 1.28.457 2.61 1.015 2.96 1.32.81 3.985 7.21 3.985 9.56 0 1.01.591 2.19 1.313 2.63.722.44 3.26 3.84 5.639 7.55 2.38 3.71 4.714 6.75 5.187 6.75.474 0 .861.71.861 1.58 0 2.46 13.133 18.04 16.652 19.76 2.955 1.44 3.267 1.41 5-.51 2.938-3.25 2.111-10.53-2.217-19.53-2-4.16-4.972-10.54-6.604-14.18-1.632-3.63-4.061-8.04-5.399-9.8-1.338-1.75-2.432-4.03-2.432-5.06 0-1.03-.661-2.75-1.468-3.82-3.009-3.98-1.321-4.1 6.218-.45 4.263 2.06 10.225 4.8 13.25 6.09 5.697 2.42 13.762 7.66 17.855 11.59 2.092 2.01 2.322 3.03 2.063 9.05-.161 3.73.017 8.02.395 9.53.378 1.51.923 3.89 1.213 5.28.737 3.54 8.128 10.47 11.172 10.47 6.884 0 11.276-11.14 9.291-23.57-.602-3.77-1.44-7.32-1.862-7.89-.422-.57-1.392-3.07-2.156-5.54-.975-3.16-3.132-6.2-7.24-10.2-5.245-5.11-13.589-10.8-15.829-10.8-.465 0-5.021-1.96-10.124-4.36-5.103-2.4-10.403-4.63-11.778-4.96-1.375-.32-3.383-1.24-4.462-2.03-1.745-1.28-1.801-1.63-.501-3.19.803-.97 3.729-3.44 6.501-5.49 2.772-2.05 6.972-5.58 9.333-7.85 2.361-2.26 4.685-4.12 5.165-4.12.48 0 1.996-1.12 3.368-2.5 3.635-3.63 2.047-7.33-5.237-12.21-5.415-3.62-6.068-3.8-14.667-4-4.965-.12-11.242.38-14 1.1Zm-108.818 9.64c-1.475 1.17-2.682 2.93-2.682 3.94 0 2.54-1.814 2.97-7.917 1.86-2.909-.53-5.531-.72-5.828-.42-.824.83 1.802 3.59 3.409 3.59.781 0 2.309.83 3.396 1.84 1.925 1.79 1.929 1.91.143 4.25-1.009 1.33-2.793 4.29-3.965 6.59a647.852 647.852 0 0 1-3.102 6c-4.798 8.99-6.948 18.03-7.216 30.32-.171 7.84.561 11.08 3.843 17.03 2.798 5.08 7.755 9.04 13.729 10.99 5.162 1.67 18.309 1.72 21.37.06 1.299-.7 3.437-1.07 4.75-.81 1.313.25 2.388.05 2.388-.44s.787-1.19 1.75-1.56c3.154-1.21 16.742-9.48 17.09-10.41.188-.49 1.652-1.58 3.256-2.41 1.603-.83 3.989-3.18 5.302-5.23 1.313-2.05 3.448-4.83 4.744-6.18 2.617-2.73 4.82-8.91 4.843-13.59.008-1.68.578-3.62 1.265-4.32 1.002-1.01.893-1.53-.546-2.59-.987-.73-2.043-3.06-2.345-5.18-.302-2.13-1.147-5.21-1.877-6.86-.73-1.65-1.628-4.21-1.995-5.68-.367-1.47-1.302-2.92-2.077-3.22-.776-.29-1.41-1.2-1.41-2.02 0-2.4-6.32-6.51-11.501-7.48-2.644-.5-10.982-.66-18.529-.36l-13.722.55.348-4.65c.191-2.55-.053-4.64-.542-4.64-.49 0-1.52-.24-2.29-.54-.77-.29-2.607.41-4.082 1.57Zm119.139 3.25c-3.261 3.16-15.026 9.72-17.436 9.72-1.466 0-3.246.79-3.956 1.75-1.195 1.62-1.361 1.56-2.229-.75-1.251-3.34-.648-4.56 3.127-6.34 8.082-3.81 13.26-5.36 18.494-5.54 2.72-.1 3.082.11 2 1.16Zm-28.821 17.34c0 2.08-.406 3.25-1 2.88-.55-.34-1-2.19-1-4.12 0-2.08.406-3.25 1-2.88.55.34 1 2.19 1 4.12Zm-75.645-1.08c12.149 3.79 14.955 5.42 16.339 9.47 2.605 7.62.809 15.41-4.045 17.55-1.182.51-2.565 2.29-3.074 3.94-.749 2.43-2.375 3.71-8.5 6.69-8.584 4.19-13.234 5.24-17.575 3.99-2.737-.8-2.979-1.21-2.755-4.78.466-7.44 8.228-35.15 10.186-36.36.729-.45 1.016-1.32.638-1.93-.948-1.53-.456-1.45 8.786 1.43Zm-.47 228.71c-.651 1.24-1.597 2.52-2.101 2.85-.504.33-1.019 1.3-1.144 2.15-.125.85-.726 2.16-1.336 2.9-.61.74-1.643 3.37-2.296 5.85-.653 2.47-1.777 5.85-2.497 7.5-1.501 3.44-5.599 19.62-6.031 23.81-.159 1.55-.745 4.02-1.303 5.5-.557 1.48-1.278 6.29-1.603 10.69-.324 4.4-1.032 8.15-1.574 8.33-.633.21-.611 1.03.063 2.29 1.035 1.93.443 5.88-.88 5.88-.376 0-.715 2.81-.754 6.25-.126 11.16-5.49 43.22-8.825 52.75-.866 2.47-1.581 5.42-1.589 6.56-.008 1.13-1.14 3.58-2.515 5.44-1.375 1.86-2.508 3.86-2.517 4.44-.01.58-1.138 2.12-2.508 3.42-2.155 2.05-3.101 2.27-7.021 1.68-6.885-1.03-10.692-2.99-15.024-7.73-3.45-3.77-4.989-6.55-8.463-15.31-.436-1.1-1.346-5.49-2.022-9.75-.675-4.26-1.614-7.75-2.086-7.75-.473 0-.859-1.18-.859-2.62 0-2.33.186-2.47 1.664-1.25 1.512 1.24 1.552 1.16.434-.94-.676-1.27-1.837-2.54-2.58-2.82-.902-.35-1.584-3.31-2.051-8.93-.876-10.51-2.463-12.77-8.966-12.77-2.774 0-5.175.63-6.317 1.66-1.013.92-2.211 1.67-2.662 1.67-.451 0-2.312 1.54-4.136 3.41-2.846 2.93-3.303 4.09-3.222 8.12.055 2.75-.419 5.01-1.148 5.46-.971.6-.975.86-.02 1.17.962.33.961 2.77-.003 11.5-1.158 10.49-2.529 15.32-3.606 12.73-.254-.61-1.81-2.63-3.46-4.47-1.65-1.85-3.25-4.5-3.556-5.89-1.28-5.81-1.548-6.36-2.426-4.94-1.249 2.02-2.117.54-2.29-3.92-.086-2.18-.435-3.8-.777-3.59-1.08.66-3.958-8.2-3.309-10.18.456-1.4.364-1.54-.346-.55-1.174 1.64-2.156-2.29-2.897-11.6-.273-3.44-.836-6.25-1.25-6.25-1.018 0-3.222-4.95-2.63-5.91.258-.42-.392-3.61-1.446-7.09-1.054-3.48-1.67-6.72-1.372-7.21.3-.48.058-1.46-.536-2.18-.594-.72-1.989-7.11-3.1-14.21-2.382-15.22-4.68-23.24-7.356-25.65-2.798-2.52-7.29-2.27-8.77.5-1.334 2.49-1.398 12.33-.092 14.11.457.63.761 3.39.676 6.14-.086 2.75.48 8.82 1.255 13.5.776 4.67 1.526 11.57 1.666 15.32.167 4.47.728 7.12 1.623 7.68.752.46 1.454 2.63 1.56 4.81.106 2.18.434 4.36.728 4.84.295.47.866 2.66 1.27 4.86 1.39 7.57 10.254 31.37 12.472 33.49.29.27 1.638 2.64 3 5.25 1.36 2.61 2.805 4.75 3.211 4.75.406 0 1.418 1.63 2.248 3.61.831 1.99 2.862 5.16 4.514 7.04 1.652 1.88 3.003 4.08 3.003 4.88 0 .81.597 1.47 1.326 1.47 1.677 0 6.104 4.63 4.997 5.23-.453.24-.358.34.21.22 1.595-.34 5.699 3.37 4.991 4.51-.369.6.011.77.924.42.952-.36 1.552-.05 1.552.82 0 1.72 6.011 4.49 12.305 5.66 4.244.8 4.892.64 7.666-1.83 2.328-2.08 3.029-3.56 3.029-6.37s.408-3.67 1.75-3.69c1.667-.03 1.667-.1 0-1.36-1.996-1.52-2.393-4.99-.5-4.37.688.22 2.321 2.33 3.629 4.68 2.087 3.75 11.847 14.3 17.621 19.05 3.194 2.62 10.366 7.03 11.448 7.03.545 0 2.725.9 4.844 2.01 2.536 1.32 6.053 2.06 10.281 2.17 3.535.09 7.142.6 8.016 1.13 1.052.64 2.234.59 3.5-.14 1.774-1.03 1.732-1.12-.589-1.19-1.906-.07-1.313-.55 2.5-2.04 3.741-1.46 5.745-3.07 7.959-6.38 1.627-2.43 3.314-4.2 3.75-3.93.435.27.791-.04.791-.69 0-.86.36-.89 1.293-.11 1.023.85 1.214.39.914-2.19-.249-2.12.169-3.71 1.206-4.57.873-.72 1.587-2.14 1.587-3.14 0-1.01.59-2.19 1.31-2.63 2.284-1.39 5.496-23.04 3.855-25.97-.577-1.03-.613-2.65-.09-4.03.543-1.43.505-2.3-.1-2.3-.536 0-.975-1.71-.975-3.8s-.422-4.23-.937-4.75c-.515-.52-1.443-9.5-2.06-19.95-1.397-23.63-1.961-29.5-2.832-29.5-.99 0-.132-9.28.985-10.66.554-.68.57-1.39.038-1.72-1.034-.64-2.424-10.96-2.373-17.62.063-8.31 2.023-24.04 3.176-25.5.434-.55 1.041-3.03 1.349-5.5.309-2.48.856-6.19 1.217-8.25.529-3.02.351-3.75-.918-3.75-.866 0-2.108 1.01-2.76 2.25Zm191.704 46.83c-3.03 3.6-3.624 10.82-1.065 12.94.838.7 1.292 1.5 1.009 1.78-.284.28-.087 1.03.437 1.66.523.63 1.647 4.95 2.497 9.59.85 4.65 2.218 10.91 3.039 13.92.822 3 1.499 7.05 1.506 9 .007 1.94 1.132 10.21 2.5 18.38 1.368 8.16 2.492 16.04 2.498 17.5.005 1.46 1.191 5.12 2.634 8.15 1.444 3.02 2.999 7.71 3.457 10.42.458 2.71 1.21 5.18 1.672 5.5.463.32 1.432 2.04 2.155 3.83.723 1.79 1.721 3.25 2.218 3.25.497 0 1.331 1.12 1.854 2.5.523 1.37 1.485 2.5 2.139 2.5 2.433 0 8.796 3.4 9.205 4.92.347 1.29.445 1.26.54-.17.064-.96.522-1.75 1.018-1.75 1.669 0 2.739-5.42 1.874-9.5-.466-2.2-.969-4.73-1.117-5.63-.149-.9-.962-2.7-1.808-4-.846-1.3-1.456-3.42-1.356-4.7.116-1.48-.675-2.9-2.163-3.87-1.52-1-2.565-2.91-2.967-5.42-.341-2.13-1.013-3.88-1.493-3.88-1.558 0-.92-5.81.831-7.56 1.605-1.61 1.576-1.66-.5-1.01-1.809.58-2.203.32-2.203-1.47 0-1.19-.649-4.71-1.443-7.82-.793-3.1-1.647-8.79-1.896-12.64-.537-8.3-2.915-20.37-5.864-29.77-1.684-5.37-2.609-6.9-4.461-7.36-2.307-.58-2.999-2.79-1.571-5.02 1.129-1.76 8.223-3.26 13.235-2.79 5.136.48 13.856 3.74 19 7.11 4.097 2.68 10.064 11.47 8.206 12.09-.663.23-1.206 1.04-1.206 1.82 0 1.67-2.142 1.88-3.655.36-1.285-1.28-6.578-.13-5.726 1.25.333.54-.721 2.41-2.342 4.15-4.95 5.31-7.277 10.31-7.277 15.65 0 9.5 2.569 12.02 12.646 12.41 4.675.18 5.811.75 12.426 6.15 4.004 3.27 10.798 9.37 15.097 13.56 6.561 6.39 8.067 8.48 9.38 13 .861 2.96 2.035 6.74 2.609 8.39.575 1.65 1.284 4.05 1.577 5.34.292 1.28 2.343 4.03 4.556 6.09 5.362 5 9.109 4.48 12.543-1.74 2.385-4.32 3.272-13.36 1.733-17.69-4.168-11.73-6.206-16.49-8.205-19.18-1.299-1.75-2.362-3.84-2.362-4.64 0-.8-1.16-2.21-2.577-3.14-4.811-3.15-7.274-5.77-6.741-7.16.328-.85-.136-1.38-1.207-1.38-1.554 0-7.339-3.06-9.975-5.28-.55-.46-2.471-1.71-4.27-2.78-2.801-1.66-3.178-2.33-2.63-4.69.352-1.51 1.288-3.27 2.08-3.9 1.037-.84 1.119-1.36.293-1.87-.641-.39-.87-1.65-.52-2.84 1.634-5.58 1.485-12.91-.229-11.2-.326.33-1.583-1.56-2.793-4.19-1.211-2.64-3.603-6.29-5.316-8.13-1.713-1.83-3.115-3.73-3.115-4.23 0-.49-.62-.89-1.378-.89-.757 0-1.936-.67-2.619-1.5-3.286-3.96-19.138-9.68-30.492-11-3.293-.39-7.188-1.56-8.654-2.6-1.765-1.26-4.358-1.9-7.672-1.9-4.364 0-5.34.39-7.596 3.08Zm208.65 4.25c-3.383 2.38-8.263 6.32-10.845 8.75-9.609 9.05-16.394 15.84-16.394 16.42 0 .32-1.09 1.68-2.422 3.01-1.333 1.34-2.713 3.34-3.068 4.46s-1.232 2.03-1.95 2.03c-.73 0-1.577 1.65-1.924 3.75-.411 2.48-1.843 4.93-4.245 7.25-1.994 1.92-4.011 4.51-4.483 5.75-.472 1.24-1.271 2.25-1.775 2.25-.896 0-4.133-12.53-4.133-16 0-.97-.663-2.31-1.474-2.98-.81-.67-1.773-2.86-2.14-4.87-.818-4.48-6.102-15.93-8.573-18.58-.997-1.07-1.813-2.54-1.813-3.26 0-.72-.675-1.31-1.5-1.31s-1.5-.45-1.5-1-.638-1-1.417-1-1.645-.56-1.924-1.25c-.382-.94-.781-.88-1.62.25-1.273 1.72-.865 14.61.808 25.5.592 3.85 1.259 11.5 1.483 17 .558 13.71 1.547 24.49 2.367 25.82.377.61 1.033 2.92 1.458 5.14 1.456 7.61 3.479 16.04 4.269 17.79.434.96.533 2.42.219 3.24-.314.82-.108 1.38.459 1.25.976-.23 2.951 4.58 4.289 10.44.337 1.47 1.193 3.27 1.903 4s1.363 3.31 1.452 5.73c.088 2.43.569 4.68 1.068 5 .499.33 1.668 2.08 2.599 3.89.93 1.82 2.381 3.57 3.223 3.89 1.241.48 1.279.75.198 1.43-.908.58-.422.85 1.523.86 1.969.01 2.698.43 2.344 1.36-.892 2.32 9.138.15 11.414-2.47 1.377-1.59 1.594-2.43.759-2.95-.862-.53-.895-1.79-.127-4.82.583-2.3.648-4.1.147-4.1-.492 0-.894-1.58-.894-3.5 0-2.13.491-3.51 1.25-3.52.875-.01.917-.23.138-.75-1.735-1.14-2.198-7.02-1.199-15.22.502-4.13 1.083-8.99 1.29-10.79.417-3.63 5.486-12.36 6.731-11.59.435.27.79-.41.79-1.5s.749-2.74 1.665-3.65c1.553-1.56 1.752-1.51 2.964.68.715 1.28 1.316 3.13 1.336 4.09.019.96.435 1.64.924 1.5.489-.14 2.84 2.67 5.224 6.25 2.385 3.57 5.359 7.62 6.611 8.99 1.252 1.37 2.276 2.86 2.276 3.3 0 .45 1.324 2.23 2.942 3.97 1.619 1.73 3.205 4.19 3.526 5.47.321 1.28 1.359 3.17 2.307 4.2.949 1.03 2.534 3.05 3.522 4.47 1.421 2.06 2.622 2.6 5.75 2.6 2.174 0 3.953-.45 3.953-1s.675-1 1.5-1 1.5-.45 1.5-1 1.211-1 2.691-1c2.428 0 2.52-.13.946-1.28-2.013-1.47-1.189-5.15.968-4.32 1.116.43 1.109-.12-.043-3.19-.764-2.04-1.637-6.11-1.938-9.04-.674-6.55-6.21-18.21-11.374-23.96-1.237-1.38-2.25-2.81-2.25-3.19 0-.37-1.125-1.28-2.5-2.02s-2.5-1.85-2.5-2.49c0-.63-1.687-2.11-3.75-3.3-2.062-1.19-5.254-3.5-7.092-5.15-1.838-1.64-4.2-3.26-5.25-3.59-1.049-.33-1.908-1.27-1.908-2.08 0-2.14 4.597-10.46 5.358-9.7.353.35.642-.56.642-2.02 0-1.47.382-2.67.848-2.67.77 0 3.138-4.83 4.536-9.25.304-.96 1.234-1.75 2.066-1.75.843 0 1.767-1.22 2.089-2.75.318-1.51 1.193-5 1.945-7.75s1.667-6.8 2.033-9c.367-2.2 1.109-4.27 1.649-4.6.98-.61-1.589-3.9-3.042-3.9-.403 0-3.501 1.95-6.885 4.33Zm-314.239.67c-2.971 2.8-5.131 4-7.189 4-3.294 0-6.811 1.57-6.811 3.03 0 .54.648.97 1.441.97s1.716.44 2.051.99c.604.97-.097 2.1-3.992 6.42-1.1 1.22-2.59 3.31-3.311 4.65-.722 1.34-2.415 3.79-3.764 5.44-2.063 2.52-2.614 2.76-3.469 1.5-.764-1.13-.866-.85-.409 1.12.427 1.85-.257 4.22-2.316 8-4.903 9.02-6.698 11.87-7.481 11.87-.412.01-.75 1.12-.75 2.48 0 1.36-1.056 4.86-2.347 7.78s-2.682 7.09-3.09 9.28c-.408 2.18-1.112 4.42-1.565 4.97-1.219 1.48-1.902 19.23-.962 25 .792 4.86 2.182 8.43 5.977 15.36 2.088 3.81 6.942 7.43 12.031 8.99 1.901.57 6.118 1.97 9.37 3.1 4.214 1.47 8.24 2.03 14 1.96 13.678-.15 15.586-.29 15.586-1.11 0-.44.682-.8 1.515-.8.833 0 3.907-1.35 6.831-3 2.924-1.65 6.067-3 6.985-3 .918 0 1.669-.44 1.669-.97s.675-.71 1.5-.39c.825.31 1.5.08 1.5-.53s.585-1.11 1.301-1.11c2.504 0 6.613-2.52 7.585-4.65.539-1.18 2.608-2.69 4.597-3.34 1.989-.66 4.79-2.29 6.224-3.61 1.433-1.33 2.815-2.21 3.069-1.96.549.55 3.224-1.97 3.224-3.04 0-.41.748-1.57 1.661-2.58 2.441-2.7 4.578-6.57 7.92-14.35 2.114-4.92 1.668-31.95-.577-34.97-.409-.55-1.054-2.8-1.433-5s-1.527-6.48-2.549-9.5c-1.023-3.03-2.143-6.85-2.489-8.5-.667-3.18-4.725-8.5-6.485-8.5-.576 0-1.048-.37-1.048-.83 0-.91-1.245-1.56-10.983-5.72-6.786-2.9-18.512-5.58-21.671-4.94-1.015.2-4.257.6-7.204.89l-5.359.53.489-3.21c.598-3.94-.721-6.72-3.184-6.72-1.012 0-3.752 1.8-6.088 4Zm11.055 16.4c2.505.76 6.105 2.23 8 3.25 4.95 2.68 14.729 13.09 15.472 16.47.348 1.58.975 2.88 1.394 2.88 1.73 0 3.166 7.96 2.13 11.81-.566 2.1-1.434 6.49-1.93 9.75-1.377 9.06-4.257 15.44-6.97 15.44-.546 0-2.781 1.77-4.967 3.93-2.529 2.51-5.315 4.19-7.659 4.63-2.027.38-3.922 1.31-4.212 2.07-.29.75-1.154 1.37-1.92 1.37s-1.393.35-1.393.78c0 .71-1.82 1.3-13.116 4.27-6.049 1.59-15.704 1.18-18.296-.78-2.2-1.66-2.236-1.92-.95-6.75.736-2.76 1.344-6.05 1.35-7.3.007-1.26.725-2.56 1.596-2.89.939-.36 1.168-.87.562-1.24-1.448-.9 1.717-10.09 3.473-10.09.759 0 1.381-.48 1.381-1.06 0-.58-.45-.78-1-.44s-1 .14-1-.44c0-.58.4-1.06.889-1.06.488 0 1.166-1.46 1.505-3.25.339-1.79 1.273-4.51 2.074-6.04.801-1.54 1.746-4.33 2.099-6.22.353-1.88 1.27-3.94 2.038-4.58.767-.63 1.395-1.57 1.395-2.09 0-.51 1.407-4.02 3.126-7.79 2.13-4.68 3.564-6.7 4.5-6.34.952.36 1.374-.29 1.374-2.12 0-2.55 2.57-7.58 3.865-7.56.349.01 2.685.63 5.19 1.39Zm250.7 15.1c.263 1.37.813 2.5 1.223 2.5.41 0 .53-1.13.267-2.5-.263-1.38-.813-2.5-1.223-2.5-.41 0-.53 1.12-.267 2.5Zm-122.676 4.08c.048 1.17.285 1.4.604.61.289-.72.253-1.59-.079-1.92-.332-.33-.568.26-.525 1.31Zm-143 4c.048 1.17.285 1.4.604.61.289-.72.253-1.59-.079-1.92-.332-.33-.568.26-.525 1.31Zm40 4c.048 1.17.285 1.4.604.61.289-.72.253-1.59-.079-1.92-.332-.33-.568.26-.525 1.31Zm267.921 4.48c0 .58.45.78 1 .44s1-.82 1-1.06c0-.24-.45-.44-1-.44s-1 .48-1 1.06Zm-386.914.44c.104 1.89 1.77 5.08 1.828 3.5.031-.83-.381-2.18-.914-3-.533-.83-.945-1.05-.914-.5Zm150.914 37.5c0 .55.45 1 1 1s1-.45 1-1-.45-1-1-1-1 .45-1 1Zm46.158 2c0 1.37.227 1.94.504 1.25.278-.69.278-1.81 0-2.5-.277-.69-.504-.13-.504 1.25Zm225.842.5c0 .82.45 1.5 1 1.5s1-.68 1-1.5c0-.83-.45-1.5-1-1.5s-1 .67-1 1.5Zm3.183 8.72c-.65.65-1.183 1.57-1.183 2.05 0 .48.729.14 1.619-.75.891-.89 1.423-1.81 1.183-2.05-.239-.24-.968.1-1.619.75Zm-56.988 14.28c.02 1.65.244 2.2.498 1.23.254-.97.237-2.32-.037-3-.274-.68-.481.12-.461 1.77Zm38.618 7.18c.721.29 1.584.26 1.916-.08.332-.33-.258-.56-1.312-.52-1.165.05-1.402.28-.604.6Zm-121.813 2.32c0 .55.477 1 1.059 1s.781-.45.441-1-.816-1-1.059-1-.441.45-.441 1Zm63.813 16.68c.721.29 1.584.26 1.916-.08.332-.33-.258-.56-1.312-.52-1.165.05-1.402.28-.604.6Z" clip-rule="evenodd"/>
</svg>
