<svg xmlns="http://www.w3.org/2000/svg" width="316" height="167" fill="none">
  <path fill="#000" fill-rule="evenodd" d="M123.065.392c-.728.329-2.288.618-3.467.644-2.615.056-7.749 1.249-10.438 2.423-1.092.478-3.774 1.378-5.959 2-2.185.622-4.569 1.647-5.297 2.276-.728.63-2.605 1.788-4.171 2.574-1.565.786-3.025 1.938-3.243 2.558-.218.621-1.026 2.023-1.794 3.116-4.25 6.04-6.298 12.194-6.934 20.833l-.412 5.601-15.229.192c-8.376.106-16.123.359-17.216.562-4.922.916-18.031 1.886-26.677 1.974-6.177.063-9.728.363-10.23.865-.423.423-1.28.769-1.908.769-1.318 0-2.249 3.174-1.564 5.333.417 1.315.737 1.366 5.844.936 2.97-.25 7.189-.538 9.374-.64 2.185-.102 6.655-.503 9.932-.89 7.262-.86 32.624-2.006 57.606-2.606 42.029-1.009 101.91.086 120.179 2.198a557.8 557.8 0 0 0 16.554 1.61c8.403.665 15.533 1.557 21.519 2.692 1.821.346 7.144 1.219 11.829 1.94 4.685.72 8.856 1.578 9.27 1.904 1.314 1.038 7.568 2.224 9.156 1.737 2.797-.859 3.179-1.532 2.018-3.555-1.539-2.682-5.862-4.702-11.493-5.37-6.407-.759-19.658-3.029-25.084-4.295-2.367-.554-5.967-1.003-8-1-2.034.003-5.311-.3-7.284-.675-3.517-.666-19.254-2.303-27.755-2.886-15.897-1.09-49.202-1.738-79.622-1.549l-35.59.222.01-2.023c.011-2.372 2.147-11.082 3.42-13.945 4.387-9.874 13.279-14.63 34.106-18.246 10.945-1.9 26.226 1.833 32.656 7.976 4.552 4.35 6.486 8.13 7.375 14.414.571 4.043 1.143 5.764 2.342 7.058.873.942 1.856 1.712 2.184 1.712.329 0 1.005-1.416 1.502-3.146.758-2.633.763-3.954.031-8.112-.481-2.732-1.169-5.484-1.529-6.117-.359-.632-.654-1.926-.654-2.875 0-1.283-1.411-3.119-5.512-7.175-4.466-4.417-6.129-5.622-8.773-6.358-1.794-.5-4.156-1.432-5.248-2.072-1.093-.64-3.775-1.507-5.96-1.927-5.172-.993-18.165-1.423-19.864-.657ZM.523 42.355c-.602 1.57-.717 8.681-.172 10.68.292 1.073.684 3.219.87 4.768.481 4.01 2.848 16.025 3.301 16.758.21.34.826 3.987 1.37 8.106.544 4.12 1.115 8.235 1.269 9.145.735 4.357 2.472 17.308 3.616 26.988.334 2.823.943 7.069 1.352 9.437.41 2.368.998 6.838 1.308 9.934.497 4.968 2.687 16.643 3.775 20.129.538 1.725 4.029 5.037 5.308 5.037.8 0 .95-.429.635-1.821-1.718-7.596-4.322-23.664-5.045-31.127l-1.316-13.576c-.364-3.734-1.123-9.769-1.687-13.411a8942.66 8942.66 0 0 1-2.34-15.232c-.724-4.735-1.61-10.1-1.971-11.92-2.587-13.055-4.309-23.274-4.901-29.097-.22-2.161-.725-4.322-1.123-4.801-.937-1.13-3.816-1.127-4.249.003ZM267.088 67.63c-.947 1.142-.827 2.176 1.665 14.323 1.017 4.959 1.684 9.448 1.481 9.976-.297.775-1.236.867-4.906.478-2.495-.265-8.767-.562-13.937-.66-5.169-.1-9.29-.356-9.157-.571.134-.216-2.639-.385-6.161-.375-3.521.01-23.387-.126-44.145-.302l-37.742-.317-1.649-1.504c-2.028-1.848-3.001-1.887-4.464-.178-.75.876-1.953 1.325-3.555 1.325-2.116 0-2.528-.272-3.271-2.153-1.114-2.822-3.222-5.132-4.684-5.132-1.518 0-1.963.788-2.35 4.165-.175 1.523-.669 2.993-1.098 3.265-.429.273-5.696.518-11.705.545-10.002.045-20.602.304-41.053 1.007-4.188.144-13.425.582-20.526.974-7.102.392-18.64.612-25.643.49-10.941-.192-12.793-.081-13.179.791-.733 1.66-.237 3.566 1.35 5.194 1.414 1.447 1.935 1.523 9.716 1.432 11.556-.136 25.675-.577 28.418-.887 1.274-.145 7.2-.455 13.17-.69 5.968-.235 11.069-.562 11.336-.727.267-.165 14.392-.432 31.39-.595l30.905-.294 3.63 1.605c4.488 1.985 4.532 1.985 5.473-.08l.768-1.688 32.611.364c31.153.347 39.909.556 57.772 1.381 4.37.202 10.925.493 14.567.646 3.642.153 7.74.463 9.108.689 2.431.402 4.466 2.279 4.466 4.12 0 .781 1.676 4.646 3.223 7.432.304.547 2.607 5.141 5.12 10.21 2.512 5.069 5.36 10.097 6.329 11.174.968 1.077 2.309 2.978 2.98 4.223 1.213 2.256 3.794 3.563 4.85 2.458 1.022-1.071-.529-7.366-2.983-12.109-1.337-2.583-2.676-4.849-2.977-5.036-.301-.185-1.067-1.75-1.704-3.476s-1.499-3.586-1.916-4.132c-1.003-1.314-6.466-13.303-6.187-13.577.376-.371 19.143.919 25.627 1.761 5.83.758 6.264.731 7.118-.438 2.136-2.92-.087-6.902-3.916-7.014-1.169-.035-4.957-.332-8.417-.661-3.459-.33-9.949-.843-14.421-1.14-5.661-.377-8.391-.83-8.987-1.492-1.786-1.984-4.351-10.929-6.117-21.33-.634-3.738-4.303-5.784-6.223-3.47Zm-106.612 85.774c-11.836.183-21.966.536-22.513.783-1.303.593-16.204 1.463-22.439 1.311-2.691-.065-5.224.146-5.628.468-.803.641-17.794 1.469-38.147 1.86-7.101.136-14.103.356-15.56.489-1.457.133-5.461.37-8.9.526-4 .183-6.345.568-6.512 1.07-.144.432-.534.616-.867.41-.717-.443-.804 3.682-.1 4.737.83 1.242 3.453 2.339 4.309 1.801 1.504-.947 8.664-1.579 23.657-2.089 8.524-.29 15.24-.256 15.697.08.44.322 1.148.371 1.574.108.65-.403 13.454-1.272 28.417-1.93 2.003-.088 6.92-.415 10.925-.726 4.006-.312 8.103-.485 9.105-.386 1.002.099 1.822-.062 1.823-.359.004-.782 13.392-1.115 42.375-1.052 114.731.249 111.041.29 114.054-1.257 1.339-.688 1.545-3.392.331-4.351-.513-.406-17.805-.824-45.523-1.102-24.582-.247-49.163-.51-54.626-.586-5.463-.076-19.616.012-31.452.195Z" clip-rule="evenodd"/>
  <path fill="#F5F2F2" fill-rule="evenodd" d="M123.065.392c-.728.329-2.288.618-3.467.644-2.615.056-7.749 1.249-10.438 2.423-1.092.478-3.774 1.378-5.959 2-2.185.622-4.569 1.647-5.297 2.276-.728.63-2.605 1.788-4.171 2.574-1.565.786-3.025 1.938-3.243 2.558-.218.621-1.026 2.023-1.794 3.116-4.25 6.04-6.298 12.194-6.934 20.833l-.412 5.601-15.229.192c-8.376.106-16.123.359-17.216.562-4.922.916-18.031 1.886-26.677 1.974-6.177.063-9.728.363-10.23.865-.423.423-1.28.769-1.908.769-1.318 0-2.249 3.174-1.564 5.333.417 1.315.737 1.366 5.844.936 2.97-.25 7.189-.538 9.374-.64 2.185-.102 6.655-.503 9.932-.89 7.262-.86 32.624-2.006 57.606-2.606 42.029-1.009 101.91.086 120.179 2.198a557.8 557.8 0 0 0 16.554 1.61c8.403.665 15.533 1.557 21.519 2.692 1.821.346 7.144 1.219 11.829 1.94 4.685.72 8.856 1.578 9.27 1.904 1.314 1.038 7.568 2.224 9.156 1.737 2.797-.859 3.179-1.532 2.018-3.555-1.539-2.682-5.862-4.702-11.493-5.37-6.407-.759-19.658-3.029-25.084-4.295-2.367-.554-5.967-1.003-8-1-2.034.003-5.311-.3-7.284-.675-3.517-.666-19.254-2.303-27.755-2.886-15.897-1.09-49.202-1.738-79.622-1.549l-35.59.222.01-2.023c.011-2.372 2.147-11.082 3.42-13.945 4.387-9.874 13.279-14.63 34.106-18.246 10.945-1.9 26.226 1.833 32.656 7.976 4.552 4.35 6.486 8.13 7.375 14.414.571 4.043 1.143 5.764 2.342 7.058.873.942 1.856 1.712 2.184 1.712.329 0 1.005-1.416 1.502-3.146.758-2.633.763-3.954.031-8.112-.481-2.732-1.169-5.484-1.529-6.117-.359-.632-.654-1.926-.654-2.875 0-1.283-1.411-3.119-5.512-7.175-4.466-4.417-6.129-5.622-8.773-6.358-1.794-.5-4.156-1.432-5.248-2.072-1.093-.64-3.775-1.507-5.96-1.927-5.172-.993-18.165-1.423-19.864-.657ZM.523 42.355c-.602 1.57-.717 8.681-.172 10.68.292 1.073.684 3.219.87 4.768.481 4.01 2.848 16.025 3.301 16.758.21.34.826 3.987 1.37 8.106.544 4.12 1.115 8.235 1.269 9.145.735 4.357 2.472 17.308 3.616 26.988.334 2.823.943 7.069 1.352 9.437.41 2.368.998 6.838 1.308 9.934.497 4.968 2.687 16.643 3.775 20.129.538 1.725 4.029 5.037 5.308 5.037.8 0 .95-.429.635-1.821-1.718-7.596-4.322-23.664-5.045-31.127l-1.316-13.576c-.364-3.734-1.123-9.769-1.687-13.411a8942.66 8942.66 0 0 1-2.34-15.232c-.724-4.735-1.61-10.1-1.971-11.92-2.587-13.055-4.309-23.274-4.901-29.097-.22-2.161-.725-4.322-1.123-4.801-.937-1.13-3.816-1.127-4.249.003ZM267.088 67.63c-.947 1.142-.827 2.176 1.665 14.323 1.017 4.959 1.684 9.448 1.481 9.976-.297.775-1.236.867-4.906.478-2.495-.265-8.767-.562-13.937-.66-5.169-.1-9.29-.356-9.157-.571.134-.216-2.639-.385-6.161-.375-3.521.01-23.387-.126-44.145-.302l-37.742-.317-1.649-1.504c-2.028-1.848-3.001-1.887-4.464-.178-.75.876-1.953 1.325-3.555 1.325-2.116 0-2.528-.272-3.271-2.153-1.114-2.822-3.222-5.132-4.684-5.132-1.518 0-1.963.788-2.35 4.165-.175 1.523-.669 2.993-1.098 3.265-.429.273-5.696.518-11.705.545-10.002.045-20.602.304-41.053 1.007-4.188.144-13.425.582-20.526.974-7.102.392-18.64.612-25.643.49-10.941-.192-12.793-.081-13.179.791-.733 1.66-.237 3.566 1.35 5.194 1.414 1.447 1.935 1.523 9.716 1.432 11.556-.136 25.675-.577 28.418-.887 1.274-.145 7.2-.455 13.17-.69 5.968-.235 11.069-.562 11.336-.727.267-.165 14.392-.432 31.39-.595l30.905-.294 3.63 1.605c4.488 1.985 4.532 1.985 5.473-.08l.768-1.688 32.611.364c31.153.347 39.909.556 57.772 1.381 4.37.202 10.925.493 14.567.646 3.642.153 7.74.463 9.108.689 2.431.402 4.466 2.279 4.466 4.12 0 .781 1.676 4.646 3.223 7.432.304.547 2.607 5.141 5.12 10.21 2.512 5.069 5.36 10.097 6.329 11.174.968 1.077 2.309 2.978 2.98 4.223 1.213 2.256 3.794 3.563 4.85 2.458 1.022-1.071-.529-7.366-2.983-12.109-1.337-2.583-2.676-4.849-2.977-5.036-.301-.185-1.067-1.75-1.704-3.476s-1.499-3.586-1.916-4.132c-1.003-1.314-6.466-13.303-6.187-13.577.376-.371 19.143.919 25.627 1.761 5.83.758 6.264.731 7.118-.438 2.136-2.92-.087-6.902-3.916-7.014-1.169-.035-4.957-.332-8.417-.661-3.459-.33-9.949-.843-14.421-1.14-5.661-.377-8.391-.83-8.987-1.492-1.786-1.984-4.351-10.929-6.117-21.33-.634-3.738-4.303-5.784-6.223-3.47Zm-106.612 85.774c-11.836.183-21.966.536-22.513.783-1.303.593-16.204 1.463-22.439 1.311-2.691-.065-5.224.146-5.628.468-.803.641-17.794 1.469-38.147 1.86-7.101.136-14.103.356-15.56.489-1.457.133-5.461.37-8.9.526-4 .183-6.345.568-6.512 1.07-.144.432-.534.616-.867.41-.717-.443-.804 3.682-.1 4.737.83 1.242 3.453 2.339 4.309 1.801 1.504-.947 8.664-1.579 23.657-2.089 8.524-.29 15.24-.256 15.697.08.44.322 1.148.371 1.574.108.65-.403 13.454-1.272 28.417-1.93 2.003-.088 6.92-.415 10.925-.726 4.006-.312 8.103-.485 9.105-.386 1.002.099 1.822-.062 1.823-.359.004-.782 13.392-1.115 42.375-1.052 114.731.249 111.041.29 114.054-1.257 1.339-.688 1.545-3.392.331-4.351-.513-.406-17.805-.824-45.523-1.102-24.582-.247-49.163-.51-54.626-.586-5.463-.076-19.616.012-31.452.195Z" clip-rule="evenodd"/>
</svg>
