<svg width="480" height="480" viewBox="0 0 480 480" fill="none" xmlns="http://www.w3.org/2000/svg">
<path d="M413.648 74.336L341.664 2.352C340.216 0.896 338.216 0 336 0H104C81.944 0 64 17.944 64 40V384C64 406.056 81.944 424 104 424H192V480H208V424H328C332.416 424 336 420.424 336 416V376C336 361.12 346.216 348.568 360 345.016V416V480H376V424C398.056 424 416 406.056 416 384V80C416 77.784 415.104 75.784 413.648 74.336ZM344 27.312L388.688 72H344V27.312ZM400 384C400 397.232 389.232 408 376 408V336C376 331.576 372.416 328 368 328C341.528 328 320 349.528 320 376V408H104C90.768 408 80 397.232 80 384V40C80 26.768 90.768 16 104 16H328V80C328 84.424 331.584 88 336 88H400V384Z" fill="white"/>
<path d="M224 48H112C107.584 48 104 51.576 104 56V168C104 172.424 107.584 176 112 176H144H192H224C228.416 176 232 172.424 232 168V56C232 51.576 228.416 48 224 48ZM184 160H152V144C152 135.176 159.176 128 168 128C176.824 128 184 135.176 184 144V160ZM160 104C160 99.584 163.592 96 168 96C172.408 96 176 99.584 176 104C176 108.416 172.408 112 168 112C163.592 112 160 108.416 160 104ZM216 160H200V144C200 133.512 194.864 124.28 187.048 118.44C190.112 114.408 192 109.44 192 104C192 90.768 181.232 80 168 80C154.768 80 144 90.768 144 104C144 109.44 145.888 114.408 148.952 118.44C141.136 124.28 136 133.512 136 144V160H120V64H216V160Z" fill="white"/>
<path d="M288 72H248V88H288V72Z" fill="white"/>
<path d="M296 104H248V120H296V104Z" fill="white"/>
<path d="M352 104H312V120H352V104Z" fill="white"/>
<path d="M352 136H248V152H352V136Z" fill="white"/>
<path d="M208 200H144V216H208V200Z" fill="white"/>
<path d="M272 200H224V216H272V200Z" fill="white"/>
<path d="M368 200H288V216H368V200Z" fill="white"/>
<path d="M176 232H112V248H176V232Z" fill="white"/>
<path d="M320 232H192V248H320V232Z" fill="white"/>
<path d="M368 232H336V248H368V232Z" fill="white"/>
<path d="M144 264H112V280H144V264Z" fill="white"/>
<path d="M256 264H160V280H256V264Z" fill="white"/>
<path d="M368 264H272V280H368V264Z" fill="white"/>
<path d="M144 296H112V312H144V296Z" fill="white"/>
<path d="M256 296H160V312H256V296Z" fill="white"/>
<path d="M368 296H272V312H368V296Z" fill="white"/>
<path d="M184 328H112V344H184V328Z" fill="white"/>
<path d="M312 328H200V344H312V328Z" fill="white"/>
<path d="M144 360H112V376H144V360Z" fill="white"/>
<path d="M296 360H160V376H296V360Z" fill="white"/>
</svg>
