<svg xmlns="http://www.w3.org/2000/svg" width="338" height="296" fill="none">
  <path fill="#fff" d="m5.97 141.967 77.882 29.068 30.145 96.946c1.929 6.209 9.522 8.504 14.561 4.384l43.413-35.391a12.952 12.952 0 0 1 15.788-.441l78.301 56.849c5.391 3.918 13.029.964 14.381-5.55l57.36-275.91c1.475-7.117-5.517-13.053-12.292-10.433L5.879 124.793c-7.888 3.042-7.82 14.209.091 17.174Zm103.169 13.594 152.21-93.746c2.736-1.68 5.55 2.019 3.201 4.198L138.933 182.78a26.04 26.04 0 0 0-8.071 15.581l-4.279 31.711c-.566 4.234-6.514 4.654-7.682.557l-16.458-57.827c-1.885-6.595.862-13.64 6.696-17.241Z"/>
</svg>
