<svg width="310" height="310" viewBox="0 0 310 310" fill="none" xmlns="http://www.w3.org/2000/svg">
<g clip-path="url(#clip0_4_10)">
<path d="M72.16 99.73H9.927C7.165 99.73 4.927 101.969 4.927 104.73V304.658C4.927 307.42 7.165 309.658 9.927 309.658H72.16C74.922 309.658 77.16 307.42 77.16 304.658V104.73C77.16 101.969 74.922 99.73 72.16 99.73Z" fill="white"/>
<path d="M41.066 0.341003C18.422 0.341003 0 18.743 0 41.362C0 63.991 18.422 82.4 41.066 82.4C63.692 82.4 82.099 63.99 82.099 41.362C82.1 18.743 63.692 0.341003 41.066 0.341003Z" fill="white"/>
<path d="M230.454 94.761C205.459 94.761 186.982 105.506 175.775 117.715V104.73C175.775 101.969 173.537 99.73 170.775 99.73H111.176C108.414 99.73 106.176 101.969 106.176 104.73V304.658C106.176 307.42 108.414 309.658 111.176 309.658H173.273C176.035 309.658 178.273 307.42 178.273 304.658V205.74C178.273 172.407 187.327 159.421 210.563 159.421C235.869 159.421 237.88 180.239 237.88 207.455V304.659C237.88 307.421 240.118 309.659 242.88 309.659H305C307.762 309.659 310 307.421 310 304.659V194.995C310 145.43 300.549 94.761 230.454 94.761Z" fill="white"/>
</g>
<defs>
<clipPath id="clip0_4_10">
<rect width="310" height="310" fill="white"/>
</clipPath>
</defs>
</svg>
