<svg width="495" height="375" viewBox="0 0 495 375" fill="none" xmlns="http://www.w3.org/2000/svg">
<path d="M395.225 217.325C388.425 217.325 381.725 214.725 376.525 209.525C305.125 138.225 189.125 138.225 117.725 209.525C107.425 219.825 90.625 219.825 80.325 209.525C70.025 199.225 70.025 182.425 80.325 172.125C172.325 80.125 321.925 80.125 413.925 172.125C424.225 182.425 424.225 199.225 413.925 209.525C408.725 214.725 401.925 217.325 395.225 217.325Z" fill="white"/>
<path d="M323.625 288.825C316.825 288.825 310.125 286.225 304.925 281.025C289.525 265.625 268.925 257.125 247.125 257.125C225.325 257.125 204.725 265.625 189.325 281.025C179.025 291.325 162.225 291.325 151.925 281.025C141.625 270.725 141.625 253.925 151.925 243.625C177.325 218.225 211.125 204.225 247.125 204.225C283.125 204.225 316.925 218.225 342.325 243.725C352.625 254.025 352.625 270.825 342.325 281.125C337.225 286.225 330.425 288.825 323.625 288.825Z" fill="white"/>
<path d="M247.125 374.225C266.621 374.225 282.425 358.421 282.425 338.925C282.425 319.429 266.621 303.625 247.125 303.625C227.629 303.625 211.825 319.429 211.825 338.925C211.825 358.421 227.629 374.225 247.125 374.225Z" fill="white"/>
<path d="M467.925 144.625C461.125 144.625 454.425 142.025 449.225 136.825C337.725 25.425 156.525 25.425 45.125 136.825C34.825 147.125 18.025 147.125 7.725 136.825C-2.575 126.525 -2.575 109.725 7.725 99.425C71.725 35.425 156.725 0.225006 247.225 0.225006C337.725 0.225006 422.725 35.425 486.725 99.425C497.025 109.725 497.025 126.525 486.725 136.825C481.425 142.025 474.625 144.625 467.925 144.625Z" fill="white"/>
</svg>
