<svg id="visual" viewBox="0 0 900 600" width="900" height="600" xmlns="http://www.w3.org/2000/svg" xmlns:xlink="http://www.w3.org/1999/xlink" version="1.1"><rect x="0" y="0" width="900" height="600" fill="#001220"></rect><path d="M0 64L6.5 71.8C13 79.7 26 95.3 39 93.7C52 92 65 73 78 63.2C91 53.3 104 52.7 117.2 68.3C130.3 84 143.7 116 156.8 121.3C170 126.7 183 105.3 196 95.3C209 85.3 222 86.7 235 95.3C248 104 261 120 274 128.7C287 137.3 300 138.7 313 136C326 133.3 339 126.7 352 123C365 119.3 378 118.7 391 107.2C404 95.7 417 73.3 430.2 76.3C443.3 79.3 456.7 107.7 469.8 110.2C483 112.7 496 89.3 509 74.2C522 59 535 52 548 58.2C561 64.3 574 83.7 587 87.7C600 91.7 613 80.3 626 69.7C639 59 652 49 665 44C678 39 691 39 704 42C717 45 730 51 743.2 56.5C756.3 62 769.7 67 782.8 75.7C796 84.3 809 96.7 822 99.2C835 101.7 848 94.3 861 99.7C874 105 887 123 893.5 132L900 141L900 0L893.5 0C887 0 874 0 861 0C848 0 835 0 822 0C809 0 796 0 782.8 0C769.7 0 756.3 0 743.2 0C730 0 717 0 704 0C691 0 678 0 665 0C652 0 639 0 626 0C613 0 600 0 587 0C574 0 561 0 548 0C535 0 522 0 509 0C496 0 483 0 469.8 0C456.7 0 443.3 0 430.2 0C417 0 404 0 391 0C378 0 365 0 352 0C339 0 326 0 313 0C300 0 287 0 274 0C261 0 248 0 235 0C222 0 209 0 196 0C183 0 170 0 156.8 0C143.7 0 130.3 0 117.2 0C104 0 91 0 78 0C65 0 52 0 39 0C26 0 13 0 6.5 0L0 0Z" fill="#fa7268"></path><path d="M0 41L6.5 43.5C13 46 26 51 39 53.7C52 56.3 65 56.7 78 62.2C91 67.7 104 78.3 117.2 73.8C130.3 69.3 143.7 49.7 156.8 38.5C170 27.3 183 24.7 196 24.8C209 25 222 28 235 32.8C248 37.7 261 44.3 274 44.3C287 44.3 300 37.7 313 36.5C326 35.3 339 39.7 352 39.8C365 40 378 36 391 37C404 38 417 44 430.2 45.5C443.3 47 456.7 44 469.8 44.7C483 45.3 496 49.7 509 57.2C522 64.7 535 75.3 548 78C561 80.7 574 75.3 587 65.2C600 55 613 40 626 37.2C639 34.3 652 43.7 665 55.7C678 67.7 691 82.3 704 87.7C717 93 730 89 743.2 79.3C756.3 69.7 769.7 54.3 782.8 47.2C796 40 809 41 822 42.8C835 44.7 848 47.3 861 48.3C874 49.3 887 48.7 893.5 48.3L900 48L900 0L893.5 0C887 0 874 0 861 0C848 0 835 0 822 0C809 0 796 0 782.8 0C769.7 0 756.3 0 743.2 0C730 0 717 0 704 0C691 0 678 0 665 0C652 0 639 0 626 0C613 0 600 0 587 0C574 0 561 0 548 0C535 0 522 0 509 0C496 0 483 0 469.8 0C456.7 0 443.3 0 430.2 0C417 0 404 0 391 0C378 0 365 0 352 0C339 0 326 0 313 0C300 0 287 0 274 0C261 0 248 0 235 0C222 0 209 0 196 0C183 0 170 0 156.8 0C143.7 0 130.3 0 117.2 0C104 0 91 0 78 0C65 0 52 0 39 0C26 0 13 0 6.5 0L0 0Z" fill="#c62368"></path></svg>