<svg xmlns="http://www.w3.org/2000/svg" width="1440" height="762" fill="none">
  <path fill="#000" fill-rule="evenodd" d="M1128.66.39c-2.2.64-4.53 3.115-5.17 5.477-.35 1.297-.48 9.898-.38 25.099.14 22.773.16 23.153 1.23 24.876.6.963 1.84 2.2 2.75 2.75 1.64.99 2.55 1 85.91 1s84.27-.01 85.91-1c.91-.55 2.15-1.787 2.75-2.75 1.08-1.735 1.09-1.947 1.09-26 0-24.052-.01-24.264-1.09-26-.6-.962-1.84-2.2-2.75-2.75-1.64-.988-2.62-1-85.16-1.083-50.1-.05-84.14.103-85.09.381Zm-995.91 2.9c-3.987 1.846-6.25 5.542-6.25 10.208 0 6.89 6.013 11.485 13.251 10.127 2.27-.426 5.609-3.38 6.816-6.033C150.523 8.908 141.28-.659 132.75 3.29Zm6.357.074c2.723.756 2.684 1.301-.099 1.364-3.913.09-6.682 2.017-8.234 5.73-1.096 2.623-.963 4.842.459 7.65.678 1.34 1.147 2.521 1.042 2.626-.105.106-1.074-.691-2.154-1.77-5.867-5.868-2.036-15.519 6.379-16.067.412-.027 1.585.183 2.607.467Zm27.268 1.81c.344.138.907.138 1.25 0 .344-.14.063-.253-.625-.253s-.968.114-.625.252Zm-10.335 5.46c.024.582.142.7.302.302.144-.36.126-.792-.04-.958-.166-.166-.284.129-.262.656Zm3.539 1.708c0 .688.113.97.252.625.139-.343.139-.906 0-1.25-.139-.343-.252-.062-.252.625Zm-3.539 1.792c.024.582.142.7.302.302.144-.36.126-.792-.04-.958-.166-.166-.284.129-.262.656Zm3.539 1.208c0 .688.113.97.252.625.139-.343.139-.906 0-1.25-.139-.343-.252-.062-.252.625Zm.421 1.862c0 .29.463 1.059 1.029 1.708l1.03 1.18-.878-1.5C160.025 16.618 160 16.59 160 17.204Zm-1.25 2.138c.498.55 1.017 1 1.155 1 .137 0-.157-.45-.655-1s-1.017-1-1.155-1c-.137 0 .157.45.655 1Zm1073.77 6.375.01 3.375 1.21-1.375c.82-.934 1.7-1.375 2.74-1.375 1.88 0 1.9.339.08 2.512l-1.44 1.724 1.44 1.746c1.89 2.29 1.84 3.018-.2 3.018-1.32 0-1.84-.32-2.63-1.625l-.98-1.625-.16 1.625c-.13 1.43-.33 1.625-1.62 1.625h-1.47v-6.215c0-6.747-.21-6.201 2.62-6.717.21-.037.39 1.45.4 3.307Zm9.37 1.907c.11 3.47.35 5.061.81 5.322.4.224.57.885.42 1.671-.22 1.119-.43 1.255-1.56.973-2.41-.606-2.56-1.015-2.56-7.022 0-4.964.11-5.68.88-5.878 1.69-.437 1.87.004 2.01 4.934ZM817 29.092c0 5.222.123 6.25.75 6.25.595 0 .75-.722.75-3.5v-3.5h1.446c1.735 0 2.054.666 2.054 4.291 0 2.075.175 2.71.75 2.71.595 0 .75-.72.75-3.465 0-4.024-.661-5.036-3.286-5.036-1.667 0-1.714-.055-1.714-2 0-1.444-.209-2-.75-2-.627 0-.75 1.028-.75 6.25Zm50 0c0 5.222.123 6.25.75 6.25.524 0 .75-.528.75-1.75 0-.962.169-1.75.375-1.75s1.003.788 1.771 1.75c1.33 1.666 2.854 2.33 2.854 1.243 0-.28-.774-1.348-1.72-2.375l-1.72-1.868 1.821-1.875c1.496-1.54 1.651-1.875.869-1.875-.524 0-1.695.72-2.601 1.598l-1.649 1.598V26.44c0-2.865-.153-3.598-.75-3.598-.627 0-.75 1.028-.75 6.25Zm8-.6c0 5.829.313 6.85 2.1 6.85 1.088 0 1.202-1.277.15-1.68-.601-.231-.75-1.335-.75-5.554 0-4.347-.131-5.266-.75-5.266-.623 0-.75.961-.75 5.65Zm169.83-5.316c-.18.183-.33 2.995-.33 6.25 0 5.583.06 5.916 1 5.916.82 0 1-.338 1.01-1.875l.02-1.875 1.74 1.875c1.61 1.726 3.23 2.46 3.23 1.459 0-.23-.77-1.298-1.71-2.375l-1.71-1.959 1.81-1.875c1.49-1.543 1.64-1.875.86-1.875-.52 0-1.69.72-2.6 1.598l-1.65 1.598V26.44c0-2.665-.17-3.598-.67-3.598-.36 0-.81.15-1 .334Zm175.35.416c.47 1.231-.21 2.25-1.5 2.25-.67 0-1.34-.337-1.5-.75-.47-1.23.21-2.25 1.5-2.25.67 0 1.34.338 1.5.75Zm-364.914.224c-.44.711.121 1.526 1.05 1.526.438 0 .689-.351.595-.833-.194-1.005-1.193-1.425-1.645-.693Zm147.574-.15c-.7.707-.3 1.676.7 1.676.7 0 .98-.271.87-.833-.18-.92-1.03-1.38-1.57-.844Zm172.83.665c.24.226.28.877.1 1.447-.29.904-.6 1-2.48.742-1.87-.256-2.26-.14-2.97.875-1.05 1.498-1.05 3.368.01 4.533 1.42 1.573 2.59 1.167 2.76-.96.15-1.716.29-1.876 1.66-1.876 1.5 0 1.5.004 1.5 2.964 0 2.866-.05 2.978-1.5 3.39-1.77.504-5.17.098-6.29-.752-1.31-.993-2.05-2.828-2.09-5.179-.04-2.708 1.26-4.667 3.68-5.536 1.7-.614 4.83-.419 5.62.352Zm29.5.014c.24.218.28.87.1 1.447-.29.912-.6 1.01-2.3.737-2.69-.43-2.57.528.24 1.85 2.52 1.183 3.42 2.885 2.67 5.08-.56 1.66-3.4 2.68-6.06 2.179-2.06-.387-2.38-.726-2-2.18.25-.948.53-1.027 2.73-.767 3.1.367 3.23-.43.33-1.906-2.53-1.282-2.86-1.71-2.87-3.74-.01-1.626 1.06-2.93 2.74-3.348 1.19-.296 3.83.09 4.42.648Zm-403.771-.235c-.322.322 1.214 7.699 2.06 9.894.884 2.295 2.057 1.5 3.468-2.354l1.261-3.443 1.276 3.568c1.702 4.76 2.629 4.793 4.015.14 1.527-5.128 1.848-8.073.88-8.073-.75 0-1.119 1.15-2.125 6.62-.189 1.03-.526 1.759-.75 1.62-.223-.138-.896-1.723-1.495-3.522-1.371-4.121-2.272-4.113-3.605.032-.531 1.65-1.151 3.193-1.378 3.429-.227.235-.673-.89-.991-2.5-.984-4.985-1.655-6.372-2.616-5.411Zm36.713.51c-.715.501-1.112 1.297-1.112 2.23 0 1.64.414 2.106 3.25 3.67 1.282.708 2 1.457 2 2.088 0 .848-.346.984-2.5.983-2.5 0-3.726.639-2.599 1.355.879.559 4.761.478 5.882-.121.652-.35.964-1.043.959-2.125-.01-2.09-.326-2.512-2.833-3.783-2.521-1.278-2.951-1.871-2.098-2.899.46-.554 1.195-.706 2.543-.525 1.351.181 1.896.068 1.896-.395 0-1.396-3.619-1.717-5.388-.477Zm57.039-.382c-.94.598-.05 1.354 1.592 1.354 1.892 0 2.217 1.258.793 3.067-1.095 1.393-1.388 3.183-.52 3.183.284 0 .659-.393.835-.875.176-.481.844-1.51 1.484-2.288 1.402-1.701 1.477-2.9.251-4.01-.948-.857-3.391-1.095-4.435-.43Zm71.193-.073c-.19.19-.344 2.781-.344 5.76 0 5.084.062 5.417 1 5.417.867 0 1-.333 1-2.5v-2.5h5v2.5c0 2.18.13 2.5 1.016 2.5.97 0 1.01-.257.875-5.625-.116-4.604-.277-5.625-.891-5.625-.54 0-.793.665-.903 2.375l-.152 2.375h-4.89l-.152-2.336c-.143-2.19-.77-3.13-1.559-2.34Zm223.656.927c0 1.056.23 1.25 1.5 1.25s1.5.193 1.5 1.263c0 1.003-.31 1.324-1.5 1.562-1.31.262-1.5.513-1.5 1.988 0 1.541.13 1.687 1.5 1.687 1.26 0 1.5.196 1.5 1.24 0 2.05-3.36 2.331-5.25.442-.56-.564-.75-1.931-.75-5.43 0-4.035.12-4.71.88-4.907 1.78-.466 2.12-.32 2.12.905Zm-183.42 4.27c.19 5.517.43 5.96 3.3 5.973 1.11.005 1.62-.228 1.62-.743 0-.493-.49-.75-1.44-.75-1.21 0-1.48-.247-1.75-1.562-.67-3.376-.47-3.938 1.44-3.938 1.22 0 1.75-.226 1.75-.75s-.53-.75-1.75-.75c-1.53 0-1.75-.155-1.75-1.25 0-.81-.28-1.25-.8-1.25-.68 0-.77.688-.62 5.02Zm177.92-2.117c.79.633 1.14 1.491 1.18 2.875l.07 1.972-2.5.28-2.5.278 2.25.221c1.85.182 2.28.415 2.41 1.318.12.9-.16 1.154-1.59 1.422-3.62.68-6.32-1.258-6.32-4.533 0-3.975 4.07-6.205 7-3.833Zm29.77.325c.94.934 1.23 1.757 1.23 3.444 0 2.81-1.23 4.441-3.41 4.52-1.38.05-1.59.234-1.59 1.433 0 1.194-.2 1.375-1.5 1.375h-1.5v-5.666c0-3.117.15-5.817.33-6 .19-.184 1.43-.334 2.78-.334 1.92 0 2.69.26 3.66 1.228Zm5.73 3.272v4.5h-3v-9h3v4.5Zm8.25-3.995c.17.277.17.953 0 1.5-.24.739-.61.924-1.45.714-1.38-.348-2.44.784-2.21 2.379.13.935.51 1.182 2.03 1.307 1.61.133 1.88.328 1.88 1.366 0 1.54-1.76 2.053-4.23 1.237-2.13-.703-2.77-1.748-2.77-4.498 0-2.802 1.68-4.51 4.45-4.51 1.09 0 2.13.227 2.3.505Zm22.74.844c.68.863 1.01 1.897.91 2.875-.14 1.432-.3 1.545-2.65 1.823l-2.5.296 2.37.079c2.16.071 2.38.19 2.38 1.289 0 .938-.34 1.284-1.5 1.54-3.42.75-6.5-1.314-6.5-4.351 0-2.99 1.76-4.86 4.59-4.884 1.41-.012 2.08.297 2.9 1.333Zm8.26-.844c.17.277.18.913.03 1.412-.22.687-.69.864-1.91.727l-1.62-.182 1.87 1.027c3.22 1.77 3 5.162-.37 5.795-2.72.51-4.25-.065-4.25-1.6 0-1.161.16-1.274 1.52-1.074 1.75.257 2.49-.38.99-.857-2.42-.769-3.24-3.117-1.68-4.838.91-1.003 4.87-1.303 5.42-.41Zm-434.057 1.589c.176.876.881 2.82 1.567 4.319 1.378 3.01 1.096 4.087-1.071 4.087-.723 0-1.189.294-1.189.75 0 1.17 2.387.909 3.7-.404 1.028-1.028 3.8-8.12 3.8-9.722 0-.343-.322-.624-.716-.624-.733 0-.823.195-1.778 3.89-.304 1.177-.734 2.028-.956 1.891-.222-.137-.795-1.494-1.273-3.015-.558-1.772-1.145-2.766-1.636-2.766-.595 0-.695.357-.448 1.594ZM846 32.592c0 4.778.127 5.75.75 5.75.5 0 .75-.5.75-1.5 0-1.415.113-1.5 1.989-1.5 2.686 0 3.761-1.619 3.568-5.375-.101-1.977-1.774-3.125-4.557-3.125H846v5.75Zm9.5-1.5c0 3.445.142 4.25.75 4.25s.75-.805.75-4.25c0-3.444-.142-4.25-.75-4.25s-.75.806-.75 4.25ZM860.087 28c-1.543 1.643-1.49 4.79.106 6.29.881.827 1.668 1.079 3.01.962 2.378-.208 2.346-1.09-.052-1.409-1.487-.197-1.981-.534-2.356-1.605-.772-2.206.288-3.895 2.445-3.895 1.231 0 1.76-.225 1.76-.75 0-1.275-3.614-.975-4.913.407Zm19.949.16c-1.331 1.693-1.322 4.184.02 5.89.917 1.166 1.362 1.324 3.375 1.193 2.716-.175 3.106-1.075.571-1.316-1.942-.184-3.002-.853-3.002-1.895 0-.502.747-.689 2.75-.689 2.919 0 3.052-.14 2.219-2.332-.661-1.739-1.292-2.15-3.308-2.16-1.126-.006-1.89.376-2.625 1.31Zm8.487-.594c-1.078 1.3-.402 2.964 1.602 3.943 2.533 1.238 2.474 2.334-.125 2.334-1.444 0-2 .209-2 .75 0 .554.579.75 2.214.75 2.263 0 3.786-.92 3.786-2.285 0-.912-1.786-2.715-2.689-2.715-.379 0-.952-.317-1.274-.705-.716-.863-.016-1.421 1.872-1.495.692-.028 1.352-.33 1.466-.675.305-.917-4.083-.83-4.852.098Zm89.564.434c-1.525 1.624-1.49 4.79.07 6.256 1.226 1.152 3.307 1.41 4.824.598 2.241-1.2 2.249-6.317.012-7.515-1.603-.857-3.751-.568-4.906.661Zm8.241 1.468c1.878 6.367 3.033 7.403 4.179 3.75.96-3.058 1.2-3.129 1.954-.576.697 2.36 1.836 3.34 2.547 2.189.71-1.15 2.597-7.55 2.31-7.836-.75-.75-1.7.531-2.264 3.054-.346 1.544-.799 2.702-1.006 2.574-.208-.128-.677-1.481-1.043-3.006-.385-1.608-.939-2.774-1.317-2.774-.366 0-1.07 1.375-1.603 3.125l-.951 3.125-.899-3.125c-.67-2.328-1.126-3.125-1.79-3.125-.84 0-.846.15-.117 2.625Zm16.172 1.625c0 3.917.08 4.25 1 4.25s1-.333 1-4.25c0-3.916-.08-4.25-1-4.25s-1 .334-1 4.25Zm13.76-2.671c.2.92.8 2.865 1.35 4.324 1.23 3.327 2.24 3.282 3.39-.153l.84-2.5.87 2.625c1.38 4.17 2.37 3.58 4.19-2.5.94-3.153.95-3.375.13-3.375-.63 0-1.11.837-1.77 3.125l-.91 3.125-.97-3.125c-.53-1.718-1.25-3.125-1.59-3.125-.35 0-.93 1.238-1.3 2.774-.36 1.525-.82 2.873-1.02 2.996-.2.123-.68-1.067-1.06-2.645-.5-2.026-.97-2.92-1.61-3.043-.78-.15-.85.054-.54 1.497Zm14.11-.954c-1.39 1.057-1.97 3.3-1.34 5.201 1.45 4.404 7.47 3.134 7.47-1.576 0-2.319-1.68-4.25-3.69-4.25-.89 0-1.99.282-2.44.625Zm8.46-.291c-.18.183-.33 2.095-.33 4.25 0 3.148.15 3.916.75 3.916s.75-.722.75-3.5v-3.5h1.75c1.22 0 1.75-.226 1.75-.75 0-.551-.57-.75-2.17-.75-1.19 0-2.31.15-2.5.334Zm14.46.452c-1.44 1.438-.86 2.81 1.75 4.113 2.19 1.093 2 1.811-.53 2.005-1.35.103-2.01.392-2.01.875 0 .938 3.94.99 5.2.068 1.46-1.067.84-2.956-1.32-4.013-2.79-1.363-2.53-2.598.5-2.353.72.059 1.12-.186 1.12-.695 0-1.073-3.64-1.073-4.71 0ZM124.728 29.07l-1.228 1.227v28.591l1.228 1.227c1.227 1.227 1.227 1.227 12.022 1.227s10.796 0 12.023-1.227L150 58.888V30.297l-1.227-1.227c-1.227-1.228-1.228-1.228-12.023-1.228s-10.795 0-12.022 1.228Zm726.172-.128c.832.832.753 3.651-.122 4.377-.398.33-1.241.526-1.875.437-1.013-.144-1.172-.482-1.304-2.789-.149-2.588-.131-2.625 1.275-2.625.784 0 1.696.27 2.026.6Zm33.507.525c.133.701-.189.875-1.621.875-1.698 0-2.349-.77-1.429-1.69.667-.667 2.881-.075 3.05.815Zm97.993-.525c.832.832.753 3.651-.122 4.377-2.065 1.714-4.587-1.053-3.378-3.707.627-1.376 2.446-1.724 3.5-.67Zm52.13.726c1.04 2.75-1.29 5.327-3.31 3.651-.87-.726-.95-3.545-.12-4.377a2.07 2.07 0 0 1 3.43.726Zm146.22-.326c-.18.285.25.5 1 .5s1.18-.215 1-.5c-.17-.275-.62-.5-1-.5s-.83.225-1 .5Zm29.75 1.537c0 1.67.16 2.007.88 1.87 1.05-.202 1.43-2.183.6-3.184-1.02-1.223-1.48-.812-1.48 1.314Zm36.75-1.537c-.17.275.17.5.75.5s.92-.225.75-.5c-.17-.275-.51-.5-.75-.5s-.58.225-.75.5Zm-350.917 4.334c-.688.688-.297 1.666.667 1.666.666 0 1-.333 1-1 0-.963-.979-1.355-1.667-.666Zm308.267 288.27c-.96.954-.7 2.728.62 4.243 1.15 1.321 1.27 1.354 2.08.555.68-.673.77-1.175.4-2.44-.56-1.971-2.23-3.235-3.1-2.358Zm7.7 1.696c-.46 1.202.81 3.45 1.95 3.45 1.29 0 1.55-1.473.53-3.024-.92-1.404-2.03-1.594-2.48-.426ZM1026 348.209v7.986l-2.48-.237c-2.32-.223-2.58-.127-4.14 1.53-1.89 2.008-5.16 2.997-5.93 1.795-.3-.473-.13-.907.55-1.377 1.63-1.116 1.2-1.723-.97-1.377-1.13.181-2.1.103-2.28-.183-.17-.274-.77-.749-1.35-1.055-.94-.508-1.01-.447-.72.69.21.835.05 1.466-.49 1.91-.69.572-1.06.378-2.74-1.424-1.2-1.277-1.95-2.573-1.95-3.343 0-2.342-4.585-3.75-9.136-2.805-4.571.949-9.195 4.523-5.852 4.523.525 0 1.692.642 2.595 1.427 1.064.924 2.436 1.529 3.893 1.719 1.707.222 2.607.692 3.729 1.948 1.015 1.136 2.271 1.855 4.001 2.289 1.39.348 2.74.994 3.02 1.435 2.76 4.431 3.18 4.591 6.16 2.335 1.54-1.165 1.81-1.213 3.75-.66 2.67.763 3.26.762 5.12-.007.94-.389 2.24-.499 3.37-.287l1.85.347v114.454h3.75c2.65 0 3.76-.183 3.78-.625.01-.343.43-5.664.92-11.824.68-8.586 1.07-11.328 1.64-11.75.41-.303.65-.832.54-1.176-.12-.343.07-.625.41-.625.35 0 .48-.148.3-.329-.58-.573.73-1.671 1.99-1.671.67 0 1.77.559 2.46 1.242 1.16 1.163 1.39 1.208 3.71.713 2.23-.479 2.41-.618 1.88-1.46-.32-.512-.99-1.037-1.48-1.167-.5-.13-1.23-.988-1.62-1.907-.67-1.564-.65-1.726.38-2.535.6-.475 1.35-.869 1.66-.875.96-.018 2.83 1.769 2.91 2.782.04.526.5 1.632 1.02 2.457s.96 1.54.98 1.589c.02.049 1.57-.233 3.45-.627 1.87-.393 3.59-.604 3.81-.469.22.135.67-.089 1.01-.498.81-.965 2.95-.961 3.32.005.16.413.73.75 1.27.75s1.32-.337 1.73-.75c1-1.003 3.13-.956 3.53.078.2.524-.08 1.15-.76 1.703-1.75 1.413-1.6 2.964.41 4.342 1.46 1.003 2.24 1.174 4.74 1.039 2.46-.134 3.01-.017 3.15.671.1.511-.27.969-.96 1.189-1.06.336-1.02.412.72 1.305 1.02.521 1.85 1.064 1.85 1.208 0 .143-.9 3.84-2 8.215-1.1 4.376-2 8.19-2 8.478 0 .36 17.1.511 55.12.486l55.13-.036-3.93-.967c-7.82-1.921-14.32-6.135-14.32-9.288 0-1.618.72-2.768 2.22-3.557.78-.414 1.44-.149 3.51 1.415 4.87 3.678 11.81 6.152 18.9 6.747 2.56.214 4.45.636 4.99 1.111.96.833 1.18 2.865.38 3.361-1.42.88-.02 1.25 4.75 1.25s6.17-.37 4.75-1.25c-.8-.496-.58-2.528.38-3.36.5-.445 2.41-.911 4.56-1.114 7.44-.704 15.06-3.426 19.87-7.101 2.38-1.813 2.84-1.785 4.57.271 2.9 3.462-4.12 9.234-14 11.512l-4.13.952 14.37.045c7.91.025 14.37-.123 14.35-.33-.01-.206-1.77-3.39-3.91-7.075-3.46-5.975-4.1-6.786-5.86-7.5-2.88-1.17-3.2-1.469-3.19-2.954.01-1.891.49-2.457 2.72-3.198 1.47-.486 2.05-.999 2.33-2.055.59-2.24 1.38-2.843 3.72-2.843 2.58 0 3.71.962 3.73 3.161.01.894 2.05 6.184 4.66 12.089l4.64 10.5 4.85.143 4.84.143v-46.571c0-44.155-.05-46.553-.88-46.219-.48.195-3.34.983-6.37 1.752-9.25 2.349-19.42 2.948-20.1 1.182-.16-.43-1.06-.68-2.45-.68-3.38 0-2.81-1.178 1.33-2.761 1.94-.741 3.43-1.444 3.31-1.562-.11-.118-.8.056-1.53.386-2.67 1.217-1.83-.174 3.29-5.481 7.75-8.012 14.22-18.171 20.32-31.886 1.36-3.056 2.62-6.037 2.81-6.625l.34-1.071h-41.37l-.87 2.426c-2.34 6.482-9.26 15.759-16.16 21.636-5.37 4.582-8.77 6.645-10.3 6.27-.62-.15-1.56.051-2.09.448-2.14 1.59-2.46.107-.48-2.243.82-.981 1-1.43.5-1.235-1 .384-1.01-.328-.03-3.552 1.35-4.442 2.23-11.353 2.23-17.625v-6.125h-1.49c-1.8 0-1.42-1.469-4.22 16.198l-2.22 13.947 1.72 2.546c2.03 3.017 2.08 3.309.54 3.309-1.09 0-1.22.298-1.75 4.084-.32 2.246-.48 4.178-.37 4.294.42.42 9.13-4.44 12.49-6.97 1.89-1.428 6.96-6.119 11.25-10.423 6.66-6.678 8.12-7.905 9.96-8.361 3.82-.947 6.64.415 8.71 4.221 2.66 4.899 2.83 12.844.38 17.66-2.15 4.204-7.48 7.647-14.75 9.527-3.02.78-5.6 1.038-10.5 1.051-7.22.018-13.75-1.109-13.75-2.373 0-.495-.61-.71-2-.71-1.1 0-2.01.169-2.01.375-.01.207-.43 3.188-.94 6.625-.58 3.885-.74 6.366-.45 6.555.45.285.18 3.884-.45 6.162-.22.783.11.663 1.75-.636 3.58-2.834 6.35-3.785 11.1-3.808 5.56-.026 8.69 1.064 12.15 4.225 4.53 4.141 6.83 10.033 6.83 17.502 0 8.388-2.66 14.392-7.91 17.83-.1.065.07.839.37 1.719.68 1.951.21 2.659-2.32 3.494-1.61.532-1.89.488-2.62-.422-1-1.235-3.5-.994-3.5.338 0 1.353-1.06 2.041-3.14 2.041-1.7 0-2.02-.187-2.51-1.5-.31-.825-.84-1.5-1.17-1.5-.33 0-.95-.135-1.38-.301-.54-.206-.95.117-1.29 1.034-.41 1.068-.78 1.302-1.89 1.175-1.28-.147-1.39-.343-1.62-3.008-.23-2.602-.43-3.006-2.36-4.65-1.25-1.066-2.72-3.063-3.61-4.9-.95-1.947-1.51-2.697-1.52-2.016-.02 2.291-.46 2.654-2.81 2.332-2.2-.301-2.2-.299-2.2 1.266v1.568h-9.97c-6.11 0-10.09.194-10.28.5-.17.275-1 .5-1.86.5h-1.54l.33-6.875c.18-3.781.47-9.371.64-12.422l.32-5.547-2.7-.324c-1.48-.178-4.68-.325-7.12-.327l-4.42-.005.29 3.875c.15 2.132.43 7.869.6 12.75l.32 8.875h-1.81c-1.27 0-1.8-.222-1.8-.75 0-.588-.69-.75-3.17-.75-1.75 0-6.25-.147-10-.327-6.77-.325-6.83-.338-6.83-1.521v-1.193l-5.71.342-5.71.341-.29-2.196c-.63-4.719-1.2-13.765-.94-15.072.45-2.314-.35-8.874-1.08-8.874-.45 0-.75-1.143-.95-3.625-.94-11.249-.96-11.875-.32-11.875.48 0 .55-.951.27-4.125-.2-2.269-.44-7.461-.53-11.539-.09-4.078-.32-8.847-.51-10.598-.32-2.997-.42-3.201-1.79-3.501l-1.45-.318 4.69-6.084c2.57-3.347 4.92-6.085 5.22-6.085.61 0 11.1 10.183 11.1 10.773 0 .209-.71.626-1.57.927l-1.57.547.33 7.877c.18 4.332.35 11.533.39 16.002l.06 8.126 2.31-1.859c8.13-6.561 10.8-9.072 13.83-12.99 1.87-2.421 5.39-6.918 7.83-9.993l4.42-5.589-1.51-2.466c-.84-1.356-1.52-2.587-1.52-2.736 0-.391 3.05-1.397 3.46-1.142.19.118 2.36 3.156 4.82 6.751 13.38 19.558 12.98 19.051 18.36 23.629l5.11 4.357.32-2.607c.18-1.434.58-5.307.9-8.607.32-3.3.7-6.696.85-7.547.23-1.376.08-1.621-1.35-2.215l-1.61-.667 1.45-1.286c.8-.706 2.42-2.102 3.59-3.1l2.14-1.816 1.98-12.434c1.08-6.839 1.97-12.885 1.97-13.435.01-.995-.38-1.001-79.24-1.184l-79.25-.185v7.986Zm248.89-1.992c-1.79 2.067-1.41 6.125.58 6.125 1.85 0 3.15-3.903 2.01-6.033-.64-1.201-1.59-1.235-2.59-.092Zm7.99 5.68c-1.07.6-1.58 3.131-.9 4.416 1.19 2.209 3.02.608 3.02-2.634 0-1.848-.8-2.519-2.12-1.782Zm-873.255 9.798-1.125.217v31.43h4.977l.136-8.625.137-8.625 2.5-.146c4.495-.264 5.219 1.293 5.238 11.271l.012 6.125h5.085l-.168-8.375c-.146-7.328-.294-8.593-1.184-10.125-1.529-2.631-3.763-3.566-8.109-3.393l-3.627.143.002-5.125.001-5.125-1.375.068c-.757.038-1.882.166-2.5.285Zm130.25.005-1.375.209v31.433h5.5v-17.5h2.714c2.895 0 4.081.695 4.539 2.66.139.6.308 4.128.375 7.84l.122 6.75 2.669.153 2.668.153-.168-8.153c-.146-7.046-.308-8.418-1.194-10.107-1.514-2.886-3.676-3.871-8.101-3.692l-3.627.146.002-5.125.001-5.125-1.375.075c-.757.041-1.993.169-2.75.283Zm-383.397 1.419c-.962 1.159-.8 3.752.284 4.544 1.309.957 3.435.844 4.411-.235 1.093-1.208 1.051-3.228-.088-4.258-1.153-1.044-3.76-1.073-4.607-.051Zm147.801.335c-1.6 2.283-.282 4.888 2.471 4.888 1.859 0 3.25-1.406 3.25-3.284 0-2.566-4.219-3.749-5.721-1.604Zm68.821-.512c-.997.998-.75 4.285.367 4.883 2.49 1.332 5.033.077 5.033-2.483 0-.785-.353-1.782-.785-2.214-.928-.928-3.759-1.042-4.615-.186Zm137.249.29c-2.003 2.213-.319 5.313 2.726 5.02 3.7-.355 3.608-5.496-.104-5.809-1.237-.104-2.029.134-2.622.789ZM108.5 378.831v14.511H128v-4.472l-7.125-.139-7.125-.139v-8l5.875-.141 5.875-.14v-4.469h-12v-6.471l6.625-.139 6.625-.14v-4.5l-9.125-.136-9.125-.136v14.511Zm327.75-13.712c-.275.078-1.359.285-2.409.461l-1.908.32.158 11.346c.172 12.272.375 13.306 2.997 15.246 1.663 1.23 5.488 1.638 8.291.883 2.211-.596 2.519-1.249 1.819-3.86-.254-.947-.48-1.022-1.866-.625-2.422.695-3.738.546-4.832-.548-.884-.884-1-1.666-1-6.75v-5.75h7.5v-4.5h-7.5v-2.97c0-2.908-.242-3.539-1.25-3.253Zm87.322.388-2.678.428.197 11.329c.212 12.193.502 13.633 3.077 15.32 1.708 1.119 5.396 1.462 8.281.77 2.394-.574 2.528-.689 2.252-1.936-.687-3.104-.575-3.001-2.717-2.458-2.428.617-4.75-.183-5.179-1.784-.16-.596-.294-3.39-.298-6.209l-.007-5.125h7.5v-4.5h-7.455l-.147-3.131-.148-3.132-2.678.428Zm674.908 1.859-1.73 1.523 2.13-1.34c1.16-.737 2.12-1.422 2.12-1.523 0-.536-.98-.016-2.52 1.34Zm22.56 2.794c-1.22 1.551-1.35 3.096-.28 3.504 1.59.613 3.81-2.784 2.69-4.133-.81-.978-1.24-.867-2.41.629Zm-1047.29 1.408c-6.431 1.752-9.356 10.99-5.541 17.499 3.142 5.363 11.289 6.319 15.957 1.874 5.139-4.894 3.794-15.911-2.285-18.737-2.499-1.161-5.375-1.386-8.131-.636Zm91.368-.242c-2.551.614-5.37 2.744-6.415 4.847-.728 1.467-.953 2.999-.953 6.501 0 4.283.099 4.724 1.507 6.75 4.829 6.949 15.497 5.463 18.174-2.531 1.428-4.268.246-10.432-2.499-13.021-2.442-2.304-6.473-3.349-9.814-2.546Zm57.132-.03c-2.244.558-3.448 1.321-5.16 3.271-2.002 2.28-2.761 5.191-2.46 9.445.193 2.721.536 3.834 1.681 5.455 2.634 3.728 7.443 5.12 13.408 3.882l2.9-.602-.267-1.994c-.147-1.096-.343-2.067-.435-2.158-.092-.09-1.389.058-2.882.33-1.492.272-3.495.348-4.449.169-2.034-.381-4.586-2.726-4.586-4.213 0-1.002.247-1.039 7-1.039h7l-.003-2.125c-.003-2.693-.843-5.748-2.044-7.438-1.657-2.332-6.424-3.798-9.703-2.983Zm131.5-.004c-3.605.905-5.25 2.928-5.25 6.458 0 2.755 1.477 4.373 5.953 6.521 2.971 1.425 3.833 2.081 3.965 3.015.093.656-.132 1.384-.5 1.617-.96.609-5.49.536-7.369-.119-.88-.306-1.676-.475-1.768-.375-.092.101-.32 1.113-.508 2.25l-.342 2.067 2.593.622c3.159.758 8.207.418 10.365-.698 2.989-1.546 3.998-5.596 2.15-8.627-.626-1.026-1.965-2.024-3.872-2.885-4.749-2.144-5.402-2.54-5.564-3.377-.396-2.056 3.003-3.036 6.775-1.954 1.508.433 1.641.372 1.918-.875.163-.737.398-1.714.52-2.171.159-.592-.177-.908-1.171-1.098-2.956-.567-6.457-.732-7.895-.371Zm-320.125.61-1.625.469v20.971h5.5v-17.5h2.714c2.895 0 4.081.695 4.539 2.66.139.6.308 4.128.375 7.84l.122 6.75 2.669.153 2.668.153-.171-8.153c-.196-9.385-.695-11.032-3.877-12.821-1.615-.907-2.68-1.074-6.607-1.037-2.575.025-5.413.257-6.307.515Zm22.783 11.115c-.177 13.081-.24 13.325-3.446 13.325-1.787 0-1.938.116-2.239 1.718-.447 2.382-.037 2.782 2.856 2.782 3.552 0 5.841-1.218 6.974-3.712.816-1.797.926-3.438.936-13.913l.011-11.875h-4.934l-.158 11.675Zm32.914-11.292c-.376.609 2.259 8.32 5.121 14.987 1.726 4.021 2.516 6.47 2.304 7.139-.529 1.666-2.473 2.614-4.958 2.416-2.226-.177-2.231-.174-2.734 1.81-.628 2.474-.273 2.747 3.595 2.758 5.477.014 7.449-2.079 11.325-12.023 2.253-5.782 5.525-15.886 5.525-17.061 0-.254-1.181-.393-2.625-.31l-2.625.151-1.057 4c-.582 2.2-1.569 5.688-2.193 7.75l-1.135 3.75-.914-2.13c-.503-1.171-1.743-4.715-2.756-7.875l-1.841-5.745h-2.398c-1.318 0-2.504.173-2.634.383Zm35.428.056-1.5.32-.135 10.621-.135 10.62H228v-17.5h2.464c2.066 0 2.631.213 3.5 1.318.943 1.198 1.036 1.987 1.036 8.75v7.432h5.646l-.266-8.468c-.296-9.412-.429-9.032 3.149-9.032 3.204 0 3.688 1.255 3.892 10.102l.171 7.398h4.991l-.168-8.625c-.189-9.717-.595-11.134-3.593-12.557-2.186-1.038-6.714-1.053-9.267-.032-1.787.715-2.102.715-3.485 0-1.567-.81-8.2-1.013-11.32-.347Zm55.258-.064c.03 1.532 4.167 12.987 6.599 18.274l1.563 3.399 2.278-.149 2.279-.149 2.112-4.827c2.217-5.068 5.661-14.912 5.661-16.18 0-.963-4.938-1.075-5.208-.118-1.373 4.86-4.427 13.9-4.768 14.11-.245.152-1.532-3.1-2.86-7.226l-2.414-7.502-2.625-.004c-1.444-.001-2.621.166-2.617.372Zm24.216.264c-.135.351-.184 5.245-.109 10.875l.135 10.236 2.625.151 2.625.152v-22.053h-2.516c-1.58 0-2.606.238-2.76.639Zm45.901-.079-1.625.469v20.971h5.5v-17.5h2.715c2.894 0 4.08.695 4.538 2.66.139.6.308 4.128.375 7.84l.122 6.75 2.668.153 2.669.153-.171-8.153c-.197-9.385-.695-11.032-3.877-12.821-1.615-.907-2.68-1.074-6.607-1.037-2.575.025-5.413.257-6.307.515ZM373 382.342v11h5v-22h-5v11Zm15.741-10.335c-3.711 1.696-6.035 6.285-5.633 11.126.539 6.503 5.02 9.934 11.392 8.724 1.237-.236 2.333-.345 2.435-.245.42.416-.533 2.828-1.499 3.794-.915.915-1.489 1.012-4.862.82-2.103-.12-4.19-.381-4.638-.581-.614-.274-.895-.019-1.148 1.042a55.504 55.504 0 0 1-.586 2.25c-.34 1.145 2.472 1.899 7.099 1.902 5.604.005 8.552-1.425 10.014-4.856.923-2.166.998-23.389.085-23.953-1.188-.734-11.064-.752-12.659-.023Zm86.759-.254c0 .883 3.593 12.577 5.174 16.839l1.669 4.5 2.242.149 2.242.149 1.958-6.252c1.077-3.438 2.093-6.093 2.255-5.899.163.194 1.129 2.997 2.148 6.228l1.852 5.875h4.373l1.556-4.076c1.43-3.744 5.531-16.78 5.531-17.58 0-.189-1.197-.344-2.659-.344h-2.658l-.86 3.625c-1.507 6.351-3.21 11.65-3.494 10.875-.403-1.101-2.174-7.509-2.556-9.25-1.137-5.184-1.177-5.25-3.199-5.25h-1.887l-1.901 7.125c-1.045 3.919-2.054 7.293-2.242 7.499-.312.342-4.044-12.585-4.044-14.008 0-.413-.906-.616-2.75-.616-1.513 0-2.75.185-2.75.411Zm34.5 10.563v11.026h5.519l-.134-10.875-.135-10.875-2.625-.151-2.625-.151v11.026Zm-331.255-6.258c2.267.947 3.41 3.573 3.127 7.18-.668 8.502-9.872 7.808-9.872-.745 0-3.335 1.071-5.511 3.158-6.419 1.973-.858 1.575-.857 3.587-.016Zm91.663.445c2.121 1.664 2.888 7.349 1.385 10.257-1.572 3.039-6.068 3.299-7.8.451-3.232-5.315-.222-12.558 4.757-11.447.55.122 1.296.455 1.658.739Zm56.056-.429c1.471.761 2.036 1.678 2.036 3.309 0 .87-.394.959-4.25.959-3.718 0-4.249-.109-4.239-.875.02-1.589 2.669-4.069 4.389-4.11.357-.008 1.286.314 2.064.717Zm69.745-.428c.654.251.791 1.239.791 5.689v5.386l-1.491.618c-2.058.852-4.738.256-5.987-1.333-2.126-2.703-.826-8.971 2.106-10.149 1.332-.536 3.478-.635 4.581-.211Zm828.811.663c-.65 1.212-.67 2.384-.04 2.772.69.428 2.52-1.557 2.52-2.739 0-1.315-1.78-1.338-2.48-.033Zm44.1 8.364c-.49.2-.62 10.569-.62 49.496v49.243l1.12-.16 1.13-.16.13-49.375c.13-51.162.18-49.823-1.76-49.044Zm-78.12 1.169c-.91.591-.12.591 1.25 0 .66-.283.74-.439.25-.457-.41-.015-1.09.191-1.5.457Zm51 2.5-1.75.369 2.13.065c1.16.037 2.12-.159 2.12-.434s-.17-.47-.38-.434c-.2.036-1.16.232-2.12.434Zm17.5 6.951c0 .248-.62.675-1.38.949-.75.274-1.76.658-2.24.853-1.63.658-.91-.735.74-1.461 1.94-.845 2.88-.957 2.88-.341Zm-126.5 3.745v2.804h6.3l-.21-1.767c-.17-1.472-.5-1.891-1.99-2.514-4.03-1.681-4.1-1.655-4.1 1.477Zm22.5-1.097c-3.62 1.682-3.98 2.051-3.99 4.017-.01 1.543.36 1.683 5.37 2.056l3.12.233v-3.952c0-2.852-.17-3.941-.62-3.91-.35.024-2.09.724-3.88 1.556Zm96.67-.069c-1.87 1.869-22.67 2.781-22.67.994 0-.193 2.98-.265 6.62-.159 4.42.128 7.88-.046 10.38-.52 4.86-.924 6.36-1.007 5.67-.315Zm-373.808 2.447c-6.218 1.987-12.697 7.603-16.715 14.488-1.044 1.788-3.08 4.608-4.525 6.268-3.309 3.798-6.081 9.026-6.453 12.169-.339 2.86.562 4.982 2.786 6.566.945.673 1.77 1.952 2.313 3.585 1.769 5.327 6.299 8.45 12.824 8.841 6.722.404 15.086-1.252 18.695-3.701 1.063-.722 3.016-1.634 4.34-2.027 3.102-.921 6.873-4.408 6.873-6.355 0-1.942-1.224-4.05-3.25-5.595-1.43-1.091-1.889-1.223-2.495-.72-.99.822-2.255.28-2.255-.967 0-.607-.587-1.307-1.485-1.771-3.282-1.697-4.281-3.941-2.736-6.146 1.166-1.666 3.751-1.494 5.898.391l1.712 1.503.806-2.013c.843-2.106 1.008-5.544.347-7.234-.254-.651-.071-1.507.534-2.5 1.042-1.709 1.145-2.259.424-2.259-.275 0-.5.303-.5.673 0 .37-.45 1.08-1 1.577-.872.789-1 .803-1 .106 0-.439.428-1.543.951-2.452.524-.91 1.132-2.441 1.351-3.404l.399-1.75.333 1.75.335 1.75.054-1.75c.175-5.583-5.594-10.034-12.923-9.97-1.513.013-4.05.439-5.638.947Zm95.801 2.54c-1.147.23-2.799.786-3.669 1.237-1.479.764-1.53.877-.775 1.712.766.846.651.907-2.184 1.164-1.769.161-3.854.751-5.102 1.446-2.198 1.223-3.067 2.424-1.754 2.424 1.467 0 1.337.975-.463 3.481-2.376 3.307-3.716 6.929-3.716 10.045 0 2.561 1.228 5.711 2.705 6.936.689.573.693.765.036 1.703-.407.582-.737 1.626-.733 2.322.008 1.229.038 1.218 1.073-.399 1.155-1.804 1.887-1.456 1.922.912.024 1.62 1.586 5.04 2.74 6 .496.413 2.943 1.462 5.437 2.333 4.016 1.401 4.681 1.506 5.812.922.702-.363 1.864-.548 2.583-.411 1.262.242 1.326.136 1.896-3.141.437-2.505.975-3.829 2.06-5.065 1.913-2.178 1.853-2.909-.326-3.943-2.317-1.099-3.626-3.624-2.809-5.418 1.046-2.294 4.341-2.313 6.794-.039.749.694 1.453 1.262 1.565 1.262.113 0 .457-.843.766-1.875.456-1.523.406-2.297-.263-4.125-1.392-3.799-1.424-4-.644-4 1.002 0 2.386-1.62 2.384-2.789-.002-.725-.245-.562-.993.664-.545.894-1.069 1.625-1.165 1.625-.096 0 .156-1.293.56-2.875.871-3.408.328-6.182-1.675-8.563-2.42-2.876-7.68-4.422-12.062-3.545Zm-763.048 7.504c-2.612.366-4.581 1.744-5.739 4.015-.766 1.503-.874 3.332-.875 14.839l-.001 13.125h5v-17.5h8.057l-.153-2.125-.154-2.125-3.875-.146-3.875-.146v-1.411c0-.777.485-2.029 1.079-2.784.999-1.271 1.293-1.356 3.989-1.161l2.911.21.424-2.031c.233-1.117.38-2.096.324-2.176-.3-.433-5.278-.842-7.112-.584Zm99.76.337-1.375.209v9.818l-3.207-.257c-3.95-.317-5.266-.007-7.326 1.726-2.395 2.016-3.443 4.757-3.456 9.037-.029 9.638 5.894 13.222 17.864 10.812l1.625-.328v-31.375l-1.375.075c-.757.041-1.993.169-2.75.283Zm-73.089 1.428c-.432.432-.786 1.429-.786 2.214 0 1.761 1.164 3 2.818 3 2.274 0 3.182-.856 3.182-3 0-1.431-.263-2.105-.967-2.482-1.411-.755-3.346-.633-4.247.268Zm967.944 6.442c-1.08 1.079-1.23 1.667-1.23 4.888 0 4.501.77 5.884 3.27 5.884 1.38 0 1.85-.278 2.47-1.475 1.57-3.032.63-9.394-1.51-10.214-1.31-.501-1.71-.379-3 .917Zm-308.387.123c-.171.276-.015.907.347 1.401.386.528.785.692.967.398.171-.276.015-.907-.347-1.402-.386-.527-.785-.692-.967-.397Zm289.887.668c-1.15 1.279-1.58 6.165-.75 8.678.61 1.828 1.92 2.588 3.84 2.218 2.68-.516 3.07-9.805.48-11.532-1.02-.679-2.64-.39-3.57.636Zm-1051.112.965c-2.552.614-5.37 2.744-6.415 4.847-.728 1.467-.953 2.999-.953 6.501 0 4.283.099 4.724 1.507 6.75 4.829 6.949 15.497 5.463 18.174-2.531 1.428-4.268.246-10.432-2.499-13.021-2.442-2.304-6.473-3.349-9.814-2.546Zm120.132-.257c-.275.102-1.124.324-1.887.492-.764.169-2.269 1.102-3.346 2.075-5.33 4.815-4.394 15.629 1.629 18.823 1.669.885 2.931 1.116 6.104 1.118 5.707.004 6.752-.364 6.742-2.369-.012-2.572-.384-2.812-3.492-2.25-3.819.692-6.716-.127-8.021-2.266-1.716-2.814-1.641-2.85 6.021-2.85h7l-.022-2.625c-.037-4.421-1.622-7.648-4.483-9.128-1.312-.678-5.379-1.343-6.245-1.02Zm69 .219c-3.849.977-5.25 2.678-5.25 6.377 0 2.204.222 2.822 1.453 4.053.798.798 2.542 1.865 3.875 2.369 4.417 1.672 5.648 3.079 4.072 4.655-.755.755-5.232.781-7.351.042-.88-.306-1.691-.467-1.802-.356-.111.111-.348 1.117-.527 2.235l-.324 2.034 2.273.573c4.987 1.255 9.761.494 12.081-1.927 1.181-1.233 1.443-1.942 1.443-3.907 0-3.326-1.007-4.509-5.82-6.844-4.323-2.096-5.293-3.341-3.582-4.592 1.075-.786 4.115-.859 5.996-.144 1.655.63 1.732.559 2.064-1.92.251-1.872.183-2.005-1.167-2.272-2.989-.591-5.988-.743-7.434-.376Zm-219.75.692c0 1.291 3.115 10.097 5.346 15.112 1.224 2.75 2.333 5.25 2.466 5.555.133.305-.366 1.277-1.108 2.158-1.232 1.465-1.568 1.592-3.888 1.469l-2.54-.135-.451 1.908c-.59 2.497.01 2.881 4.186 2.681 4.525-.216 5.962-1.341 8.496-6.649 2.195-4.6 8.075-21.7 7.681-22.338-.136-.219-1.35-.399-2.698-.399h-2.452l-.543 2.125c-1.541 6.035-3.669 12.875-4.005 12.875-.345 0-2.866-6.814-4.623-12.5l-.695-2.25-2.586-.151c-1.938-.113-2.586.022-2.586.539Zm48.593 8.077c.142 7.882.256 8.847 1.188 10.094 2.146 2.87 3.453 3.441 7.88 3.441 2.249 0 5.158-.182 6.464-.405l2.375-.406v-21.439h-5v17.481l-1.253.315c-1.859.466-4.482-.174-5.554-1.356-.822-.907-.964-2.034-1.103-8.741l-.16-7.699h-4.994l.157 8.715Zm25.782-8.113-1.875.498v20.953l2.625-.152 2.625-.151.137-8.665.137-8.666 3.511.166c3.398.16 3.52.125 3.78-1.085.148-.687.37-1.569.494-1.96.124-.39-.064-.893-.417-1.117-.882-.559-8.717-.432-11.017.179Zm43 0-1.875.498v20.9h5v-17.609l3.725.188 3.727.188.314-1.865c.174-1.026.172-2.098-.004-2.383-.404-.654-8.343-.593-10.887.083Zm14.625 10.398v11h5v-22h-5v11Zm36.75-10.561-1.5.32-.135 10.621-.135 10.62h5.02v-17.5h2.655c1.46 0 3.047.288 3.527.639 1.296.947 1.793 3.901 1.806 10.736l.012 6.125h5.085l-.168-8.375c-.146-7.328-.294-8.593-1.184-10.125-1.567-2.697-3.686-3.509-8.983-3.44-2.475.032-5.175.203-6 .379Zm716.258-.064c.004.207.217.706.473 1.111.576.911 1.252.341.847-.714-.299-.779-1.334-1.09-1.32-.397Zm-90.704 4.474c.44 1.832.534 1.908 1.428 1.166.861-.715.647-1.277-.776-2.038-.902-.483-.958-.406-.652.872Zm-758.396.312c2.121 1.664 2.888 7.349 1.384 10.257-1.571 3.039-6.067 3.299-7.799.451-3.232-5.315-.222-12.558 4.757-11.447.55.122 1.296.455 1.658.739Zm117.786-.682c1.337.508 3.05 3.222 2.547 4.036-.389.629-8.741.637-8.741.009 0-1.116 1.172-2.898 2.413-3.668 1.565-.97 2.084-1.022 3.781-.377Zm49.478.652c.748.547.843 1.423.72 6.625l-.142 5.994-2.688-.025c-2.359-.021-2.857-.214-4.072-1.574-2.406-2.692-2.387-8.254.036-10.677 1.136-1.136 4.782-1.34 6.146-.343Zm684.013.123c.212.548.51 1.615.662 2.371.306 1.514.99 1.72 2.367.714.838-.613.746-.786-1.255-2.371-1.679-1.33-2.074-1.489-1.774-.714Zm-93.185 5.379c0 .44-.45.943-1 1.117-.617.196-1 .757-1 1.462 0 .939.258 1.135 1.435 1.091 1.376-.051 1.424-.134 1.181-2.053-.263-2.08-.616-3.005-.616-1.617Zm297.12 3.477c-2.21 1.07-1.22 1.64 2.88 1.654 2.2.007 4-.149 4-.347 0-.198-.5-.71-1.11-1.138-1.27-.888-4.1-.97-5.77-.169Zm-205.12.835c-.936.258-1.288.732-1.402 1.886-.142 1.442-.061 1.524 1.25 1.281 1.614-.3 2.133-.903 2.144-2.487.008-1.195-.051-1.216-1.992-.68Zm-650.486 1.146c-1.574.585-1.997 1.27-2.006 3.256-.005 1.089.346 1.844 1.104 2.375 2.398 1.68 5.388.336 5.388-2.423 0-2.49-2.194-4.059-4.486-3.208Zm722.026 3.701c.89 1.082.07 2.325-1.96 2.937-.87.263-1.58.78-1.58 1.15 0 .897-3.07 2.141-4.41 1.789-.59-.154-1.38-.904-1.76-1.666-.64-1.27-.59-1.518.54-2.961 1.04-1.339 1.52-1.558 3.17-1.461 1.06.063 2.09-.042 2.28-.233.64-.642 3.05-.354 3.72.445Zm152.07 3.333c.62.484.87 2.043 1.14 6.909l.34 6.284-1.88 1.653c-2.26 1.986-3.68 2.61-9.23 4.06-2.76.721-5.85 1.126-8.9 1.163-5.22.063-5.19.079-8.2-4.744-.76-1.21-2.17-3.173-3.13-4.364-1.31-1.624-1.75-2.637-1.75-4.063 0-2.613.86-3.216 3.03-2.131 1.39.695 1.97 1.506 3.08 4.258 2.3 5.759 4.63 8.078 4.98 4.975.13-1.133.44-1.402 1.72-1.527 1.33-.129 1.62.046 1.9 1.158.44 1.769 2.47 1.578 2.7-.256.35-2.705 3.34-3.399 4.25-.985.83 2.199 2.09 1.743 2.09-.756 0-1.598.24-2.106 1.3-2.697 1.57-.886 2.95-.455 2.95.923 0 .569.33 1.015.75 1.015.49 0 .75-.493.75-1.437 0-.79-.34-2.394-.75-3.563-.99-2.812-.95-3.613.29-5.182 1.17-1.494 1.45-1.569 2.57-.693Zm-70.77 1.699c3.4.265 4.12.473 4.32 1.247.23.88-.23.929-8.74.929-9.24 0-9.23.003-7.78-1.875.54-.697 5.53-.82 12.2-.301Zm90.78 2.551c2.36 2.468 2.57 3.864 1.02 6.535-2.04 3.487-8.42 9.655-12.39 11.983-1.92 1.127-5.3 2.679-7.5 3.449-3.8 1.33-4.43 1.399-12.5 1.364-9.95-.043-18.01-1.263-26.06-3.947-7.94-2.649-10.66-4.658-10.68-7.906-.02-1.647 2.25-3.353 4.45-3.353 2.12 0 2.53.29 4.07 2.886 3.01 5.084 13.81 8.021 27.47 7.471 7.37-.296 10.47-1.012 15.16-3.494 4.63-2.452 7.99-7.144 8.67-12.127.24-1.771.62-2.425 1.86-3.221 2.29-1.466 4.83-1.324 6.43.36Zm-96.82 8.5c.37.481.68 1.044.68 1.25.01.207-4.35.375-9.68.375-9.37 0-9.7-.033-9.45-.974.3-1.161 1.47-1.313 11.09-1.438 5.86-.077 6.78.022 7.36.787Zm12.66 12.078 1.21.93-1.96.287c-1.08.158-7.53.434-14.33.615l-12.37.327.55-1.556.54-1.556 12.57.011c11.49.011 12.68.092 13.79.942ZM153 484.592v2.25h-2.173c-2.575 0-3.731 1.023-4.162 3.68-.357 2.199.515 4.48 2.019 5.285.615.329 2.231.528 3.592.442l2.474-.157.139-6.875c.134-6.619.102-6.875-.875-6.875-.868 0-1.014.323-1.014 2.25Zm8.833-1.916c-.42.42-.439 9.514-.024 11.589.337 1.685 1.911 2.561 2.867 1.596.433-.439.359-.702-.301-1.075-.757-.427-.875-1.299-.875-6.469 0-4.646-.149-5.975-.667-5.975-.367 0-.817.15-1 .334ZM247 489.342c0 5.889.119 7 .75 7 .604 0 .75-.778.75-4v-4h1.4c2.125 0 2.6.84 2.6 4.6 0 3.124.085 3.4 1.053 3.4.999 0 1.043-.207.869-4.044-.211-4.635-.815-5.456-4.018-5.456H248.5v-2.25c0-1.666-.195-2.25-.75-2.25-.631 0-.75 1.111-.75 7Zm-42.832-5.716c-.417 1.086.641 2.107 1.398 1.35.64-.64.244-2.134-.566-2.134-.292 0-.667.353-.832.784Zm82.387-.1c-.432.521-.382.837.21 1.329.961.797 1.91.025 1.448-1.179-.388-1.012-.904-1.059-1.658-.15Zm-178.941.404c-1.225.62-1.796 2.109-1.53 3.986.121.858.876 1.514 2.794 2.426 2.795 1.33 3.613 2.556 2.555 3.831-.493.593-1.225.715-3.027.501-1.441-.17-2.508-.072-2.706.249-.528.853.861 1.403 3.563 1.412 3.248.009 4.737-.994 4.737-3.194 0-1.85-.761-2.685-3.875-4.251-3.439-1.729-2.354-4.617 1.338-3.559 1.247.358 1.651.296 1.875-.288.157-.409.183-.846.059-.97-.557-.558-4.758-.661-5.783-.143ZM1106 485.056c0 1.256.35 1.991 1.32 2.75 1.3 1.028 1.63 1.036 39.5 1.036 37.51 0 38.2-.017 39.18-1 .62-.619 1-1.666 1-2.75v-1.75h-81v1.714Zm-908.667-.88c-.636.635-.367 10.429.312 11.357.828 1.132 4.605.976 4.605-.191 0-.497-.39-.695-1.155-.588-1.884.263-2.595-.756-2.595-3.723v-2.689h1.75c1.222 0 1.75-.226 1.75-.75s-.528-.75-1.75-.75c-1.611 0-1.75-.119-1.75-1.5 0-1.433-.45-1.883-1.167-1.166ZM116 493.379c0 5.955.078 6.522.875 6.371.576-.109.929-.719 1.032-1.787.145-1.503.291-1.622 2-1.637 2.297-.019 3.495-.899 4.1-3.01.581-2.024.18-3.874-1.16-5.349-.836-.921-1.549-1.125-3.934-1.125H116v6.537Zm12.115-6.202c-.909.366-2.115 2.888-2.115 4.423 0 3.029 1.816 4.704 5.125 4.726 1.948.013 2.375-.143 2.375-.872 0-.728-.345-.855-1.919-.705-2.003.191-3.581-.775-3.581-2.192 0-.545.759-.715 3.197-.715h3.198l-.398-1.764c-.219-.97-.673-2.095-1.009-2.5-.586-.706-3.515-.947-4.873-.401Zm8.718-.001c-.183.183-.333 2.32-.333 4.75 0 4.083.076 4.416 1 4.416.916 0 1-.333 1-4v-4h1.4c2.125 0 2.6.84 2.6 4.6 0 3.137.082 3.4 1.066 3.4 1.014 0 1.054-.181.825-3.753-.31-4.834-1.047-5.747-4.635-5.747-1.424 0-2.74.15-2.923.334Zm31.057.198c-1.268.739-2.079 4.207-1.425 6.084.743 2.13 1.913 2.85 4.66 2.868 1.948.013 2.375-.143 2.375-.872 0-.726-.345-.855-1.885-.708-1.41.134-2.115-.075-2.799-.831-1.36-1.502-.602-2.073 2.753-2.073h3.01l-.345-1.625c-.19-.893-.692-2.018-1.117-2.5-.854-.968-3.821-1.163-5.227-.343Zm8.836.685c-1.06 1.617-.341 2.949 2.323 4.308 2.529 1.291 2.287 2.214-.593 2.263-1.557.027-2.206.248-2.206.75 0 .937 4.528 1.269 5.564.409.433-.359.675-1.243.586-2.142-.117-1.194-.589-1.776-2.15-2.648-2.53-1.415-2.576-2.359-.125-2.562 1.227-.101 1.875-.404 1.875-.875 0-.519-.624-.72-2.238-.72-1.82 0-2.388.228-3.036 1.217Zm8 0c-1.06 1.617-.341 2.949 2.323 4.308 2.529 1.291 2.287 2.214-.593 2.263-1.557.027-2.206.248-2.206.75 0 .937 4.528 1.269 5.564.409.433-.359.675-1.243.586-2.142-.117-1.194-.589-1.776-2.15-2.648-2.53-1.415-2.576-2.359-.125-2.562 1.227-.101 1.875-.404 1.875-.875 0-.519-.624-.72-2.238-.72-1.82 0-2.388.228-3.036 1.217ZM204 491.592c0 4.417.07 4.75 1 4.75.93 0 1-.333 1-4.75 0-4.416-.07-4.75-1-4.75-.93 0-1 .334-1 4.75Zm5 .025c0 3.867.136 4.725.75 4.725.604 0 .75-.781.75-4.031v-4.032l1.605.157c1.854.181 2.266 1.108 2.345 5.281.037 1.944.239 2.625.779 2.625.564 0 .762-.88.875-3.875.144-3.814.167-3.877 1.521-4.033 1.712-.197 2.375 1.252 2.375 5.191 0 2.082.175 2.717.75 2.717.598 0 .75-.737.75-3.638 0-5.531-.26-5.746-6.99-5.782l-5.51-.03v4.725Zm16.132-3.65c-1.728 1.865-1.682 5.371.095 7.148.929.929 1.759 1.227 3.417 1.227 2.354 0 2.917-.26 2.562-1.186-.138-.358-.982-.516-2.155-.404-1.557.148-2.081-.034-2.719-.945-.434-.62-.674-1.316-.531-1.546.142-.23 1.594-.419 3.228-.419 2.669 0 2.971-.105 2.971-1.033 0-1.176-.883-3.039-1.7-3.584-1.208-.807-4.12-.388-5.168.742Zm14.095.103c-.947.946-1.227 1.752-1.227 3.522 0 3.176 1.566 4.75 4.727 4.75 1.687 0 2.273-.193 2.273-.75 0-.521-.524-.75-1.714-.75-2.572 0-3.605-1.332-3.295-4.25.166-1.557.932-2.181 2.883-2.347 2.786-.237 2.699-1.403-.105-1.403-1.791 0-2.592.278-3.542 1.228Zm19.388-.893c-.909.366-2.115 2.888-2.115 4.423 0 2.811 1.816 4.702 4.538 4.726 3.039.027 4.942-3.067 3.97-6.457-.259-.902-.872-1.944-1.364-2.317-.876-.665-3.773-.881-5.029-.375Zm10.241.375c-.492.373-1.105 1.415-1.364 2.317-.972 3.39.931 6.484 3.97 6.457 2.722-.024 4.538-1.915 4.538-4.726 0-1.659-1.218-4.042-2.272-4.447-1.368-.525-3.931-.315-4.872.399Zm9.37.507c-1.059 1.617-.341 2.949 2.323 4.308 2.529 1.291 2.287 2.214-.593 2.263-1.557.027-2.206.248-2.206.75 0 .937 4.528 1.269 5.565.409.433-.359.674-1.243.586-2.142-.118-1.194-.59-1.776-2.151-2.648-2.53-1.415-2.576-2.359-.125-2.562 1.227-.101 1.875-.404 1.875-.875 0-.519-.624-.72-2.238-.72-1.82 0-2.388.228-3.036 1.217Zm8.274 3.533c0 3.889.136 4.75.75 4.75s.75-.861.75-4.75c0-3.889-.136-4.75-.75-4.75s-.75.861-.75 4.75Zm4.5 0c0 3.889.136 4.75.75 4.75.604 0 .75-.778.75-4v-4h1.72c.947 0 1.86.225 2.03.499.169.275.44 2.075.602 4 .207 2.468.493 3.501.971 3.501 1.016 0 .932-6.913-.102-8.388-.655-.937-1.246-1.112-3.75-1.112H291v4.75Zm11.108-3.614c-.806.857-1.108 1.794-1.108 3.434 0 2.897 1.457 4.43 4.211 4.43 1.524 0 1.836.156 1.592.791-.167.435-.303.885-.303 1 0 .115-1.125.209-2.5.209-1.788 0-2.5.196-2.5.688 0 .943 2.513 1.366 4.634.78 2.383-.658 2.942-2.225 2.762-7.747l-.146-4.471-2.767-.146c-2.368-.126-2.927.023-3.875 1.032Zm-180.387 1.476c1.607 2.294.279 5.572-2.145 5.292-1.259-.146-1.334-.313-1.475-3.279l-.149-3.125h1.496c.978 0 1.764.384 2.273 1.112Zm10.244-.177c.665 1.243.244 1.565-2.048 1.565-1.239 0-1.917-.229-1.917-.65 0-1.827 3.094-2.542 3.965-.915Zm20.934 2.44c.148 3.104.14 3.125-1.211 3.125-1.823 0-3.188-1.331-3.188-3.11 0-2.423.845-3.47 2.658-3.294 1.585.154 1.593.169 1.741 3.279Zm19.083-2.647c.876 1.057.199 1.772-1.678 1.772-2.012 0-2.416-.357-1.769-1.565.595-1.112 2.596-1.232 3.447-.207Zm57.418-.128c1.186 1.187.661 1.9-1.4 1.9-1.308 0-2-.225-2-.65 0-.893 1.034-1.85 2-1.85.44 0 1.07.27 1.4.6Zm33.186.228c1.119 1.013 1.18 3.069.135 4.561-1.493 2.131-4.221.866-4.221-1.957 0-3.142 2.049-4.448 4.086-2.604Zm10.897.139c1.272 2.378.137 5.533-1.991 5.533-1.17 0-2.492-1.828-2.492-3.447 0-2.601 3.368-4.168 4.483-2.086Zm33.417 1.908c-.141 2.695-.234 2.885-1.477 3.029-1.392.161-2.923-1.36-2.923-2.904 0-1.522 1.504-3 3.053-3h1.497l-.15 2.875Zm4.7 3.225c-.744.744-.164 1.9.953 1.9.596 0 .947-.351.947-.946 0-1.118-1.156-1.698-1.9-.954Zm739.15 26.156c-12.96 1.509-12.08 1.627 12 1.631l23.5.003-3.75-.979c-5.03-1.312-22.93-1.682-31.75-.655Zm52.25 38.063v19.068l3.58 4.682c6.79 8.888 10.94 13.931 11.46 13.931.29 0 2.81-1.839 5.62-4.087 2.8-2.249 5.18-4.154 5.28-4.234.11-.081-3.75-7.41-8.58-16.288-4.82-8.877-10.7-19.741-13.06-24.141l-4.29-8-.01 19.069Zm43.06 38.686c-2.55 1.723-4.9 2.466-8.06 2.548-2.15.056-2.42.242-6.15 4.239l-3.9 4.181 2.54 3.764c1.54 2.275 2.88 3.758 3.4 3.75.47-.007 2.32-1.716 4.11-3.798 1.79-2.081 5.22-5.59 7.63-7.796 4.52-4.135 5.36-5.544 4.4-7.346-.75-1.384-1.36-1.313-3.97.458Zm-30.56 2.078c-.69.27-2.67.482-4.42.472-3.08-.018-3.23.042-5.62 2.282l-2.46 2.3v5.082c0 5.126.36 6.281 1.95 6.281.41 0 3.24-2.419 6.29-5.375s6.32-5.974 7.27-6.707l1.74-1.332-1.75-1.747c-1.52-1.514-1.92-1.681-3-1.256Zm-273.125 23.79c-5.653.169-6.393.551-4.461 2.3.774.7 2.193.827 9.222.827 8.017 0 8.334-.038 9.085-1.111 1.803-2.574 2.316-2.499-13.846-2.016Zm156.5 0c-5.653.169-6.393.551-4.461 2.3.774.7 2.193.827 9.226.827 8.01 0 8.33-.038 9.08-1.111 1.8-2.574 2.32-2.499-13.845-2.016Zm-118.375.516c0 .214.351.889.779 1.5.752 1.074 1.063 1.111 9.213 1.111 7.003 0 8.57-.133 9.222-.785.432-.433.786-1.108.786-1.5 0-.596-1.667-.715-10-.715-5.5 0-10 .175-10 .389Zm196 0c0 .214.35.889.78 1.5.75 1.073 1.06 1.111 9.17 1.111 7.5 0 8.48-.097 9.22-.914 1.78-1.968 1.27-2.086-9.17-2.086-5.5 0-10 .175-10 .389Zm362.59 107.861c-.47 1.027-.44 1.25.17 1.25.46 0 .74-.48.74-1.25 0-.687-.08-1.25-.17-1.25-.09 0-.43.563-.74 1.25ZM0 731.759c0 .666.313 1.083.811 1.083.695 0 .715-.126.141-.875a44.675 44.675 0 0 1-.81-1.083c-.078-.115-.142.279-.142.875Z" clip-rule="evenodd"/>
</svg>
